# Flood surface over S2, generated by tools/layout_world.py: a ragged, star-shaped pool fanned
# from its low point at (102, 50); the shoreline wanders like real standing water.
vn 0 0 1
v 102.0 50.0 0
vt 12.750 6.250
v 181.19 50.00 0
vt 22.649 6.250
v 186.99 52.41 0
vt 23.374 6.551
v 190.90 55.05 0
vt 23.862 6.882
v 192.74 57.79 0
vt 24.093 7.224
v 193.37 60.57 0
vt 24.171 7.572
v 193.81 63.46 0
vt 24.226 7.932
v 194.37 66.52 0
vt 24.296 8.315
v 194.38 69.67 0
vt 24.298 8.709
v 192.77 72.63 0
vt 24.096 9.079
v 188.92 75.08 0
vt 23.615 9.385
v 183.25 76.92 0
vt 22.907 9.615
v 177.03 78.41 0
vt 22.129 9.802
v 171.57 80.04 0
vt 21.446 10.005
v 167.38 82.19 0
vt 20.922 10.274
v 163.95 84.86 0
vt 20.494 10.608
v 160.15 87.58 0
vt 20.019 10.948
v 155.05 89.68 0
vt 19.382 11.210
v 148.49 90.71 0
vt 18.561 11.339
v 141.05 90.71 0
vt 17.631 11.339
v 133.56 90.14 0
vt 16.694 11.268
v 126.54 89.55 0
vt 15.817 11.193
v 120.04 89.15 0
vt 15.005 11.144
v 113.81 88.75 0
vt 14.227 11.094
v 107.75 87.91 0
vt 13.469 10.989
v 102.00 86.40 0
vt 12.750 10.800
v 96.77 84.47 0
vt 12.096 10.558
v 92.02 82.73 0
vt 11.503 10.341
v 87.34 81.83 0
vt 10.917 10.229
v 82.17 81.96 0
vt 10.271 10.245
v 76.28 82.71 0
vt 9.535 10.339
v 70.05 83.30 0
vt 8.757 10.413
v 64.26 83.05 0
vt 8.032 10.381
v 59.55 81.75 0
vt 7.443 10.219
v 55.95 79.76 0
vt 6.994 9.970
v 52.84 77.67 0
vt 6.605 9.708
v 49.41 75.89 0
vt 6.176 9.487
v 45.32 74.47 0
vt 5.665 9.309
v 40.98 73.11 0
vt 5.123 9.138
v 37.22 71.47 0
vt 4.652 8.933
v 34.56 69.46 0
vt 4.320 8.682
v 32.67 67.28 0
vt 4.084 8.411
v 30.48 65.23 0
vt 3.810 8.154
v 26.91 63.43 0
vt 3.363 7.929
v 21.77 61.76 0
vt 2.721 7.720
v 16.15 59.93 0
vt 2.019 7.492
v 11.87 57.74 0
vt 1.483 7.218
v 10.38 55.21 0
vt 1.298 6.901
v 11.91 52.55 0
vt 1.489 6.569
v 15.28 50.00 0
vt 1.909 6.250
v 18.67 47.64 0
vt 2.334 5.955
v 20.79 45.38 0
vt 2.599 5.673
v 21.56 43.09 0
vt 2.694 5.386
v 21.89 40.73 0
vt 2.736 5.091
v 22.89 38.40 0
vt 2.861 4.800
v 24.94 36.22 0
vt 3.117 4.527
v 27.43 34.12 0
vt 3.428 4.265
v 29.32 31.88 0
vt 3.664 3.985
v 30.02 29.23 0
vt 3.752 3.654
v 29.96 26.13 0
vt 3.744 3.266
v 30.39 22.88 0
vt 3.799 2.860
v 32.59 20.03 0
vt 4.074 2.504
v 37.04 18.01 0
vt 4.630 2.252
v 43.14 16.88 0
vt 5.393 2.110
v 49.68 16.19 0
vt 6.211 2.024
v 55.64 15.32 0
vt 6.955 1.916
v 60.73 13.86 0
vt 7.591 1.732
v 65.41 11.85 0
vt 8.176 1.482
v 70.39 9.79 0
vt 8.799 1.224
v 76.07 8.21 0
vt 9.509 1.026
v 82.35 7.34 0
vt 10.294 0.918
v 88.88 6.96 0
vt 11.110 0.869
v 95.41 6.61 0
vt 11.927 0.826
v 102.00 6.05 0
vt 12.750 0.756
v 108.76 5.47 0
vt 13.595 0.684
v 115.57 5.49 0
vt 14.446 0.686
v 121.96 6.67 0
vt 15.245 0.834
v 127.32 9.19 0
vt 15.915 1.149
v 131.41 12.59 0
vt 16.426 1.573
v 134.58 16.04 0
vt 16.822 2.005
v 137.61 18.82 0
vt 17.201 2.352
v 141.17 20.70 0
vt 17.647 2.587
v 145.33 22.00 0
vt 18.167 2.749
v 149.50 23.27 0
vt 18.687 2.909
v 152.90 24.94 0
vt 19.112 3.117
v 155.25 27.01 0
vt 19.406 3.376
v 157.01 29.17 0
vt 19.626 3.646
v 159.04 31.10 0
vt 19.880 3.888
v 161.91 32.71 0
vt 20.239 4.089
v 165.32 34.21 0
vt 20.665 4.277
v 168.21 35.90 0
vt 21.026 4.488
v 169.50 37.93 0
vt 21.188 4.741
v 169.01 40.18 0
vt 21.127 5.022
v 167.80 42.39 0
vt 20.975 5.298
v 167.64 44.36 0
vt 20.955 5.545
v 169.95 46.14 0
vt 21.244 5.767
v 174.88 47.94 0
vt 21.860 5.992
f 1/1/1 2/2/1 3/3/1
f 1/1/1 3/3/1 4/4/1
f 1/1/1 4/4/1 5/5/1
f 1/1/1 5/5/1 6/6/1
f 1/1/1 6/6/1 7/7/1
f 1/1/1 7/7/1 8/8/1
f 1/1/1 8/8/1 9/9/1
f 1/1/1 9/9/1 10/10/1
f 1/1/1 10/10/1 11/11/1
f 1/1/1 11/11/1 12/12/1
f 1/1/1 12/12/1 13/13/1
f 1/1/1 13/13/1 14/14/1
f 1/1/1 14/14/1 15/15/1
f 1/1/1 15/15/1 16/16/1
f 1/1/1 16/16/1 17/17/1
f 1/1/1 17/17/1 18/18/1
f 1/1/1 18/18/1 19/19/1
f 1/1/1 19/19/1 20/20/1
f 1/1/1 20/20/1 21/21/1
f 1/1/1 21/21/1 22/22/1
f 1/1/1 22/22/1 23/23/1
f 1/1/1 23/23/1 24/24/1
f 1/1/1 24/24/1 25/25/1
f 1/1/1 25/25/1 26/26/1
f 1/1/1 26/26/1 27/27/1
f 1/1/1 27/27/1 28/28/1
f 1/1/1 28/28/1 29/29/1
f 1/1/1 29/29/1 30/30/1
f 1/1/1 30/30/1 31/31/1
f 1/1/1 31/31/1 32/32/1
f 1/1/1 32/32/1 33/33/1
f 1/1/1 33/33/1 34/34/1
f 1/1/1 34/34/1 35/35/1
f 1/1/1 35/35/1 36/36/1
f 1/1/1 36/36/1 37/37/1
f 1/1/1 37/37/1 38/38/1
f 1/1/1 38/38/1 39/39/1
f 1/1/1 39/39/1 40/40/1
f 1/1/1 40/40/1 41/41/1
f 1/1/1 41/41/1 42/42/1
f 1/1/1 42/42/1 43/43/1
f 1/1/1 43/43/1 44/44/1
f 1/1/1 44/44/1 45/45/1
f 1/1/1 45/45/1 46/46/1
f 1/1/1 46/46/1 47/47/1
f 1/1/1 47/47/1 48/48/1
f 1/1/1 48/48/1 49/49/1
f 1/1/1 49/49/1 50/50/1
f 1/1/1 50/50/1 51/51/1
f 1/1/1 51/51/1 52/52/1
f 1/1/1 52/52/1 53/53/1
f 1/1/1 53/53/1 54/54/1
f 1/1/1 54/54/1 55/55/1
f 1/1/1 55/55/1 56/56/1
f 1/1/1 56/56/1 57/57/1
f 1/1/1 57/57/1 58/58/1
f 1/1/1 58/58/1 59/59/1
f 1/1/1 59/59/1 60/60/1
f 1/1/1 60/60/1 61/61/1
f 1/1/1 61/61/1 62/62/1
f 1/1/1 62/62/1 63/63/1
f 1/1/1 63/63/1 64/64/1
f 1/1/1 64/64/1 65/65/1
f 1/1/1 65/65/1 66/66/1
f 1/1/1 66/66/1 67/67/1
f 1/1/1 67/67/1 68/68/1
f 1/1/1 68/68/1 69/69/1
f 1/1/1 69/69/1 70/70/1
f 1/1/1 70/70/1 71/71/1
f 1/1/1 71/71/1 72/72/1
f 1/1/1 72/72/1 73/73/1
f 1/1/1 73/73/1 74/74/1
f 1/1/1 74/74/1 75/75/1
f 1/1/1 75/75/1 76/76/1
f 1/1/1 76/76/1 77/77/1
f 1/1/1 77/77/1 78/78/1
f 1/1/1 78/78/1 79/79/1
f 1/1/1 79/79/1 80/80/1
f 1/1/1 80/80/1 81/81/1
f 1/1/1 81/81/1 82/82/1
f 1/1/1 82/82/1 83/83/1
f 1/1/1 83/83/1 84/84/1
f 1/1/1 84/84/1 85/85/1
f 1/1/1 85/85/1 86/86/1
f 1/1/1 86/86/1 87/87/1
f 1/1/1 87/87/1 88/88/1
f 1/1/1 88/88/1 89/89/1
f 1/1/1 89/89/1 90/90/1
f 1/1/1 90/90/1 91/91/1
f 1/1/1 91/91/1 92/92/1
f 1/1/1 92/92/1 93/93/1
f 1/1/1 93/93/1 94/94/1
f 1/1/1 94/94/1 95/95/1
f 1/1/1 95/95/1 96/96/1
f 1/1/1 96/96/1 97/97/1
f 1/1/1 97/97/1 2/2/1
