# Concrete galis (world coordinates), generated by tools/layout_world.py: one strip per
# road along its curve, its width wandering; UVs tile every 8 m.
vn 0 0 1
v -199.54 26.19 0.0080
vt -0.236 0.000
v -198.59 25.92 0.0080
vt -0.235 0.125
v -197.66 25.63 0.0080
vt -0.234 0.252
v -196.72 25.32 0.0080
vt -0.232 0.380
v -195.76 25.00 0.0080
vt -0.231 0.509
v -194.80 24.65 0.0080
vt -0.230 0.639
v -193.83 24.29 0.0080
vt -0.228 0.770
v -192.86 23.93 0.0080
vt -0.227 0.901
v -191.88 23.56 0.0080
vt -0.226 1.032
v -190.89 23.18 0.0080
vt -0.225 1.163
v -189.91 22.80 0.0080
vt -0.224 1.294
v -188.92 22.43 0.0080
vt -0.224 1.425
v -187.92 22.07 0.0080
vt -0.224 1.555
v -186.93 21.71 0.0080
vt -0.224 1.684
v -185.93 21.37 0.0080
vt -0.224 1.812
v -184.93 21.05 0.0080
vt -0.224 1.939
v -183.93 20.75 0.0080
vt -0.224 2.064
v -182.93 20.48 0.0080
vt -0.225 2.188
v -181.93 20.24 0.0080
vt -0.225 2.310
v -180.92 20.03 0.0080
vt -0.226 2.430
v -179.91 19.86 0.0080
vt -0.227 2.549
v -178.90 19.74 0.0080
vt -0.227 2.665
v -177.89 19.66 0.0080
vt -0.228 2.781
v -176.88 19.63 0.0080
vt -0.229 2.894
v -175.85 19.67 0.0080
vt -0.229 3.007
v -174.76 19.80 0.0080
vt -0.230 3.124
v -173.69 20.03 0.0080
vt -0.230 3.242
v -172.64 20.35 0.0080
vt -0.230 3.361
v -171.62 20.74 0.0080
vt -0.230 3.481
v -170.64 21.20 0.0080
vt -0.230 3.604
v -169.68 21.71 0.0080
vt -0.230 3.729
v -168.74 22.25 0.0080
vt -0.229 3.855
v -167.83 22.83 0.0080
vt -0.229 3.984
v -166.94 23.43 0.0080
vt -0.228 4.113
v -166.06 24.05 0.0080
vt -0.226 4.244
v -165.20 24.67 0.0080
vt -0.225 4.375
v -164.36 25.28 0.0080
vt -0.223 4.505
v -163.53 25.88 0.0080
vt -0.221 4.635
v -162.71 26.46 0.0080
vt -0.219 4.764
v -161.91 27.00 0.0080
vt -0.217 4.890
v -161.11 27.51 0.0080
vt -0.215 5.015
v -160.34 27.97 0.0080
vt -0.213 5.137
v -159.57 28.38 0.0080
vt -0.211 5.256
v -158.83 28.72 0.0080
vt -0.209 5.372
v -158.09 29.00 0.0080
vt -0.207 5.485
v -157.38 29.20 0.0080
vt -0.205 5.596
v -156.69 29.33 0.0080
vt -0.204 5.706
v -156.00 29.38 0.0080
vt -0.202 5.814
v -155.29 29.35 0.0080
vt -0.201 5.924
v -154.56 29.25 0.0080
vt -0.200 6.036
v -153.79 29.06 0.0080
vt -0.199 6.151
v -152.99 28.81 0.0080
vt -0.198 6.269
v -152.16 28.49 0.0080
vt -0.198 6.391
v -151.32 28.10 0.0080
vt -0.197 6.516
v -150.46 27.67 0.0080
vt -0.197 6.644
v -149.59 27.18 0.0080
vt -0.197 6.774
v -148.72 26.66 0.0080
vt -0.198 6.907
v -147.83 26.10 0.0080
vt -0.198 7.041
v -146.95 25.52 0.0080
vt -0.199 7.176
v -146.06 24.93 0.0080
vt -0.200 7.311
v -145.17 24.33 0.0080
vt -0.202 7.445
v -144.28 23.73 0.0080
vt -0.203 7.578
v -143.39 23.14 0.0080
vt -0.204 7.709
v -142.51 22.57 0.0080
vt -0.206 7.837
v -141.62 22.03 0.0080
vt -0.207 7.962
v -140.74 21.52 0.0080
vt -0.208 8.082
v -139.85 21.05 0.0080
vt -0.209 8.199
v -138.97 20.64 0.0080
vt -0.210 8.310
v -138.07 20.29 0.0080
vt -0.211 8.416
v -137.17 20.01 0.0080
vt -0.212 8.517
v -136.23 19.82 0.0080
vt -0.212 8.612
v -134.96 19.69 0.0080
vt -0.213 8.751
v -133.73 19.71 0.0080
vt -0.214 8.884
v -132.54 19.84 0.0080
vt -0.214 9.012
v -131.41 20.08 0.0080
vt -0.214 9.137
v -130.34 20.40 0.0080
vt -0.214 9.260
v -129.33 20.78 0.0080
vt -0.213 9.383
v -128.35 21.21 0.0080
vt -0.213 9.506
v -127.42 21.67 0.0080
vt -0.212 9.629
v -126.53 22.13 0.0080
vt -0.212 9.752
v -125.66 22.60 0.0080
vt -0.211 9.874
v -124.82 23.04 0.0080
vt -0.210 9.996
v -123.99 23.45 0.0080
vt -0.210 10.118
v -123.18 23.82 0.0080
vt -0.209 10.239
v -122.37 24.14 0.0080
vt -0.208 10.359
v -121.54 24.40 0.0080
vt -0.208 10.480
v -120.66 24.64 0.0080
vt -0.207 10.601
v -119.74 24.87 0.0080
vt -0.207 10.721
v -118.83 25.08 0.0080
vt -0.207 10.841
v -117.91 25.29 0.0080
vt -0.207 10.960
v -116.99 25.49 0.0080
vt -0.207 11.080
v -116.06 25.68 0.0080
vt -0.207 11.199
v -115.14 25.87 0.0080
vt -0.208 11.318
v -114.21 26.05 0.0080
vt -0.209 11.437
v -113.27 26.22 0.0080
vt -0.210 11.556
v -112.34 26.40 0.0080
vt -0.211 11.675
v -111.40 26.57 0.0080
vt -0.213 11.794
v -110.46 26.74 0.0080
vt -0.214 11.913
v -109.52 26.92 0.0080
vt -0.216 12.032
v -108.58 27.10 0.0080
vt -0.218 12.151
v -107.64 27.28 0.0080
vt -0.219 12.270
v -198.46 29.81 0.0080
vt 0.236 0.000
v -197.49 29.51 0.0080
vt 0.235 0.125
v -196.49 29.18 0.0080
vt 0.234 0.252
v -195.49 28.83 0.0080
vt 0.232 0.380
v -194.50 28.47 0.0080
vt 0.231 0.509
v -193.51 28.09 0.0080
vt 0.230 0.639
v -192.53 27.71 0.0080
vt 0.228 0.770
v -191.54 27.32 0.0080
vt 0.227 0.901
v -190.57 26.93 0.0080
vt 0.226 1.032
v -189.59 26.54 0.0080
vt 0.225 1.163
v -188.62 26.16 0.0080
vt 0.224 1.294
v -187.66 25.79 0.0080
vt 0.224 1.425
v -186.70 25.43 0.0080
vt 0.224 1.555
v -185.75 25.09 0.0080
vt 0.224 1.684
v -184.81 24.77 0.0080
vt 0.224 1.812
v -183.88 24.48 0.0080
vt 0.224 1.939
v -182.96 24.21 0.0080
vt 0.224 2.064
v -182.05 23.97 0.0080
vt 0.225 2.188
v -181.15 23.76 0.0080
vt 0.225 2.310
v -180.27 23.59 0.0080
vt 0.226 2.430
v -179.41 23.45 0.0080
vt 0.227 2.549
v -178.56 23.36 0.0080
vt 0.227 2.665
v -177.73 23.30 0.0080
vt 0.228 2.781
v -176.92 23.29 0.0080
vt 0.229 2.894
v -176.15 23.33 0.0080
vt 0.229 3.007
v -175.38 23.42 0.0080
vt 0.230 3.124
v -174.62 23.59 0.0080
vt 0.230 3.242
v -173.85 23.83 0.0080
vt 0.230 3.361
v -173.06 24.14 0.0080
vt 0.230 3.481
v -172.27 24.50 0.0080
vt 0.230 3.604
v -171.46 24.93 0.0080
vt 0.230 3.729
v -170.64 25.40 0.0080
vt 0.229 3.855
v -169.81 25.91 0.0080
vt 0.229 3.984
v -168.97 26.45 0.0080
vt 0.228 4.113
v -168.13 27.02 0.0080
vt 0.226 4.244
v -167.27 27.61 0.0080
vt 0.225 4.375
v -166.41 28.20 0.0080
vt 0.223 4.505
v -165.54 28.79 0.0080
vt 0.221 4.635
v -164.66 29.37 0.0080
vt 0.219 4.764
v -163.77 29.94 0.0080
vt 0.217 4.890
v -162.87 30.47 0.0080
vt 0.215 5.015
v -161.95 30.97 0.0080
vt 0.213 5.137
v -161.01 31.43 0.0080
vt 0.211 5.256
v -160.06 31.83 0.0080
vt 0.209 5.372
v -159.08 32.16 0.0080
vt 0.207 5.485
v -158.08 32.41 0.0080
vt 0.205 5.596
v -157.05 32.57 0.0080
vt 0.204 5.706
v -156.00 32.62 0.0080
vt 0.202 5.814
v -154.96 32.55 0.0080
vt 0.201 5.924
v -153.92 32.38 0.0080
vt 0.200 6.036
v -152.91 32.12 0.0080
vt 0.199 6.151
v -151.91 31.79 0.0080
vt 0.198 6.269
v -150.92 31.39 0.0080
vt 0.198 6.391
v -149.94 30.94 0.0080
vt 0.197 6.516
v -148.98 30.45 0.0080
vt 0.197 6.644
v -148.02 29.92 0.0080
vt 0.197 6.774
v -147.07 29.36 0.0080
vt 0.198 6.907
v -146.14 28.78 0.0080
vt 0.198 7.041
v -145.21 28.19 0.0080
vt 0.199 7.176
v -144.29 27.60 0.0080
vt 0.200 7.311
v -143.39 27.02 0.0080
vt 0.202 7.445
v -142.50 26.45 0.0080
vt 0.203 7.578
v -141.63 25.90 0.0080
vt 0.204 7.709
v -140.78 25.37 0.0080
vt 0.206 7.837
v -139.96 24.89 0.0080
vt 0.207 7.962
v -139.16 24.45 0.0080
vt 0.208 8.082
v -138.39 24.06 0.0080
vt 0.209 8.199
v -137.66 23.74 0.0080
vt 0.210 8.310
v -136.97 23.48 0.0080
vt 0.211 8.416
v -136.34 23.29 0.0080
vt 0.212 8.517
v -135.77 23.18 0.0080
vt 0.212 8.612
v -134.82 23.10 0.0080
vt 0.213 8.751
v -133.94 23.12 0.0080
vt 0.214 8.884
v -133.09 23.22 0.0080
vt 0.214 9.012
v -132.26 23.39 0.0080
vt 0.214 9.137
v -131.43 23.64 0.0080
vt 0.214 9.260
v -130.61 23.95 0.0080
vt 0.213 9.383
v -129.78 24.30 0.0080
vt 0.213 9.506
v -128.94 24.71 0.0080
vt 0.212 9.629
v -128.09 25.14 0.0080
vt 0.212 9.752
v -127.23 25.59 0.0080
vt 0.211 9.874
v -126.34 26.04 0.0080
vt 0.210 9.996
v -125.42 26.49 0.0080
vt 0.210 10.118
v -124.46 26.91 0.0080
vt 0.209 10.239
v -123.47 27.29 0.0080
vt 0.208 10.359
v -122.46 27.60 0.0080
vt 0.208 10.480
v -121.48 27.85 0.0080
vt 0.207 10.601
v -120.52 28.08 0.0080
vt 0.207 10.721
v -119.57 28.31 0.0080
vt 0.207 10.841
v -118.63 28.52 0.0080
vt 0.207 10.960
v -117.68 28.73 0.0080
vt 0.207 11.080
v -116.74 28.93 0.0080
vt 0.207 11.199
v -115.80 29.13 0.0080
vt 0.208 11.318
v -114.86 29.33 0.0080
vt 0.209 11.437
v -113.93 29.52 0.0080
vt 0.210 11.556
v -112.99 29.71 0.0080
vt 0.211 11.675
v -112.06 29.91 0.0080
vt 0.213 11.794
v -111.14 30.10 0.0080
vt 0.214 11.913
v -110.21 30.30 0.0080
vt 0.216 12.032
v -109.29 30.51 0.0080
vt 0.218 12.151
v -108.36 30.72 0.0080
vt 0.219 12.270
f 1/1/1 2/2/1 103/103/1
f 1/1/1 103/103/1 102/102/1
f 2/2/1 3/3/1 104/104/1
f 2/2/1 104/104/1 103/103/1
f 3/3/1 4/4/1 105/105/1
f 3/3/1 105/105/1 104/104/1
f 4/4/1 5/5/1 106/106/1
f 4/4/1 106/106/1 105/105/1
f 5/5/1 6/6/1 107/107/1
f 5/5/1 107/107/1 106/106/1
f 6/6/1 7/7/1 108/108/1
f 6/6/1 108/108/1 107/107/1
f 7/7/1 8/8/1 109/109/1
f 7/7/1 109/109/1 108/108/1
f 8/8/1 9/9/1 110/110/1
f 8/8/1 110/110/1 109/109/1
f 9/9/1 10/10/1 111/111/1
f 9/9/1 111/111/1 110/110/1
f 10/10/1 11/11/1 112/112/1
f 10/10/1 112/112/1 111/111/1
f 11/11/1 12/12/1 113/113/1
f 11/11/1 113/113/1 112/112/1
f 12/12/1 13/13/1 114/114/1
f 12/12/1 114/114/1 113/113/1
f 13/13/1 14/14/1 115/115/1
f 13/13/1 115/115/1 114/114/1
f 14/14/1 15/15/1 116/116/1
f 14/14/1 116/116/1 115/115/1
f 15/15/1 16/16/1 117/117/1
f 15/15/1 117/117/1 116/116/1
f 16/16/1 17/17/1 118/118/1
f 16/16/1 118/118/1 117/117/1
f 17/17/1 18/18/1 119/119/1
f 17/17/1 119/119/1 118/118/1
f 18/18/1 19/19/1 120/120/1
f 18/18/1 120/120/1 119/119/1
f 19/19/1 20/20/1 121/121/1
f 19/19/1 121/121/1 120/120/1
f 20/20/1 21/21/1 122/122/1
f 20/20/1 122/122/1 121/121/1
f 21/21/1 22/22/1 123/123/1
f 21/21/1 123/123/1 122/122/1
f 22/22/1 23/23/1 124/124/1
f 22/22/1 124/124/1 123/123/1
f 23/23/1 24/24/1 125/125/1
f 23/23/1 125/125/1 124/124/1
f 24/24/1 25/25/1 126/126/1
f 24/24/1 126/126/1 125/125/1
f 25/25/1 26/26/1 127/127/1
f 25/25/1 127/127/1 126/126/1
f 26/26/1 27/27/1 128/128/1
f 26/26/1 128/128/1 127/127/1
f 27/27/1 28/28/1 129/129/1
f 27/27/1 129/129/1 128/128/1
f 28/28/1 29/29/1 130/130/1
f 28/28/1 130/130/1 129/129/1
f 29/29/1 30/30/1 131/131/1
f 29/29/1 131/131/1 130/130/1
f 30/30/1 31/31/1 132/132/1
f 30/30/1 132/132/1 131/131/1
f 31/31/1 32/32/1 133/133/1
f 31/31/1 133/133/1 132/132/1
f 32/32/1 33/33/1 134/134/1
f 32/32/1 134/134/1 133/133/1
f 33/33/1 34/34/1 135/135/1
f 33/33/1 135/135/1 134/134/1
f 34/34/1 35/35/1 136/136/1
f 34/34/1 136/136/1 135/135/1
f 35/35/1 36/36/1 137/137/1
f 35/35/1 137/137/1 136/136/1
f 36/36/1 37/37/1 138/138/1
f 36/36/1 138/138/1 137/137/1
f 37/37/1 38/38/1 139/139/1
f 37/37/1 139/139/1 138/138/1
f 38/38/1 39/39/1 140/140/1
f 38/38/1 140/140/1 139/139/1
f 39/39/1 40/40/1 141/141/1
f 39/39/1 141/141/1 140/140/1
f 40/40/1 41/41/1 142/142/1
f 40/40/1 142/142/1 141/141/1
f 41/41/1 42/42/1 143/143/1
f 41/41/1 143/143/1 142/142/1
f 42/42/1 43/43/1 144/144/1
f 42/42/1 144/144/1 143/143/1
f 43/43/1 44/44/1 145/145/1
f 43/43/1 145/145/1 144/144/1
f 44/44/1 45/45/1 146/146/1
f 44/44/1 146/146/1 145/145/1
f 45/45/1 46/46/1 147/147/1
f 45/45/1 147/147/1 146/146/1
f 46/46/1 47/47/1 148/148/1
f 46/46/1 148/148/1 147/147/1
f 47/47/1 48/48/1 149/149/1
f 47/47/1 149/149/1 148/148/1
f 48/48/1 49/49/1 150/150/1
f 48/48/1 150/150/1 149/149/1
f 49/49/1 50/50/1 151/151/1
f 49/49/1 151/151/1 150/150/1
f 50/50/1 51/51/1 152/152/1
f 50/50/1 152/152/1 151/151/1
f 51/51/1 52/52/1 153/153/1
f 51/51/1 153/153/1 152/152/1
f 52/52/1 53/53/1 154/154/1
f 52/52/1 154/154/1 153/153/1
f 53/53/1 54/54/1 155/155/1
f 53/53/1 155/155/1 154/154/1
f 54/54/1 55/55/1 156/156/1
f 54/54/1 156/156/1 155/155/1
f 55/55/1 56/56/1 157/157/1
f 55/55/1 157/157/1 156/156/1
f 56/56/1 57/57/1 158/158/1
f 56/56/1 158/158/1 157/157/1
f 57/57/1 58/58/1 159/159/1
f 57/57/1 159/159/1 158/158/1
f 58/58/1 59/59/1 160/160/1
f 58/58/1 160/160/1 159/159/1
f 59/59/1 60/60/1 161/161/1
f 59/59/1 161/161/1 160/160/1
f 60/60/1 61/61/1 162/162/1
f 60/60/1 162/162/1 161/161/1
f 61/61/1 62/62/1 163/163/1
f 61/61/1 163/163/1 162/162/1
f 62/62/1 63/63/1 164/164/1
f 62/62/1 164/164/1 163/163/1
f 63/63/1 64/64/1 165/165/1
f 63/63/1 165/165/1 164/164/1
f 64/64/1 65/65/1 166/166/1
f 64/64/1 166/166/1 165/165/1
f 65/65/1 66/66/1 167/167/1
f 65/65/1 167/167/1 166/166/1
f 66/66/1 67/67/1 168/168/1
f 66/66/1 168/168/1 167/167/1
f 67/67/1 68/68/1 169/169/1
f 67/67/1 169/169/1 168/168/1
f 68/68/1 69/69/1 170/170/1
f 68/68/1 170/170/1 169/169/1
f 69/69/1 70/70/1 171/171/1
f 69/69/1 171/171/1 170/170/1
f 70/70/1 71/71/1 172/172/1
f 70/70/1 172/172/1 171/171/1
f 71/71/1 72/72/1 173/173/1
f 71/71/1 173/173/1 172/172/1
f 72/72/1 73/73/1 174/174/1
f 72/72/1 174/174/1 173/173/1
f 73/73/1 74/74/1 175/175/1
f 73/73/1 175/175/1 174/174/1
f 74/74/1 75/75/1 176/176/1
f 74/74/1 176/176/1 175/175/1
f 75/75/1 76/76/1 177/177/1
f 75/75/1 177/177/1 176/176/1
f 76/76/1 77/77/1 178/178/1
f 76/76/1 178/178/1 177/177/1
f 77/77/1 78/78/1 179/179/1
f 77/77/1 179/179/1 178/178/1
f 78/78/1 79/79/1 180/180/1
f 78/78/1 180/180/1 179/179/1
f 79/79/1 80/80/1 181/181/1
f 79/79/1 181/181/1 180/180/1
f 80/80/1 81/81/1 182/182/1
f 80/80/1 182/182/1 181/181/1
f 81/81/1 82/82/1 183/183/1
f 81/81/1 183/183/1 182/182/1
f 82/82/1 83/83/1 184/184/1
f 82/82/1 184/184/1 183/183/1
f 83/83/1 84/84/1 185/185/1
f 83/83/1 185/185/1 184/184/1
f 84/84/1 85/85/1 186/186/1
f 84/84/1 186/186/1 185/185/1
f 85/85/1 86/86/1 187/187/1
f 85/85/1 187/187/1 186/186/1
f 86/86/1 87/87/1 188/188/1
f 86/86/1 188/188/1 187/187/1
f 87/87/1 88/88/1 189/189/1
f 87/87/1 189/189/1 188/188/1
f 88/88/1 89/89/1 190/190/1
f 88/88/1 190/190/1 189/189/1
f 89/89/1 90/90/1 191/191/1
f 89/89/1 191/191/1 190/190/1
f 90/90/1 91/91/1 192/192/1
f 90/90/1 192/192/1 191/191/1
f 91/91/1 92/92/1 193/193/1
f 91/91/1 193/193/1 192/192/1
f 92/92/1 93/93/1 194/194/1
f 92/92/1 194/194/1 193/193/1
f 93/93/1 94/94/1 195/195/1
f 93/93/1 195/195/1 194/194/1
f 94/94/1 95/95/1 196/196/1
f 94/94/1 196/196/1 195/195/1
f 95/95/1 96/96/1 197/197/1
f 95/95/1 197/197/1 196/196/1
f 96/96/1 97/97/1 198/198/1
f 96/96/1 198/198/1 197/197/1
f 97/97/1 98/98/1 199/199/1
f 97/97/1 199/199/1 198/198/1
f 98/98/1 99/99/1 200/200/1
f 98/98/1 200/200/1 199/199/1
f 99/99/1 100/100/1 201/201/1
f 99/99/1 201/201/1 200/200/1
f 100/100/1 101/101/1 202/202/1
f 100/100/1 202/202/1 201/201/1
v -60.85 2.39 0.0092
vt -0.226 0.000
v -61.59 3.02 0.0092
vt -0.227 0.119
v -62.37 3.66 0.0092
vt -0.229 0.241
v -63.17 4.28 0.0092
vt -0.231 0.364
v -63.98 4.90 0.0092
vt -0.232 0.489
v -64.79 5.51 0.0092
vt -0.233 0.614
v -65.60 6.11 0.0092
vt -0.234 0.740
v -66.41 6.70 0.0092
vt -0.235 0.866
v -67.21 7.29 0.0092
vt -0.236 0.991
v -67.99 7.88 0.0092
vt -0.236 1.116
v -68.75 8.46 0.0092
vt -0.236 1.239
v -69.49 9.04 0.0092
vt -0.236 1.361
v -70.19 9.62 0.0092
vt -0.235 1.480
v -70.86 10.20 0.0092
vt -0.235 1.597
v -71.48 10.77 0.0092
vt -0.234 1.711
v -72.06 11.34 0.0092
vt -0.233 1.822
v -72.59 11.91 0.0092
vt -0.233 1.931
v -73.05 12.47 0.0092
vt -0.232 2.035
v -73.45 13.01 0.0092
vt -0.231 2.137
v -73.91 13.75 0.0092
vt -0.230 2.264
v -74.29 14.50 0.0092
vt -0.229 2.387
v -74.60 15.27 0.0092
vt -0.228 2.509
v -74.87 16.07 0.0092
vt -0.227 2.629
v -75.08 16.90 0.0092
vt -0.227 2.748
v -75.26 17.75 0.0092
vt -0.226 2.867
v -75.40 18.63 0.0092
vt -0.226 2.987
v -75.52 19.54 0.0092
vt -0.225 3.106
v -75.62 20.46 0.0092
vt -0.225 3.226
v -75.71 21.41 0.0092
vt -0.225 3.346
v -75.81 22.37 0.0092
vt -0.226 3.465
v -75.92 23.35 0.0092
vt -0.226 3.584
v -76.05 24.34 0.0092
vt -0.226 3.703
v -76.21 25.32 0.0092
vt -0.227 3.821
v -76.38 26.26 0.0092
vt -0.228 3.941
v -76.53 27.21 0.0092
vt -0.229 4.064
v -76.68 28.17 0.0092
vt -0.230 4.188
v -76.82 29.16 0.0092
vt -0.231 4.314
v -76.95 30.15 0.0092
vt -0.232 4.440
v -77.08 31.14 0.0092
vt -0.233 4.566
v -77.21 32.13 0.0092
vt -0.234 4.691
v -77.34 33.10 0.0092
vt -0.234 4.814
v -77.46 34.06 0.0092
vt -0.235 4.934
v -77.59 34.99 0.0092
vt -0.236 5.051
v -77.72 35.90 0.0092
vt -0.236 5.163
v -77.86 36.76 0.0092
vt -0.236 5.270
v -78.00 37.59 0.0092
vt -0.237 5.371
v -78.15 38.38 0.0092
vt -0.237 5.466
v -78.41 39.59 0.0092
vt -0.236 5.614
v -78.68 40.65 0.0092
vt -0.236 5.744
v -78.95 41.59 0.0092
vt -0.235 5.860
v -79.21 42.44 0.0092
vt -0.234 5.966
v -79.48 43.22 0.0092
vt -0.233 6.067
v -79.73 43.97 0.0092
vt -0.232 6.166
v -79.99 44.71 0.0092
vt -0.231 6.268
v -80.24 45.53 0.0092
vt -0.229 6.376
v -63.15 -0.39 0.0092
vt 0.226 0.000
v -63.88 0.19 0.0092
vt 0.227 0.119
v -64.62 0.76 0.0092
vt 0.229 0.241
v -65.40 1.34 0.0092
vt 0.231 0.364
v -66.19 1.91 0.0092
vt 0.232 0.489
v -66.99 2.49 0.0092
vt 0.233 0.614
v -67.81 3.08 0.0092
vt 0.234 0.740
v -68.63 3.67 0.0092
vt 0.235 0.866
v -69.45 4.26 0.0092
vt 0.236 0.991
v -70.26 4.87 0.0092
vt 0.236 1.116
v -71.07 5.48 0.0092
vt 0.236 1.239
v -71.86 6.11 0.0092
vt 0.236 1.361
v -72.62 6.75 0.0092
vt 0.235 1.480
v -73.37 7.40 0.0092
vt 0.235 1.597
v -74.08 8.07 0.0092
vt 0.234 1.711
v -74.76 8.76 0.0092
vt 0.233 1.822
v -75.40 9.47 0.0092
vt 0.233 1.931
v -76.00 10.21 0.0092
vt 0.232 2.035
v -76.55 10.99 0.0092
vt 0.231 2.137
v -77.14 11.98 0.0092
vt 0.230 2.264
v -77.64 13.00 0.0092
vt 0.229 2.387
v -78.04 14.04 0.0092
vt 0.228 2.509
v -78.36 15.07 0.0092
vt 0.227 2.629
v -78.62 16.09 0.0092
vt 0.227 2.748
v -78.82 17.11 0.0092
vt 0.226 2.867
v -78.98 18.12 0.0092
vt 0.226 2.987
v -79.10 19.11 0.0092
vt 0.225 3.106
v -79.21 20.09 0.0092
vt 0.225 3.226
v -79.30 21.05 0.0092
vt 0.225 3.346
v -79.40 21.99 0.0092
vt 0.226 3.465
v -79.50 22.90 0.0092
vt 0.226 3.584
v -79.63 23.79 0.0092
vt 0.226 3.703
v -79.79 24.68 0.0092
vt 0.227 3.821
v -79.97 25.63 0.0092
vt 0.228 3.941
v -80.14 26.61 0.0092
vt 0.229 4.064
v -80.31 27.61 0.0092
vt 0.230 4.188
v -80.47 28.62 0.0092
vt 0.231 4.314
v -80.62 29.63 0.0092
vt 0.232 4.440
v -80.77 30.63 0.0092
vt 0.233 4.566
v -80.91 31.62 0.0092
vt 0.234 4.691
v -81.05 32.59 0.0092
vt 0.234 4.814
v -81.19 33.54 0.0092
vt 0.235 4.934
v -81.32 34.45 0.0092
vt 0.236 5.051
v -81.46 35.33 0.0092
vt 0.236 5.163
v -81.59 36.15 0.0092
vt 0.236 5.270
v -81.72 36.92 0.0092
vt 0.237 5.371
v -81.85 37.62 0.0092
vt 0.237 5.466
v -82.09 38.74 0.0092
vt 0.236 5.614
v -82.32 39.69 0.0092
vt 0.236 5.744
v -82.55 40.53 0.0092
vt 0.235 5.860
v -82.79 41.31 0.0092
vt 0.234 5.966
v -83.02 42.05 0.0092
vt 0.233 6.067
v -83.27 42.81 0.0092
vt 0.232 6.166
v -83.51 43.62 0.0092
vt 0.231 6.268
v -83.76 44.47 0.0092
vt 0.229 6.376
f 203/203/1 204/204/1 259/259/1
f 203/203/1 259/259/1 258/258/1
f 204/204/1 205/205/1 260/260/1
f 204/204/1 260/260/1 259/259/1
f 205/205/1 206/206/1 261/261/1
f 205/205/1 261/261/1 260/260/1
f 206/206/1 207/207/1 262/262/1
f 206/206/1 262/262/1 261/261/1
f 207/207/1 208/208/1 263/263/1
f 207/207/1 263/263/1 262/262/1
f 208/208/1 209/209/1 264/264/1
f 208/208/1 264/264/1 263/263/1
f 209/209/1 210/210/1 265/265/1
f 209/209/1 265/265/1 264/264/1
f 210/210/1 211/211/1 266/266/1
f 210/210/1 266/266/1 265/265/1
f 211/211/1 212/212/1 267/267/1
f 211/211/1 267/267/1 266/266/1
f 212/212/1 213/213/1 268/268/1
f 212/212/1 268/268/1 267/267/1
f 213/213/1 214/214/1 269/269/1
f 213/213/1 269/269/1 268/268/1
f 214/214/1 215/215/1 270/270/1
f 214/214/1 270/270/1 269/269/1
f 215/215/1 216/216/1 271/271/1
f 215/215/1 271/271/1 270/270/1
f 216/216/1 217/217/1 272/272/1
f 216/216/1 272/272/1 271/271/1
f 217/217/1 218/218/1 273/273/1
f 217/217/1 273/273/1 272/272/1
f 218/218/1 219/219/1 274/274/1
f 218/218/1 274/274/1 273/273/1
f 219/219/1 220/220/1 275/275/1
f 219/219/1 275/275/1 274/274/1
f 220/220/1 221/221/1 276/276/1
f 220/220/1 276/276/1 275/275/1
f 221/221/1 222/222/1 277/277/1
f 221/221/1 277/277/1 276/276/1
f 222/222/1 223/223/1 278/278/1
f 222/222/1 278/278/1 277/277/1
f 223/223/1 224/224/1 279/279/1
f 223/223/1 279/279/1 278/278/1
f 224/224/1 225/225/1 280/280/1
f 224/224/1 280/280/1 279/279/1
f 225/225/1 226/226/1 281/281/1
f 225/225/1 281/281/1 280/280/1
f 226/226/1 227/227/1 282/282/1
f 226/226/1 282/282/1 281/281/1
f 227/227/1 228/228/1 283/283/1
f 227/227/1 283/283/1 282/282/1
f 228/228/1 229/229/1 284/284/1
f 228/228/1 284/284/1 283/283/1
f 229/229/1 230/230/1 285/285/1
f 229/229/1 285/285/1 284/284/1
f 230/230/1 231/231/1 286/286/1
f 230/230/1 286/286/1 285/285/1
f 231/231/1 232/232/1 287/287/1
f 231/231/1 287/287/1 286/286/1
f 232/232/1 233/233/1 288/288/1
f 232/232/1 288/288/1 287/287/1
f 233/233/1 234/234/1 289/289/1
f 233/233/1 289/289/1 288/288/1
f 234/234/1 235/235/1 290/290/1
f 234/234/1 290/290/1 289/289/1
f 235/235/1 236/236/1 291/291/1
f 235/235/1 291/291/1 290/290/1
f 236/236/1 237/237/1 292/292/1
f 236/236/1 292/292/1 291/291/1
f 237/237/1 238/238/1 293/293/1
f 237/237/1 293/293/1 292/292/1
f 238/238/1 239/239/1 294/294/1
f 238/238/1 294/294/1 293/293/1
f 239/239/1 240/240/1 295/295/1
f 239/239/1 295/295/1 294/294/1
f 240/240/1 241/241/1 296/296/1
f 240/240/1 296/296/1 295/295/1
f 241/241/1 242/242/1 297/297/1
f 241/241/1 297/297/1 296/296/1
f 242/242/1 243/243/1 298/298/1
f 242/242/1 298/298/1 297/297/1
f 243/243/1 244/244/1 299/299/1
f 243/243/1 299/299/1 298/298/1
f 244/244/1 245/245/1 300/300/1
f 244/244/1 300/300/1 299/299/1
f 245/245/1 246/246/1 301/301/1
f 245/245/1 301/301/1 300/300/1
f 246/246/1 247/247/1 302/302/1
f 246/246/1 302/302/1 301/301/1
f 247/247/1 248/248/1 303/303/1
f 247/247/1 303/303/1 302/302/1
f 248/248/1 249/249/1 304/304/1
f 248/248/1 304/304/1 303/303/1
f 249/249/1 250/250/1 305/305/1
f 249/249/1 305/305/1 304/304/1
f 250/250/1 251/251/1 306/306/1
f 250/250/1 306/306/1 305/305/1
f 251/251/1 252/252/1 307/307/1
f 251/251/1 307/307/1 306/306/1
f 252/252/1 253/253/1 308/308/1
f 252/252/1 308/308/1 307/307/1
f 253/253/1 254/254/1 309/309/1
f 253/253/1 309/309/1 308/308/1
f 254/254/1 255/255/1 310/310/1
f 254/254/1 310/310/1 309/309/1
f 255/255/1 256/256/1 311/311/1
f 255/255/1 311/311/1 310/310/1
f 256/256/1 257/257/1 312/312/1
f 256/256/1 312/312/1 311/311/1
v -144.34 45.11 0.0104
vt -0.208 0.000
v -144.41 46.05 0.0104
vt -0.207 0.117
v -144.49 46.98 0.0104
vt -0.205 0.235
v -144.56 47.92 0.0104
vt -0.204 0.352
v -144.63 48.86 0.0104
vt -0.203 0.470
v -144.71 49.79 0.0104
vt -0.201 0.587
v -144.78 50.73 0.0104
vt -0.200 0.705
v -144.85 51.67 0.0104
vt -0.199 0.822
v -144.92 52.61 0.0104
vt -0.198 0.940
v -144.99 53.54 0.0104
vt -0.197 1.057
v -145.06 54.48 0.0104
vt -0.197 1.174
v -145.12 55.42 0.0104
vt -0.196 1.292
v -145.19 56.35 0.0104
vt -0.196 1.409
v -145.25 57.29 0.0104
vt -0.196 1.527
v -145.31 58.23 0.0104
vt -0.196 1.644
v -145.37 59.17 0.0104
vt -0.197 1.762
v -145.42 60.11 0.0104
vt -0.197 1.879
v -145.49 61.08 0.0104
vt -0.198 1.997
v -145.58 62.06 0.0104
vt -0.199 2.116
v -145.68 63.03 0.0104
vt -0.201 2.236
v -145.78 64.00 0.0104
vt -0.202 2.356
v -145.90 64.96 0.0104
vt -0.204 2.477
v -146.01 65.92 0.0104
vt -0.206 2.598
v -146.11 66.87 0.0104
vt -0.208 2.718
v -146.21 67.82 0.0104
vt -0.210 2.839
v -146.29 68.74 0.0104
vt -0.212 2.958
v -146.36 69.66 0.0104
vt -0.214 3.077
v -146.41 70.56 0.0104
vt -0.216 3.195
v -146.43 71.44 0.0104
vt -0.217 3.311
v -146.43 72.30 0.0104
vt -0.219 3.426
v -146.40 73.14 0.0104
vt -0.221 3.540
v -146.33 73.96 0.0104
vt -0.222 3.652
v -146.23 74.74 0.0104
vt -0.223 3.763
v -146.07 75.64 0.0104
vt -0.225 3.889
v -145.85 76.53 0.0104
vt -0.226 4.016
v -145.59 77.43 0.0104
vt -0.226 4.142
v -145.29 78.32 0.0104
vt -0.227 4.269
v -144.96 79.22 0.0104
vt -0.227 4.396
v -144.60 80.12 0.0104
vt -0.228 4.523
v -144.21 81.01 0.0104
vt -0.228 4.651
v -143.80 81.91 0.0104
vt -0.227 4.777
v -143.39 82.81 0.0104
vt -0.227 4.903
v -142.97 83.71 0.0104
vt -0.227 5.028
v -142.54 84.61 0.0104
vt -0.226 5.152
v -142.13 85.51 0.0104
vt -0.226 5.273
v -141.73 86.41 0.0104
vt -0.225 5.393
v -141.35 87.30 0.0104
vt -0.224 5.511
v -140.97 88.21 0.0104
vt -0.224 5.634
v -140.59 89.09 0.0104
vt -0.223 5.755
v -140.22 89.95 0.0104
vt -0.223 5.875
v -139.84 90.80 0.0104
vt -0.222 5.992
v -139.46 91.64 0.0104
vt -0.222 6.108
v -139.08 92.46 0.0104
vt -0.222 6.223
v -138.70 93.29 0.0104
vt -0.222 6.337
v -138.31 94.11 0.0104
vt -0.222 6.450
v -137.93 94.93 0.0104
vt -0.222 6.564
v -137.54 95.75 0.0104
vt -0.223 6.677
v -137.15 96.57 0.0104
vt -0.224 6.791
v -136.75 97.41 0.0104
vt -0.224 6.905
v -136.36 98.25 0.0104
vt -0.225 7.021
v -147.66 44.89 0.0104
vt 0.208 0.000
v -147.71 45.83 0.0104
vt 0.207 0.117
v -147.76 46.77 0.0104
vt 0.205 0.235
v -147.81 47.70 0.0104
vt 0.204 0.352
v -147.87 48.64 0.0104
vt 0.203 0.470
v -147.92 49.58 0.0104
vt 0.201 0.587
v -147.97 50.52 0.0104
vt 0.200 0.705
v -148.03 51.46 0.0104
vt 0.199 0.822
v -148.08 52.39 0.0104
vt 0.198 0.940
v -148.14 53.33 0.0104
vt 0.197 1.057
v -148.19 54.27 0.0104
vt 0.197 1.174
v -148.25 55.21 0.0104
vt 0.196 1.292
v -148.31 56.15 0.0104
vt 0.196 1.409
v -148.38 57.08 0.0104
vt 0.196 1.527
v -148.44 58.02 0.0104
vt 0.196 1.644
v -148.51 58.96 0.0104
vt 0.197 1.762
v -148.58 59.89 0.0104
vt 0.197 1.879
v -148.65 60.80 0.0104
vt 0.198 1.997
v -148.75 61.72 0.0104
vt 0.199 2.116
v -148.87 62.65 0.0104
vt 0.201 2.236
v -149.00 63.59 0.0104
vt 0.202 2.356
v -149.13 64.55 0.0104
vt 0.204 2.477
v -149.27 65.50 0.0104
vt 0.206 2.598
v -149.41 66.47 0.0104
vt 0.208 2.718
v -149.54 67.43 0.0104
vt 0.210 2.839
v -149.66 68.41 0.0104
vt 0.212 2.958
v -149.77 69.38 0.0104
vt 0.214 3.077
v -149.85 70.36 0.0104
vt 0.216 3.195
v -149.91 71.34 0.0104
vt 0.217 3.311
v -149.94 72.32 0.0104
vt 0.219 3.426
v -149.93 73.30 0.0104
vt 0.221 3.540
v -149.87 74.28 0.0104
vt 0.222 3.652
v -149.77 75.26 0.0104
vt 0.223 3.763
v -149.59 76.35 0.0104
vt 0.225 3.889
v -149.35 77.43 0.0104
vt 0.226 4.016
v -149.06 78.48 0.0104
vt 0.226 4.142
v -148.72 79.52 0.0104
vt 0.227 4.269
v -148.36 80.53 0.0104
vt 0.227 4.396
v -147.96 81.52 0.0104
vt 0.228 4.523
v -147.54 82.49 0.0104
vt 0.228 4.651
v -147.11 83.43 0.0104
vt 0.227 4.777
v -146.68 84.36 0.0104
vt 0.227 4.903
v -146.24 85.27 0.0104
vt 0.227 5.028
v -145.82 86.15 0.0104
vt 0.226 5.152
v -145.41 87.02 0.0104
vt 0.226 5.273
v -145.02 87.87 0.0104
vt 0.225 5.393
v -144.65 88.70 0.0104
vt 0.224 5.511
v -144.26 89.61 0.0104
vt 0.224 5.634
v -143.87 90.52 0.0104
vt 0.223 5.755
v -143.47 91.40 0.0104
vt 0.223 5.875
v -143.08 92.26 0.0104
vt 0.222 5.992
v -142.69 93.12 0.0104
vt 0.222 6.108
v -142.30 93.96 0.0104
vt 0.222 6.223
v -141.92 94.79 0.0104
vt 0.222 6.337
v -141.53 95.61 0.0104
vt 0.222 6.450
v -141.15 96.44 0.0104
vt 0.222 6.564
v -140.77 97.26 0.0104
vt 0.223 6.677
v -140.39 98.08 0.0104
vt 0.224 6.791
v -140.02 98.91 0.0104
vt 0.224 6.905
v -139.64 99.75 0.0104
vt 0.225 7.021
f 313/313/1 314/314/1 374/374/1
f 313/313/1 374/374/1 373/373/1
f 314/314/1 315/315/1 375/375/1
f 314/314/1 375/375/1 374/374/1
f 315/315/1 316/316/1 376/376/1
f 315/315/1 376/376/1 375/375/1
f 316/316/1 317/317/1 377/377/1
f 316/316/1 377/377/1 376/376/1
f 317/317/1 318/318/1 378/378/1
f 317/317/1 378/378/1 377/377/1
f 318/318/1 319/319/1 379/379/1
f 318/318/1 379/379/1 378/378/1
f 319/319/1 320/320/1 380/380/1
f 319/319/1 380/380/1 379/379/1
f 320/320/1 321/321/1 381/381/1
f 320/320/1 381/381/1 380/380/1
f 321/321/1 322/322/1 382/382/1
f 321/321/1 382/382/1 381/381/1
f 322/322/1 323/323/1 383/383/1
f 322/322/1 383/383/1 382/382/1
f 323/323/1 324/324/1 384/384/1
f 323/323/1 384/384/1 383/383/1
f 324/324/1 325/325/1 385/385/1
f 324/324/1 385/385/1 384/384/1
f 325/325/1 326/326/1 386/386/1
f 325/325/1 386/386/1 385/385/1
f 326/326/1 327/327/1 387/387/1
f 326/326/1 387/387/1 386/386/1
f 327/327/1 328/328/1 388/388/1
f 327/327/1 388/388/1 387/387/1
f 328/328/1 329/329/1 389/389/1
f 328/328/1 389/389/1 388/388/1
f 329/329/1 330/330/1 390/390/1
f 329/329/1 390/390/1 389/389/1
f 330/330/1 331/331/1 391/391/1
f 330/330/1 391/391/1 390/390/1
f 331/331/1 332/332/1 392/392/1
f 331/331/1 392/392/1 391/391/1
f 332/332/1 333/333/1 393/393/1
f 332/332/1 393/393/1 392/392/1
f 333/333/1 334/334/1 394/394/1
f 333/333/1 394/394/1 393/393/1
f 334/334/1 335/335/1 395/395/1
f 334/334/1 395/395/1 394/394/1
f 335/335/1 336/336/1 396/396/1
f 335/335/1 396/396/1 395/395/1
f 336/336/1 337/337/1 397/397/1
f 336/336/1 397/397/1 396/396/1
f 337/337/1 338/338/1 398/398/1
f 337/337/1 398/398/1 397/397/1
f 338/338/1 339/339/1 399/399/1
f 338/338/1 399/399/1 398/398/1
f 339/339/1 340/340/1 400/400/1
f 339/339/1 400/400/1 399/399/1
f 340/340/1 341/341/1 401/401/1
f 340/340/1 401/401/1 400/400/1
f 341/341/1 342/342/1 402/402/1
f 341/341/1 402/402/1 401/401/1
f 342/342/1 343/343/1 403/403/1
f 342/342/1 403/403/1 402/402/1
f 343/343/1 344/344/1 404/404/1
f 343/343/1 404/404/1 403/403/1
f 344/344/1 345/345/1 405/405/1
f 344/344/1 405/405/1 404/404/1
f 345/345/1 346/346/1 406/406/1
f 345/345/1 406/406/1 405/405/1
f 346/346/1 347/347/1 407/407/1
f 346/346/1 407/407/1 406/406/1
f 347/347/1 348/348/1 408/408/1
f 347/347/1 408/408/1 407/407/1
f 348/348/1 349/349/1 409/409/1
f 348/348/1 409/409/1 408/408/1
f 349/349/1 350/350/1 410/410/1
f 349/349/1 410/410/1 409/409/1
f 350/350/1 351/351/1 411/411/1
f 350/350/1 411/411/1 410/410/1
f 351/351/1 352/352/1 412/412/1
f 351/351/1 412/412/1 411/411/1
f 352/352/1 353/353/1 413/413/1
f 352/352/1 413/413/1 412/412/1
f 353/353/1 354/354/1 414/414/1
f 353/353/1 414/414/1 413/413/1
f 354/354/1 355/355/1 415/415/1
f 354/354/1 415/415/1 414/414/1
f 355/355/1 356/356/1 416/416/1
f 355/355/1 416/416/1 415/415/1
f 356/356/1 357/357/1 417/417/1
f 356/356/1 417/417/1 416/416/1
f 357/357/1 358/358/1 418/418/1
f 357/357/1 418/418/1 417/417/1
f 358/358/1 359/359/1 419/419/1
f 358/358/1 419/419/1 418/418/1
f 359/359/1 360/360/1 420/420/1
f 359/359/1 420/420/1 419/419/1
f 360/360/1 361/361/1 421/421/1
f 360/360/1 421/421/1 420/420/1
f 361/361/1 362/362/1 422/422/1
f 361/361/1 422/422/1 421/421/1
f 362/362/1 363/363/1 423/423/1
f 362/362/1 423/423/1 422/422/1
f 363/363/1 364/364/1 424/424/1
f 363/363/1 424/424/1 423/423/1
f 364/364/1 365/365/1 425/425/1
f 364/364/1 425/425/1 424/424/1
f 365/365/1 366/366/1 426/426/1
f 365/365/1 426/426/1 425/425/1
f 366/366/1 367/367/1 427/427/1
f 366/366/1 427/427/1 426/426/1
f 367/367/1 368/368/1 428/428/1
f 367/367/1 428/428/1 427/427/1
f 368/368/1 369/369/1 429/429/1
f 368/368/1 429/429/1 428/428/1
f 369/369/1 370/370/1 430/430/1
f 369/369/1 430/430/1 429/429/1
f 370/370/1 371/371/1 431/431/1
f 370/370/1 431/431/1 430/430/1
f 371/371/1 372/372/1 432/432/1
f 371/371/1 432/432/1 431/431/1
v -20.40 45.47 0.0116
vt -0.209 0.000
v -20.68 46.40 0.0116
vt -0.208 0.123
v -20.94 47.33 0.0116
vt -0.207 0.247
v -21.20 48.29 0.0116
vt -0.207 0.373
v -21.45 49.27 0.0116
vt -0.207 0.500
v -21.70 50.26 0.0116
vt -0.207 0.628
v -21.95 51.25 0.0116
vt -0.207 0.755
v -22.21 52.24 0.0116
vt -0.207 0.881
v -22.47 53.23 0.0116
vt -0.208 1.006
v -22.75 54.21 0.0116
vt -0.209 1.130
v -23.05 55.17 0.0116
vt -0.209 1.251
v -23.36 56.11 0.0116
vt -0.210 1.369
v -23.71 57.04 0.0116
vt -0.211 1.484
v -24.08 57.93 0.0116
vt -0.211 1.595
v -24.50 58.79 0.0116
vt -0.212 1.703
v -25.05 59.77 0.0116
vt -0.213 1.832
v -25.62 60.67 0.0116
vt -0.213 1.952
v -26.21 61.48 0.0116
vt -0.213 2.065
v -26.82 62.23 0.0116
vt -0.214 2.174
v -27.45 62.92 0.0116
vt -0.214 2.282
v -28.10 63.59 0.0116
vt -0.214 2.392
v -28.77 64.24 0.0116
vt -0.214 2.505
v -29.47 64.90 0.0116
vt -0.213 2.624
v -30.20 65.59 0.0116
vt -0.213 2.752
v -30.96 66.34 0.0116
vt -0.212 2.889
v -31.79 67.17 0.0116
vt -0.211 3.039
v -32.36 67.76 0.0116
vt -0.210 3.143
v -32.97 68.40 0.0116
vt -0.209 3.253
v -33.62 69.06 0.0116
vt -0.208 3.368
v -34.29 69.74 0.0116
vt -0.207 3.487
v -34.98 70.44 0.0116
vt -0.205 3.610
v -35.70 71.16 0.0116
vt -0.204 3.736
v -36.43 71.89 0.0116
vt -0.203 3.864
v -37.17 72.63 0.0116
vt -0.201 3.995
v -37.92 73.38 0.0116
vt -0.200 4.127
v -38.68 74.13 0.0116
vt -0.199 4.260
v -39.45 74.88 0.0116
vt -0.198 4.392
v -40.21 75.62 0.0116
vt -0.198 4.525
v -40.97 76.36 0.0116
vt -0.197 4.656
v -41.73 77.09 0.0116
vt -0.197 4.786
v -42.47 77.80 0.0116
vt -0.197 4.914
v -43.21 78.50 0.0116
vt -0.198 5.039
v -43.94 79.18 0.0116
vt -0.198 5.160
v -44.76 79.90 0.0116
vt -0.199 5.289
v -45.62 80.61 0.0116
vt -0.200 5.421
v -46.51 81.29 0.0116
vt -0.202 5.556
v -47.42 81.95 0.0116
vt -0.204 5.692
v -48.33 82.60 0.0116
vt -0.206 5.829
v -49.23 83.23 0.0116
vt -0.208 5.966
v -50.11 83.85 0.0116
vt -0.210 6.101
v -50.97 84.46 0.0116
vt -0.212 6.235
v -51.78 85.05 0.0116
vt -0.214 6.365
v -52.54 85.64 0.0116
vt -0.217 6.491
v -53.24 86.21 0.0116
vt -0.219 6.612
v -53.86 86.77 0.0116
vt -0.220 6.728
v -54.38 87.31 0.0116
vt -0.222 6.837
v -54.81 87.82 0.0116
vt -0.223 6.941
v -55.13 88.29 0.0116
vt -0.225 7.037
v -55.32 88.67 0.0116
vt -0.226 7.129
v -55.50 89.25 0.0116
vt -0.227 7.244
v -55.54 89.81 0.0116
vt -0.228 7.357
v -55.49 90.42 0.0116
vt -0.229 7.470
v -55.34 91.12 0.0116
vt -0.230 7.587
v -55.08 91.88 0.0116
vt -0.230 7.707
v -54.75 92.70 0.0116
vt -0.230 7.832
v -54.34 93.58 0.0116
vt -0.230 7.960
v -53.90 94.49 0.0116
vt -0.230 8.090
v -53.44 95.44 0.0116
vt -0.230 8.219
v -52.99 96.42 0.0116
vt -0.230 8.347
v -52.58 97.45 0.0116
vt -0.229 8.472
v -52.26 98.44 0.0116
vt -0.228 8.592
v -23.60 44.53 0.0116
vt 0.209 0.000
v -23.88 45.48 0.0116
vt 0.208 0.123
v -24.15 46.47 0.0116
vt 0.207 0.247
v -24.41 47.46 0.0116
vt 0.207 0.373
v -24.66 48.45 0.0116
vt 0.207 0.500
v -24.91 49.44 0.0116
vt 0.207 0.628
v -25.16 50.42 0.0116
vt 0.207 0.755
v -25.42 51.38 0.0116
vt 0.207 0.881
v -25.68 52.33 0.0116
vt 0.208 1.006
v -25.95 53.25 0.0116
vt 0.209 1.130
v -26.23 54.13 0.0116
vt 0.209 1.251
v -26.52 54.98 0.0116
vt 0.210 1.369
v -26.83 55.77 0.0116
vt 0.211 1.484
v -27.16 56.52 0.0116
vt 0.211 1.595
v -27.50 57.21 0.0116
vt 0.212 1.703
v -27.96 58.03 0.0116
vt 0.213 1.832
v -28.43 58.74 0.0116
vt 0.213 1.952
v -28.91 59.39 0.0116
vt 0.213 2.065
v -29.41 59.99 0.0116
vt 0.214 2.174
v -29.94 60.57 0.0116
vt 0.214 2.282
v -30.52 61.16 0.0116
vt 0.214 2.392
v -31.15 61.78 0.0116
vt 0.214 2.505
v -31.83 62.43 0.0116
vt 0.213 2.624
v -32.57 63.15 0.0116
vt 0.213 2.752
v -33.37 63.95 0.0116
vt 0.212 2.889
v -34.21 64.83 0.0116
vt 0.211 3.039
v -34.79 65.45 0.0116
vt 0.210 3.143
v -35.39 66.09 0.0116
vt 0.209 3.253
v -36.02 66.75 0.0116
vt 0.208 3.368
v -36.67 67.44 0.0116
vt 0.207 3.487
v -37.34 68.15 0.0116
vt 0.205 3.610
v -38.03 68.88 0.0116
vt 0.204 3.736
v -38.74 69.62 0.0116
vt 0.203 3.864
v -39.46 70.37 0.0116
vt 0.201 3.995
v -40.20 71.12 0.0116
vt 0.200 4.127
v -40.94 71.87 0.0116
vt 0.199 4.260
v -41.68 72.62 0.0116
vt 0.198 4.392
v -42.43 73.37 0.0116
vt 0.198 4.525
v -43.17 74.10 0.0116
vt 0.197 4.656
v -43.91 74.81 0.0116
vt 0.197 4.786
v -44.64 75.51 0.0116
vt 0.197 4.914
v -45.36 76.18 0.0116
vt 0.198 5.039
v -46.06 76.82 0.0116
vt 0.198 5.160
v -46.80 77.45 0.0116
vt 0.199 5.289
v -47.58 78.07 0.0116
vt 0.200 5.421
v -48.42 78.68 0.0116
vt 0.202 5.556
v -49.29 79.28 0.0116
vt 0.204 5.692
v -50.18 79.88 0.0116
vt 0.206 5.829
v -51.09 80.48 0.0116
vt 0.208 5.966
v -52.00 81.07 0.0116
vt 0.210 6.101
v -52.91 81.67 0.0116
vt 0.212 6.235
v -53.79 82.27 0.0116
vt 0.214 6.365
v -54.65 82.89 0.0116
vt 0.217 6.491
v -55.48 83.52 0.0116
vt 0.219 6.612
v -56.25 84.18 0.0116
vt 0.220 6.728
v -56.97 84.88 0.0116
vt 0.222 6.837
v -57.63 85.62 0.0116
vt 0.223 6.941
v -58.20 86.42 0.0116
vt 0.225 7.037
v -58.68 87.33 0.0116
vt 0.226 7.129
v -59.05 88.51 0.0116
vt 0.227 7.244
v -59.19 89.75 0.0116
vt 0.228 7.357
v -59.12 90.94 0.0116
vt 0.229 7.470
v -58.89 92.07 0.0116
vt 0.230 7.587
v -58.54 93.14 0.0116
vt 0.230 7.707
v -58.13 94.17 0.0116
vt 0.230 7.832
v -57.68 95.16 0.0116
vt 0.230 7.960
v -57.21 96.10 0.0116
vt 0.230 8.090
v -56.76 97.02 0.0116
vt 0.230 8.219
v -56.36 97.89 0.0116
vt 0.230 8.347
v -56.02 98.71 0.0116
vt 0.229 8.472
v -55.74 99.56 0.0116
vt 0.228 8.592
f 433/433/1 434/434/1 505/505/1
f 433/433/1 505/505/1 504/504/1
f 434/434/1 435/435/1 506/506/1
f 434/434/1 506/506/1 505/505/1
f 435/435/1 436/436/1 507/507/1
f 435/435/1 507/507/1 506/506/1
f 436/436/1 437/437/1 508/508/1
f 436/436/1 508/508/1 507/507/1
f 437/437/1 438/438/1 509/509/1
f 437/437/1 509/509/1 508/508/1
f 438/438/1 439/439/1 510/510/1
f 438/438/1 510/510/1 509/509/1
f 439/439/1 440/440/1 511/511/1
f 439/439/1 511/511/1 510/510/1
f 440/440/1 441/441/1 512/512/1
f 440/440/1 512/512/1 511/511/1
f 441/441/1 442/442/1 513/513/1
f 441/441/1 513/513/1 512/512/1
f 442/442/1 443/443/1 514/514/1
f 442/442/1 514/514/1 513/513/1
f 443/443/1 444/444/1 515/515/1
f 443/443/1 515/515/1 514/514/1
f 444/444/1 445/445/1 516/516/1
f 444/444/1 516/516/1 515/515/1
f 445/445/1 446/446/1 517/517/1
f 445/445/1 517/517/1 516/516/1
f 446/446/1 447/447/1 518/518/1
f 446/446/1 518/518/1 517/517/1
f 447/447/1 448/448/1 519/519/1
f 447/447/1 519/519/1 518/518/1
f 448/448/1 449/449/1 520/520/1
f 448/448/1 520/520/1 519/519/1
f 449/449/1 450/450/1 521/521/1
f 449/449/1 521/521/1 520/520/1
f 450/450/1 451/451/1 522/522/1
f 450/450/1 522/522/1 521/521/1
f 451/451/1 452/452/1 523/523/1
f 451/451/1 523/523/1 522/522/1
f 452/452/1 453/453/1 524/524/1
f 452/452/1 524/524/1 523/523/1
f 453/453/1 454/454/1 525/525/1
f 453/453/1 525/525/1 524/524/1
f 454/454/1 455/455/1 526/526/1
f 454/454/1 526/526/1 525/525/1
f 455/455/1 456/456/1 527/527/1
f 455/455/1 527/527/1 526/526/1
f 456/456/1 457/457/1 528/528/1
f 456/456/1 528/528/1 527/527/1
f 457/457/1 458/458/1 529/529/1
f 457/457/1 529/529/1 528/528/1
f 458/458/1 459/459/1 530/530/1
f 458/458/1 530/530/1 529/529/1
f 459/459/1 460/460/1 531/531/1
f 459/459/1 531/531/1 530/530/1
f 460/460/1 461/461/1 532/532/1
f 460/460/1 532/532/1 531/531/1
f 461/461/1 462/462/1 533/533/1
f 461/461/1 533/533/1 532/532/1
f 462/462/1 463/463/1 534/534/1
f 462/462/1 534/534/1 533/533/1
f 463/463/1 464/464/1 535/535/1
f 463/463/1 535/535/1 534/534/1
f 464/464/1 465/465/1 536/536/1
f 464/464/1 536/536/1 535/535/1
f 465/465/1 466/466/1 537/537/1
f 465/465/1 537/537/1 536/536/1
f 466/466/1 467/467/1 538/538/1
f 466/466/1 538/538/1 537/537/1
f 467/467/1 468/468/1 539/539/1
f 467/467/1 539/539/1 538/538/1
f 468/468/1 469/469/1 540/540/1
f 468/468/1 540/540/1 539/539/1
f 469/469/1 470/470/1 541/541/1
f 469/469/1 541/541/1 540/540/1
f 470/470/1 471/471/1 542/542/1
f 470/470/1 542/542/1 541/541/1
f 471/471/1 472/472/1 543/543/1
f 471/471/1 543/543/1 542/542/1
f 472/472/1 473/473/1 544/544/1
f 472/472/1 544/544/1 543/543/1
f 473/473/1 474/474/1 545/545/1
f 473/473/1 545/545/1 544/544/1
f 474/474/1 475/475/1 546/546/1
f 474/474/1 546/546/1 545/545/1
f 475/475/1 476/476/1 547/547/1
f 475/475/1 547/547/1 546/546/1
f 476/476/1 477/477/1 548/548/1
f 476/476/1 548/548/1 547/547/1
f 477/477/1 478/478/1 549/549/1
f 477/477/1 549/549/1 548/548/1
f 478/478/1 479/479/1 550/550/1
f 478/478/1 550/550/1 549/549/1
f 479/479/1 480/480/1 551/551/1
f 479/479/1 551/551/1 550/550/1
f 480/480/1 481/481/1 552/552/1
f 480/480/1 552/552/1 551/551/1
f 481/481/1 482/482/1 553/553/1
f 481/481/1 553/553/1 552/552/1
f 482/482/1 483/483/1 554/554/1
f 482/482/1 554/554/1 553/553/1
f 483/483/1 484/484/1 555/555/1
f 483/483/1 555/555/1 554/554/1
f 484/484/1 485/485/1 556/556/1
f 484/484/1 556/556/1 555/555/1
f 485/485/1 486/486/1 557/557/1
f 485/485/1 557/557/1 556/556/1
f 486/486/1 487/487/1 558/558/1
f 486/486/1 558/558/1 557/557/1
f 487/487/1 488/488/1 559/559/1
f 487/487/1 559/559/1 558/558/1
f 488/488/1 489/489/1 560/560/1
f 488/488/1 560/560/1 559/559/1
f 489/489/1 490/490/1 561/561/1
f 489/489/1 561/561/1 560/560/1
f 490/490/1 491/491/1 562/562/1
f 490/490/1 562/562/1 561/561/1
f 491/491/1 492/492/1 563/563/1
f 491/491/1 563/563/1 562/562/1
f 492/492/1 493/493/1 564/564/1
f 492/492/1 564/564/1 563/563/1
f 493/493/1 494/494/1 565/565/1
f 493/493/1 565/565/1 564/564/1
f 494/494/1 495/495/1 566/566/1
f 494/494/1 566/566/1 565/565/1
f 495/495/1 496/496/1 567/567/1
f 495/495/1 567/567/1 566/566/1
f 496/496/1 497/497/1 568/568/1
f 496/496/1 568/568/1 567/567/1
f 497/497/1 498/498/1 569/569/1
f 497/497/1 569/569/1 568/568/1
f 498/498/1 499/499/1 570/570/1
f 498/498/1 570/570/1 569/569/1
f 499/499/1 500/500/1 571/571/1
f 499/499/1 571/571/1 570/570/1
f 500/500/1 501/501/1 572/572/1
f 500/500/1 572/572/1 571/571/1
f 501/501/1 502/502/1 573/573/1
f 501/501/1 573/573/1 572/572/1
f 502/502/1 503/503/1 574/574/1
f 502/502/1 574/574/1 573/573/1
v -22.20 1.50 0.0128
vt -0.234 0.000
v -21.93 2.45 0.0128
vt -0.234 0.123
v -21.67 3.39 0.0128
vt -0.235 0.244
v -21.41 4.33 0.0128
vt -0.235 0.365
v -21.16 5.27 0.0128
vt -0.236 0.486
v -20.91 6.20 0.0128
vt -0.236 0.607
v -20.67 7.13 0.0128
vt -0.235 0.727
v -20.43 8.07 0.0128
vt -0.235 0.847
v -20.18 9.00 0.0128
vt -0.234 0.967
v -19.94 9.93 0.0128
vt -0.234 1.088
v -19.70 10.86 0.0128
vt -0.233 1.209
v -19.46 11.79 0.0128
vt -0.231 1.330
v -19.22 12.73 0.0128
vt -0.230 1.452
v -18.97 13.68 0.0128
vt -0.228 1.575
v -18.72 14.63 0.0128
vt -0.226 1.699
v -18.46 15.58 0.0128
vt -0.224 1.823
v -18.20 16.54 0.0128
vt -0.222 1.949
v -17.92 17.51 0.0128
vt -0.220 2.077
v -17.65 18.49 0.0128
vt -0.218 2.205
v -17.35 19.48 0.0128
vt -0.216 2.335
v -17.09 20.37 0.0128
vt -0.214 2.451
v -16.82 21.29 0.0128
vt -0.212 2.570
v -16.55 22.23 0.0128
vt -0.210 2.693
v -16.26 23.20 0.0128
vt -0.208 2.819
v -15.97 24.18 0.0128
vt -0.206 2.947
v -15.67 25.17 0.0128
vt -0.205 3.077
v -15.37 26.18 0.0128
vt -0.203 3.208
v -15.06 27.18 0.0128
vt -0.202 3.340
v -14.74 28.19 0.0128
vt -0.202 3.473
v -14.42 29.19 0.0128
vt -0.201 3.605
v -14.10 30.18 0.0128
vt -0.201 3.736
v -13.77 31.16 0.0128
vt -0.201 3.867
v -13.44 32.12 0.0128
vt -0.201 3.995
v -13.11 33.06 0.0128
vt -0.202 4.121
v -12.78 33.97 0.0128
vt -0.202 4.244
v -12.44 34.86 0.0128
vt -0.203 4.364
v -12.11 35.70 0.0128
vt -0.204 4.481
v -11.78 36.51 0.0128
vt -0.205 4.592
v -11.46 37.27 0.0128
vt -0.206 4.699
v -11.14 37.98 0.0128
vt -0.206 4.801
v -10.83 38.64 0.0128
vt -0.207 4.897
v -10.54 39.20 0.0128
vt -0.208 4.987
v -9.88 40.34 0.0128
vt -0.209 5.163
v -9.26 41.21 0.0128
vt -0.210 5.316
v -8.66 41.91 0.0128
vt -0.211 5.451
v -8.07 42.48 0.0128
vt -0.212 5.573
v -7.46 42.97 0.0128
vt -0.212 5.687
v -6.82 43.44 0.0128
vt -0.212 5.795
v -6.12 43.92 0.0128
vt -0.212 5.902
v -5.38 44.45 0.0128
vt -0.212 6.009
v -4.60 45.07 0.0128
vt -0.212 6.120
v -3.86 45.75 0.0128
vt -0.212 6.239
v -25.80 2.50 0.0128
vt 0.234 0.000
v -25.55 3.44 0.0128
vt 0.234 0.123
v -25.30 4.38 0.0128
vt 0.235 0.244
v -25.05 5.31 0.0128
vt 0.235 0.365
v -24.80 6.24 0.0128
vt 0.236 0.486
v -24.56 7.17 0.0128
vt 0.236 0.607
v -24.31 8.10 0.0128
vt 0.235 0.727
v -24.06 9.03 0.0128
vt 0.235 0.847
v -23.81 9.96 0.0128
vt 0.234 0.967
v -23.56 10.89 0.0128
vt 0.234 1.088
v -23.30 11.83 0.0128
vt 0.233 1.209
v -23.03 12.77 0.0128
vt 0.231 1.330
v -22.76 13.71 0.0128
vt 0.230 1.452
v -22.48 14.66 0.0128
vt 0.228 1.575
v -22.20 15.62 0.0128
vt 0.226 1.699
v -21.91 16.58 0.0128
vt 0.224 1.823
v -21.61 17.55 0.0128
vt 0.222 1.949
v -21.30 18.53 0.0128
vt 0.220 2.077
v -20.98 19.52 0.0128
vt 0.218 2.205
v -20.65 20.52 0.0128
vt 0.216 2.335
v -20.35 21.39 0.0128
vt 0.214 2.451
v -20.05 22.30 0.0128
vt 0.212 2.570
v -19.75 23.23 0.0128
vt 0.210 2.693
v -19.44 24.18 0.0128
vt 0.208 2.819
v -19.12 25.16 0.0128
vt 0.206 2.947
v -18.80 26.15 0.0128
vt 0.205 3.077
v -18.47 27.15 0.0128
vt 0.203 3.208
v -18.14 28.16 0.0128
vt 0.202 3.340
v -17.81 29.18 0.0128
vt 0.202 3.473
v -17.48 30.19 0.0128
vt 0.201 3.605
v -17.15 31.19 0.0128
vt 0.201 3.736
v -16.82 32.19 0.0128
vt 0.201 3.867
v -16.48 33.17 0.0128
vt 0.201 3.995
v -16.15 34.14 0.0128
vt 0.202 4.121
v -15.82 35.08 0.0128
vt 0.202 4.244
v -15.48 36.00 0.0128
vt 0.203 4.364
v -15.15 36.89 0.0128
vt 0.204 4.481
v -14.82 37.75 0.0128
vt 0.205 4.592
v -14.48 38.56 0.0128
vt 0.206 4.699
v -14.15 39.34 0.0128
vt 0.206 4.801
v -13.81 40.08 0.0128
vt 0.207 4.897
v -13.46 40.80 0.0128
vt 0.208 4.987
v -12.72 42.12 0.0128
vt 0.209 5.163
v -11.94 43.25 0.0128
vt 0.210 5.316
v -11.14 44.21 0.0128
vt 0.211 5.451
v -10.33 45.00 0.0128
vt 0.212 5.573
v -9.54 45.65 0.0128
vt 0.212 5.687
v -8.78 46.21 0.0128
vt 0.212 5.795
v -8.08 46.70 0.0128
vt 0.212 5.902
v -7.42 47.17 0.0128
vt 0.212 6.009
v -6.80 47.65 0.0128
vt 0.212 6.120
v -6.14 48.25 0.0128
vt 0.212 6.239
f 575/575/1 576/576/1 628/628/1
f 575/575/1 628/628/1 627/627/1
f 576/576/1 577/577/1 629/629/1
f 576/576/1 629/629/1 628/628/1
f 577/577/1 578/578/1 630/630/1
f 577/577/1 630/630/1 629/629/1
f 578/578/1 579/579/1 631/631/1
f 578/578/1 631/631/1 630/630/1
f 579/579/1 580/580/1 632/632/1
f 579/579/1 632/632/1 631/631/1
f 580/580/1 581/581/1 633/633/1
f 580/580/1 633/633/1 632/632/1
f 581/581/1 582/582/1 634/634/1
f 581/581/1 634/634/1 633/633/1
f 582/582/1 583/583/1 635/635/1
f 582/582/1 635/635/1 634/634/1
f 583/583/1 584/584/1 636/636/1
f 583/583/1 636/636/1 635/635/1
f 584/584/1 585/585/1 637/637/1
f 584/584/1 637/637/1 636/636/1
f 585/585/1 586/586/1 638/638/1
f 585/585/1 638/638/1 637/637/1
f 586/586/1 587/587/1 639/639/1
f 586/586/1 639/639/1 638/638/1
f 587/587/1 588/588/1 640/640/1
f 587/587/1 640/640/1 639/639/1
f 588/588/1 589/589/1 641/641/1
f 588/588/1 641/641/1 640/640/1
f 589/589/1 590/590/1 642/642/1
f 589/589/1 642/642/1 641/641/1
f 590/590/1 591/591/1 643/643/1
f 590/590/1 643/643/1 642/642/1
f 591/591/1 592/592/1 644/644/1
f 591/591/1 644/644/1 643/643/1
f 592/592/1 593/593/1 645/645/1
f 592/592/1 645/645/1 644/644/1
f 593/593/1 594/594/1 646/646/1
f 593/593/1 646/646/1 645/645/1
f 594/594/1 595/595/1 647/647/1
f 594/594/1 647/647/1 646/646/1
f 595/595/1 596/596/1 648/648/1
f 595/595/1 648/648/1 647/647/1
f 596/596/1 597/597/1 649/649/1
f 596/596/1 649/649/1 648/648/1
f 597/597/1 598/598/1 650/650/1
f 597/597/1 650/650/1 649/649/1
f 598/598/1 599/599/1 651/651/1
f 598/598/1 651/651/1 650/650/1
f 599/599/1 600/600/1 652/652/1
f 599/599/1 652/652/1 651/651/1
f 600/600/1 601/601/1 653/653/1
f 600/600/1 653/653/1 652/652/1
f 601/601/1 602/602/1 654/654/1
f 601/601/1 654/654/1 653/653/1
f 602/602/1 603/603/1 655/655/1
f 602/602/1 655/655/1 654/654/1
f 603/603/1 604/604/1 656/656/1
f 603/603/1 656/656/1 655/655/1
f 604/604/1 605/605/1 657/657/1
f 604/604/1 657/657/1 656/656/1
f 605/605/1 606/606/1 658/658/1
f 605/605/1 658/658/1 657/657/1
f 606/606/1 607/607/1 659/659/1
f 606/606/1 659/659/1 658/658/1
f 607/607/1 608/608/1 660/660/1
f 607/607/1 660/660/1 659/659/1
f 608/608/1 609/609/1 661/661/1
f 608/608/1 661/661/1 660/660/1
f 609/609/1 610/610/1 662/662/1
f 609/609/1 662/662/1 661/661/1
f 610/610/1 611/611/1 663/663/1
f 610/610/1 663/663/1 662/662/1
f 611/611/1 612/612/1 664/664/1
f 611/611/1 664/664/1 663/663/1
f 612/612/1 613/613/1 665/665/1
f 612/612/1 665/665/1 664/664/1
f 613/613/1 614/614/1 666/666/1
f 613/613/1 666/666/1 665/665/1
f 614/614/1 615/615/1 667/667/1
f 614/614/1 667/667/1 666/666/1
f 615/615/1 616/616/1 668/668/1
f 615/615/1 668/668/1 667/667/1
f 616/616/1 617/617/1 669/669/1
f 616/616/1 669/669/1 668/668/1
f 617/617/1 618/618/1 670/670/1
f 617/617/1 670/670/1 669/669/1
f 618/618/1 619/619/1 671/671/1
f 618/618/1 671/671/1 670/670/1
f 619/619/1 620/620/1 672/672/1
f 619/619/1 672/672/1 671/671/1
f 620/620/1 621/621/1 673/673/1
f 620/620/1 673/673/1 672/672/1
f 621/621/1 622/622/1 674/674/1
f 621/621/1 674/674/1 673/673/1
f 622/622/1 623/623/1 675/675/1
f 622/622/1 675/675/1 674/674/1
f 623/623/1 624/624/1 676/676/1
f 623/623/1 676/676/1 675/675/1
f 624/624/1 625/625/1 677/677/1
f 624/624/1 677/677/1 676/676/1
f 625/625/1 626/626/1 678/678/1
f 625/625/1 678/678/1 677/677/1
