# Village dirt tracks (world coordinates), generated by tools/layout_world.py: one strip per
# road along its curve, its width wandering; UVs tile every 8 m.
vn 0 0 1
v 31.53 1.01 0.0080
vt -0.228 0.000
v 32.06 1.85 0.0080
vt -0.227 0.124
v 32.61 2.71 0.0080
vt -0.226 0.250
v 33.15 3.58 0.0080
vt -0.225 0.378
v 33.71 4.47 0.0080
vt -0.225 0.508
v 34.27 5.36 0.0080
vt -0.225 0.639
v 34.83 6.27 0.0080
vt -0.225 0.772
v 35.40 7.17 0.0080
vt -0.226 0.905
v 35.97 8.08 0.0080
vt -0.227 1.040
v 36.55 9.00 0.0080
vt -0.228 1.174
v 37.13 9.91 0.0080
vt -0.230 1.309
v 37.70 10.81 0.0080
vt -0.231 1.443
v 38.28 11.71 0.0080
vt -0.234 1.577
v 38.85 12.61 0.0080
vt -0.236 1.710
v 39.43 13.49 0.0080
vt -0.238 1.843
v 40.00 14.36 0.0080
vt -0.241 1.974
v 40.56 15.22 0.0080
vt -0.243 2.103
v 41.12 16.06 0.0080
vt -0.246 2.230
v 41.68 16.89 0.0080
vt -0.248 2.356
v 42.22 17.69 0.0080
vt -0.250 2.479
v 42.76 18.48 0.0080
vt -0.252 2.599
v 43.29 19.24 0.0080
vt -0.254 2.717
v 43.80 19.97 0.0080
vt -0.256 2.831
v 44.31 20.67 0.0080
vt -0.257 2.941
v 44.80 21.34 0.0080
vt -0.258 3.048
v 45.27 21.98 0.0080
vt -0.260 3.152
v 45.73 22.58 0.0080
vt -0.260 3.250
v 46.18 23.14 0.0080
vt -0.261 3.345
v 46.60 23.65 0.0080
vt -0.261 3.434
v 47.46 24.64 0.0080
vt -0.262 3.605
v 48.16 25.40 0.0080
vt -0.262 3.747
v 48.75 25.97 0.0080
vt -0.262 3.865
v 49.24 26.39 0.0080
vt -0.262 3.965
v 49.68 26.70 0.0080
vt -0.261 4.053
v 50.11 26.96 0.0080
vt -0.261 4.135
v 50.60 27.22 0.0080
vt -0.261 4.216
v 51.18 27.50 0.0080
vt -0.260 4.302
v 51.89 27.84 0.0080
vt -0.260 4.398
v 52.72 28.26 0.0080
vt -0.259 4.508
v 53.70 28.79 0.0080
vt -0.258 4.638
v 54.82 29.45 0.0080
vt -0.257 4.792
v 56.11 30.27 0.0080
vt -0.256 4.977
v 56.72 30.68 0.0080
vt -0.256 5.067
v 57.36 31.10 0.0080
vt -0.255 5.162
v 58.03 31.54 0.0080
vt -0.255 5.263
v 58.73 32.00 0.0080
vt -0.255 5.368
v 59.47 32.48 0.0080
vt -0.255 5.478
v 60.23 32.98 0.0080
vt -0.255 5.592
v 61.02 33.49 0.0080
vt -0.255 5.709
v 61.83 34.01 0.0080
vt -0.256 5.830
v 62.67 34.54 0.0080
vt -0.256 5.954
v 63.52 35.08 0.0080
vt -0.257 6.081
v 64.40 35.64 0.0080
vt -0.258 6.210
v 65.28 36.20 0.0080
vt -0.260 6.342
v 66.19 36.76 0.0080
vt -0.261 6.475
v 67.10 37.33 0.0080
vt -0.263 6.609
v 68.02 37.91 0.0080
vt -0.265 6.745
v 68.94 38.48 0.0080
vt -0.266 6.881
v 69.87 39.06 0.0080
vt -0.268 7.018
v 70.80 39.64 0.0080
vt -0.270 7.155
v 71.73 40.21 0.0080
vt -0.271 7.292
v 72.65 40.79 0.0080
vt -0.273 7.428
v 73.57 41.36 0.0080
vt -0.274 7.564
v 74.48 41.93 0.0080
vt -0.275 7.698
v 75.37 42.49 0.0080
vt -0.275 7.830
v 76.26 43.05 0.0080
vt -0.275 7.961
v 77.12 43.60 0.0080
vt -0.275 8.089
v 77.97 44.14 0.0080
vt -0.275 8.215
v 78.80 44.66 0.0080
vt -0.274 8.338
v 79.61 45.18 0.0080
vt -0.274 8.458
v 80.39 45.68 0.0080
vt -0.272 8.575
v 81.14 46.16 0.0080
vt -0.271 8.687
v 82.06 46.74 0.0080
vt -0.269 8.823
v 82.94 47.30 0.0080
vt -0.267 8.956
v 83.82 47.84 0.0080
vt -0.265 9.086
v 84.67 48.38 0.0080
vt -0.263 9.213
v 85.52 48.89 0.0080
vt -0.261 9.338
v 86.35 49.40 0.0080
vt -0.258 9.461
v 87.17 49.90 0.0080
vt -0.256 9.581
v 87.98 50.39 0.0080
vt -0.254 9.700
v 88.78 50.87 0.0080
vt -0.252 9.818
v 89.58 51.35 0.0080
vt -0.250 9.934
v 90.38 51.82 0.0080
vt -0.248 10.050
v 91.17 52.30 0.0080
vt -0.246 10.165
v 91.96 52.77 0.0080
vt -0.244 10.280
v 92.75 53.24 0.0080
vt -0.243 10.395
v 93.55 53.72 0.0080
vt -0.241 10.510
v 94.35 54.20 0.0080
vt -0.240 10.625
v 95.15 54.68 0.0080
vt -0.239 10.742
v 95.97 55.18 0.0080
vt -0.239 10.859
v 96.79 55.68 0.0080
vt -0.238 10.978
v 97.62 56.20 0.0080
vt -0.238 11.099
v 98.46 56.73 0.0080
vt -0.238 11.221
v 99.31 57.27 0.0080
vt -0.238 11.346
v 100.18 57.83 0.0080
vt -0.239 11.473
v 101.05 58.40 0.0080
vt -0.239 11.603
v 101.81 58.89 0.0080
vt -0.240 11.717
v 102.58 59.38 0.0080
vt -0.241 11.834
v 103.38 59.87 0.0080
vt -0.241 11.953
v 104.19 60.37 0.0080
vt -0.242 12.074
v 105.03 60.88 0.0080
vt -0.243 12.197
v 105.88 61.39 0.0080
vt -0.244 12.322
v 106.75 61.91 0.0080
vt -0.244 12.448
v 107.62 62.43 0.0080
vt -0.245 12.575
v 108.50 62.96 0.0080
vt -0.245 12.704
v 109.39 63.50 0.0080
vt -0.245 12.833
v 110.28 64.05 0.0080
vt -0.245 12.962
v 111.17 64.60 0.0080
vt -0.245 13.092
v 112.06 65.17 0.0080
vt -0.245 13.221
v 112.94 65.74 0.0080
vt -0.244 13.350
v 113.81 66.32 0.0080
vt -0.243 13.479
v 114.68 66.92 0.0080
vt -0.242 13.607
v 115.53 67.52 0.0080
vt -0.241 13.734
v 116.37 68.13 0.0080
vt -0.239 13.860
v 117.19 68.76 0.0080
vt -0.238 13.985
v 117.99 69.39 0.0080
vt -0.236 14.108
v 118.77 70.04 0.0080
vt -0.235 14.230
v 119.53 70.70 0.0080
vt -0.233 14.349
v 120.26 71.37 0.0080
vt -0.232 14.467
v 120.97 72.05 0.0080
vt -0.230 14.582
v 121.64 72.75 0.0080
vt -0.229 14.695
v 122.28 73.46 0.0080
vt -0.228 14.806
v 122.89 74.18 0.0080
vt -0.227 14.915
v 123.46 74.94 0.0080
vt -0.226 15.022
v 124.09 75.86 0.0080
vt -0.225 15.149
v 124.66 76.80 0.0080
vt -0.225 15.274
v 125.18 77.77 0.0080
vt -0.224 15.399
v 125.64 78.75 0.0080
vt -0.225 15.523
v 126.05 79.73 0.0080
vt -0.225 15.646
v 126.41 80.73 0.0080
vt -0.225 15.770
v 126.74 81.74 0.0080
vt -0.226 15.893
v 127.03 82.75 0.0080
vt -0.228 16.017
v 127.29 83.76 0.0080
vt -0.229 16.141
v 127.53 84.78 0.0080
vt -0.231 16.266
v 127.74 85.79 0.0080
vt -0.233 16.391
v 127.94 86.81 0.0080
vt -0.235 16.517
v 128.12 87.82 0.0080
vt -0.237 16.642
v 128.29 88.83 0.0080
vt -0.239 16.769
v 128.46 89.83 0.0080
vt -0.242 16.895
v 128.62 90.83 0.0080
vt -0.244 17.021
v 128.79 91.81 0.0080
vt -0.246 17.147
v 128.96 92.79 0.0080
vt -0.249 17.273
v 129.13 93.76 0.0080
vt -0.251 17.399
v 129.32 94.71 0.0080
vt -0.253 17.525
v 129.53 95.64 0.0080
vt -0.255 17.650
v 129.75 96.56 0.0080
vt -0.257 17.774
v 130.00 97.49 0.0080
vt -0.258 17.898
v 28.47 2.99 0.0080
vt 0.228 0.000
v 29.02 3.81 0.0080
vt 0.227 0.124
v 29.56 4.65 0.0080
vt 0.226 0.250
v 30.11 5.51 0.0080
vt 0.225 0.378
v 30.66 6.38 0.0080
vt 0.225 0.508
v 31.22 7.27 0.0080
vt 0.225 0.639
v 31.78 8.17 0.0080
vt 0.225 0.772
v 32.33 9.08 0.0080
vt 0.226 0.905
v 32.89 9.99 0.0080
vt 0.227 1.040
v 33.44 10.91 0.0080
vt 0.228 1.174
v 34.00 11.83 0.0080
vt 0.230 1.309
v 34.55 12.76 0.0080
vt 0.231 1.443
v 35.10 13.68 0.0080
vt 0.234 1.577
v 35.65 14.60 0.0080
vt 0.236 1.710
v 36.20 15.51 0.0080
vt 0.238 1.843
v 36.74 16.41 0.0080
vt 0.241 1.974
v 37.28 17.30 0.0080
vt 0.243 2.103
v 37.81 18.18 0.0080
vt 0.246 2.230
v 38.35 19.04 0.0080
vt 0.248 2.356
v 38.87 19.89 0.0080
vt 0.250 2.479
v 39.40 20.71 0.0080
vt 0.252 2.599
v 39.92 21.51 0.0080
vt 0.254 2.717
v 40.43 22.29 0.0080
vt 0.256 2.831
v 40.94 23.04 0.0080
vt 0.257 2.941
v 41.44 23.76 0.0080
vt 0.258 3.048
v 41.94 24.46 0.0080
vt 0.260 3.152
v 42.43 25.12 0.0080
vt 0.260 3.250
v 42.92 25.75 0.0080
vt 0.261 3.345
v 43.40 26.35 0.0080
vt 0.261 3.434
v 44.33 27.43 0.0080
vt 0.262 3.605
v 45.16 28.33 0.0080
vt 0.262 3.747
v 45.93 29.08 0.0080
vt 0.262 3.865
v 46.67 29.69 0.0080
vt 0.262 3.965
v 47.38 30.20 0.0080
vt 0.261 4.053
v 48.07 30.61 0.0080
vt 0.261 4.135
v 48.74 30.95 0.0080
vt 0.261 4.216
v 49.40 31.26 0.0080
vt 0.260 4.302
v 50.08 31.58 0.0080
vt 0.260 4.398
v 50.82 31.94 0.0080
vt 0.259 4.508
v 51.67 32.39 0.0080
vt 0.258 4.638
v 52.68 32.97 0.0080
vt 0.257 4.792
v 53.89 33.73 0.0080
vt 0.256 4.977
v 54.48 34.11 0.0080
vt 0.256 5.067
v 55.12 34.52 0.0080
vt 0.255 5.162
v 55.80 34.96 0.0080
vt 0.255 5.263
v 56.51 35.42 0.0080
vt 0.255 5.368
v 57.25 35.90 0.0080
vt 0.255 5.478
v 58.01 36.40 0.0080
vt 0.255 5.592
v 58.80 36.91 0.0080
vt 0.255 5.709
v 59.61 37.44 0.0080
vt 0.256 5.830
v 60.44 37.99 0.0080
vt 0.256 5.954
v 61.29 38.54 0.0080
vt 0.257 6.081
v 62.16 39.11 0.0080
vt 0.258 6.210
v 63.04 39.69 0.0080
vt 0.260 6.342
v 63.93 40.28 0.0080
vt 0.261 6.475
v 64.83 40.87 0.0080
vt 0.263 6.609
v 65.73 41.47 0.0080
vt 0.265 6.745
v 66.65 42.07 0.0080
vt 0.266 6.881
v 67.56 42.67 0.0080
vt 0.268 7.018
v 68.48 43.27 0.0080
vt 0.270 7.155
v 69.40 43.87 0.0080
vt 0.271 7.292
v 70.31 44.47 0.0080
vt 0.273 7.428
v 71.22 45.06 0.0080
vt 0.274 7.564
v 72.12 45.64 0.0080
vt 0.275 7.698
v 73.02 46.21 0.0080
vt 0.275 7.830
v 73.90 46.77 0.0080
vt 0.275 7.961
v 74.77 47.32 0.0080
vt 0.275 8.089
v 75.63 47.86 0.0080
vt 0.275 8.215
v 76.47 48.38 0.0080
vt 0.274 8.338
v 77.29 48.89 0.0080
vt 0.274 8.458
v 78.08 49.37 0.0080
vt 0.272 8.575
v 78.86 49.84 0.0080
vt 0.271 8.687
v 79.80 50.41 0.0080
vt 0.269 8.823
v 80.73 50.96 0.0080
vt 0.267 8.956
v 81.63 51.48 0.0080
vt 0.265 9.086
v 82.53 51.99 0.0080
vt 0.263 9.213
v 83.40 52.49 0.0080
vt 0.261 9.338
v 84.26 52.97 0.0080
vt 0.258 9.461
v 85.11 53.44 0.0080
vt 0.256 9.581
v 85.95 53.91 0.0080
vt 0.254 9.700
v 86.78 54.36 0.0080
vt 0.252 9.818
v 87.59 54.81 0.0080
vt 0.250 9.934
v 88.40 55.26 0.0080
vt 0.248 10.050
v 89.21 55.70 0.0080
vt 0.246 10.165
v 90.01 56.15 0.0080
vt 0.244 10.280
v 90.80 56.60 0.0080
vt 0.243 10.395
v 91.60 57.05 0.0080
vt 0.241 10.510
v 92.39 57.51 0.0080
vt 0.240 10.625
v 93.19 57.97 0.0080
vt 0.239 10.742
v 93.99 58.45 0.0080
vt 0.239 10.859
v 94.79 58.93 0.0080
vt 0.238 10.978
v 95.60 59.43 0.0080
vt 0.238 11.099
v 96.42 59.95 0.0080
vt 0.238 11.221
v 97.25 60.48 0.0080
vt 0.238 11.346
v 98.09 61.02 0.0080
vt 0.239 11.473
v 98.95 61.60 0.0080
vt 0.239 11.603
v 99.72 62.11 0.0080
vt 0.240 11.717
v 100.52 62.63 0.0080
vt 0.241 11.834
v 101.33 63.15 0.0080
vt 0.241 11.953
v 102.16 63.67 0.0080
vt 0.242 12.074
v 103.01 64.20 0.0080
vt 0.243 12.197
v 103.86 64.72 0.0080
vt 0.244 12.322
v 104.72 65.25 0.0080
vt 0.244 12.448
v 105.59 65.78 0.0080
vt 0.245 12.575
v 106.47 66.31 0.0080
vt 0.245 12.704
v 107.34 66.85 0.0080
vt 0.245 12.833
v 108.22 67.38 0.0080
vt 0.245 12.962
v 109.09 67.92 0.0080
vt 0.245 13.092
v 109.95 68.47 0.0080
vt 0.245 13.221
v 110.81 69.01 0.0080
vt 0.244 13.350
v 111.66 69.56 0.0080
vt 0.243 13.479
v 112.49 70.11 0.0080
vt 0.242 13.607
v 113.31 70.67 0.0080
vt 0.241 13.734
v 114.11 71.23 0.0080
vt 0.239 13.860
v 114.90 71.79 0.0080
vt 0.238 13.985
v 115.65 72.36 0.0080
vt 0.236 14.108
v 116.38 72.93 0.0080
vt 0.235 14.230
v 117.08 73.51 0.0080
vt 0.233 14.349
v 117.75 74.09 0.0080
vt 0.232 14.467
v 118.39 74.68 0.0080
vt 0.230 14.582
v 118.99 75.27 0.0080
vt 0.229 14.695
v 119.55 75.87 0.0080
vt 0.228 14.806
v 120.07 76.47 0.0080
vt 0.227 14.915
v 120.54 77.06 0.0080
vt 0.226 15.022
v 121.07 77.82 0.0080
vt 0.225 15.149
v 121.54 78.59 0.0080
vt 0.225 15.274
v 121.97 79.38 0.0080
vt 0.224 15.399
v 122.35 80.19 0.0080
vt 0.225 15.523
v 122.69 81.03 0.0080
vt 0.225 15.646
v 123.00 81.89 0.0080
vt 0.225 15.770
v 123.27 82.77 0.0080
vt 0.226 15.893
v 123.51 83.67 0.0080
vt 0.228 16.017
v 123.72 84.59 0.0080
vt 0.229 16.141
v 123.91 85.52 0.0080
vt 0.231 16.266
v 124.08 86.47 0.0080
vt 0.233 16.391
v 124.23 87.43 0.0080
vt 0.235 16.517
v 124.37 88.41 0.0080
vt 0.237 16.642
v 124.50 89.39 0.0080
vt 0.239 16.769
v 124.63 90.39 0.0080
vt 0.242 16.895
v 124.76 91.39 0.0080
vt 0.244 17.021
v 124.89 92.41 0.0080
vt 0.246 17.147
v 125.03 93.42 0.0080
vt 0.249 17.273
v 125.18 94.44 0.0080
vt 0.251 17.399
v 125.35 95.47 0.0080
vt 0.253 17.525
v 125.54 96.49 0.0080
vt 0.255 17.650
v 125.76 97.52 0.0080
vt 0.257 17.774
v 126.00 98.51 0.0080
vt 0.258 17.898
f 1/1/1 2/2/1 149/149/1
f 1/1/1 149/149/1 148/148/1
f 2/2/1 3/3/1 150/150/1
f 2/2/1 150/150/1 149/149/1
f 3/3/1 4/4/1 151/151/1
f 3/3/1 151/151/1 150/150/1
f 4/4/1 5/5/1 152/152/1
f 4/4/1 152/152/1 151/151/1
f 5/5/1 6/6/1 153/153/1
f 5/5/1 153/153/1 152/152/1
f 6/6/1 7/7/1 154/154/1
f 6/6/1 154/154/1 153/153/1
f 7/7/1 8/8/1 155/155/1
f 7/7/1 155/155/1 154/154/1
f 8/8/1 9/9/1 156/156/1
f 8/8/1 156/156/1 155/155/1
f 9/9/1 10/10/1 157/157/1
f 9/9/1 157/157/1 156/156/1
f 10/10/1 11/11/1 158/158/1
f 10/10/1 158/158/1 157/157/1
f 11/11/1 12/12/1 159/159/1
f 11/11/1 159/159/1 158/158/1
f 12/12/1 13/13/1 160/160/1
f 12/12/1 160/160/1 159/159/1
f 13/13/1 14/14/1 161/161/1
f 13/13/1 161/161/1 160/160/1
f 14/14/1 15/15/1 162/162/1
f 14/14/1 162/162/1 161/161/1
f 15/15/1 16/16/1 163/163/1
f 15/15/1 163/163/1 162/162/1
f 16/16/1 17/17/1 164/164/1
f 16/16/1 164/164/1 163/163/1
f 17/17/1 18/18/1 165/165/1
f 17/17/1 165/165/1 164/164/1
f 18/18/1 19/19/1 166/166/1
f 18/18/1 166/166/1 165/165/1
f 19/19/1 20/20/1 167/167/1
f 19/19/1 167/167/1 166/166/1
f 20/20/1 21/21/1 168/168/1
f 20/20/1 168/168/1 167/167/1
f 21/21/1 22/22/1 169/169/1
f 21/21/1 169/169/1 168/168/1
f 22/22/1 23/23/1 170/170/1
f 22/22/1 170/170/1 169/169/1
f 23/23/1 24/24/1 171/171/1
f 23/23/1 171/171/1 170/170/1
f 24/24/1 25/25/1 172/172/1
f 24/24/1 172/172/1 171/171/1
f 25/25/1 26/26/1 173/173/1
f 25/25/1 173/173/1 172/172/1
f 26/26/1 27/27/1 174/174/1
f 26/26/1 174/174/1 173/173/1
f 27/27/1 28/28/1 175/175/1
f 27/27/1 175/175/1 174/174/1
f 28/28/1 29/29/1 176/176/1
f 28/28/1 176/176/1 175/175/1
f 29/29/1 30/30/1 177/177/1
f 29/29/1 177/177/1 176/176/1
f 30/30/1 31/31/1 178/178/1
f 30/30/1 178/178/1 177/177/1
f 31/31/1 32/32/1 179/179/1
f 31/31/1 179/179/1 178/178/1
f 32/32/1 33/33/1 180/180/1
f 32/32/1 180/180/1 179/179/1
f 33/33/1 34/34/1 181/181/1
f 33/33/1 181/181/1 180/180/1
f 34/34/1 35/35/1 182/182/1
f 34/34/1 182/182/1 181/181/1
f 35/35/1 36/36/1 183/183/1
f 35/35/1 183/183/1 182/182/1
f 36/36/1 37/37/1 184/184/1
f 36/36/1 184/184/1 183/183/1
f 37/37/1 38/38/1 185/185/1
f 37/37/1 185/185/1 184/184/1
f 38/38/1 39/39/1 186/186/1
f 38/38/1 186/186/1 185/185/1
f 39/39/1 40/40/1 187/187/1
f 39/39/1 187/187/1 186/186/1
f 40/40/1 41/41/1 188/188/1
f 40/40/1 188/188/1 187/187/1
f 41/41/1 42/42/1 189/189/1
f 41/41/1 189/189/1 188/188/1
f 42/42/1 43/43/1 190/190/1
f 42/42/1 190/190/1 189/189/1
f 43/43/1 44/44/1 191/191/1
f 43/43/1 191/191/1 190/190/1
f 44/44/1 45/45/1 192/192/1
f 44/44/1 192/192/1 191/191/1
f 45/45/1 46/46/1 193/193/1
f 45/45/1 193/193/1 192/192/1
f 46/46/1 47/47/1 194/194/1
f 46/46/1 194/194/1 193/193/1
f 47/47/1 48/48/1 195/195/1
f 47/47/1 195/195/1 194/194/1
f 48/48/1 49/49/1 196/196/1
f 48/48/1 196/196/1 195/195/1
f 49/49/1 50/50/1 197/197/1
f 49/49/1 197/197/1 196/196/1
f 50/50/1 51/51/1 198/198/1
f 50/50/1 198/198/1 197/197/1
f 51/51/1 52/52/1 199/199/1
f 51/51/1 199/199/1 198/198/1
f 52/52/1 53/53/1 200/200/1
f 52/52/1 200/200/1 199/199/1
f 53/53/1 54/54/1 201/201/1
f 53/53/1 201/201/1 200/200/1
f 54/54/1 55/55/1 202/202/1
f 54/54/1 202/202/1 201/201/1
f 55/55/1 56/56/1 203/203/1
f 55/55/1 203/203/1 202/202/1
f 56/56/1 57/57/1 204/204/1
f 56/56/1 204/204/1 203/203/1
f 57/57/1 58/58/1 205/205/1
f 57/57/1 205/205/1 204/204/1
f 58/58/1 59/59/1 206/206/1
f 58/58/1 206/206/1 205/205/1
f 59/59/1 60/60/1 207/207/1
f 59/59/1 207/207/1 206/206/1
f 60/60/1 61/61/1 208/208/1
f 60/60/1 208/208/1 207/207/1
f 61/61/1 62/62/1 209/209/1
f 61/61/1 209/209/1 208/208/1
f 62/62/1 63/63/1 210/210/1
f 62/62/1 210/210/1 209/209/1
f 63/63/1 64/64/1 211/211/1
f 63/63/1 211/211/1 210/210/1
f 64/64/1 65/65/1 212/212/1
f 64/64/1 212/212/1 211/211/1
f 65/65/1 66/66/1 213/213/1
f 65/65/1 213/213/1 212/212/1
f 66/66/1 67/67/1 214/214/1
f 66/66/1 214/214/1 213/213/1
f 67/67/1 68/68/1 215/215/1
f 67/67/1 215/215/1 214/214/1
f 68/68/1 69/69/1 216/216/1
f 68/68/1 216/216/1 215/215/1
f 69/69/1 70/70/1 217/217/1
f 69/69/1 217/217/1 216/216/1
f 70/70/1 71/71/1 218/218/1
f 70/70/1 218/218/1 217/217/1
f 71/71/1 72/72/1 219/219/1
f 71/71/1 219/219/1 218/218/1
f 72/72/1 73/73/1 220/220/1
f 72/72/1 220/220/1 219/219/1
f 73/73/1 74/74/1 221/221/1
f 73/73/1 221/221/1 220/220/1
f 74/74/1 75/75/1 222/222/1
f 74/74/1 222/222/1 221/221/1
f 75/75/1 76/76/1 223/223/1
f 75/75/1 223/223/1 222/222/1
f 76/76/1 77/77/1 224/224/1
f 76/76/1 224/224/1 223/223/1
f 77/77/1 78/78/1 225/225/1
f 77/77/1 225/225/1 224/224/1
f 78/78/1 79/79/1 226/226/1
f 78/78/1 226/226/1 225/225/1
f 79/79/1 80/80/1 227/227/1
f 79/79/1 227/227/1 226/226/1
f 80/80/1 81/81/1 228/228/1
f 80/80/1 228/228/1 227/227/1
f 81/81/1 82/82/1 229/229/1
f 81/81/1 229/229/1 228/228/1
f 82/82/1 83/83/1 230/230/1
f 82/82/1 230/230/1 229/229/1
f 83/83/1 84/84/1 231/231/1
f 83/83/1 231/231/1 230/230/1
f 84/84/1 85/85/1 232/232/1
f 84/84/1 232/232/1 231/231/1
f 85/85/1 86/86/1 233/233/1
f 85/85/1 233/233/1 232/232/1
f 86/86/1 87/87/1 234/234/1
f 86/86/1 234/234/1 233/233/1
f 87/87/1 88/88/1 235/235/1
f 87/87/1 235/235/1 234/234/1
f 88/88/1 89/89/1 236/236/1
f 88/88/1 236/236/1 235/235/1
f 89/89/1 90/90/1 237/237/1
f 89/89/1 237/237/1 236/236/1
f 90/90/1 91/91/1 238/238/1
f 90/90/1 238/238/1 237/237/1
f 91/91/1 92/92/1 239/239/1
f 91/91/1 239/239/1 238/238/1
f 92/92/1 93/93/1 240/240/1
f 92/92/1 240/240/1 239/239/1
f 93/93/1 94/94/1 241/241/1
f 93/93/1 241/241/1 240/240/1
f 94/94/1 95/95/1 242/242/1
f 94/94/1 242/242/1 241/241/1
f 95/95/1 96/96/1 243/243/1
f 95/95/1 243/243/1 242/242/1
f 96/96/1 97/97/1 244/244/1
f 96/96/1 244/244/1 243/243/1
f 97/97/1 98/98/1 245/245/1
f 97/97/1 245/245/1 244/244/1
f 98/98/1 99/99/1 246/246/1
f 98/98/1 246/246/1 245/245/1
f 99/99/1 100/100/1 247/247/1
f 99/99/1 247/247/1 246/246/1
f 100/100/1 101/101/1 248/248/1
f 100/100/1 248/248/1 247/247/1
f 101/101/1 102/102/1 249/249/1
f 101/101/1 249/249/1 248/248/1
f 102/102/1 103/103/1 250/250/1
f 102/102/1 250/250/1 249/249/1
f 103/103/1 104/104/1 251/251/1
f 103/103/1 251/251/1 250/250/1
f 104/104/1 105/105/1 252/252/1
f 104/104/1 252/252/1 251/251/1
f 105/105/1 106/106/1 253/253/1
f 105/105/1 253/253/1 252/252/1
f 106/106/1 107/107/1 254/254/1
f 106/106/1 254/254/1 253/253/1
f 107/107/1 108/108/1 255/255/1
f 107/107/1 255/255/1 254/254/1
f 108/108/1 109/109/1 256/256/1
f 108/108/1 256/256/1 255/255/1
f 109/109/1 110/110/1 257/257/1
f 109/109/1 257/257/1 256/256/1
f 110/110/1 111/111/1 258/258/1
f 110/110/1 258/258/1 257/257/1
f 111/111/1 112/112/1 259/259/1
f 111/111/1 259/259/1 258/258/1
f 112/112/1 113/113/1 260/260/1
f 112/112/1 260/260/1 259/259/1
f 113/113/1 114/114/1 261/261/1
f 113/113/1 261/261/1 260/260/1
f 114/114/1 115/115/1 262/262/1
f 114/114/1 262/262/1 261/261/1
f 115/115/1 116/116/1 263/263/1
f 115/115/1 263/263/1 262/262/1
f 116/116/1 117/117/1 264/264/1
f 116/116/1 264/264/1 263/263/1
f 117/117/1 118/118/1 265/265/1
f 117/117/1 265/265/1 264/264/1
f 118/118/1 119/119/1 266/266/1
f 118/118/1 266/266/1 265/265/1
f 119/119/1 120/120/1 267/267/1
f 119/119/1 267/267/1 266/266/1
f 120/120/1 121/121/1 268/268/1
f 120/120/1 268/268/1 267/267/1
f 121/121/1 122/122/1 269/269/1
f 121/121/1 269/269/1 268/268/1
f 122/122/1 123/123/1 270/270/1
f 122/122/1 270/270/1 269/269/1
f 123/123/1 124/124/1 271/271/1
f 123/123/1 271/271/1 270/270/1
f 124/124/1 125/125/1 272/272/1
f 124/124/1 272/272/1 271/271/1
f 125/125/1 126/126/1 273/273/1
f 125/125/1 273/273/1 272/272/1
f 126/126/1 127/127/1 274/274/1
f 126/126/1 274/274/1 273/273/1
f 127/127/1 128/128/1 275/275/1
f 127/127/1 275/275/1 274/274/1
f 128/128/1 129/129/1 276/276/1
f 128/128/1 276/276/1 275/275/1
f 129/129/1 130/130/1 277/277/1
f 129/129/1 277/277/1 276/276/1
f 130/130/1 131/131/1 278/278/1
f 130/130/1 278/278/1 277/277/1
f 131/131/1 132/132/1 279/279/1
f 131/131/1 279/279/1 278/278/1
f 132/132/1 133/133/1 280/280/1
f 132/132/1 280/280/1 279/279/1
f 133/133/1 134/134/1 281/281/1
f 133/133/1 281/281/1 280/280/1
f 134/134/1 135/135/1 282/282/1
f 134/134/1 282/282/1 281/281/1
f 135/135/1 136/136/1 283/283/1
f 135/135/1 283/283/1 282/282/1
f 136/136/1 137/137/1 284/284/1
f 136/136/1 284/284/1 283/283/1
f 137/137/1 138/138/1 285/285/1
f 137/137/1 285/285/1 284/284/1
f 138/138/1 139/139/1 286/286/1
f 138/138/1 286/286/1 285/285/1
f 139/139/1 140/140/1 287/287/1
f 139/139/1 287/287/1 286/286/1
f 140/140/1 141/141/1 288/288/1
f 140/140/1 288/288/1 287/287/1
f 141/141/1 142/142/1 289/289/1
f 141/141/1 289/289/1 288/288/1
f 142/142/1 143/143/1 290/290/1
f 142/142/1 290/290/1 289/289/1
f 143/143/1 144/144/1 291/291/1
f 143/143/1 291/291/1 290/290/1
f 144/144/1 145/145/1 292/292/1
f 144/144/1 292/292/1 291/291/1
f 145/145/1 146/146/1 293/293/1
f 145/145/1 293/293/1 292/292/1
f 146/146/1 147/147/1 294/294/1
f 146/146/1 294/294/1 293/293/1
v 197.81 53.82 0.0092
vt -0.228 0.000
v 196.84 53.70 0.0092
vt -0.227 0.122
v 195.87 53.59 0.0092
vt -0.226 0.245
v 194.88 53.48 0.0092
vt -0.225 0.369
v 193.89 53.38 0.0092
vt -0.224 0.494
v 192.90 53.27 0.0092
vt -0.223 0.619
v 191.90 53.17 0.0092
vt -0.223 0.745
v 190.89 53.08 0.0092
vt -0.223 0.871
v 189.88 52.98 0.0092
vt -0.224 0.998
v 188.87 52.89 0.0092
vt -0.224 1.125
v 187.86 52.80 0.0092
vt -0.225 1.252
v 186.85 52.71 0.0092
vt -0.227 1.379
v 185.84 52.63 0.0092
vt -0.228 1.506
v 184.83 52.54 0.0092
vt -0.230 1.632
v 183.82 52.45 0.0092
vt -0.231 1.759
v 182.82 52.37 0.0092
vt -0.233 1.884
v 181.82 52.28 0.0092
vt -0.235 2.009
v 180.82 52.20 0.0092
vt -0.237 2.133
v 179.84 52.11 0.0092
vt -0.239 2.257
v 178.86 52.02 0.0092
vt -0.240 2.379
v 177.89 51.93 0.0092
vt -0.242 2.500
v 176.93 51.83 0.0092
vt -0.243 2.620
v 175.98 51.74 0.0092
vt -0.244 2.739
v 175.04 51.64 0.0092
vt -0.245 2.856
v 174.12 51.53 0.0092
vt -0.246 2.971
v 173.21 51.43 0.0092
vt -0.247 3.085
v 172.31 51.32 0.0092
vt -0.247 3.197
v 171.43 51.20 0.0092
vt -0.248 3.307
v 170.56 51.08 0.0092
vt -0.248 3.415
v 169.72 50.96 0.0092
vt -0.248 3.520
v 168.60 50.80 0.0092
vt -0.248 3.662
v 167.52 50.64 0.0092
vt -0.247 3.798
v 166.48 50.49 0.0092
vt -0.247 3.929
v 165.48 50.34 0.0092
vt -0.246 4.055
v 164.51 50.19 0.0092
vt -0.246 4.178
v 163.55 50.04 0.0092
vt -0.245 4.297
v 162.62 49.89 0.0092
vt -0.244 4.414
v 161.71 49.74 0.0092
vt -0.244 4.528
v 160.80 49.59 0.0092
vt -0.243 4.641
v 159.91 49.43 0.0092
vt -0.243 4.753
v 159.02 49.26 0.0092
vt -0.242 4.864
v 158.12 49.09 0.0092
vt -0.242 4.976
v 157.22 48.90 0.0092
vt -0.242 5.087
v 156.32 48.70 0.0092
vt -0.242 5.201
v 155.40 48.50 0.0092
vt -0.242 5.315
v 154.47 48.27 0.0092
vt -0.243 5.432
v 153.51 48.04 0.0092
vt -0.243 5.553
v 152.53 47.78 0.0092
vt -0.244 5.676
v 151.52 47.51 0.0092
vt -0.246 5.804
v 150.48 47.22 0.0092
vt -0.247 5.936
v 149.41 46.90 0.0092
vt -0.249 6.073
v 148.53 46.64 0.0092
vt -0.251 6.184
v 147.65 46.35 0.0092
vt -0.252 6.296
v 146.75 46.05 0.0092
vt -0.254 6.411
v 145.85 45.73 0.0092
vt -0.256 6.528
v 144.93 45.40 0.0092
vt -0.259 6.646
v 144.01 45.06 0.0092
vt -0.261 6.767
v 143.08 44.71 0.0092
vt -0.263 6.889
v 142.15 44.35 0.0092
vt -0.265 7.012
v 141.21 43.97 0.0092
vt -0.267 7.137
v 140.27 43.59 0.0092
vt -0.269 7.264
v 139.32 43.20 0.0092
vt -0.271 7.391
v 138.37 42.81 0.0092
vt -0.273 7.519
v 137.41 42.41 0.0092
vt -0.274 7.647
v 136.46 42.00 0.0092
vt -0.275 7.777
v 135.51 41.59 0.0092
vt -0.276 7.907
v 134.55 41.19 0.0092
vt -0.277 8.037
v 133.60 40.78 0.0092
vt -0.277 8.167
v 132.65 40.37 0.0092
vt -0.277 8.297
v 131.70 39.96 0.0092
vt -0.276 8.427
v 130.76 39.56 0.0092
vt -0.275 8.556
v 129.82 39.17 0.0092
vt -0.274 8.685
v 128.89 38.78 0.0092
vt -0.273 8.813
v 127.96 38.40 0.0092
vt -0.272 8.941
v 127.04 38.03 0.0092
vt -0.270 9.068
v 126.12 37.68 0.0092
vt -0.268 9.193
v 125.22 37.33 0.0092
vt -0.267 9.317
v 124.32 37.01 0.0092
vt -0.265 9.440
v 123.38 36.68 0.0092
vt -0.263 9.567
v 122.45 36.37 0.0092
vt -0.261 9.694
v 121.50 36.06 0.0092
vt -0.260 9.821
v 120.55 35.77 0.0092
vt -0.258 9.948
v 119.59 35.49 0.0092
vt -0.257 10.075
v 118.63 35.21 0.0092
vt -0.255 10.202
v 117.67 34.95 0.0092
vt -0.254 10.329
v 116.70 34.69 0.0092
vt -0.254 10.455
v 115.73 34.43 0.0092
vt -0.253 10.582
v 114.76 34.19 0.0092
vt -0.252 10.708
v 113.78 33.94 0.0092
vt -0.252 10.834
v 112.81 33.70 0.0092
vt -0.252 10.960
v 111.83 33.46 0.0092
vt -0.252 11.086
v 110.85 33.22 0.0092
vt -0.253 11.212
v 109.87 32.98 0.0092
vt -0.253 11.337
v 108.90 32.74 0.0092
vt -0.254 11.462
v 107.92 32.50 0.0092
vt -0.255 11.586
v 106.95 32.25 0.0092
vt -0.255 11.710
v 105.98 32.00 0.0092
vt -0.256 11.834
v 105.01 31.74 0.0092
vt -0.257 11.957
v 104.05 31.47 0.0092
vt -0.257 12.080
v 103.09 31.19 0.0092
vt -0.258 12.202
v 102.13 30.90 0.0092
vt -0.258 12.324
v 101.18 30.59 0.0092
vt -0.258 12.446
v 100.24 30.27 0.0092
vt -0.258 12.567
v 99.30 29.94 0.0092
vt -0.258 12.687
v 98.36 29.60 0.0092
vt -0.258 12.812
v 97.42 29.25 0.0092
vt -0.257 12.937
v 96.48 28.90 0.0092
vt -0.256 13.062
v 95.54 28.55 0.0092
vt -0.255 13.186
v 94.60 28.19 0.0092
vt -0.254 13.311
v 93.67 27.83 0.0092
vt -0.252 13.435
v 92.74 27.46 0.0092
vt -0.250 13.559
v 91.81 27.08 0.0092
vt -0.248 13.683
v 90.88 26.70 0.0092
vt -0.246 13.806
v 89.96 26.31 0.0092
vt -0.244 13.929
v 89.05 25.92 0.0092
vt -0.242 14.052
v 88.14 25.52 0.0092
vt -0.240 14.174
v 87.23 25.11 0.0092
vt -0.237 14.296
v 86.33 24.69 0.0092
vt -0.235 14.417
v 85.44 24.27 0.0092
vt -0.233 14.538
v 84.56 23.84 0.0092
vt -0.231 14.658
v 83.68 23.39 0.0092
vt -0.229 14.778
v 82.81 22.94 0.0092
vt -0.228 14.897
v 81.95 22.48 0.0092
vt -0.227 15.016
v 81.10 22.01 0.0092
vt -0.225 15.134
v 80.25 21.53 0.0092
vt -0.224 15.251
v 79.42 21.03 0.0092
vt -0.224 15.368
v 78.60 20.53 0.0092
vt -0.223 15.485
v 77.79 20.01 0.0092
vt -0.223 15.601
v 76.99 19.47 0.0092
vt -0.223 15.716
v 76.13 18.87 0.0092
vt -0.224 15.841
v 75.29 18.25 0.0092
vt -0.225 15.965
v 74.47 17.60 0.0092
vt -0.225 16.089
v 73.68 16.95 0.0092
vt -0.227 16.212
v 72.90 16.27 0.0092
vt -0.228 16.335
v 72.14 15.59 0.0092
vt -0.229 16.458
v 71.40 14.89 0.0092
vt -0.231 16.581
v 70.67 14.19 0.0092
vt -0.233 16.704
v 69.95 13.47 0.0092
vt -0.234 16.827
v 69.25 12.75 0.0092
vt -0.236 16.950
v 68.56 12.03 0.0092
vt -0.238 17.073
v 67.87 11.30 0.0092
vt -0.240 17.197
v 67.20 10.56 0.0092
vt -0.241 17.320
v 66.53 9.83 0.0092
vt -0.243 17.443
v 65.87 9.09 0.0092
vt -0.244 17.566
v 65.21 8.36 0.0092
vt -0.245 17.689
v 64.55 7.63 0.0092
vt -0.246 17.813
v 63.90 6.91 0.0092
vt -0.247 17.936
v 63.24 6.19 0.0092
vt -0.247 18.059
v 62.59 5.48 0.0092
vt -0.247 18.182
v 61.93 4.77 0.0092
vt -0.248 18.305
v 61.27 4.08 0.0092
vt -0.247 18.428
v 60.59 3.39 0.0092
vt -0.247 18.551
v 198.19 50.18 0.0092
vt 0.228 0.000
v 197.22 50.09 0.0092
vt 0.227 0.122
v 196.24 50.00 0.0092
vt 0.226 0.245
v 195.25 49.91 0.0092
vt 0.225 0.369
v 194.25 49.81 0.0092
vt 0.224 0.494
v 193.25 49.72 0.0092
vt 0.223 0.619
v 192.25 49.62 0.0092
vt 0.223 0.745
v 191.24 49.52 0.0092
vt 0.223 0.871
v 190.23 49.42 0.0092
vt 0.224 0.998
v 189.22 49.31 0.0092
vt 0.224 1.125
v 188.21 49.21 0.0092
vt 0.225 1.252
v 187.20 49.10 0.0092
vt 0.227 1.379
v 186.19 48.99 0.0092
vt 0.228 1.506
v 185.18 48.88 0.0092
vt 0.230 1.632
v 184.18 48.77 0.0092
vt 0.231 1.759
v 183.19 48.66 0.0092
vt 0.233 1.884
v 182.19 48.54 0.0092
vt 0.235 2.009
v 181.21 48.43 0.0092
vt 0.237 2.133
v 180.23 48.31 0.0092
vt 0.239 2.257
v 179.27 48.20 0.0092
vt 0.240 2.379
v 178.31 48.08 0.0092
vt 0.242 2.500
v 177.36 47.97 0.0092
vt 0.243 2.620
v 176.43 47.85 0.0092
vt 0.244 2.739
v 175.50 47.74 0.0092
vt 0.245 2.856
v 174.59 47.62 0.0092
vt 0.246 2.971
v 173.70 47.50 0.0092
vt 0.247 3.085
v 172.82 47.39 0.0092
vt 0.247 3.197
v 171.96 47.27 0.0092
vt 0.248 3.307
v 171.11 47.16 0.0092
vt 0.248 3.415
v 170.28 47.04 0.0092
vt 0.248 3.520
v 169.16 46.88 0.0092
vt 0.248 3.662
v 168.09 46.72 0.0092
vt 0.247 3.798
v 167.05 46.58 0.0092
vt 0.247 3.929
v 166.05 46.44 0.0092
vt 0.246 4.055
v 165.08 46.30 0.0092
vt 0.246 4.178
v 164.14 46.17 0.0092
vt 0.245 4.297
v 163.23 46.03 0.0092
vt 0.244 4.414
v 162.34 45.90 0.0092
vt 0.244 4.528
v 161.46 45.75 0.0092
vt 0.243 4.641
v 160.59 45.61 0.0092
vt 0.243 4.753
v 159.73 45.45 0.0092
vt 0.242 4.864
v 158.88 45.29 0.0092
vt 0.242 4.976
v 158.02 45.11 0.0092
vt 0.242 5.087
v 157.16 44.93 0.0092
vt 0.242 5.201
v 156.29 44.72 0.0092
vt 0.242 5.315
v 155.40 44.50 0.0092
vt 0.243 5.432
v 154.50 44.27 0.0092
vt 0.243 5.553
v 153.57 44.01 0.0092
vt 0.244 5.676
v 152.61 43.73 0.0092
vt 0.246 5.804
v 151.62 43.43 0.0092
vt 0.247 5.936
v 150.59 43.10 0.0092
vt 0.249 6.073
v 149.79 42.83 0.0092
vt 0.251 6.184
v 148.97 42.53 0.0092
vt 0.252 6.296
v 148.13 42.22 0.0092
vt 0.254 6.411
v 147.28 41.89 0.0092
vt 0.256 6.528
v 146.42 41.55 0.0092
vt 0.259 6.646
v 145.55 41.18 0.0092
vt 0.261 6.767
v 144.67 40.81 0.0092
vt 0.263 6.889
v 143.77 40.42 0.0092
vt 0.265 7.012
v 142.86 40.03 0.0092
vt 0.267 7.137
v 141.95 39.62 0.0092
vt 0.269 7.264
v 141.03 39.21 0.0092
vt 0.271 7.391
v 140.10 38.80 0.0092
vt 0.273 7.519
v 139.16 38.38 0.0092
vt 0.274 7.647
v 138.21 37.96 0.0092
vt 0.275 7.777
v 137.26 37.54 0.0092
vt 0.276 7.907
v 136.31 37.12 0.0092
vt 0.277 8.037
v 135.35 36.71 0.0092
vt 0.277 8.167
v 134.39 36.30 0.0092
vt 0.277 8.297
v 133.42 35.89 0.0092
vt 0.276 8.427
v 132.45 35.49 0.0092
vt 0.275 8.556
v 131.48 35.10 0.0092
vt 0.274 8.685
v 130.51 34.72 0.0092
vt 0.273 8.813
v 129.54 34.35 0.0092
vt 0.272 8.941
v 128.57 33.99 0.0092
vt 0.270 9.068
v 127.61 33.64 0.0092
vt 0.268 9.193
v 126.64 33.31 0.0092
vt 0.267 9.317
v 125.68 32.99 0.0092
vt 0.265 9.440
v 124.69 32.68 0.0092
vt 0.263 9.567
v 123.69 32.38 0.0092
vt 0.261 9.694
v 122.69 32.08 0.0092
vt 0.260 9.821
v 121.70 31.80 0.0092
vt 0.258 9.948
v 120.70 31.53 0.0092
vt 0.257 10.075
v 119.70 31.27 0.0092
vt 0.255 10.202
v 118.71 31.01 0.0092
vt 0.254 10.329
v 117.72 30.76 0.0092
vt 0.254 10.455
v 116.73 30.51 0.0092
vt 0.253 10.582
v 115.74 30.27 0.0092
vt 0.252 10.708
v 114.75 30.02 0.0092
vt 0.252 10.834
v 113.77 29.78 0.0092
vt 0.252 10.960
v 112.80 29.54 0.0092
vt 0.252 11.086
v 111.82 29.30 0.0092
vt 0.253 11.212
v 110.86 29.05 0.0092
vt 0.253 11.337
v 109.90 28.81 0.0092
vt 0.254 11.462
v 108.94 28.56 0.0092
vt 0.255 11.586
v 107.99 28.30 0.0092
vt 0.255 11.710
v 107.05 28.04 0.0092
vt 0.256 11.834
v 106.12 27.78 0.0092
vt 0.257 11.957
v 105.19 27.51 0.0092
vt 0.257 12.080
v 104.28 27.24 0.0092
vt 0.258 12.202
v 103.37 26.96 0.0092
vt 0.258 12.324
v 102.47 26.67 0.0092
vt 0.258 12.446
v 101.58 26.37 0.0092
vt 0.258 12.567
v 100.70 26.06 0.0092
vt 0.258 12.687
v 99.76 25.72 0.0092
vt 0.258 12.812
v 98.82 25.39 0.0092
vt 0.257 12.937
v 97.89 25.05 0.0092
vt 0.256 13.062
v 96.95 24.72 0.0092
vt 0.255 13.186
v 96.02 24.39 0.0092
vt 0.254 13.311
v 95.09 24.05 0.0092
vt 0.252 13.435
v 94.17 23.72 0.0092
vt 0.250 13.559
v 93.25 23.38 0.0092
vt 0.248 13.683
v 92.34 23.04 0.0092
vt 0.246 13.806
v 91.43 22.69 0.0092
vt 0.244 13.929
v 90.53 22.34 0.0092
vt 0.242 14.052
v 89.64 21.99 0.0092
vt 0.240 14.174
v 88.75 21.63 0.0092
vt 0.237 14.296
v 87.87 21.26 0.0092
vt 0.235 14.417
v 87.01 20.88 0.0092
vt 0.233 14.538
v 86.15 20.50 0.0092
vt 0.231 14.658
v 85.31 20.10 0.0092
vt 0.229 14.778
v 84.47 19.70 0.0092
vt 0.228 14.897
v 83.65 19.28 0.0092
vt 0.227 15.016
v 82.84 18.85 0.0092
vt 0.225 15.134
v 82.04 18.41 0.0092
vt 0.224 15.251
v 81.26 17.96 0.0092
vt 0.224 15.368
v 80.50 17.50 0.0092
vt 0.223 15.485
v 79.74 17.02 0.0092
vt 0.223 15.601
v 79.01 16.53 0.0092
vt 0.223 15.716
v 78.24 15.98 0.0092
vt 0.224 15.841
v 77.49 15.41 0.0092
vt 0.225 15.965
v 76.76 14.81 0.0092
vt 0.225 16.089
v 76.04 14.20 0.0092
vt 0.227 16.212
v 75.34 13.57 0.0092
vt 0.228 16.335
v 74.66 12.92 0.0092
vt 0.229 16.458
v 73.98 12.25 0.0092
vt 0.231 16.581
v 73.31 11.57 0.0092
vt 0.233 16.704
v 72.66 10.87 0.0092
vt 0.234 16.827
v 72.00 10.17 0.0092
vt 0.236 16.950
v 71.36 9.45 0.0092
vt 0.238 17.073
v 70.72 8.72 0.0092
vt 0.240 17.197
v 70.07 7.99 0.0092
vt 0.241 17.320
v 69.43 7.25 0.0092
vt 0.243 17.443
v 68.79 6.51 0.0092
vt 0.244 17.566
v 68.14 5.76 0.0092
vt 0.245 17.689
v 67.49 5.02 0.0092
vt 0.246 17.813
v 66.84 4.27 0.0092
vt 0.247 17.936
v 66.17 3.53 0.0092
vt 0.247 18.059
v 65.50 2.79 0.0092
vt 0.247 18.182
v 64.81 2.05 0.0092
vt 0.248 18.305
v 64.11 1.32 0.0092
vt 0.247 18.428
v 63.41 0.61 0.0092
vt 0.247 18.551
f 295/295/1 296/296/1 448/448/1
f 295/295/1 448/448/1 447/447/1
f 296/296/1 297/297/1 449/449/1
f 296/296/1 449/449/1 448/448/1
f 297/297/1 298/298/1 450/450/1
f 297/297/1 450/450/1 449/449/1
f 298/298/1 299/299/1 451/451/1
f 298/298/1 451/451/1 450/450/1
f 299/299/1 300/300/1 452/452/1
f 299/299/1 452/452/1 451/451/1
f 300/300/1 301/301/1 453/453/1
f 300/300/1 453/453/1 452/452/1
f 301/301/1 302/302/1 454/454/1
f 301/301/1 454/454/1 453/453/1
f 302/302/1 303/303/1 455/455/1
f 302/302/1 455/455/1 454/454/1
f 303/303/1 304/304/1 456/456/1
f 303/303/1 456/456/1 455/455/1
f 304/304/1 305/305/1 457/457/1
f 304/304/1 457/457/1 456/456/1
f 305/305/1 306/306/1 458/458/1
f 305/305/1 458/458/1 457/457/1
f 306/306/1 307/307/1 459/459/1
f 306/306/1 459/459/1 458/458/1
f 307/307/1 308/308/1 460/460/1
f 307/307/1 460/460/1 459/459/1
f 308/308/1 309/309/1 461/461/1
f 308/308/1 461/461/1 460/460/1
f 309/309/1 310/310/1 462/462/1
f 309/309/1 462/462/1 461/461/1
f 310/310/1 311/311/1 463/463/1
f 310/310/1 463/463/1 462/462/1
f 311/311/1 312/312/1 464/464/1
f 311/311/1 464/464/1 463/463/1
f 312/312/1 313/313/1 465/465/1
f 312/312/1 465/465/1 464/464/1
f 313/313/1 314/314/1 466/466/1
f 313/313/1 466/466/1 465/465/1
f 314/314/1 315/315/1 467/467/1
f 314/314/1 467/467/1 466/466/1
f 315/315/1 316/316/1 468/468/1
f 315/315/1 468/468/1 467/467/1
f 316/316/1 317/317/1 469/469/1
f 316/316/1 469/469/1 468/468/1
f 317/317/1 318/318/1 470/470/1
f 317/317/1 470/470/1 469/469/1
f 318/318/1 319/319/1 471/471/1
f 318/318/1 471/471/1 470/470/1
f 319/319/1 320/320/1 472/472/1
f 319/319/1 472/472/1 471/471/1
f 320/320/1 321/321/1 473/473/1
f 320/320/1 473/473/1 472/472/1
f 321/321/1 322/322/1 474/474/1
f 321/321/1 474/474/1 473/473/1
f 322/322/1 323/323/1 475/475/1
f 322/322/1 475/475/1 474/474/1
f 323/323/1 324/324/1 476/476/1
f 323/323/1 476/476/1 475/475/1
f 324/324/1 325/325/1 477/477/1
f 324/324/1 477/477/1 476/476/1
f 325/325/1 326/326/1 478/478/1
f 325/325/1 478/478/1 477/477/1
f 326/326/1 327/327/1 479/479/1
f 326/326/1 479/479/1 478/478/1
f 327/327/1 328/328/1 480/480/1
f 327/327/1 480/480/1 479/479/1
f 328/328/1 329/329/1 481/481/1
f 328/328/1 481/481/1 480/480/1
f 329/329/1 330/330/1 482/482/1
f 329/329/1 482/482/1 481/481/1
f 330/330/1 331/331/1 483/483/1
f 330/330/1 483/483/1 482/482/1
f 331/331/1 332/332/1 484/484/1
f 331/331/1 484/484/1 483/483/1
f 332/332/1 333/333/1 485/485/1
f 332/332/1 485/485/1 484/484/1
f 333/333/1 334/334/1 486/486/1
f 333/333/1 486/486/1 485/485/1
f 334/334/1 335/335/1 487/487/1
f 334/334/1 487/487/1 486/486/1
f 335/335/1 336/336/1 488/488/1
f 335/335/1 488/488/1 487/487/1
f 336/336/1 337/337/1 489/489/1
f 336/336/1 489/489/1 488/488/1
f 337/337/1 338/338/1 490/490/1
f 337/337/1 490/490/1 489/489/1
f 338/338/1 339/339/1 491/491/1
f 338/338/1 491/491/1 490/490/1
f 339/339/1 340/340/1 492/492/1
f 339/339/1 492/492/1 491/491/1
f 340/340/1 341/341/1 493/493/1
f 340/340/1 493/493/1 492/492/1
f 341/341/1 342/342/1 494/494/1
f 341/341/1 494/494/1 493/493/1
f 342/342/1 343/343/1 495/495/1
f 342/342/1 495/495/1 494/494/1
f 343/343/1 344/344/1 496/496/1
f 343/343/1 496/496/1 495/495/1
f 344/344/1 345/345/1 497/497/1
f 344/344/1 497/497/1 496/496/1
f 345/345/1 346/346/1 498/498/1
f 345/345/1 498/498/1 497/497/1
f 346/346/1 347/347/1 499/499/1
f 346/346/1 499/499/1 498/498/1
f 347/347/1 348/348/1 500/500/1
f 347/347/1 500/500/1 499/499/1
f 348/348/1 349/349/1 501/501/1
f 348/348/1 501/501/1 500/500/1
f 349/349/1 350/350/1 502/502/1
f 349/349/1 502/502/1 501/501/1
f 350/350/1 351/351/1 503/503/1
f 350/350/1 503/503/1 502/502/1
f 351/351/1 352/352/1 504/504/1
f 351/351/1 504/504/1 503/503/1
f 352/352/1 353/353/1 505/505/1
f 352/352/1 505/505/1 504/504/1
f 353/353/1 354/354/1 506/506/1
f 353/353/1 506/506/1 505/505/1
f 354/354/1 355/355/1 507/507/1
f 354/354/1 507/507/1 506/506/1
f 355/355/1 356/356/1 508/508/1
f 355/355/1 508/508/1 507/507/1
f 356/356/1 357/357/1 509/509/1
f 356/356/1 509/509/1 508/508/1
f 357/357/1 358/358/1 510/510/1
f 357/357/1 510/510/1 509/509/1
f 358/358/1 359/359/1 511/511/1
f 358/358/1 511/511/1 510/510/1
f 359/359/1 360/360/1 512/512/1
f 359/359/1 512/512/1 511/511/1
f 360/360/1 361/361/1 513/513/1
f 360/360/1 513/513/1 512/512/1
f 361/361/1 362/362/1 514/514/1
f 361/361/1 514/514/1 513/513/1
f 362/362/1 363/363/1 515/515/1
f 362/362/1 515/515/1 514/514/1
f 363/363/1 364/364/1 516/516/1
f 363/363/1 516/516/1 515/515/1
f 364/364/1 365/365/1 517/517/1
f 364/364/1 517/517/1 516/516/1
f 365/365/1 366/366/1 518/518/1
f 365/365/1 518/518/1 517/517/1
f 366/366/1 367/367/1 519/519/1
f 366/366/1 519/519/1 518/518/1
f 367/367/1 368/368/1 520/520/1
f 367/367/1 520/520/1 519/519/1
f 368/368/1 369/369/1 521/521/1
f 368/368/1 521/521/1 520/520/1
f 369/369/1 370/370/1 522/522/1
f 369/369/1 522/522/1 521/521/1
f 370/370/1 371/371/1 523/523/1
f 370/370/1 523/523/1 522/522/1
f 371/371/1 372/372/1 524/524/1
f 371/371/1 524/524/1 523/523/1
f 372/372/1 373/373/1 525/525/1
f 372/372/1 525/525/1 524/524/1
f 373/373/1 374/374/1 526/526/1
f 373/373/1 526/526/1 525/525/1
f 374/374/1 375/375/1 527/527/1
f 374/374/1 527/527/1 526/526/1
f 375/375/1 376/376/1 528/528/1
f 375/375/1 528/528/1 527/527/1
f 376/376/1 377/377/1 529/529/1
f 376/376/1 529/529/1 528/528/1
f 377/377/1 378/378/1 530/530/1
f 377/377/1 530/530/1 529/529/1
f 378/378/1 379/379/1 531/531/1
f 378/378/1 531/531/1 530/530/1
f 379/379/1 380/380/1 532/532/1
f 379/379/1 532/532/1 531/531/1
f 380/380/1 381/381/1 533/533/1
f 380/380/1 533/533/1 532/532/1
f 381/381/1 382/382/1 534/534/1
f 381/381/1 534/534/1 533/533/1
f 382/382/1 383/383/1 535/535/1
f 382/382/1 535/535/1 534/534/1
f 383/383/1 384/384/1 536/536/1
f 383/383/1 536/536/1 535/535/1
f 384/384/1 385/385/1 537/537/1
f 384/384/1 537/537/1 536/536/1
f 385/385/1 386/386/1 538/538/1
f 385/385/1 538/538/1 537/537/1
f 386/386/1 387/387/1 539/539/1
f 386/386/1 539/539/1 538/538/1
f 387/387/1 388/388/1 540/540/1
f 387/387/1 540/540/1 539/539/1
f 388/388/1 389/389/1 541/541/1
f 388/388/1 541/541/1 540/540/1
f 389/389/1 390/390/1 542/542/1
f 389/389/1 542/542/1 541/541/1
f 390/390/1 391/391/1 543/543/1
f 390/390/1 543/543/1 542/542/1
f 391/391/1 392/392/1 544/544/1
f 391/391/1 544/544/1 543/543/1
f 392/392/1 393/393/1 545/545/1
f 392/392/1 545/545/1 544/544/1
f 393/393/1 394/394/1 546/546/1
f 393/393/1 546/546/1 545/545/1
f 394/394/1 395/395/1 547/547/1
f 394/394/1 547/547/1 546/546/1
f 395/395/1 396/396/1 548/548/1
f 395/395/1 548/548/1 547/547/1
f 396/396/1 397/397/1 549/549/1
f 396/396/1 549/549/1 548/548/1
f 397/397/1 398/398/1 550/550/1
f 397/397/1 550/550/1 549/549/1
f 398/398/1 399/399/1 551/551/1
f 398/398/1 551/551/1 550/550/1
f 399/399/1 400/400/1 552/552/1
f 399/399/1 552/552/1 551/551/1
f 400/400/1 401/401/1 553/553/1
f 400/400/1 553/553/1 552/552/1
f 401/401/1 402/402/1 554/554/1
f 401/401/1 554/554/1 553/553/1
f 402/402/1 403/403/1 555/555/1
f 402/402/1 555/555/1 554/554/1
f 403/403/1 404/404/1 556/556/1
f 403/403/1 556/556/1 555/555/1
f 404/404/1 405/405/1 557/557/1
f 404/404/1 557/557/1 556/556/1
f 405/405/1 406/406/1 558/558/1
f 405/405/1 558/558/1 557/557/1
f 406/406/1 407/407/1 559/559/1
f 406/406/1 559/559/1 558/558/1
f 407/407/1 408/408/1 560/560/1
f 407/407/1 560/560/1 559/559/1
f 408/408/1 409/409/1 561/561/1
f 408/408/1 561/561/1 560/560/1
f 409/409/1 410/410/1 562/562/1
f 409/409/1 562/562/1 561/561/1
f 410/410/1 411/411/1 563/563/1
f 410/410/1 563/563/1 562/562/1
f 411/411/1 412/412/1 564/564/1
f 411/411/1 564/564/1 563/563/1
f 412/412/1 413/413/1 565/565/1
f 412/412/1 565/565/1 564/564/1
f 413/413/1 414/414/1 566/566/1
f 413/413/1 566/566/1 565/565/1
f 414/414/1 415/415/1 567/567/1
f 414/414/1 567/567/1 566/566/1
f 415/415/1 416/416/1 568/568/1
f 415/415/1 568/568/1 567/567/1
f 416/416/1 417/417/1 569/569/1
f 416/416/1 569/569/1 568/568/1
f 417/417/1 418/418/1 570/570/1
f 417/417/1 570/570/1 569/569/1
f 418/418/1 419/419/1 571/571/1
f 418/418/1 571/571/1 570/570/1
f 419/419/1 420/420/1 572/572/1
f 419/419/1 572/572/1 571/571/1
f 420/420/1 421/421/1 573/573/1
f 420/420/1 573/573/1 572/572/1
f 421/421/1 422/422/1 574/574/1
f 421/421/1 574/574/1 573/573/1
f 422/422/1 423/423/1 575/575/1
f 422/422/1 575/575/1 574/574/1
f 423/423/1 424/424/1 576/576/1
f 423/423/1 576/576/1 575/575/1
f 424/424/1 425/425/1 577/577/1
f 424/424/1 577/577/1 576/576/1
f 425/425/1 426/426/1 578/578/1
f 425/425/1 578/578/1 577/577/1
f 426/426/1 427/427/1 579/579/1
f 426/426/1 579/579/1 578/578/1
f 427/427/1 428/428/1 580/580/1
f 427/427/1 580/580/1 579/579/1
f 428/428/1 429/429/1 581/581/1
f 428/428/1 581/581/1 580/580/1
f 429/429/1 430/430/1 582/582/1
f 429/429/1 582/582/1 581/581/1
f 430/430/1 431/431/1 583/583/1
f 430/430/1 583/583/1 582/582/1
f 431/431/1 432/432/1 584/584/1
f 431/431/1 584/584/1 583/583/1
f 432/432/1 433/433/1 585/585/1
f 432/432/1 585/585/1 584/584/1
f 433/433/1 434/434/1 586/586/1
f 433/433/1 586/586/1 585/585/1
f 434/434/1 435/435/1 587/587/1
f 434/434/1 587/587/1 586/586/1
f 435/435/1 436/436/1 588/588/1
f 435/435/1 588/588/1 587/587/1
f 436/436/1 437/437/1 589/589/1
f 436/436/1 589/589/1 588/588/1
f 437/437/1 438/438/1 590/590/1
f 437/437/1 590/590/1 589/589/1
f 438/438/1 439/439/1 591/591/1
f 438/438/1 591/591/1 590/590/1
f 439/439/1 440/440/1 592/592/1
f 439/439/1 592/592/1 591/591/1
f 440/440/1 441/441/1 593/593/1
f 440/440/1 593/593/1 592/592/1
f 441/441/1 442/442/1 594/594/1
f 441/441/1 594/594/1 593/593/1
f 442/442/1 443/443/1 595/595/1
f 442/442/1 595/595/1 594/594/1
f 443/443/1 444/444/1 596/596/1
f 443/443/1 596/596/1 595/595/1
f 444/444/1 445/445/1 597/597/1
f 444/444/1 597/597/1 596/596/1
f 445/445/1 446/446/1 598/598/1
f 445/445/1 598/598/1 597/597/1
