# Concrete dust around S1's collapses (world coordinates), generated by tools/layout_world.py:
# ragged blobs, each 0.6 mm above the last so none z-fight; galis start at 8 mm.
vn 0 0 1
v -163.90 15.82 0.0020
vt -27.317 2.637
v -154.42 15.82 0.0020
vt -25.736 2.637
v -155.28 17.19 0.0020
vt -25.879 2.864
v -155.54 18.54 0.0020
vt -25.923 3.089
v -156.63 19.52 0.0020
vt -26.105 3.254
v -157.41 20.53 0.0020
vt -26.236 3.422
v -157.55 22.17 0.0020
vt -26.258 3.695
v -158.66 23.03 0.0020
vt -26.443 3.839
v -160.55 22.39 0.0020
vt -26.758 3.732
v -161.82 22.22 0.0020
vt -26.970 3.703
v -162.75 23.07 0.0020
vt -27.125 3.845
v -163.90 23.40 0.0020
vt -27.317 3.899
v -165.16 23.81 0.0020
vt -27.527 3.968
v -167.04 25.47 0.0020
vt -27.840 4.246
v -169.32 26.46 0.0020
vt -28.220 4.409
v -170.78 25.29 0.0020
vt -28.464 4.216
v -171.77 23.69 0.0020
vt -28.629 3.949
v -173.07 22.48 0.0020
vt -28.845 3.747
v -173.59 20.76 0.0020
vt -28.931 3.459
v -173.30 18.88 0.0020
vt -28.884 3.146
v -174.14 17.44 0.0020
vt -29.023 2.907
v -175.43 15.82 0.0020
vt -29.239 2.637
v -174.83 14.09 0.0020
vt -29.139 2.348
v -173.13 12.82 0.0020
vt -28.855 2.137
v -171.99 11.70 0.0020
vt -28.665 1.950
v -170.48 11.04 0.0020
vt -28.413 1.840
v -168.39 11.33 0.0020
vt -28.064 1.889
v -167.39 11.02 0.0020
vt -27.898 1.836
v -167.26 9.22 0.0020
vt -27.877 1.537
v -166.49 7.84 0.0020
vt -27.749 1.307
v -165.23 7.44 0.0020
vt -27.538 1.241
v -163.90 6.56 0.0020
vt -27.317 1.094
v -162.34 5.98 0.0020
vt -27.057 0.996
v -161.06 7.07 0.0020
vt -26.843 1.179
v -159.96 8.09 0.0020
vt -26.660 1.349
v -158.03 7.74 0.0020
vt -26.338 1.289
v -155.84 7.76 0.0020
vt -25.974 1.294
v -154.47 8.97 0.0020
vt -25.745 1.494
v -153.04 10.28 0.0020
vt -25.506 1.714
v -151.68 11.85 0.0020
vt -25.281 1.975
v -152.38 14.00 0.0020
vt -25.397 2.333
f 1/1/1 2/2/1 3/3/1
f 1/1/1 3/3/1 4/4/1
f 1/1/1 4/4/1 5/5/1
f 1/1/1 5/5/1 6/6/1
f 1/1/1 6/6/1 7/7/1
f 1/1/1 7/7/1 8/8/1
f 1/1/1 8/8/1 9/9/1
f 1/1/1 9/9/1 10/10/1
f 1/1/1 10/10/1 11/11/1
f 1/1/1 11/11/1 12/12/1
f 1/1/1 12/12/1 13/13/1
f 1/1/1 13/13/1 14/14/1
f 1/1/1 14/14/1 15/15/1
f 1/1/1 15/15/1 16/16/1
f 1/1/1 16/16/1 17/17/1
f 1/1/1 17/17/1 18/18/1
f 1/1/1 18/18/1 19/19/1
f 1/1/1 19/19/1 20/20/1
f 1/1/1 20/20/1 21/21/1
f 1/1/1 21/21/1 22/22/1
f 1/1/1 22/22/1 23/23/1
f 1/1/1 23/23/1 24/24/1
f 1/1/1 24/24/1 25/25/1
f 1/1/1 25/25/1 26/26/1
f 1/1/1 26/26/1 27/27/1
f 1/1/1 27/27/1 28/28/1
f 1/1/1 28/28/1 29/29/1
f 1/1/1 29/29/1 30/30/1
f 1/1/1 30/30/1 31/31/1
f 1/1/1 31/31/1 32/32/1
f 1/1/1 32/32/1 33/33/1
f 1/1/1 33/33/1 34/34/1
f 1/1/1 34/34/1 35/35/1
f 1/1/1 35/35/1 36/36/1
f 1/1/1 36/36/1 37/37/1
f 1/1/1 37/37/1 38/38/1
f 1/1/1 38/38/1 39/39/1
f 1/1/1 39/39/1 40/40/1
f 1/1/1 40/40/1 41/41/1
f 1/1/1 41/41/1 2/2/1
v -95.95 37.03 0.0026
vt -15.992 6.172
v -80.88 37.03 0.0026
vt -13.480 6.172
v -82.38 39.18 0.0026
vt -13.729 6.530
v -82.99 41.24 0.0026
vt -13.832 6.873
v -83.79 43.23 0.0026
vt -13.965 7.204
v -85.74 44.45 0.0026
vt -14.290 7.408
v -87.02 45.96 0.0026
vt -14.503 7.661
v -87.67 48.42 0.0026
vt -14.612 8.070
v -89.61 49.48 0.0026
vt -14.935 8.246
v -92.27 48.35 0.0026
vt -15.379 8.058
v -94.30 47.44 0.0026
vt -15.717 7.907
v -95.95 46.84 0.0026
vt -15.992 7.807
v -97.22 45.07 0.0026
vt -16.204 7.512
v -98.21 43.99 0.0026
vt -16.368 7.331
v -100.07 45.11 0.0026
vt -16.678 7.519
v -102.38 45.88 0.0026
vt -17.064 7.647
v -103.77 44.85 0.0026
vt -17.295 7.475
v -105.11 43.69 0.0026
vt -17.519 7.281
v -106.90 42.61 0.0026
vt -17.817 7.102
v -107.28 40.71 0.0026
vt -17.881 6.785
v -106.84 38.75 0.0026
vt -17.806 6.459
v -108.25 37.03 0.0026
vt -18.041 6.172
v -110.31 34.76 0.0026
vt -18.384 5.793
v -110.31 32.36 0.0026
vt -18.385 5.394
v -109.33 30.21 0.0026
vt -18.222 5.035
v -108.48 27.92 0.0026
vt -18.081 4.654
v -106.19 26.79 0.0026
vt -17.698 4.465
v -102.82 27.57 0.0026
vt -17.137 4.596
v -100.60 27.90 0.0026
vt -16.767 4.651
v -99.25 26.86 0.0026
vt -16.542 4.477
v -97.60 26.63 0.0026
vt -16.266 4.439
v -95.95 27.06 0.0026
vt -15.992 4.509
v -94.27 26.43 0.0026
vt -15.712 4.405
v -92.52 26.46 0.0026
vt -15.419 4.410
v -91.68 28.64 0.0026
vt -15.279 4.774
v -91.19 30.48 0.0026
vt -15.199 5.080
v -89.60 30.68 0.0026
vt -14.933 5.113
v -87.81 31.12 0.0026
vt -14.636 5.186
v -86.46 32.20 0.0026
vt -14.410 5.366
v -83.92 33.12 0.0026
vt -13.987 5.520
v -81.07 34.67 0.0026
vt -13.511 5.779
f 42/42/1 43/43/1 44/44/1
f 42/42/1 44/44/1 45/45/1
f 42/42/1 45/45/1 46/46/1
f 42/42/1 46/46/1 47/47/1
f 42/42/1 47/47/1 48/48/1
f 42/42/1 48/48/1 49/49/1
f 42/42/1 49/49/1 50/50/1
f 42/42/1 50/50/1 51/51/1
f 42/42/1 51/51/1 52/52/1
f 42/42/1 52/52/1 53/53/1
f 42/42/1 53/53/1 54/54/1
f 42/42/1 54/54/1 55/55/1
f 42/42/1 55/55/1 56/56/1
f 42/42/1 56/56/1 57/57/1
f 42/42/1 57/57/1 58/58/1
f 42/42/1 58/58/1 59/59/1
f 42/42/1 59/59/1 60/60/1
f 42/42/1 60/60/1 61/61/1
f 42/42/1 61/61/1 62/62/1
f 42/42/1 62/62/1 63/63/1
f 42/42/1 63/63/1 64/64/1
f 42/42/1 64/64/1 65/65/1
f 42/42/1 65/65/1 66/66/1
f 42/42/1 66/66/1 67/67/1
f 42/42/1 67/67/1 68/68/1
f 42/42/1 68/68/1 69/69/1
f 42/42/1 69/69/1 70/70/1
f 42/42/1 70/70/1 71/71/1
f 42/42/1 71/71/1 72/72/1
f 42/42/1 72/72/1 73/73/1
f 42/42/1 73/73/1 74/74/1
f 42/42/1 74/74/1 75/75/1
f 42/42/1 75/75/1 76/76/1
f 42/42/1 76/76/1 77/77/1
f 42/42/1 77/77/1 78/78/1
f 42/42/1 78/78/1 79/79/1
f 42/42/1 79/79/1 80/80/1
f 42/42/1 80/80/1 81/81/1
f 42/42/1 81/81/1 82/82/1
f 42/42/1 82/82/1 43/43/1
v -91.05 62.97 0.0032
vt -15.175 10.495
v -78.75 62.97 0.0032
vt -13.125 10.495
v -79.59 64.79 0.0032
vt -13.265 10.798
v -78.93 66.91 0.0032
vt -13.154 11.152
v -79.07 69.07 0.0032
vt -13.178 11.512
v -80.36 70.74 0.0032
vt -13.393 11.789
v -81.28 72.74 0.0032
vt -13.546 12.124
v -82.69 74.47 0.0032
vt -13.782 12.412
v -85.48 73.90 0.0032
vt -14.247 12.316
v -88.05 72.22 0.0032
vt -14.674 12.036
v -89.64 71.86 0.0032
vt -14.940 11.977
v -91.05 71.76 0.0032
vt -15.175 11.959
v -92.31 70.91 0.0032
vt -15.385 11.818
v -93.71 71.17 0.0032
vt -15.619 11.862
v -95.79 72.27 0.0032
vt -15.965 12.045
v -97.31 71.59 0.0032
vt -16.218 11.931
v -97.74 69.66 0.0032
vt -16.291 11.611
v -98.73 68.55 0.0032
vt -16.455 11.425
v -100.21 67.64 0.0032
vt -16.702 11.273
v -100.82 66.14 0.0032
vt -16.803 11.024
v -101.94 64.69 0.0032
vt -16.990 10.782
v -104.61 62.97 0.0032
vt -17.435 10.495
v -106.02 60.60 0.0032
vt -17.670 10.100
v -104.82 58.49 0.0032
vt -17.471 9.749
v -103.33 56.71 0.0032
vt -17.221 9.452
v -102.00 55.02 0.0032
vt -16.999 9.169
v -99.54 54.48 0.0032
vt -16.591 9.079
v -97.14 54.58 0.0032
vt -16.191 9.097
v -95.98 53.30 0.0032
vt -15.996 8.883
v -94.71 51.69 0.0032
vt -15.786 8.615
v -92.79 51.99 0.0032
vt -15.465 8.665
v -91.05 52.88 0.0032
vt -15.175 8.813
v -89.50 53.15 0.0032
vt -14.916 8.859
v -88.31 54.52 0.0032
vt -14.718 9.087
v -87.84 56.67 0.0032
vt -14.640 9.444
v -86.74 57.03 0.0032
vt -14.456 9.505
v -84.38 56.30 0.0032
vt -14.063 9.383
v -82.43 56.71 0.0032
vt -13.738 9.451
v -80.96 57.83 0.0032
vt -13.493 9.638
v -78.80 58.99 0.0032
vt -13.133 9.831
v -77.63 60.84 0.0032
vt -12.938 10.141
f 83/83/1 84/84/1 85/85/1
f 83/83/1 85/85/1 86/86/1
f 83/83/1 86/86/1 87/87/1
f 83/83/1 87/87/1 88/88/1
f 83/83/1 88/88/1 89/89/1
f 83/83/1 89/89/1 90/90/1
f 83/83/1 90/90/1 91/91/1
f 83/83/1 91/91/1 92/92/1
f 83/83/1 92/92/1 93/93/1
f 83/83/1 93/93/1 94/94/1
f 83/83/1 94/94/1 95/95/1
f 83/83/1 95/95/1 96/96/1
f 83/83/1 96/96/1 97/97/1
f 83/83/1 97/97/1 98/98/1
f 83/83/1 98/98/1 99/99/1
f 83/83/1 99/99/1 100/100/1
f 83/83/1 100/100/1 101/101/1
f 83/83/1 101/101/1 102/102/1
f 83/83/1 102/102/1 103/103/1
f 83/83/1 103/103/1 104/104/1
f 83/83/1 104/104/1 105/105/1
f 83/83/1 105/105/1 106/106/1
f 83/83/1 106/106/1 107/107/1
f 83/83/1 107/107/1 108/108/1
f 83/83/1 108/108/1 109/109/1
f 83/83/1 109/109/1 110/110/1
f 83/83/1 110/110/1 111/111/1
f 83/83/1 111/111/1 112/112/1
f 83/83/1 112/112/1 113/113/1
f 83/83/1 113/113/1 114/114/1
f 83/83/1 114/114/1 115/115/1
f 83/83/1 115/115/1 116/116/1
f 83/83/1 116/116/1 117/117/1
f 83/83/1 117/117/1 118/118/1
f 83/83/1 118/118/1 119/119/1
f 83/83/1 119/119/1 120/120/1
f 83/83/1 120/120/1 121/121/1
f 83/83/1 121/121/1 122/122/1
f 83/83/1 122/122/1 123/123/1
f 83/83/1 123/123/1 84/84/1
v -125.71 13.18 0.0038
vt -20.951 2.197
v -118.33 13.18 0.0038
vt -19.722 2.197
v -118.89 14.26 0.0038
vt -19.815 2.377
v -118.34 15.58 0.0038
vt -19.723 2.596
v -117.32 17.45 0.0038
vt -19.553 2.909
v -117.64 19.04 0.0038
vt -19.607 3.173
v -118.78 20.11 0.0038
vt -19.797 3.351
v -119.84 21.25 0.0038
vt -19.974 3.542
v -121.40 21.63 0.0038
vt -20.233 3.605
v -123.29 20.62 0.0038
vt -20.548 3.436
v -124.63 19.96 0.0038
vt -20.772 3.326
v -125.71 20.46 0.0038
vt -20.951 3.410
v -126.86 20.46 0.0038
vt -21.143 3.410
v -127.83 19.72 0.0038
vt -21.305 3.287
v -128.90 19.45 0.0038
vt -21.484 3.242
v -129.92 18.98 0.0038
vt -21.653 3.164
v -129.96 17.44 0.0038
vt -21.661 2.907
v -129.73 16.10 0.0038
vt -21.622 2.684
v -130.61 15.68 0.0038
vt -21.768 2.613
v -131.81 15.16 0.0038
vt -21.968 2.527
v -132.47 14.25 0.0038
vt -22.079 2.375
v -133.65 13.18 0.0038
vt -22.275 2.197
v -135.05 11.70 0.0038
vt -22.508 1.950
v -134.79 10.23 0.0038
vt -22.464 1.705
v -133.39 9.27 0.0038
vt -22.232 1.544
v -132.62 8.16 0.0038
vt -22.103 1.360
v -131.98 6.91 0.0038
vt -21.997 1.151
v -130.72 6.29 0.0038
vt -21.786 1.048
v -129.58 5.58 0.0038
vt -21.596 0.930
v -128.63 4.20 0.0038
vt -21.438 0.699
v -127.19 3.84 0.0038
vt -21.198 0.639
v -125.71 5.18 0.0038
vt -20.951 0.863
v -124.63 6.39 0.0038
vt -20.772 1.066
v -123.72 7.07 0.0038
vt -20.620 1.178
v -123.20 8.26 0.0038
vt -20.533 1.376
v -122.81 9.20 0.0038
vt -20.469 1.533
v -121.53 9.00 0.0038
vt -20.254 1.500
v -119.94 8.99 0.0038
vt -19.989 1.498
v -119.39 9.96 0.0038
vt -19.898 1.660
v -119.12 11.04 0.0038
vt -19.853 1.840
v -118.37 12.02 0.0038
vt -19.728 2.003
f 124/124/1 125/125/1 126/126/1
f 124/124/1 126/126/1 127/127/1
f 124/124/1 127/127/1 128/128/1
f 124/124/1 128/128/1 129/129/1
f 124/124/1 129/129/1 130/130/1
f 124/124/1 130/130/1 131/131/1
f 124/124/1 131/131/1 132/132/1
f 124/124/1 132/132/1 133/133/1
f 124/124/1 133/133/1 134/134/1
f 124/124/1 134/134/1 135/135/1
f 124/124/1 135/135/1 136/136/1
f 124/124/1 136/136/1 137/137/1
f 124/124/1 137/137/1 138/138/1
f 124/124/1 138/138/1 139/139/1
f 124/124/1 139/139/1 140/140/1
f 124/124/1 140/140/1 141/141/1
f 124/124/1 141/141/1 142/142/1
f 124/124/1 142/142/1 143/143/1
f 124/124/1 143/143/1 144/144/1
f 124/124/1 144/144/1 145/145/1
f 124/124/1 145/145/1 146/146/1
f 124/124/1 146/146/1 147/147/1
f 124/124/1 147/147/1 148/148/1
f 124/124/1 148/148/1 149/149/1
f 124/124/1 149/149/1 150/150/1
f 124/124/1 150/150/1 151/151/1
f 124/124/1 151/151/1 152/152/1
f 124/124/1 152/152/1 153/153/1
f 124/124/1 153/153/1 154/154/1
f 124/124/1 154/154/1 155/155/1
f 124/124/1 155/155/1 156/156/1
f 124/124/1 156/156/1 157/157/1
f 124/124/1 157/157/1 158/158/1
f 124/124/1 158/158/1 159/159/1
f 124/124/1 159/159/1 160/160/1
f 124/124/1 160/160/1 161/161/1
f 124/124/1 161/161/1 162/162/1
f 124/124/1 162/162/1 163/163/1
f 124/124/1 163/163/1 164/164/1
f 124/124/1 164/164/1 125/125/1
v -16.89 57.48 0.0044
vt -2.815 9.580
v -10.44 57.48 0.0044
vt -1.741 9.580
v -10.43 58.50 0.0044
vt -1.739 9.750
v -10.70 59.49 0.0044
vt -1.783 9.915
v -11.49 60.23 0.0044
vt -1.915 10.038
v -11.30 61.54 0.0044
vt -1.883 10.257
v -10.58 63.79 0.0044
vt -1.763 10.632
v -11.06 65.50 0.0044
vt -1.843 10.917
v -12.41 66.27 0.0044
vt -2.068 11.045
v -13.74 67.18 0.0044
vt -2.289 11.197
v -15.29 67.56 0.0044
vt -2.549 11.260
v -16.89 66.47 0.0044
vt -2.815 11.078
v -18.18 65.62 0.0044
vt -3.029 10.936
v -19.66 66.01 0.0044
vt -3.276 11.001
v -21.15 65.85 0.0044
vt -3.526 10.975
v -22.04 64.57 0.0044
vt -3.674 10.762
v -22.87 63.46 0.0044
vt -3.812 10.577
v -23.58 62.34 0.0044
vt -3.931 10.391
v -22.97 60.58 0.0044
vt -3.828 10.096
v -21.87 59.10 0.0044
vt -3.645 9.850
v -22.19 58.32 0.0044
vt -3.698 9.720
v -23.12 57.48 0.0044
vt -3.853 9.580
v -23.30 56.46 0.0044
vt -3.884 9.411
v -23.73 55.26 0.0044
vt -3.955 9.210
v -24.51 53.60 0.0044
vt -4.085 8.933
v -23.98 52.33 0.0044
vt -3.996 8.721
v -22.45 51.92 0.0044
vt -3.742 8.653
v -21.55 51.06 0.0044
vt -3.592 8.511
v -20.91 49.58 0.0044
vt -3.486 8.263
v -19.72 48.75 0.0044
vt -3.287 8.126
v -18.37 48.10 0.0044
vt -3.062 8.016
v -16.89 46.78 0.0044
vt -2.815 7.797
v -15.15 46.53 0.0044
vt -2.526 7.755
v -13.89 48.26 0.0044
vt -2.316 8.044
v -13.10 50.04 0.0044
vt -2.183 8.340
v -12.24 51.08 0.0044
vt -2.040 8.513
v -11.86 52.46 0.0044
vt -1.977 8.743
v -11.84 53.81 0.0044
vt -1.974 8.969
v -10.83 54.39 0.0044
vt -1.805 9.066
v -9.52 55.09 0.0044
vt -1.587 9.181
v -9.69 56.34 0.0044
vt -1.615 9.390
f 165/165/1 166/166/1 167/167/1
f 165/165/1 167/167/1 168/168/1
f 165/165/1 168/168/1 169/169/1
f 165/165/1 169/169/1 170/170/1
f 165/165/1 170/170/1 171/171/1
f 165/165/1 171/171/1 172/172/1
f 165/165/1 172/172/1 173/173/1
f 165/165/1 173/173/1 174/174/1
f 165/165/1 174/174/1 175/175/1
f 165/165/1 175/175/1 176/176/1
f 165/165/1 176/176/1 177/177/1
f 165/165/1 177/177/1 178/178/1
f 165/165/1 178/178/1 179/179/1
f 165/165/1 179/179/1 180/180/1
f 165/165/1 180/180/1 181/181/1
f 165/165/1 181/181/1 182/182/1
f 165/165/1 182/182/1 183/183/1
f 165/165/1 183/183/1 184/184/1
f 165/165/1 184/184/1 185/185/1
f 165/165/1 185/185/1 186/186/1
f 165/165/1 186/186/1 187/187/1
f 165/165/1 187/187/1 188/188/1
f 165/165/1 188/188/1 189/189/1
f 165/165/1 189/189/1 190/190/1
f 165/165/1 190/190/1 191/191/1
f 165/165/1 191/191/1 192/192/1
f 165/165/1 192/192/1 193/193/1
f 165/165/1 193/193/1 194/194/1
f 165/165/1 194/194/1 195/195/1
f 165/165/1 195/195/1 196/196/1
f 165/165/1 196/196/1 197/197/1
f 165/165/1 197/197/1 198/198/1
f 165/165/1 198/198/1 199/199/1
f 165/165/1 199/199/1 200/200/1
f 165/165/1 200/200/1 201/201/1
f 165/165/1 201/201/1 202/202/1
f 165/165/1 202/202/1 203/203/1
f 165/165/1 203/203/1 204/204/1
f 165/165/1 204/204/1 205/205/1
f 165/165/1 205/205/1 166/166/1
v -190.36 41.00 0.0050
vt -31.727 6.834
v -181.87 41.00 0.0050
vt -30.311 6.834
v -181.83 42.35 0.0050
vt -30.304 7.059
v -181.67 43.82 0.0050
vt -30.279 7.304
v -180.60 45.97 0.0050
vt -30.101 7.662
v -180.55 48.13 0.0050
vt -30.091 8.022
v -182.29 49.07 0.0050
vt -30.382 8.178
v -184.18 49.52 0.0050
vt -30.696 8.253
v -185.73 50.08 0.0050
vt -30.956 8.347
v -187.56 49.62 0.0050
vt -31.260 8.271
v -189.15 48.64 0.0050
vt -31.525 8.107
v -190.36 49.04 0.0050
vt -31.727 8.174
v -191.76 49.82 0.0050
vt -31.960 8.304
v -192.97 49.03 0.0050
vt -32.162 8.172
v -193.79 47.74 0.0050
vt -32.299 7.956
v -194.75 47.04 0.0050
vt -32.458 7.840
v -195.24 45.88 0.0050
vt -32.541 7.647
v -194.98 44.36 0.0050
vt -32.496 7.393
v -195.71 43.73 0.0050
vt -32.619 7.288
v -197.82 43.42 0.0050
vt -32.970 7.237
v -199.24 42.41 0.0050
vt -33.207 7.068
v -199.80 41.00 0.0050
vt -33.299 6.834
v -200.69 39.37 0.0050
vt -33.448 6.561
v -200.80 37.61 0.0050
vt -33.467 6.268
v -199.21 36.49 0.0050
vt -33.201 6.082
v -197.80 35.60 0.0050
vt -32.966 5.933
v -197.42 33.94 0.0050
vt -32.903 5.657
v -196.57 32.46 0.0050
vt -32.761 5.410
v -195.01 31.88 0.0050
vt -32.502 5.313
v -193.58 31.08 0.0050
vt -32.264 5.180
v -192.02 30.50 0.0050
vt -32.004 5.083
v -190.36 31.88 0.0050
vt -31.727 5.313
v -189.26 34.02 0.0050
vt -31.543 5.670
v -188.34 34.79 0.0050
vt -31.390 5.798
v -187.34 35.07 0.0050
vt -31.223 5.845
v -186.65 35.90 0.0050
vt -31.109 5.983
v -185.55 36.19 0.0050
vt -30.925 6.032
v -183.64 36.12 0.0050
vt -30.607 6.020
v -182.64 37.07 0.0050
vt -30.441 6.178
v -182.98 38.60 0.0050
vt -30.497 6.434
v -182.73 39.79 0.0050
vt -30.454 6.632
f 206/206/1 207/207/1 208/208/1
f 206/206/1 208/208/1 209/209/1
f 206/206/1 209/209/1 210/210/1
f 206/206/1 210/210/1 211/211/1
f 206/206/1 211/211/1 212/212/1
f 206/206/1 212/212/1 213/213/1
f 206/206/1 213/213/1 214/214/1
f 206/206/1 214/214/1 215/215/1
f 206/206/1 215/215/1 216/216/1
f 206/206/1 216/216/1 217/217/1
f 206/206/1 217/217/1 218/218/1
f 206/206/1 218/218/1 219/219/1
f 206/206/1 219/219/1 220/220/1
f 206/206/1 220/220/1 221/221/1
f 206/206/1 221/221/1 222/222/1
f 206/206/1 222/222/1 223/223/1
f 206/206/1 223/223/1 224/224/1
f 206/206/1 224/224/1 225/225/1
f 206/206/1 225/225/1 226/226/1
f 206/206/1 226/226/1 227/227/1
f 206/206/1 227/227/1 228/228/1
f 206/206/1 228/228/1 229/229/1
f 206/206/1 229/229/1 230/230/1
f 206/206/1 230/230/1 231/231/1
f 206/206/1 231/231/1 232/232/1
f 206/206/1 232/232/1 233/233/1
f 206/206/1 233/233/1 234/234/1
f 206/206/1 234/234/1 235/235/1
f 206/206/1 235/235/1 236/236/1
f 206/206/1 236/236/1 237/237/1
f 206/206/1 237/237/1 238/238/1
f 206/206/1 238/238/1 239/239/1
f 206/206/1 239/239/1 240/240/1
f 206/206/1 240/240/1 241/241/1
f 206/206/1 241/241/1 242/242/1
f 206/206/1 242/242/1 243/243/1
f 206/206/1 243/243/1 244/244/1
f 206/206/1 244/244/1 245/245/1
f 206/206/1 245/245/1 246/246/1
f 206/206/1 246/246/1 207/207/1
v -121.30 37.03 0.0056
vt -20.217 6.172
v -114.33 37.03 0.0056
vt -19.055 6.172
v -114.16 38.16 0.0056
vt -19.027 6.361
v -112.85 39.78 0.0056
vt -18.809 6.630
v -113.01 41.26 0.0056
vt -18.835 6.876
v -114.30 42.12 0.0056
vt -19.049 7.020
v -115.01 43.32 0.0056
vt -19.168 7.221
v -115.87 44.51 0.0056
vt -19.312 7.419
v -117.40 44.68 0.0056
vt -19.567 7.447
v -118.56 45.46 0.0056
vt -19.761 7.577
v -119.57 47.95 0.0056
vt -19.929 7.992
v -121.30 49.75 0.0056
vt -20.217 8.292
v -123.30 49.67 0.0056
vt -20.551 8.279
v -125.32 49.41 0.0056
vt -20.887 8.235
v -127.29 48.78 0.0056
vt -21.215 8.130
v -128.15 46.45 0.0056
vt -21.358 7.742
v -128.25 43.98 0.0056
vt -21.374 7.329
v -129.31 42.85 0.0056
vt -21.552 7.142
v -130.66 41.80 0.0056
vt -21.777 6.967
v -130.76 40.10 0.0056
vt -21.793 6.684
v -130.76 38.53 0.0056
vt -21.793 6.422
v -131.18 37.03 0.0056
vt -21.864 6.172
v -130.06 35.64 0.0056
vt -21.677 5.941
v -127.82 34.92 0.0056
vt -21.303 5.819
v -127.09 34.08 0.0056
vt -21.182 5.681
v -127.48 32.54 0.0056
vt -21.247 5.424
v -127.15 31.19 0.0056
vt -21.191 5.198
v -126.64 29.69 0.0056
vt -21.107 4.948
v -126.33 27.16 0.0056
vt -21.055 4.527
v -125.07 25.44 0.0056
vt -20.845 4.241
v -123.07 25.88 0.0056
vt -20.512 4.314
v -121.30 26.33 0.0056
vt -20.217 4.388
v -119.52 25.79 0.0056
vt -19.920 4.298
v -117.74 26.07 0.0056
vt -19.623 4.344
v -116.18 26.97 0.0056
vt -19.363 4.495
v -114.05 27.05 0.0056
vt -19.009 4.509
v -111.90 27.63 0.0056
vt -18.650 4.605
v -111.55 29.95 0.0056
vt -18.591 4.991
v -112.29 32.44 0.0056
vt -18.715 5.407
v -112.47 34.16 0.0056
vt -18.745 5.694
v -113.04 35.72 0.0056
vt -18.841 5.954
f 247/247/1 248/248/1 249/249/1
f 247/247/1 249/249/1 250/250/1
f 247/247/1 250/250/1 251/251/1
f 247/247/1 251/251/1 252/252/1
f 247/247/1 252/252/1 253/253/1
f 247/247/1 253/253/1 254/254/1
f 247/247/1 254/254/1 255/255/1
f 247/247/1 255/255/1 256/256/1
f 247/247/1 256/256/1 257/257/1
f 247/247/1 257/257/1 258/258/1
f 247/247/1 258/258/1 259/259/1
f 247/247/1 259/259/1 260/260/1
f 247/247/1 260/260/1 261/261/1
f 247/247/1 261/261/1 262/262/1
f 247/247/1 262/262/1 263/263/1
f 247/247/1 263/263/1 264/264/1
f 247/247/1 264/264/1 265/265/1
f 247/247/1 265/265/1 266/266/1
f 247/247/1 266/266/1 267/267/1
f 247/247/1 267/267/1 268/268/1
f 247/247/1 268/268/1 269/269/1
f 247/247/1 269/269/1 270/270/1
f 247/247/1 270/270/1 271/271/1
f 247/247/1 271/271/1 272/272/1
f 247/247/1 272/272/1 273/273/1
f 247/247/1 273/273/1 274/274/1
f 247/247/1 274/274/1 275/275/1
f 247/247/1 275/275/1 276/276/1
f 247/247/1 276/276/1 277/277/1
f 247/247/1 277/277/1 278/278/1
f 247/247/1 278/278/1 279/279/1
f 247/247/1 279/279/1 280/280/1
f 247/247/1 280/280/1 281/281/1
f 247/247/1 281/281/1 282/282/1
f 247/247/1 282/282/1 283/283/1
f 247/247/1 283/283/1 284/284/1
f 247/247/1 284/284/1 285/285/1
f 247/247/1 285/285/1 286/286/1
f 247/247/1 286/286/1 287/287/1
f 247/247/1 287/287/1 248/248/1
v -179.79 31.99 0.0062
vt -29.966 5.332
v -171.08 31.99 0.0062
vt -28.514 5.332
v -169.81 33.57 0.0062
vt -28.301 5.595
v -169.83 35.23 0.0062
vt -28.305 5.871
v -171.52 36.21 0.0062
vt -28.586 6.034
v -172.96 36.95 0.0062
vt -28.827 6.159
v -173.85 37.93 0.0062
vt -28.975 6.322
v -175.17 38.35 0.0062
vt -29.196 6.391
v -176.49 38.47 0.0062
vt -29.415 6.412
v -177.37 39.45 0.0062
vt -29.562 6.575
v -178.50 40.18 0.0062
vt -29.749 6.697
v -179.79 39.23 0.0062
vt -29.966 6.538
v -180.74 37.95 0.0062
vt -30.123 6.325
v -181.59 37.51 0.0062
vt -30.264 6.251
v -182.26 36.84 0.0062
vt -30.377 6.140
v -182.69 35.98 0.0062
vt -30.449 5.997
v -183.93 36.12 0.0062
vt -30.654 6.020
v -185.95 36.46 0.0062
vt -30.992 6.077
v -187.15 35.74 0.0062
vt -31.191 5.956
v -187.54 34.51 0.0062
vt -31.257 5.751
v -188.29 33.33 0.0062
vt -31.381 5.556
v -188.56 31.99 0.0062
vt -31.427 5.332
v -187.73 30.73 0.0062
vt -31.289 5.122
v -187.46 29.50 0.0062
vt -31.243 4.917
v -188.09 27.76 0.0062
vt -31.349 4.627
v -187.80 26.17 0.0062
vt -31.300 4.362
v -186.43 25.36 0.0062
vt -31.071 4.226
v -185.15 24.62 0.0062
vt -30.858 4.103
v -183.75 24.22 0.0062
vt -30.625 4.037
v -181.99 25.24 0.0062
vt -30.331 4.206
v -180.68 26.42 0.0062
vt -30.113 4.404
v -179.79 26.19 0.0062
vt -29.966 4.364
v -178.80 25.73 0.0062
vt -29.800 4.289
v -177.88 26.11 0.0062
vt -29.647 4.351
v -176.85 26.22 0.0062
vt -29.476 4.370
v -175.54 26.13 0.0062
vt -29.256 4.355
v -174.92 27.11 0.0062
vt -29.153 4.519
v -174.99 28.50 0.0062
vt -29.165 4.750
v -174.21 29.14 0.0062
vt -29.034 4.857
v -172.73 29.69 0.0062
vt -28.788 4.949
v -171.90 30.74 0.0062
vt -28.650 5.123
f 288/288/1 289/289/1 290/290/1
f 288/288/1 290/290/1 291/291/1
f 288/288/1 291/291/1 292/292/1
f 288/288/1 292/292/1 293/293/1
f 288/288/1 293/293/1 294/294/1
f 288/288/1 294/294/1 295/295/1
f 288/288/1 295/295/1 296/296/1
f 288/288/1 296/296/1 297/297/1
f 288/288/1 297/297/1 298/298/1
f 288/288/1 298/298/1 299/299/1
f 288/288/1 299/299/1 300/300/1
f 288/288/1 300/300/1 301/301/1
f 288/288/1 301/301/1 302/302/1
f 288/288/1 302/302/1 303/303/1
f 288/288/1 303/303/1 304/304/1
f 288/288/1 304/304/1 305/305/1
f 288/288/1 305/305/1 306/306/1
f 288/288/1 306/306/1 307/307/1
f 288/288/1 307/307/1 308/308/1
f 288/288/1 308/308/1 309/309/1
f 288/288/1 309/309/1 310/310/1
f 288/288/1 310/310/1 311/311/1
f 288/288/1 311/311/1 312/312/1
f 288/288/1 312/312/1 313/313/1
f 288/288/1 313/313/1 314/314/1
f 288/288/1 314/314/1 315/315/1
f 288/288/1 315/315/1 316/316/1
f 288/288/1 316/316/1 317/317/1
f 288/288/1 317/317/1 318/318/1
f 288/288/1 318/318/1 319/319/1
f 288/288/1 319/319/1 320/320/1
f 288/288/1 320/320/1 321/321/1
f 288/288/1 321/321/1 322/322/1
f 288/288/1 322/322/1 323/323/1
f 288/288/1 323/323/1 324/324/1
f 288/288/1 324/324/1 325/325/1
f 288/288/1 325/325/1 326/326/1
f 288/288/1 326/326/1 327/327/1
f 288/288/1 327/327/1 328/328/1
f 288/288/1 328/328/1 289/289/1
v -60.00 25.00 0.0068
vt -10.000 4.167
v -49.98 25.00 0.0068
vt -8.330 4.167
v -49.02 26.74 0.0068
vt -8.171 4.456
v -49.48 28.42 0.0068
vt -8.247 4.736
v -49.50 30.35 0.0068
vt -8.251 5.058
v -49.05 32.95 0.0068
vt -8.176 5.492
v -50.59 34.41 0.0068
vt -8.432 5.735
v -53.17 34.40 0.0068
vt -8.862 5.733
v -54.54 35.71 0.0068
vt -9.090 5.952
v -55.67 38.32 0.0068
vt -9.279 6.387
v -57.66 39.76 0.0068
vt -9.610 6.626
v -60.00 41.05 0.0068
vt -10.000 6.841
v -62.90 43.29 0.0068
vt -10.483 7.216
v -65.97 43.39 0.0068
vt -10.996 7.231
v -67.79 40.28 0.0068
vt -11.298 6.714
v -69.00 37.39 0.0068
vt -11.500 6.231
v -70.58 35.58 0.0068
vt -11.764 5.930
v -71.17 33.11 0.0068
vt -11.861 5.519
v -71.15 30.68 0.0068
vt -11.858 5.113
v -72.79 29.15 0.0068
vt -12.131 4.859
v -74.36 27.28 0.0068
vt -12.394 4.546
v -73.00 25.00 0.0068
vt -12.167 4.167
v -70.85 23.28 0.0068
vt -11.808 3.880
v -70.15 21.70 0.0068
vt -11.691 3.617
v -69.07 20.38 0.0068
vt -11.512 3.396
v -67.48 19.57 0.0068
vt -11.246 3.261
v -67.62 17.38 0.0068
vt -11.270 2.897
v -68.31 13.56 0.0068
vt -11.385 2.260
v -67.09 11.09 0.0068
vt -11.182 1.848
v -64.80 10.22 0.0068
vt -10.800 1.704
v -62.56 8.86 0.0068
vt -10.426 1.477
v -60.00 8.36 0.0068
vt -10.000 1.394
v -57.64 10.10 0.0068
vt -9.607 1.683
v -55.48 11.07 0.0068
vt -9.246 1.846
v -52.47 10.22 0.0068
vt -8.745 1.704
v -49.64 10.75 0.0068
vt -8.274 1.791
v -48.22 13.22 0.0068
vt -8.037 2.204
v -46.94 15.51 0.0068
vt -7.824 2.586
v -46.14 17.94 0.0068
vt -7.690 2.990
v -47.91 21.07 0.0068
vt -7.984 3.512
v -50.24 23.45 0.0068
vt -8.374 3.909
f 329/329/1 330/330/1 331/331/1
f 329/329/1 331/331/1 332/332/1
f 329/329/1 332/332/1 333/333/1
f 329/329/1 333/333/1 334/334/1
f 329/329/1 334/334/1 335/335/1
f 329/329/1 335/335/1 336/336/1
f 329/329/1 336/336/1 337/337/1
f 329/329/1 337/337/1 338/338/1
f 329/329/1 338/338/1 339/339/1
f 329/329/1 339/339/1 340/340/1
f 329/329/1 340/340/1 341/341/1
f 329/329/1 341/341/1 342/342/1
f 329/329/1 342/342/1 343/343/1
f 329/329/1 343/343/1 344/344/1
f 329/329/1 344/344/1 345/345/1
f 329/329/1 345/345/1 346/346/1
f 329/329/1 346/346/1 347/347/1
f 329/329/1 347/347/1 348/348/1
f 329/329/1 348/348/1 349/349/1
f 329/329/1 349/349/1 350/350/1
f 329/329/1 350/350/1 351/351/1
f 329/329/1 351/351/1 352/352/1
f 329/329/1 352/352/1 353/353/1
f 329/329/1 353/353/1 354/354/1
f 329/329/1 354/354/1 355/355/1
f 329/329/1 355/355/1 356/356/1
f 329/329/1 356/356/1 357/357/1
f 329/329/1 357/357/1 358/358/1
f 329/329/1 358/358/1 359/359/1
f 329/329/1 359/359/1 360/360/1
f 329/329/1 360/360/1 361/361/1
f 329/329/1 361/361/1 362/362/1
f 329/329/1 362/362/1 363/363/1
f 329/329/1 363/363/1 364/364/1
f 329/329/1 364/364/1 365/365/1
f 329/329/1 365/365/1 366/366/1
f 329/329/1 366/366/1 367/367/1
f 329/329/1 367/367/1 368/368/1
f 329/329/1 368/368/1 369/369/1
f 329/329/1 369/369/1 330/330/1
v -160.00 75.00 0.0074
vt -26.667 12.500
v -141.07 75.00 0.0074
vt -23.512 12.500
v -144.84 77.40 0.0074
vt -24.140 12.900
v -145.57 79.69 0.0074
vt -24.261 13.282
v -146.60 81.83 0.0074
vt -24.433 13.638
v -148.11 83.64 0.0074
vt -24.686 13.939
v -147.36 87.64 0.0074
vt -24.560 14.607
v -146.84 93.11 0.0074
vt -24.474 15.519
v -149.54 95.53 0.0074
vt -24.924 15.921
v -153.25 95.77 0.0074
vt -25.542 15.961
v -156.44 97.49 0.0074
vt -26.073 16.248
v -160.00 98.45 0.0074
vt -26.667 16.408
v -163.49 97.02 0.0074
vt -27.248 16.169
v -167.26 97.34 0.0074
vt -27.876 16.223
v -172.43 99.40 0.0074
vt -28.739 16.567
v -176.69 97.98 0.0074
vt -29.449 16.330
v -178.36 93.36 0.0074
vt -29.726 15.559
v -179.70 89.31 0.0074
vt -29.950 14.885
v -180.23 85.31 0.0074
vt -30.038 14.218
v -177.54 80.70 0.0074
vt -29.591 13.450
v -175.31 77.43 0.0074
vt -29.219 12.904
v -177.11 75.00 0.0074
vt -29.519 12.500
v -178.68 72.04 0.0074
vt -29.780 12.007
v -177.21 69.41 0.0074
vt -29.535 11.568
v -176.17 66.76 0.0074
vt -29.362 11.127
v -175.63 63.65 0.0074
vt -29.271 10.608
v -172.57 62.43 0.0074
vt -28.762 10.405
v -169.16 62.39 0.0074
vt -28.193 10.399
v -168.03 59.25 0.0074
vt -28.005 9.874
v -166.74 54.26 0.0074
vt -27.790 9.044
v -163.70 51.61 0.0074
vt -27.284 8.602
v -160.00 49.59 0.0074
vt -26.667 8.265
v -155.56 47.00 0.0074
vt -25.927 7.833
v -151.30 48.24 0.0074
vt -25.217 8.039
v -148.96 53.33 0.0074
vt -24.826 8.888
v -146.78 56.80 0.0074
vt -24.463 9.467
v -143.53 58.53 0.0074
vt -23.922 9.756
v -141.73 61.73 0.0074
vt -23.622 10.288
v -140.87 65.25 0.0074
vt -23.478 10.875
v -138.30 67.95 0.0074
vt -23.051 11.325
v -137.33 71.41 0.0074
vt -22.888 11.902
f 370/370/1 371/371/1 372/372/1
f 370/370/1 372/372/1 373/373/1
f 370/370/1 373/373/1 374/374/1
f 370/370/1 374/374/1 375/375/1
f 370/370/1 375/375/1 376/376/1
f 370/370/1 376/376/1 377/377/1
f 370/370/1 377/377/1 378/378/1
f 370/370/1 378/378/1 379/379/1
f 370/370/1 379/379/1 380/380/1
f 370/370/1 380/380/1 381/381/1
f 370/370/1 381/381/1 382/382/1
f 370/370/1 382/382/1 383/383/1
f 370/370/1 383/383/1 384/384/1
f 370/370/1 384/384/1 385/385/1
f 370/370/1 385/385/1 386/386/1
f 370/370/1 386/386/1 387/387/1
f 370/370/1 387/387/1 388/388/1
f 370/370/1 388/388/1 389/389/1
f 370/370/1 389/389/1 390/390/1
f 370/370/1 390/390/1 391/391/1
f 370/370/1 391/391/1 392/392/1
f 370/370/1 392/392/1 393/393/1
f 370/370/1 393/393/1 394/394/1
f 370/370/1 394/394/1 395/395/1
f 370/370/1 395/395/1 396/396/1
f 370/370/1 396/396/1 397/397/1
f 370/370/1 397/397/1 398/398/1
f 370/370/1 398/398/1 399/399/1
f 370/370/1 399/399/1 400/400/1
f 370/370/1 400/400/1 401/401/1
f 370/370/1 401/401/1 402/402/1
f 370/370/1 402/402/1 403/403/1
f 370/370/1 403/403/1 404/404/1
f 370/370/1 404/404/1 405/405/1
f 370/370/1 405/405/1 406/406/1
f 370/370/1 406/406/1 407/407/1
f 370/370/1 407/407/1 408/408/1
f 370/370/1 408/408/1 409/409/1
f 370/370/1 409/409/1 410/410/1
f 370/370/1 410/410/1 371/371/1
