# Grass farmland under everything (world coordinates), generated by
# tools/layout_world.py, round the society and out to 700 m. UVs every 8 m.
vn 0 0 1
v -217.61 6.70 0.0000
v -217.72 9.57 0.0000
v -700.00 -600.00 0.0000
v -213.57 -4.22 0.0000
v -214.49 -1.47 0.0000
v -213.56 -4.26 0.0000
v -213.57 -4.24 0.0000
v -215.69 1.25 0.0000
v -212.98 -9.86 0.0000
v -214.50 -1.44 0.0000
v -161.07 -9.12 0.0000
v -139.63 -9.70 0.0000
v -154.41 -8.97 0.0000
v -154.40 -8.97 0.0000
v -148.72 -9.04 0.0000
v -143.89 -9.31 0.0000
v -148.71 -9.04 0.0000
v -143.88 -9.31 0.0000
v -112.51 -8.88 0.0000
v -101.56 -8.34 0.0000
v -108.36 -8.52 0.0000
v -108.35 -8.52 0.0000
v -104.73 -8.35 0.0000
v -104.74 -8.35 0.0000
v -98.59 -8.35 0.0000
v -76.38 -8.57 0.0000
v -82.76 -6.57 0.0000
v -75.54 -9.47 0.0000
v -80.37 -6.49 0.0000
v -80.33 -6.49 0.0000
v -80.30 -6.50 0.0000
v -78.57 -6.83 0.0000
v -77.30 -7.59 0.0000
v -78.52 -6.84 0.0000
v -78.54 -6.84 0.0000
v -78.47 -6.87 0.0000
v -78.49 -6.86 0.0000
v -77.28 -7.60 0.0000
v -77.26 -7.62 0.0000
v -77.24 -7.64 0.0000
v -64.45 -11.00 0.0000
v -67.41 -10.43 0.0000
v -63.30 -11.49 0.0000
v -64.48 -10.98 0.0000
v -65.81 -10.59 0.0000
v -65.84 -10.59 0.0000
v -65.78 -10.60 0.0000
v -69.29 -10.46 0.0000
v -50.97 -9.45 0.0000
v -51.08 -9.45 0.0000
v -48.93 -10.45 0.0000
v -52.69 -9.71 0.0000
v -52.71 -9.71 0.0000
v -52.66 -9.70 0.0000
v -51.02 -9.45 0.0000
v -50.99 -9.45 0.0000
v -51.05 -9.45 0.0000
v -49.80 -9.71 0.0000
v -49.83 -9.70 0.0000
v -49.77 -9.72 0.0000
v -49.75 -9.73 0.0000
v -49.70 -9.77 0.0000
v -49.72 -9.75 0.0000
v -48.91 -10.46 0.0000
v -48.88 -10.50 0.0000
v -48.90 -10.48 0.0000
v -40.46 -12.03 0.0000
v -41.59 -11.97 0.0000
v -39.42 -12.34 0.0000
v -41.63 -11.97 0.0000
v -41.66 -11.98 0.0000
v -40.39 -12.04 0.0000
v -40.41 -12.04 0.0000
v -40.44 -12.03 0.0000
v -39.41 -12.34 0.0000
v -42.98 -12.18 0.0000
v -38.52 -12.68 0.0000
v -44.43 -12.50 0.0000
v -43.00 -12.18 0.0000
v -28.13 -6.46 0.0000
v -25.23 -6.75 0.0000
v -28.05 -6.43 0.0000
v -25.92 -6.32 0.0000
v -28.11 -6.45 0.0000
v -28.08 -6.44 0.0000
v -26.89 -6.09 0.0000
v -26.96 -6.10 0.0000
v -26.83 -6.10 0.0000
v -26.92 -6.10 0.0000
v -26.86 -6.10 0.0000
v -25.98 -6.29 0.0000
v -26.02 -6.28 0.0000
v -25.95 -6.30 0.0000
v -20.09 -6.54 0.0000
v -20.90 -6.45 0.0000
v -19.93 -6.61 0.0000
v -20.98 -6.45 0.0000
v -21.01 -6.46 0.0000
v -20.93 -6.45 0.0000
v -20.96 -6.45 0.0000
v -21.96 -6.71 0.0000
v -19.22 -7.23 0.0000
v -20.04 -6.55 0.0000
v -20.06 -6.55 0.0000
v -20.01 -6.56 0.0000
v -19.98 -6.58 0.0000
v -19.96 -6.59 0.0000
v -19.26 -7.18 0.0000
v -19.29 -7.16 0.0000
v -19.24 -7.21 0.0000
v -18.68 -8.16 0.0000
v -18.68 -8.15 0.0000
v -21.98 -6.71 0.0000
v -12.19 -6.48 0.0000
v -13.06 -6.88 0.0000
v -11.26 -6.62 0.0000
v -13.11 -6.91 0.0000
v -13.13 -6.93 0.0000
v -13.08 -6.90 0.0000
v -10.46 -7.28 0.0000
v -10.43 -7.31 0.0000
v -12.11 -6.46 0.0000
v -12.14 -6.46 0.0000
v -12.16 -6.47 0.0000
v -12.06 -6.45 0.0000
v -12.08 -6.45 0.0000
v -12.03 -6.45 0.0000
v -12.00 -6.46 0.0000
v -11.23 -6.63 0.0000
v -11.14 -6.67 0.0000
v -11.17 -6.65 0.0000
v -11.20 -6.64 0.0000
v -11.12 -6.69 0.0000
v -14.13 -7.80 0.0000
v -7.00 -8.88 0.0000
v -7.03 -8.88 0.0000
v -6.95 -8.88 0.0000
v -6.98 -8.88 0.0000
v -6.15 -9.03 0.0000
v -6.18 -9.02 0.0000
v -6.12 -9.04 0.0000
v -6.10 -9.05 0.0000
v -6.05 -9.08 0.0000
v -6.07 -9.06 0.0000
v -5.29 -9.69 0.0000
v -5.32 -9.67 0.0000
v -5.27 -9.71 0.0000
v -5.25 -9.74 0.0000
v -4.53 -10.88 0.0000
v -4.55 -10.85 0.0000
v -7.81 -8.94 0.0000
v 1.48 -12.74 0.0000
v 1.43 -12.78 0.0000
v 4.11 -12.03 0.0000
v 1.45 -12.76 0.0000
v 2.28 -12.18 0.0000
v 2.39 -12.13 0.0000
v 2.31 -12.16 0.0000
v 2.33 -12.15 0.0000
v 2.36 -12.14 0.0000
v 3.23 -11.96 0.0000
v 3.20 -11.97 0.0000
v 3.26 -11.96 0.0000
v 3.29 -11.96 0.0000
v 7.61 -9.33 0.0000
v 7.59 -9.35 0.0000
v 7.62 -9.31 0.0000
v 8.32 -8.62 0.0000
v 9.44 -8.43 0.0000
v 8.48 -8.54 0.0000
v 8.36 -8.58 0.0000
v 8.34 -8.60 0.0000
v 8.42 -8.55 0.0000
v 8.39 -8.56 0.0000
v 8.45 -8.54 0.0000
v 10.31 -8.89 0.0000
v 10.37 -8.94 0.0000
v 9.33 -8.39 0.0000
v 9.30 -8.39 0.0000
v 9.36 -8.40 0.0000
v 9.38 -8.40 0.0000
v 9.41 -8.41 0.0000
v 10.33 -8.91 0.0000
v 10.35 -8.92 0.0000
v 11.34 -9.85 0.0000
v 6.92 -10.34 0.0000
v 17.13 -8.16 0.0000
v 16.44 -8.64 0.0000
v 18.05 -7.99 0.0000
v 16.39 -8.68 0.0000
v 16.37 -8.71 0.0000
v 16.41 -8.66 0.0000
v 17.25 -8.12 0.0000
v 17.22 -8.12 0.0000
v 15.76 -9.54 0.0000
v 18.11 -7.98 0.0000
v 18.08 -7.98 0.0000
v 22.56 -4.13 0.0000
v 21.74 -4.79 0.0000
v 23.43 -4.19 0.0000
v 21.69 -4.85 0.0000
v 21.67 -4.88 0.0000
v 21.72 -4.81 0.0000
v 21.70 -4.83 0.0000
v 23.56 -4.23 0.0000
v 22.39 -4.18 0.0000
v 22.36 -4.19 0.0000
v 22.41 -4.16 0.0000
v 22.44 -4.15 0.0000
v 22.50 -4.13 0.0000
v 22.47 -4.14 0.0000
v 22.53 -4.13 0.0000
v 23.46 -4.19 0.0000
v 23.48 -4.19 0.0000
v 23.51 -4.20 0.0000
v 23.54 -4.21 0.0000
v 24.75 -4.95 0.0000
v 24.73 -4.94 0.0000
v 24.77 -4.97 0.0000
v 26.19 -6.16 0.0000
v 20.77 -6.86 0.0000
v 27.72 -7.49 0.0000
v 20.26 -7.59 0.0000
v 33.54 -9.57 0.0000
v 33.52 -9.57 0.0000
v 33.57 -9.57 0.0000
v 34.70 -9.73 0.0000
v 34.75 -9.74 0.0000
v 34.73 -9.74 0.0000
v 36.11 -10.21 0.0000
v 36.08 -10.20 0.0000
v 32.52 -9.61 0.0000
v 43.39 -9.82 0.0000
v 43.37 -9.84 0.0000
v 43.41 -9.80 0.0000
v 43.43 -9.79 0.0000
v 43.45 -9.77 0.0000
v 44.30 -9.23 0.0000
v 44.27 -9.25 0.0000
v 44.39 -9.20 0.0000
v 44.33 -9.22 0.0000
v 44.36 -9.21 0.0000
v 45.62 -9.16 0.0000
v 45.68 -9.17 0.0000
v 45.65 -9.16 0.0000
v 47.32 -9.64 0.0000
v 45.71 -9.18 0.0000
v 42.76 -10.66 0.0000
v 49.28 -10.44 0.0000
v 47.36 -9.65 0.0000
v 42.17 -11.43 0.0000
v 51.32 -11.29 0.0000
v 58.99 -11.86 0.0000
v 57.57 -12.02 0.0000
v 60.59 -11.89 0.0000
v 58.95 -11.86 0.0000
v 60.63 -11.90 0.0000
v 62.53 -12.17 0.0000
v 62.51 -12.17 0.0000
v 56.27 -12.22 0.0000
v 71.63 -9.61 0.0000
v 71.62 -9.64 0.0000
v 71.65 -9.59 0.0000
v 71.67 -9.57 0.0000
v 72.64 -8.66 0.0000
v 72.59 -8.69 0.0000
v 72.67 -8.64 0.0000
v 72.61 -8.67 0.0000
v 74.10 -8.16 0.0000
v 74.05 -8.17 0.0000
v 74.13 -8.15 0.0000
v 74.08 -8.16 0.0000
v 76.07 -8.06 0.0000
v 76.04 -8.06 0.0000
v 71.01 -10.73 0.0000
v 78.37 -8.21 0.0000
v 70.42 -11.78 0.0000
v 80.82 -8.41 0.0000
v 89.63 -7.91 0.0000
v 87.45 -8.15 0.0000
v 92.15 -7.83 0.0000
v 89.61 -7.91 0.0000
v 92.12 -7.83 0.0000
v 95.17 -8.00 0.0000
v 98.74 -8.42 0.0000
v 85.37 -8.39 0.0000
v 120.19 -8.99 0.0000
v 120.18 -8.99 0.0000
v 131.41 -8.20 0.0000
v 123.35 -8.55 0.0000
v 123.33 -8.55 0.0000
v 127.02 -8.26 0.0000
v 127.00 -8.26 0.0000
v 131.39 -8.20 0.0000
v 136.53 -8.35 0.0000
v 117.22 -9.45 0.0000
v 167.41 -8.98 0.0000
v 700.00 -600.00 0.0000
v 182.78 -9.09 0.0000
v 174.62 -8.97 0.0000
v 174.61 -8.97 0.0000
v 182.77 -9.09 0.0000
v 192.14 -9.36 0.0000
v 215.09 7.11 0.0000
v 214.41 13.09 0.0000
v 214.58 10.12 0.0000
v 214.57 10.16 0.0000
v 215.10 7.09 0.0000
v 214.54 15.99 0.0000
v 215.82 4.00 0.0000
v 211.11 39.00 0.0000
v 211.50 33.28 0.0000
v 211.80 41.74 0.0000
v 211.10 38.93 0.0000
v 210.98 36.13 0.0000
v 210.99 36.10 0.0000
v 210.98 36.16 0.0000
v 211.10 38.96 0.0000
v 211.81 41.77 0.0000
v 212.45 30.36 0.0000
v 212.84 44.52 0.0000
v 211.43 63.81 0.0000
v 212.05 61.06 0.0000
v 211.16 66.61 0.0000
v 211.42 63.85 0.0000
v 211.16 66.64 0.0000
v 205.69 88.11 0.0000
v 206.29 85.43 0.0000
v 205.68 88.19 0.0000
v 206.30 85.40 0.0000
v 206.31 85.38 0.0000
v 205.79 91.01 0.0000
v 205.80 91.07 0.0000
v 205.68 88.16 0.0000
v 205.68 88.14 0.0000
v 207.46 82.78 0.0000
v 206.57 94.05 0.0000
v 205.80 91.04 0.0000
v 207.47 82.76 0.0000
v 206.58 94.08 0.0000
v 207.75 97.18 0.0000
v 208.82 80.18 0.0000
v 192.01 109.32 0.0000
v 176.68 109.68 0.0000
v 183.85 109.44 0.0000
v 183.84 109.44 0.0000
v 170.25 109.99 0.0000
v 118.36 110.04 0.0000
v 128.96 109.14 0.0000
v 128.94 109.14 0.0000
v 121.33 109.55 0.0000
v 124.78 109.22 0.0000
v 124.75 109.22 0.0000
v 121.31 109.55 0.0000
v 115.56 110.52 0.0000
v 139.67 109.70 0.0000
v 112.65 110.88 0.0000
v 100.24 111.13 0.0000
v 103.10 111.05 0.0000
v 95.70 111.90 0.0000
v 100.22 111.14 0.0000
v 97.75 111.43 0.0000
v 97.78 111.42 0.0000
v 95.68 111.90 0.0000
v 76.56 110.01 0.0000
v 67.54 108.94 0.0000
v 73.67 109.31 0.0000
v 73.64 109.30 0.0000
v 71.23 108.93 0.0000
v 71.26 108.93 0.0000
v 69.28 108.86 0.0000
v 69.26 108.86 0.0000
v 53.95 108.40 0.0000
v 57.84 107.52 0.0000
v 53.26 109.15 0.0000
v 56.24 107.41 0.0000
v 56.21 107.40 0.0000
v 56.18 107.41 0.0000
v 56.15 107.41 0.0000
v 54.93 107.70 0.0000
v 54.95 107.69 0.0000
v 54.90 107.71 0.0000
v 54.87 107.72 0.0000
v 54.00 108.36 0.0000
v 53.97 108.38 0.0000
v 40.33 106.92 0.0000
v 42.74 106.82 0.0000
v 39.45 107.23 0.0000
v 40.37 106.91 0.0000
v 42.71 106.81 0.0000
v 42.67 106.81 0.0000
v 41.44 106.70 0.0000
v 41.38 106.70 0.0000
v 41.41 106.70 0.0000
v 41.35 106.70 0.0000
v 46.19 108.16 0.0000
v 38.55 107.43 0.0000
v 35.01 106.74 0.0000
v 35.03 106.74 0.0000
v 34.98 106.73 0.0000
v 32.78 107.09 0.0000
v 33.74 106.63 0.0000
v 32.29 107.99 0.0000
v 33.83 106.60 0.0000
v 33.86 106.60 0.0000
v 33.89 106.60 0.0000
v 33.77 106.62 0.0000
v 33.80 106.61 0.0000
v 32.88 106.99 0.0000
v 32.91 106.97 0.0000
v 32.93 106.96 0.0000
v 32.84 107.02 0.0000
v 32.86 107.01 0.0000
v 32.82 107.05 0.0000
v 32.80 107.07 0.0000
v 32.27 108.05 0.0000
v 32.26 108.08 0.0000
v 32.28 108.02 0.0000
v 36.28 107.09 0.0000
v 32.00 109.43 0.0000
v 31.81 110.97 0.0000
v 32.00 109.45 0.0000
v 25.82 112.19 0.0000
v 25.92 112.18 0.0000
v 24.94 112.37 0.0000
v 26.96 112.31 0.0000
v 26.99 112.32 0.0000
v 26.93 112.31 0.0000
v 25.88 112.18 0.0000
v 25.85 112.18 0.0000
v 28.14 112.71 0.0000
v 24.08 112.72 0.0000
v 24.88 112.38 0.0000
v 24.91 112.37 0.0000
v 16.91 109.38 0.0000
v 17.83 109.63 0.0000
v 15.95 109.78 0.0000
v 17.90 109.66 0.0000
v 17.92 109.67 0.0000
v 17.85 109.64 0.0000
v 17.88 109.65 0.0000
v 19.02 110.44 0.0000
v 15.23 110.74 0.0000
v 16.81 109.37 0.0000
v 16.84 109.37 0.0000
v 16.75 109.38 0.0000
v 16.78 109.37 0.0000
v 16.72 109.39 0.0000
v 16.69 109.40 0.0000
v 15.90 109.81 0.0000
v 15.93 109.79 0.0000
v 15.88 109.83 0.0000
v 15.86 109.85 0.0000
v 15.85 109.87 0.0000
v 15.21 110.77 0.0000
v 19.04 110.46 0.0000
v 14.63 111.81 0.0000
v 8.92 110.50 0.0000
v 9.78 110.82 0.0000
v 8.01 110.46 0.0000
v 9.81 110.84 0.0000
v 9.85 110.86 0.0000
v 8.86 110.49 0.0000
v 8.89 110.49 0.0000
v 8.82 110.48 0.0000
v 10.79 111.50 0.0000
v 7.21 110.52 0.0000
v 10.78 111.48 0.0000
v 11.75 112.25 0.0000
v 2.40 104.61 0.0000
v 3.18 105.81 0.0000
v -0.24 104.94 0.0000
v 2.38 104.58 0.0000
v 2.36 104.56 0.0000
v 2.33 104.54 0.0000
v 1.58 103.96 0.0000
v 1.60 103.98 0.0000
v 1.50 103.93 0.0000
v 1.53 103.93 0.0000
v 1.55 103.95 0.0000
v 1.47 103.92 0.0000
v 1.44 103.92 0.0000
v 1.41 103.92 0.0000
v 1.38 103.92 0.0000
v 1.35 103.92 0.0000
v 0.62 104.09 0.0000
v 0.64 104.08 0.0000
v 0.59 104.10 0.0000
v 0.56 104.12 0.0000
v 0.54 104.13 0.0000
v 0.52 104.15 0.0000
v -0.22 104.91 0.0000
v 0.50 104.17 0.0000
v -0.97 105.93 0.0000
v -3.76 107.37 0.0000
v -3.75 107.37 0.0000
v -6.34 108.29 0.0000
v -4.55 107.33 0.0000
v -4.52 107.33 0.0000
v -4.57 107.33 0.0000
v -4.60 107.34 0.0000
v -4.63 107.34 0.0000
v -5.41 107.59 0.0000
v -5.46 107.61 0.0000
v -5.43 107.60 0.0000
v -5.50 107.64 0.0000
v -5.48 107.63 0.0000
v -6.35 108.31 0.0000
v -6.37 108.33 0.0000
v -7.26 109.28 0.0000
v -3.04 107.44 0.0000
v -11.48 108.75 0.0000
v -11.47 108.77 0.0000
v -11.50 108.73 0.0000
v -12.15 108.00 0.0000
v -13.25 107.74 0.0000
v -12.30 107.91 0.0000
v -12.24 107.93 0.0000
v -12.19 107.96 0.0000
v -12.27 107.92 0.0000
v -12.22 107.94 0.0000
v -14.15 108.16 0.0000
v -13.14 107.71 0.0000
v -13.11 107.71 0.0000
v -13.17 107.72 0.0000
v -13.20 107.72 0.0000
v -13.23 107.73 0.0000
v -13.06 107.72 0.0000
v -14.18 108.17 0.0000
v -14.20 108.18 0.0000
v -14.22 108.20 0.0000
v -15.26 109.07 0.0000
v -15.25 109.06 0.0000
v -10.86 109.77 0.0000
v -22.13 111.91 0.0000
v -20.07 111.39 0.0000
v -22.19 111.94 0.0000
v -21.02 111.48 0.0000
v -21.00 111.47 0.0000
v -21.08 111.49 0.0000
v -21.05 111.48 0.0000
v -22.16 111.92 0.0000
v -23.40 112.74 0.0000
v -19.18 111.42 0.0000
v -24.76 113.78 0.0000
v -23.42 112.75 0.0000
v -30.54 110.19 0.0000
v -29.92 110.93 0.0000
v -31.52 109.81 0.0000
v -29.88 110.99 0.0000
v -29.86 111.02 0.0000
v -29.89 110.96 0.0000
v -31.62 109.80 0.0000
v -30.61 110.13 0.0000
v -30.59 110.15 0.0000
v -30.56 110.17 0.0000
v -30.67 110.10 0.0000
v -30.64 110.12 0.0000
v -31.55 109.80 0.0000
v -31.58 109.80 0.0000
v -29.42 112.19 0.0000
v -32.64 109.79 0.0000
v -29.42 112.17 0.0000
v -36.52 107.95 0.0000
v -36.50 107.97 0.0000
v -36.58 107.91 0.0000
v -36.55 107.93 0.0000
v -37.42 107.50 0.0000
v -37.39 107.51 0.0000
v -37.54 107.48 0.0000
v -37.48 107.49 0.0000
v -37.45 107.49 0.0000
v -37.51 107.48 0.0000
v -38.68 107.54 0.0000
v -38.66 107.53 0.0000
v -38.74 107.55 0.0000
v -38.71 107.54 0.0000
v -40.23 108.08 0.0000
v -40.20 108.06 0.0000
v -35.22 109.28 0.0000
v -48.36 108.24 0.0000
v -48.35 108.26 0.0000
v -48.40 108.20 0.0000
v -48.38 108.22 0.0000
v -49.17 107.52 0.0000
v -49.14 107.54 0.0000
v -49.22 107.49 0.0000
v -49.20 107.51 0.0000
v -50.36 107.16 0.0000
v -50.31 107.17 0.0000
v -50.40 107.16 0.0000
v -50.33 107.16 0.0000
v -51.79 107.18 0.0000
v -51.76 107.18 0.0000
v -47.77 109.10 0.0000
v -53.35 107.38 0.0000
v -61.42 106.48 0.0000
v -58.57 106.84 0.0000
v -61.49 106.49 0.0000
v -59.81 106.51 0.0000
v -59.78 106.51 0.0000
v -59.83 106.51 0.0000
v -59.85 106.50 0.0000
v -61.46 106.48 0.0000
v -63.62 106.91 0.0000
v -63.58 106.91 0.0000
v -57.45 107.24 0.0000
v -66.27 107.75 0.0000
v -69.33 108.84 0.0000
v -66.28 107.75 0.0000
v -56.28 107.51 0.0000
v -84.35 110.99 0.0000
v -84.33 110.99 0.0000
v -82.32 111.20 0.0000
v -86.62 110.91 0.0000
v -86.60 110.91 0.0000
v -89.23 111.01 0.0000
v -89.22 111.01 0.0000
v -105.12 110.44 0.0000
v -105.11 110.44 0.0000
v -113.96 109.66 0.0000
v -107.51 109.93 0.0000
v -107.48 109.93 0.0000
v -110.39 109.64 0.0000
v -110.36 109.64 0.0000
v -113.98 109.66 0.0000
v -102.94 110.99 0.0000
v -118.28 109.95 0.0000
v -118.27 109.95 0.0000
v -147.47 110.79 0.0000
v -164.47 110.38 0.0000
v -152.50 110.55 0.0000
v -158.13 110.40 0.0000
v -208.36 106.00 0.0000
v -208.37 106.03 0.0000
v -207.60 94.12 0.0000
v -207.25 102.78 0.0000
v -207.26 102.81 0.0000
v -207.24 102.75 0.0000
v -206.78 99.70 0.0000
v -206.79 99.76 0.0000
v -206.97 96.88 0.0000
v -206.78 99.73 0.0000
v -206.98 96.86 0.0000
v -206.98 96.83 0.0000
v -208.32 91.43 0.0000
v -207.60 94.11 0.0000
v -209.73 109.01 0.0000
v -208.67 77.47 0.0000
v -208.67 77.51 0.0000
v -209.92 72.01 0.0000
v -208.67 77.49 0.0000
v -209.08 74.74 0.0000
v -209.09 74.69 0.0000
v -209.09 74.72 0.0000
v -208.66 80.32 0.0000
v -209.93 71.98 0.0000
v -208.66 80.30 0.0000
v -209.04 47.20 0.0000
v -209.61 52.81 0.0000
v -209.60 44.44 0.0000
v -209.03 47.26 0.0000
v -209.02 50.03 0.0000
v -209.03 50.06 0.0000
v -209.02 50.00 0.0000
v -209.03 47.23 0.0000
v -209.61 44.41 0.0000
v -210.60 55.62 0.0000
v -210.49 41.63 0.0000
v -212.26 30.46 0.0000
v -213.44 21.75 0.0000
v -212.30 27.65 0.0000
v -212.30 27.62 0.0000
v -212.64 24.72 0.0000
v -212.63 24.76 0.0000
v -213.43 21.79 0.0000
v -212.26 30.47 0.0000
v -214.64 18.72 0.0000
v -700.00 600.00 0.0000
v -212.42 63.92 0.0000
v -213.08 -7.13 0.0000
v -216.85 3.95 0.0000
v -82.79 -6.58 0.0000
v -67.45 -10.42 0.0000
v -48.29 -11.38 0.0000
v -54.68 -10.34 0.0000
v -45.78 -12.70 0.0000
v -29.52 -7.36 0.0000
v -26.98 -6.11 0.0000
v -31.22 -8.75 0.0000
v -24.56 -7.11 0.0000
v -29.55 -7.38 0.0000
v -14.14 -7.81 0.0000
v -9.80 -8.06 0.0000
v 0.61 -13.69 0.0000
v 9.24 -8.39 0.0000
v 9.27 -8.39 0.0000
v 17.16 -8.15 0.0000
v 17.19 -8.13 0.0000
v 15.17 -10.55 0.0000
v 18.94 -8.01 0.0000
v 15.74 -9.56 0.0000
v 22.34 -4.21 0.0000
v 21.21 -5.86 0.0000
v 21.22 -5.85 0.0000
v 44.42 -9.20 0.0000
v 57.56 -12.02 0.0000
v 72.56 -8.71 0.0000
v 95.16 -8.00 0.0000
v 106.76 -9.48 0.0000
v 102.70 -8.97 0.0000
v 69.59 -12.53 0.0000
v 142.23 -8.61 0.0000
v 214.41 13.12 0.0000
v 211.51 33.24 0.0000
v 212.05 61.04 0.0000
v 211.14 69.43 0.0000
v 133.95 109.33 0.0000
v 145.81 110.09 0.0000
v 93.80 112.43 0.0000
v 76.57 110.01 0.0000
v 59.84 107.94 0.0000
v 57.88 107.53 0.0000
v 54.85 107.74 0.0000
v 44.31 107.34 0.0000
v 28.15 112.71 0.0000
v 16.88 109.37 0.0000
v 6.49 110.40 0.0000
v -12.17 107.98 0.0000
v -13.08 107.72 0.0000
v -32.63 109.79 0.0000
v -29.04 113.52 0.0000
v -33.65 109.83 0.0000
v -35.85 108.64 0.0000
v -41.94 108.89 0.0000
v -49.26 107.48 0.0000
v -58.54 106.85 0.0000
v -92.14 111.25 0.0000
v -123.13 110.41 0.0000
v -210.98 69.31 0.0000
v -208.86 83.15 0.0000
v -209.62 52.85 0.0000
v -214.63 18.73 0.0000
v -212.24 33.26 0.0000
v -215.99 15.63 0.0000
v -217.12 12.56 0.0000
v -213.08 -7.16 0.0000
v -135.57 -10.07 0.0000
v -117.14 -9.37 0.0000
v -85.76 -6.98 0.0000
v -47.67 -12.15 0.0000
v -18.16 -9.15 0.0000
v -22.95 -7.05 0.0000
v 12.34 -10.84 0.0000
v 37.59 -10.88 0.0000
v 87.44 -8.15 0.0000
v 114.11 -9.74 0.0000
v 148.28 -8.85 0.0000
v 212.46 30.35 0.0000
v 212.94 58.29 0.0000
v 211.10 72.20 0.0000
v 213.81 55.53 0.0000
v 700.00 600.00 0.0000
v 106.29 111.06 0.0000
v 103.11 111.05 0.0000
v 65.84 108.98 0.0000
v 52.49 109.72 0.0000
v 44.33 107.35 0.0000
v -16.35 110.06 0.0000
v -20.03 111.39 0.0000
v -26.08 114.74 0.0000
v -18.33 111.30 0.0000
v -43.68 109.70 0.0000
v -34.52 109.68 0.0000
v -95.16 111.49 0.0000
v -80.33 111.34 0.0000
v -128.24 110.86 0.0000
v -100.65 111.40 0.0000
v -142.78 111.05 0.0000
v -210.60 55.63 0.0000
v -212.30 61.18 0.0000
v -168.62 -9.41 0.0000
v -74.47 -10.12 0.0000
v -95.59 -8.27 0.0000
v -73.03 -10.47 0.0000
v -85.77 -6.98 0.0000
v -71.23 -10.54 0.0000
v -54.69 -10.35 0.0000
v -15.21 -8.86 0.0000
v -3.83 -12.37 0.0000
v -8.52 -8.92 0.0000
v 4.87 -12.07 0.0000
v 31.55 -9.60 0.0000
v 64.59 -12.58 0.0000
v 202.78 -9.76 0.0000
v 214.74 18.83 0.0000
v 213.50 27.44 0.0000
v 213.81 47.28 0.0000
v 208.94 100.33 0.0000
v 164.20 110.28 0.0000
v 133.96 109.33 0.0000
v 109.54 111.05 0.0000
v 79.87 110.93 0.0000
v 31.51 112.27 0.0000
v 29.32 113.13 0.0000
v 20.24 111.47 0.0000
v 7.97 110.46 0.0000
v 4.03 107.36 0.0000
v 3.20 105.83 0.0000
v -54.90 107.54 0.0000
v -47.17 109.84 0.0000
v -72.49 109.93 0.0000
v -46.38 110.23 0.0000
v -171.46 110.42 0.0000
v -208.99 85.96 0.0000
v -211.62 58.41 0.0000
v -211.37 38.83 0.0000
v -176.83 -9.72 0.0000
v -92.40 -7.98 0.0000
v -89.06 -7.51 0.0000
v -62.12 -11.88 0.0000
v -56.85 -11.11 0.0000
v -23.83 -7.22 0.0000
v -9.16 -8.64 0.0000
v -0.21 -14.67 0.0000
v 6.24 -11.26 0.0000
v 19.67 -7.94 0.0000
v 39.11 -11.53 0.0000
v 66.62 -12.90 0.0000
v 160.80 -9.02 0.0000
v 216.43 0.92 0.0000
v 214.32 24.54 0.0000
v 210.77 74.92 0.0000
v 210.32 106.46 0.0000
v 210.00 77.58 0.0000
v 201.24 109.31 0.0000
v 91.81 112.83 0.0000
v 51.45 109.95 0.0000
v 61.95 108.43 0.0000
v 37.49 107.37 0.0000
v 23.31 112.95 0.0000
v 14.02 112.61 0.0000
v -1.70 106.80 0.0000
v -8.16 110.25 0.0000
v -10.25 110.62 0.0000
v -98.05 111.57 0.0000
v -28.02 115.22 0.0000
v -178.89 110.43 0.0000
v -208.83 88.72 0.0000
v -211.92 66.62 0.0000
v -203.86 -10.09 0.0000
v -46.87 -12.60 0.0000
v -37.56 -12.79 0.0000
v -17.62 -9.82 0.0000
v -16.22 -9.69 0.0000
v -3.09 -13.88 0.0000
v -0.99 -15.34 0.0000
v 13.26 -11.52 0.0000
v 14.58 -11.34 0.0000
v 40.44 -11.91 0.0000
v 13.98 -11.67 0.0000
v 41.45 -11.87 0.0000
v 54.87 -12.24 0.0000
v 154.48 -9.00 0.0000
v 213.65 -10.00 0.0000
v 214.73 21.67 0.0000
v 214.38 50.03 0.0000
v 209.85 103.43 0.0000
v 152.06 110.36 0.0000
v 63.99 108.82 0.0000
v 31.01 113.04 0.0000
v 30.31 113.30 0.0000
v 21.41 112.36 0.0000
v 12.66 112.80 0.0000
v 4.89 108.82 0.0000
v 5.73 109.88 0.0000
v -17.39 110.86 0.0000
v -27.22 115.27 0.0000
v -9.65 111.00 0.0000
v -28.60 114.63 0.0000
v -133.29 111.14 0.0000
v -211.98 36.04 0.0000
v -194.45 -10.08 0.0000
v -131.35 -10.26 0.0000
v -58.92 -11.72 0.0000
v -33.04 -10.28 0.0000
v -34.81 -11.62 0.0000
v -17.03 -10.01 0.0000
v 5.56 -11.85 0.0000
v 29.20 -8.62 0.0000
v 53.22 -11.94 0.0000
v 83.19 -8.49 0.0000
v 110.63 -9.76 0.0000
v 68.34 -12.92 0.0000
v 46.19 108.17 0.0000
v 22.45 112.87 0.0000
v -2.39 107.30 0.0000
v -8.99 110.89 0.0000
v -45.23 110.20 0.0000
v -186.55 110.31 0.0000
v -185.47 -9.96 0.0000
v -122.00 -9.85 0.0000
v -60.70 -11.99 0.0000
v 83.31 111.87 0.0000
v 48.16 109.05 0.0000
v 13.40 112.93 0.0000
v -75.49 110.78 0.0000
v -138.12 111.20 0.0000
v -126.82 -10.18 0.0000
v -2.35 -15.01 0.0000
v 30.48 -9.33 0.0000
v 214.37 52.78 0.0000
v 158.20 110.43 0.0000
v 86.59 112.58 0.0000
v 49.98 109.72 0.0000
v -78.10 111.25 0.0000
v -36.35 -12.48 0.0000
v -1.66 -15.47 0.0000
v 210.42 109.14 0.0000
v -202.32 109.64 0.0000
v 89.45 112.91 0.0000
v -194.32 110.04 0.0000
v 215.09 -7.57 0.0000
v 216.17 -4.89 0.0000
v 216.61 -2.06 0.0000
vt -27.201 0.838
vt -27.215 1.196
vt -87.500 -75.000
vt -26.696 -0.527
vt -26.811 -0.184
vt -26.695 -0.532
vt -26.696 -0.530
vt -26.961 0.156
vt -26.622 -1.232
vt -26.812 -0.180
vt -20.134 -1.140
vt -17.454 -1.212
vt -19.301 -1.121
vt -19.300 -1.121
vt -18.590 -1.130
vt -17.986 -1.164
vt -18.589 -1.130
vt -17.985 -1.164
vt -14.064 -1.110
vt -12.695 -1.042
vt -13.545 -1.065
vt -13.544 -1.065
vt -13.091 -1.044
vt -13.092 -1.044
vt -12.324 -1.044
vt -9.547 -1.071
vt -10.345 -0.821
vt -9.443 -1.184
vt -10.046 -0.811
vt -10.041 -0.811
vt -10.037 -0.812
vt -9.821 -0.854
vt -9.662 -0.949
vt -9.815 -0.855
vt -9.818 -0.855
vt -9.809 -0.859
vt -9.811 -0.858
vt -9.660 -0.950
vt -9.658 -0.953
vt -9.655 -0.955
vt -8.056 -1.375
vt -8.426 -1.304
vt -7.912 -1.436
vt -8.060 -1.373
vt -8.226 -1.324
vt -8.230 -1.324
vt -8.223 -1.325
vt -8.661 -1.308
vt -6.371 -1.181
vt -6.385 -1.181
vt -6.116 -1.306
vt -6.586 -1.214
vt -6.589 -1.214
vt -6.582 -1.212
vt -6.378 -1.181
vt -6.374 -1.181
vt -6.381 -1.181
vt -6.225 -1.214
vt -6.229 -1.212
vt -6.221 -1.215
vt -6.219 -1.216
vt -6.213 -1.221
vt -6.215 -1.219
vt -6.114 -1.308
vt -6.110 -1.312
vt -6.112 -1.310
vt -5.058 -1.504
vt -5.199 -1.496
vt -4.928 -1.542
vt -5.204 -1.496
vt -5.207 -1.498
vt -5.049 -1.505
vt -5.051 -1.505
vt -5.055 -1.504
vt -4.926 -1.542
vt -5.372 -1.522
vt -4.815 -1.585
vt -5.554 -1.562
vt -5.375 -1.522
vt -3.516 -0.807
vt -3.154 -0.844
vt -3.506 -0.804
vt -3.240 -0.790
vt -3.514 -0.806
vt -3.510 -0.805
vt -3.361 -0.761
vt -3.370 -0.762
vt -3.354 -0.762
vt -3.365 -0.762
vt -3.357 -0.762
vt -3.248 -0.786
vt -3.252 -0.785
vt -3.244 -0.787
vt -2.511 -0.818
vt -2.612 -0.806
vt -2.491 -0.826
vt -2.623 -0.806
vt -2.626 -0.807
vt -2.616 -0.806
vt -2.620 -0.806
vt -2.745 -0.839
vt -2.402 -0.904
vt -2.505 -0.819
vt -2.507 -0.819
vt -2.501 -0.820
vt -2.498 -0.823
vt -2.495 -0.824
vt -2.408 -0.897
vt -2.411 -0.895
vt -2.405 -0.901
vt -2.335 -1.020
vt -2.335 -1.019
vt -2.748 -0.839
vt -1.524 -0.810
vt -1.633 -0.860
vt -1.407 -0.828
vt -1.639 -0.864
vt -1.641 -0.866
vt -1.635 -0.863
vt -1.308 -0.910
vt -1.304 -0.914
vt -1.514 -0.807
vt -1.518 -0.807
vt -1.520 -0.809
vt -1.508 -0.806
vt -1.510 -0.806
vt -1.504 -0.806
vt -1.500 -0.807
vt -1.404 -0.829
vt -1.393 -0.834
vt -1.396 -0.831
vt -1.400 -0.830
vt -1.390 -0.836
vt -1.766 -0.975
vt -0.875 -1.110
vt -0.879 -1.110
vt -0.869 -1.110
vt -0.873 -1.110
vt -0.769 -1.129
vt -0.772 -1.127
vt -0.765 -1.130
vt -0.762 -1.131
vt -0.756 -1.135
vt -0.759 -1.133
vt -0.661 -1.211
vt -0.665 -1.209
vt -0.659 -1.214
vt -0.656 -1.218
vt -0.566 -1.360
vt -0.569 -1.356
vt -0.976 -1.117
vt 0.185 -1.593
vt 0.179 -1.597
vt 0.514 -1.504
vt 0.181 -1.595
vt 0.285 -1.522
vt 0.299 -1.516
vt 0.289 -1.520
vt 0.291 -1.519
vt 0.295 -1.518
vt 0.404 -1.495
vt 0.400 -1.496
vt 0.407 -1.495
vt 0.411 -1.495
vt 0.951 -1.166
vt 0.949 -1.169
vt 0.953 -1.164
vt 1.040 -1.077
vt 1.180 -1.054
vt 1.060 -1.067
vt 1.045 -1.073
vt 1.042 -1.075
vt 1.052 -1.069
vt 1.049 -1.070
vt 1.056 -1.067
vt 1.289 -1.111
vt 1.296 -1.117
vt 1.166 -1.049
vt 1.163 -1.049
vt 1.170 -1.050
vt 1.173 -1.050
vt 1.176 -1.051
vt 1.291 -1.114
vt 1.294 -1.115
vt 1.417 -1.231
vt 0.865 -1.292
vt 2.141 -1.020
vt 2.055 -1.080
vt 2.256 -0.999
vt 2.049 -1.085
vt 2.046 -1.089
vt 2.051 -1.083
vt 2.156 -1.015
vt 2.152 -1.015
vt 1.970 -1.192
vt 2.264 -0.998
vt 2.260 -0.998
vt 2.820 -0.516
vt 2.717 -0.599
vt 2.929 -0.524
vt 2.711 -0.606
vt 2.709 -0.610
vt 2.715 -0.601
vt 2.712 -0.604
vt 2.945 -0.529
vt 2.799 -0.522
vt 2.795 -0.524
vt 2.801 -0.520
vt 2.805 -0.519
vt 2.812 -0.516
vt 2.809 -0.517
vt 2.816 -0.516
vt 2.933 -0.524
vt 2.935 -0.524
vt 2.939 -0.525
vt 2.942 -0.526
vt 3.094 -0.619
vt 3.091 -0.618
vt 3.096 -0.621
vt 3.274 -0.770
vt 2.596 -0.858
vt 3.465 -0.936
vt 2.533 -0.949
vt 4.192 -1.196
vt 4.190 -1.196
vt 4.196 -1.196
vt 4.338 -1.216
vt 4.344 -1.218
vt 4.341 -1.218
vt 4.514 -1.276
vt 4.510 -1.275
vt 4.065 -1.201
vt 5.424 -1.228
vt 5.421 -1.230
vt 5.426 -1.225
vt 5.429 -1.224
vt 5.431 -1.221
vt 5.537 -1.154
vt 5.534 -1.156
vt 5.549 -1.150
vt 5.541 -1.153
vt 5.545 -1.151
vt 5.702 -1.145
vt 5.710 -1.146
vt 5.706 -1.145
vt 5.915 -1.205
vt 5.714 -1.147
vt 5.345 -1.333
vt 6.160 -1.305
vt 5.920 -1.206
vt 5.271 -1.429
vt 6.415 -1.411
vt 7.374 -1.482
vt 7.196 -1.502
vt 7.574 -1.486
vt 7.369 -1.482
vt 7.579 -1.488
vt 7.816 -1.521
vt 7.814 -1.521
vt 7.034 -1.528
vt 8.954 -1.201
vt 8.953 -1.205
vt 8.956 -1.199
vt 8.959 -1.196
vt 9.080 -1.083
vt 9.074 -1.086
vt 9.084 -1.080
vt 9.076 -1.084
vt 9.262 -1.020
vt 9.256 -1.021
vt 9.266 -1.019
vt 9.260 -1.020
vt 9.509 -1.008
vt 9.505 -1.008
vt 8.876 -1.341
vt 9.796 -1.026
vt 8.803 -1.472
vt 10.102 -1.051
vt 11.204 -0.989
vt 10.931 -1.019
vt 11.519 -0.979
vt 11.201 -0.989
vt 11.515 -0.979
vt 11.896 -1.000
vt 12.342 -1.052
vt 10.671 -1.049
vt 15.024 -1.124
vt 15.023 -1.124
vt 16.426 -1.025
vt 15.419 -1.069
vt 15.416 -1.069
vt 15.877 -1.032
vt 15.875 -1.032
vt 16.424 -1.025
vt 17.066 -1.044
vt 14.652 -1.181
vt 20.926 -1.123
vt 87.500 -75.000
vt 22.848 -1.136
vt 21.828 -1.121
vt 21.826 -1.121
vt 22.846 -1.136
vt 24.017 -1.170
vt 26.886 0.889
vt 26.801 1.636
vt 26.823 1.265
vt 26.821 1.270
vt 26.887 0.886
vt 26.817 1.999
vt 26.977 0.500
vt 26.389 4.875
vt 26.438 4.160
vt 26.475 5.218
vt 26.387 4.866
vt 26.372 4.516
vt 26.374 4.513
vt 26.372 4.520
vt 26.387 4.870
vt 26.476 5.221
vt 26.556 3.795
vt 26.605 5.565
vt 26.429 7.976
vt 26.506 7.633
vt 26.395 8.326
vt 26.427 7.981
vt 26.395 8.330
vt 25.711 11.014
vt 25.786 10.679
vt 25.710 11.024
vt 25.788 10.675
vt 25.789 10.672
vt 25.724 11.376
vt 25.725 11.384
vt 25.710 11.020
vt 25.710 11.018
vt 25.933 10.348
vt 25.821 11.756
vt 25.725 11.380
vt 25.934 10.345
vt 25.823 11.760
vt 25.969 12.148
vt 26.102 10.023
vt 24.001 13.665
vt 22.085 13.710
vt 22.981 13.680
vt 22.980 13.680
vt 21.281 13.749
vt 14.795 13.755
vt 16.120 13.643
vt 16.117 13.643
vt 15.166 13.694
vt 15.598 13.652
vt 15.594 13.652
vt 15.164 13.694
vt 14.445 13.815
vt 17.459 13.713
vt 14.081 13.860
vt 12.530 13.891
vt 12.887 13.881
vt 11.963 13.988
vt 12.527 13.893
vt 12.219 13.929
vt 12.223 13.928
vt 11.960 13.988
vt 9.570 13.751
vt 8.443 13.617
vt 9.209 13.664
vt 9.205 13.662
vt 8.904 13.616
vt 8.908 13.616
vt 8.660 13.607
vt 8.658 13.607
vt 6.744 13.550
vt 7.230 13.440
vt 6.657 13.644
vt 7.030 13.426
vt 7.026 13.425
vt 7.022 13.426
vt 7.019 13.426
vt 6.866 13.463
vt 6.869 13.461
vt 6.862 13.464
vt 6.859 13.465
vt 6.750 13.545
vt 6.746 13.547
vt 5.041 13.365
vt 5.343 13.352
vt 4.931 13.404
vt 5.046 13.364
vt 5.339 13.351
vt 5.334 13.351
vt 5.180 13.338
vt 5.173 13.338
vt 5.176 13.338
vt 5.169 13.338
vt 5.774 13.520
vt 4.819 13.429
vt 4.376 13.342
vt 4.379 13.342
vt 4.372 13.341
vt 4.098 13.386
vt 4.218 13.329
vt 4.036 13.499
vt 4.229 13.325
vt 4.232 13.325
vt 4.236 13.325
vt 4.221 13.328
vt 4.225 13.326
vt 4.110 13.374
vt 4.114 13.371
vt 4.116 13.370
vt 4.105 13.377
vt 4.107 13.376
vt 4.103 13.381
vt 4.100 13.384
vt 4.034 13.506
vt 4.032 13.510
vt 4.035 13.502
vt 4.535 13.386
vt 4.000 13.679
vt 3.976 13.871
vt 4.000 13.681
vt 3.228 14.024
vt 3.240 14.023
vt 3.118 14.046
vt 3.370 14.039
vt 3.374 14.040
vt 3.366 14.039
vt 3.235 14.023
vt 3.231 14.023
vt 3.518 14.089
vt 3.010 14.090
vt 3.110 14.047
vt 3.114 14.046
vt 2.114 13.672
vt 2.229 13.704
vt 1.994 13.723
vt 2.237 13.707
vt 2.240 13.709
vt 2.231 13.705
vt 2.235 13.706
vt 2.377 13.805
vt 1.904 13.842
vt 2.101 13.671
vt 2.105 13.671
vt 2.094 13.672
vt 2.098 13.671
vt 2.090 13.674
vt 2.086 13.675
vt 1.988 13.726
vt 1.991 13.724
vt 1.985 13.729
vt 1.982 13.731
vt 1.981 13.734
vt 1.901 13.846
vt 2.380 13.807
vt 1.829 13.976
vt 1.115 13.812
vt 1.222 13.852
vt 1.001 13.807
vt 1.226 13.855
vt 1.231 13.857
vt 1.107 13.811
vt 1.111 13.811
vt 1.103 13.810
vt 1.349 13.938
vt 0.901 13.815
vt 1.347 13.935
vt 1.469 14.031
vt 0.300 13.076
vt 0.398 13.226
vt -0.030 13.117
vt 0.297 13.072
vt 0.295 13.070
vt 0.291 13.068
vt 0.198 12.995
vt 0.200 12.998
vt 0.188 12.991
vt 0.191 12.991
vt 0.194 12.994
vt 0.184 12.990
vt 0.180 12.990
vt 0.176 12.990
vt 0.172 12.990
vt 0.169 12.990
vt 0.077 13.011
vt 0.080 13.010
vt 0.074 13.012
vt 0.070 13.015
vt 0.068 13.016
vt 0.065 13.019
vt -0.028 13.114
vt 0.062 13.021
vt -0.121 13.241
vt -0.470 13.421
vt -0.469 13.421
vt -0.792 13.536
vt -0.569 13.416
vt -0.565 13.416
vt -0.571 13.416
vt -0.575 13.418
vt -0.579 13.418
vt -0.676 13.449
vt -0.682 13.451
vt -0.679 13.450
vt -0.688 13.455
vt -0.685 13.454
vt -0.794 13.539
vt -0.796 13.541
vt -0.907 13.660
vt -0.380 13.430
vt -1.435 13.594
vt -1.434 13.596
vt -1.438 13.591
vt -1.519 13.500
vt -1.656 13.467
vt -1.538 13.489
vt -1.530 13.491
vt -1.524 13.495
vt -1.534 13.490
vt -1.528 13.492
vt -1.769 13.520
vt -1.643 13.464
vt -1.639 13.464
vt -1.646 13.465
vt -1.650 13.465
vt -1.654 13.466
vt -1.633 13.465
vt -1.772 13.521
vt -1.775 13.523
vt -1.778 13.525
vt -1.907 13.634
vt -1.906 13.633
vt -1.357 13.721
vt -2.766 13.989
vt -2.509 13.924
vt -2.774 13.992
vt -2.627 13.935
vt -2.625 13.934
vt -2.635 13.936
vt -2.631 13.935
vt -2.770 13.990
vt -2.925 14.092
vt -2.397 13.928
vt -3.095 14.223
vt -2.928 14.094
vt -3.817 13.774
vt -3.740 13.866
vt -3.940 13.726
vt -3.735 13.874
vt -3.732 13.877
vt -3.736 13.870
vt -3.953 13.725
vt -3.826 13.766
vt -3.824 13.769
vt -3.820 13.771
vt -3.834 13.762
vt -3.830 13.765
vt -3.944 13.725
vt -3.947 13.725
vt -3.678 14.024
vt -4.080 13.724
vt -3.678 14.021
vt -4.565 13.494
vt -4.562 13.496
vt -4.572 13.489
vt -4.569 13.491
vt -4.678 13.438
vt -4.674 13.439
vt -4.692 13.435
vt -4.685 13.436
vt -4.681 13.436
vt -4.689 13.435
vt -4.835 13.443
vt -4.832 13.441
vt -4.843 13.444
vt -4.839 13.443
vt -5.029 13.510
vt -5.025 13.508
vt -4.402 13.660
vt -6.045 13.530
vt -6.044 13.533
vt -6.050 13.525
vt -6.048 13.527
vt -6.146 13.440
vt -6.143 13.443
vt -6.152 13.436
vt -6.150 13.439
vt -6.295 13.395
vt -6.289 13.396
vt -6.300 13.395
vt -6.291 13.395
vt -6.474 13.398
vt -6.470 13.398
vt -5.971 13.637
vt -6.669 13.422
vt -7.678 13.310
vt -7.321 13.355
vt -7.686 13.311
vt -7.476 13.314
vt -7.473 13.314
vt -7.479 13.314
vt -7.481 13.312
vt -7.683 13.310
vt -7.952 13.364
vt -7.947 13.364
vt -7.181 13.405
vt -8.284 13.469
vt -8.666 13.605
vt -8.285 13.469
vt -7.035 13.439
vt -10.544 13.874
vt -10.541 13.874
vt -10.290 13.900
vt -10.828 13.864
vt -10.825 13.864
vt -11.154 13.876
vt -11.152 13.876
vt -13.140 13.805
vt -13.139 13.805
vt -14.245 13.707
vt -13.439 13.741
vt -13.435 13.741
vt -13.799 13.705
vt -13.795 13.705
vt -14.248 13.707
vt -12.867 13.874
vt -14.785 13.744
vt -14.784 13.744
vt -18.434 13.849
vt -20.559 13.797
vt -19.062 13.819
vt -19.766 13.800
vt -26.045 13.250
vt -26.046 13.254
vt -25.950 11.765
vt -25.906 12.848
vt -25.907 12.851
vt -25.905 12.844
vt -25.848 12.463
vt -25.849 12.470
vt -25.871 12.110
vt -25.848 12.466
vt -25.872 12.107
vt -25.872 12.104
vt -26.040 11.429
vt -25.950 11.764
vt -26.216 13.626
vt -26.084 9.684
vt -26.084 9.689
vt -26.240 9.001
vt -26.084 9.686
vt -26.135 9.342
vt -26.136 9.336
vt -26.136 9.340
vt -26.082 10.040
vt -26.241 8.998
vt -26.082 10.037
vt -26.130 5.900
vt -26.201 6.601
vt -26.200 5.555
vt -26.129 5.907
vt -26.128 6.254
vt -26.129 6.258
vt -26.128 6.250
vt -26.129 5.904
vt -26.201 5.551
vt -26.325 6.952
vt -26.311 5.204
vt -26.532 3.808
vt -26.680 2.719
vt -26.538 3.456
vt -26.538 3.453
vt -26.580 3.090
vt -26.579 3.095
vt -26.679 2.724
vt -26.532 3.809
vt -26.830 2.340
vt -87.500 75.000
vt -26.552 7.990
vt -26.635 -0.891
vt -27.106 0.494
vt -10.349 -0.823
vt -8.431 -1.302
vt -6.036 -1.423
vt -6.835 -1.292
vt -5.723 -1.587
vt -3.690 -0.920
vt -3.373 -0.764
vt -3.902 -1.094
vt -3.070 -0.889
vt -3.694 -0.922
vt -1.768 -0.976
vt -1.225 -1.008
vt 0.076 -1.711
vt 1.155 -1.049
vt 1.159 -1.049
vt 2.145 -1.019
vt 2.149 -1.016
vt 1.896 -1.319
vt 2.368 -1.001
vt 1.968 -1.195
vt 2.792 -0.526
vt 2.651 -0.733
vt 2.652 -0.731
vt 5.553 -1.150
vt 7.195 -1.502
vt 9.070 -1.089
vt 11.895 -1.000
vt 13.345 -1.185
vt 12.838 -1.121
vt 8.699 -1.566
vt 17.779 -1.076
vt 26.801 1.640
vt 26.439 4.155
vt 26.506 7.630
vt 26.392 8.679
vt 16.744 13.666
vt 18.226 13.761
vt 11.725 14.054
vt 9.571 13.751
vt 7.480 13.492
vt 7.235 13.441
vt 6.856 13.467
vt 5.539 13.418
vt 3.519 14.089
vt 2.110 13.671
vt 0.811 13.800
vt -1.521 13.498
vt -1.635 13.465
vt -4.079 13.724
vt -3.630 14.190
vt -4.206 13.729
vt -4.481 13.580
vt -5.242 13.611
vt -6.157 13.435
vt -7.317 13.356
vt -11.518 13.906
vt -15.391 13.801
vt -26.372 8.664
vt -26.108 10.394
vt -26.203 6.606
vt -26.829 2.341
vt -26.530 4.157
vt -26.999 1.954
vt -27.140 1.570
vt -26.635 -0.895
vt -16.946 -1.259
vt -14.643 -1.171
vt -10.720 -0.873
vt -5.959 -1.519
vt -2.270 -1.144
vt -2.869 -0.881
vt 1.542 -1.355
vt 4.699 -1.360
vt 10.930 -1.019
vt 14.264 -1.218
vt 18.535 -1.106
vt 26.558 3.794
vt 26.617 7.286
vt 26.387 9.025
vt 26.726 6.941
vt 87.500 75.000
vt 13.286 13.883
vt 12.889 13.881
vt 8.230 13.623
vt 6.561 13.715
vt 5.541 13.419
vt -2.044 13.758
vt -2.504 13.924
vt -3.260 14.342
vt -2.291 13.912
vt -5.460 13.713
vt -4.315 13.710
vt -11.895 13.936
vt -10.041 13.918
vt -16.030 13.857
vt -12.581 13.925
vt -17.848 13.881
vt -26.325 6.954
vt -26.538 7.647
vt -21.078 -1.176
vt -9.309 -1.265
vt -11.949 -1.034
vt -9.129 -1.309
vt -10.721 -0.873
vt -8.904 -1.317
vt -6.836 -1.294
vt -1.901 -1.107
vt -0.479 -1.546
vt -1.065 -1.115
vt 0.609 -1.509
vt 3.944 -1.200
vt 8.074 -1.573
vt 25.348 -1.220
vt 26.843 2.354
vt 26.688 3.430
vt 26.726 5.910
vt 26.117 12.541
vt 20.525 13.785
vt 16.745 13.666
vt 13.693 13.881
vt 9.984 13.866
vt 3.939 14.034
vt 3.665 14.141
vt 2.530 13.934
vt 0.996 13.807
vt 0.504 13.420
vt 0.400 13.229
vt -6.862 13.443
vt -5.896 13.730
vt -9.061 13.741
vt -5.798 13.779
vt -21.433 13.803
vt -26.124 10.745
vt -26.453 7.301
vt -26.421 4.854
vt -22.104 -1.215
vt -11.550 -0.998
vt -11.133 -0.939
vt -7.765 -1.485
vt -7.106 -1.389
vt -2.979 -0.902
vt -1.145 -1.080
vt -0.026 -1.834
vt 0.780 -1.407
vt 2.459 -0.993
vt 4.889 -1.441
vt 8.328 -1.613
vt 20.100 -1.127
vt 27.054 0.115
vt 26.790 3.067
vt 26.346 9.365
vt 26.290 13.307
vt 26.250 9.697
vt 25.155 13.664
vt 11.476 14.104
vt 6.431 13.744
vt 7.744 13.554
vt 4.686 13.421
vt 2.914 14.119
vt 1.752 14.076
vt -0.212 13.350
vt -1.020 13.781
vt -1.281 13.828
vt -12.256 13.946
vt -3.502 14.402
vt -22.361 13.804
vt -26.104 11.090
vt -26.490 8.328
vt -25.483 -1.261
vt -5.859 -1.575
vt -4.695 -1.599
vt -2.203 -1.228
vt -2.027 -1.211
vt -0.386 -1.735
vt -0.124 -1.917
vt 1.657 -1.440
vt 1.823 -1.417
vt 5.055 -1.489
vt 1.748 -1.459
vt 5.181 -1.484
vt 6.859 -1.530
vt 19.310 -1.125
vt 26.706 -1.250
vt 26.841 2.709
vt 26.797 6.254
vt 26.231 12.929
vt 19.008 13.795
vt 7.999 13.602
vt 3.876 14.130
vt 3.789 14.162
vt 2.676 14.045
vt 1.583 14.100
vt 0.611 13.602
vt 0.716 13.735
vt -2.174 13.857
vt -3.402 14.409
vt -1.206 13.875
vt -3.575 14.329
vt -16.661 13.893
vt -26.497 4.505
vt -24.306 -1.260
vt -16.419 -1.282
vt -7.365 -1.465
vt -4.130 -1.285
vt -4.351 -1.452
vt -2.129 -1.251
vt 0.695 -1.481
vt 3.650 -1.077
vt 6.652 -1.492
vt 10.399 -1.061
vt 13.829 -1.220
vt 8.543 -1.615
vt 5.774 13.521
vt 2.806 14.109
vt -0.299 13.412
vt -1.124 13.861
vt -5.654 13.775
vt -23.319 13.789
vt -23.184 -1.245
vt -15.250 -1.231
vt -7.588 -1.499
vt 10.414 13.984
vt 6.020 13.631
vt 1.675 14.116
vt -9.436 13.848
vt -17.265 13.900
vt -15.852 -1.272
vt -0.294 -1.876
vt 3.810 -1.166
vt 26.796 6.598
vt 19.775 13.804
vt 10.824 14.072
vt 6.247 13.715
vt -9.762 13.906
vt -4.544 -1.560
vt -0.207 -1.934
vt 26.302 13.643
vt -25.290 13.705
vt 11.181 14.114
vt -24.290 13.755
vt 26.886 -0.946
vt 27.021 -0.611
vt 27.076 -0.258
f 1/1/1 2/2/1 3/3/1
f 4/4/1 5/5/1 6/6/1
f 7/7/1 4/4/1 6/6/1
f 8/8/1 9/9/1 10/10/1
f 10/10/1 9/9/1 5/5/1
f 11/11/1 12/12/1 13/13/1
f 13/13/1 12/12/1 14/14/1
f 15/15/1 14/14/1 16/16/1
f 16/16/1 17/17/1 15/15/1
f 12/12/1 18/18/1 16/16/1
f 19/19/1 20/20/1 21/21/1
f 22/22/1 21/21/1 20/20/1
f 23/23/1 24/24/1 20/20/1
f 20/20/1 19/19/1 25/25/1
f 26/26/1 27/27/1 28/28/1
f 27/27/1 26/26/1 29/29/1
f 30/30/1 29/29/1 31/31/1
f 32/32/1 31/31/1 33/33/1
f 34/34/1 35/35/1 32/32/1
f 36/36/1 37/37/1 34/34/1
f 38/38/1 33/33/1 39/39/1
f 40/40/1 39/39/1 33/33/1
f 41/41/1 42/42/1 43/43/1
f 44/44/1 42/42/1 41/41/1
f 45/45/1 46/46/1 47/47/1
f 44/44/1 47/47/1 46/46/1
f 48/48/1 43/43/1 48/48/1
f 49/49/1 50/50/1 51/51/1
f 52/52/1 53/53/1 54/54/1
f 55/55/1 50/50/1 56/56/1
f 55/55/1 57/57/1 50/50/1
f 49/49/1 56/56/1 50/50/1
f 58/58/1 59/59/1 60/60/1
f 61/61/1 60/60/1 62/62/1
f 62/62/1 63/63/1 61/61/1
f 64/64/1 51/51/1 65/65/1
f 65/65/1 66/66/1 64/64/1
f 67/67/1 68/68/1 69/69/1
f 70/70/1 71/71/1 68/68/1
f 72/72/1 67/67/1 69/69/1
f 73/73/1 74/74/1 67/67/1
f 75/75/1 76/76/1 77/77/1
f 78/78/1 77/77/1 79/79/1
f 80/80/1 81/81/1 82/82/1
f 83/83/1 82/82/1 81/81/1
f 84/84/1 80/80/1 85/85/1
f 82/82/1 85/85/1 80/80/1
f 86/86/1 87/87/1 88/88/1
f 86/86/1 89/89/1 87/87/1
f 88/88/1 90/90/1 86/86/1
f 91/91/1 92/92/1 83/83/1
f 83/83/1 93/93/1 91/91/1
f 94/94/1 95/95/1 96/96/1
f 97/97/1 98/98/1 95/95/1
f 99/99/1 100/100/1 97/97/1
f 98/98/1 101/101/1 102/102/1
f 103/103/1 104/104/1 105/105/1
f 106/106/1 105/105/1 96/96/1
f 96/96/1 107/107/1 106/106/1
f 108/108/1 109/109/1 102/102/1
f 102/102/1 110/110/1 108/108/1
f 111/111/1 112/112/1 113/113/1
f 114/114/1 115/115/1 116/116/1
f 117/117/1 118/118/1 119/119/1
f 115/115/1 119/119/1 118/118/1
f 120/120/1 118/118/1 121/121/1
f 122/122/1 123/123/1 124/124/1
f 125/125/1 126/126/1 127/127/1
f 128/128/1 127/127/1 114/114/1
f 129/129/1 116/116/1 130/130/1
f 131/131/1 132/132/1 129/129/1
f 133/133/1 130/130/1 116/116/1
f 134/134/1 121/121/1 118/118/1
f 135/135/1 136/136/1 137/137/1
f 137/137/1 138/138/1 135/135/1
f 139/139/1 140/140/1 141/141/1
f 142/142/1 141/141/1 140/140/1
f 143/143/1 144/144/1 140/140/1
f 145/145/1 146/146/1 147/147/1
f 148/148/1 147/147/1 146/146/1
f 149/149/1 150/150/1 151/151/1
f 152/152/1 153/153/1 154/154/1
f 155/155/1 153/153/1 152/152/1
f 156/156/1 157/157/1 158/158/1
f 159/159/1 158/158/1 157/157/1
f 157/157/1 160/160/1 159/159/1
f 161/161/1 162/162/1 163/163/1
f 164/164/1 163/163/1 162/162/1
f 165/165/1 166/166/1 167/167/1
f 168/168/1 169/169/1 170/170/1
f 171/171/1 172/172/1 168/168/1
f 173/173/1 174/174/1 168/168/1
f 170/170/1 175/175/1 173/173/1
f 176/176/1 167/167/1 177/177/1
f 178/178/1 179/179/1 180/180/1
f 181/181/1 180/180/1 169/169/1
f 169/169/1 182/182/1 181/181/1
f 183/183/1 176/176/1 184/184/1
f 177/177/1 184/184/1 176/176/1
f 185/185/1 185/185/1 186/186/1
f 187/187/1 188/188/1 189/189/1
f 190/190/1 191/191/1 188/188/1
f 188/188/1 192/192/1 190/190/1
f 193/193/1 187/187/1 189/189/1
f 193/193/1 194/194/1 187/187/1
f 195/195/1 189/189/1 191/191/1
f 196/196/1 197/197/1 189/189/1
f 198/198/1 199/199/1 200/200/1
f 201/201/1 202/202/1 199/199/1
f 203/203/1 204/204/1 199/199/1
f 200/200/1 199/199/1 205/205/1
f 206/206/1 207/207/1 208/208/1
f 209/209/1 208/208/1 207/207/1
f 210/210/1 211/211/1 212/212/1
f 198/198/1 212/212/1 209/209/1
f 213/213/1 200/200/1 214/214/1
f 215/215/1 214/214/1 216/216/1
f 205/205/1 216/216/1 200/200/1
f 217/217/1 218/218/1 219/219/1
f 220/220/1 219/219/1 221/221/1
f 222/222/1 220/220/1 223/223/1
f 224/224/1 225/225/1 226/226/1
f 227/227/1 226/226/1 228/228/1
f 228/228/1 229/229/1 227/227/1
f 230/230/1 231/231/1 232/232/1
f 233/233/1 234/234/1 235/235/1
f 236/236/1 235/235/1 237/237/1
f 238/238/1 239/239/1 240/240/1
f 241/241/1 238/238/1 242/242/1
f 240/240/1 242/242/1 238/238/1
f 234/234/1 243/243/1 237/237/1
f 244/244/1 245/245/1 243/243/1
f 246/246/1 247/247/1 248/248/1
f 249/249/1 250/250/1 251/251/1
f 252/252/1 249/249/1 251/251/1
f 253/253/1 254/254/1 255/255/1
f 253/253/1 256/256/1 254/254/1
f 257/257/1 255/255/1 254/254/1
f 258/258/1 259/259/1 260/260/1
f 261/261/1 262/262/1 263/263/1
f 264/264/1 263/263/1 262/262/1
f 265/265/1 266/266/1 267/267/1
f 265/265/1 268/268/1 266/266/1
f 269/269/1 270/270/1 271/271/1
f 269/269/1 272/272/1 270/270/1
f 273/273/1 274/274/1 275/275/1
f 276/276/1 273/273/1 277/277/1
f 278/278/1 276/276/1 277/277/1
f 279/279/1 280/280/1 281/281/1
f 279/279/1 282/282/1 280/280/1
f 281/281/1 283/283/1 279/279/1
f 284/284/1 280/280/1 285/285/1
f 285/285/1 285/285/1 286/286/1
f 287/287/1 288/288/1 289/289/1
f 290/290/1 291/291/1 287/287/1
f 292/292/1 293/293/1 287/287/1
f 289/289/1 294/294/1 287/287/1
f 295/295/1 295/295/1 296/296/1
f 297/297/1 298/298/1 299/299/1
f 300/300/1 301/301/1 297/297/1
f 299/299/1 302/302/1 297/297/1
f 303/303/1 303/303/1 298/298/1
f 304/304/1 305/305/1 306/306/1
f 307/307/1 306/306/1 305/305/1
f 308/308/1 309/309/1 304/304/1
f 309/309/1 309/309/1 310/310/1
f 311/311/1 312/312/1 313/313/1
f 314/314/1 312/312/1 311/311/1
f 315/315/1 316/316/1 317/317/1
f 314/314/1 317/317/1 316/316/1
f 311/311/1 318/318/1 314/314/1
f 319/319/1 320/320/1 321/321/1
f 322/322/1 323/323/1 324/324/1
f 325/325/1 322/322/1 324/324/1
f 326/326/1 324/324/1 323/323/1
f 327/327/1 328/328/1 329/329/1
f 330/330/1 331/331/1 328/328/1
f 332/332/1 328/328/1 333/333/1
f 334/334/1 335/335/1 329/329/1
f 336/336/1 337/337/1 331/331/1
f 333/333/1 338/338/1 332/332/1
f 339/339/1 340/340/1 336/336/1
f 341/341/1 341/341/1 342/342/1
f 343/343/1 344/344/1 345/345/1
f 346/346/1 345/345/1 344/344/1
f 344/344/1 344/344/1 347/347/1
f 348/348/1 349/349/1 348/348/1
f 349/349/1 348/348/1 350/350/1
f 351/351/1 352/352/1 348/348/1
f 351/351/1 353/353/1 352/352/1
f 348/348/1 354/354/1 351/351/1
f 355/355/1 356/356/1 357/357/1
f 358/358/1 359/359/1 360/360/1
f 361/361/1 358/358/1 360/360/1
f 362/362/1 363/363/1 360/360/1
f 364/364/1 360/360/1 359/359/1
f 365/365/1 366/366/1 367/367/1
f 368/368/1 367/367/1 366/366/1
f 369/369/1 370/370/1 371/371/1
f 372/372/1 371/371/1 368/368/1
f 373/373/1 374/374/1 375/375/1
f 374/374/1 373/373/1 376/376/1
f 377/377/1 376/376/1 378/378/1
f 379/379/1 378/378/1 376/376/1
f 380/380/1 381/381/1 382/382/1
f 383/383/1 382/382/1 381/381/1
f 373/373/1 384/384/1 376/376/1
f 373/373/1 385/385/1 384/384/1
f 386/386/1 387/387/1 388/388/1
f 389/389/1 387/387/1 386/386/1
f 390/390/1 387/387/1 391/391/1
f 392/392/1 391/391/1 389/389/1
f 393/393/1 394/394/1 395/395/1
f 389/389/1 395/395/1 392/392/1
f 388/388/1 396/396/1 397/397/1
f 398/398/1 399/399/1 400/400/1
f 401/401/1 402/402/1 403/403/1
f 404/404/1 405/405/1 406/406/1
f 407/407/1 408/408/1 404/404/1
f 400/400/1 403/403/1 406/406/1
f 409/409/1 410/410/1 411/411/1
f 412/412/1 413/413/1 414/414/1
f 415/415/1 414/414/1 413/413/1
f 416/416/1 403/403/1 417/417/1
f 416/416/1 418/418/1 403/403/1
f 419/419/1 420/420/1 399/399/1
f 421/421/1 422/422/1 419/419/1
f 423/423/1 424/424/1 425/425/1
f 426/426/1 427/427/1 428/428/1
f 424/424/1 423/423/1 429/429/1
f 430/430/1 429/429/1 423/423/1
f 431/431/1 432/432/1 427/427/1
f 433/433/1 434/434/1 425/425/1
f 435/435/1 436/436/1 437/437/1
f 438/438/1 439/439/1 440/440/1
f 440/440/1 441/441/1 438/438/1
f 442/442/1 443/443/1 439/439/1
f 444/444/1 445/445/1 446/446/1
f 447/447/1 444/444/1 446/446/1
f 448/448/1 446/446/1 449/449/1
f 437/437/1 449/449/1 435/435/1
f 450/450/1 451/451/1 452/452/1
f 453/453/1 452/452/1 454/454/1
f 455/455/1 443/443/1 442/442/1
f 456/456/1 457/457/1 442/442/1
f 458/458/1 459/459/1 460/460/1
f 461/461/1 462/462/1 459/459/1
f 462/462/1 460/460/1 459/459/1
f 463/463/1 464/464/1 465/465/1
f 466/466/1 467/467/1 468/468/1
f 469/469/1 467/467/1 466/466/1
f 470/470/1 471/471/1 472/472/1
f 473/473/1 470/470/1 474/474/1
f 475/475/1 474/474/1 470/470/1
f 476/476/1 477/477/1 478/478/1
f 479/479/1 480/480/1 478/478/1
f 481/481/1 478/478/1 482/482/1
f 483/483/1 482/482/1 484/484/1
f 485/485/1 484/484/1 477/477/1
f 486/486/1 487/487/1 488/488/1
f 489/489/1 488/488/1 490/490/1
f 491/491/1 490/490/1 488/488/1
f 492/492/1 493/493/1 475/475/1
f 494/494/1 472/472/1 471/471/1
f 495/495/1 496/496/1 497/497/1
f 498/498/1 499/499/1 500/500/1
f 501/501/1 500/500/1 502/502/1
f 503/503/1 502/502/1 495/495/1
f 504/504/1 505/505/1 503/503/1
f 506/506/1 507/507/1 503/503/1
f 508/508/1 497/497/1 509/509/1
f 510/510/1 509/509/1 511/511/1
f 512/512/1 513/513/1 514/514/1
f 515/515/1 516/516/1 517/517/1
f 518/518/1 519/519/1 520/520/1
f 518/518/1 521/521/1 519/519/1
f 517/517/1 520/520/1 515/515/1
f 514/514/1 522/522/1 515/515/1
f 523/523/1 524/524/1 525/525/1
f 526/526/1 525/525/1 527/527/1
f 516/516/1 527/527/1 528/528/1
f 529/529/1 522/522/1 530/530/1
f 531/531/1 530/530/1 522/522/1
f 532/532/1 533/533/1 534/534/1
f 535/535/1 536/536/1 537/537/1
f 538/538/1 539/539/1 540/540/1
f 540/540/1 541/541/1 538/538/1
f 542/542/1 535/535/1 537/537/1
f 543/543/1 537/537/1 544/544/1
f 545/545/1 546/546/1 544/544/1
f 547/547/1 548/548/1 549/549/1
f 550/550/1 551/551/1 548/548/1
f 548/548/1 552/552/1 550/550/1
f 551/551/1 553/553/1 548/548/1
f 554/554/1 555/555/1 556/556/1
f 557/557/1 558/558/1 554/554/1
f 559/559/1 549/549/1 553/553/1
f 553/553/1 560/560/1 559/559/1
f 561/561/1 562/562/1 563/563/1
f 564/564/1 565/565/1 566/566/1
f 566/566/1 567/567/1 564/564/1
f 568/568/1 569/569/1 570/570/1
f 571/571/1 572/572/1 568/568/1
f 570/570/1 573/573/1 568/568/1
f 574/574/1 575/575/1 576/576/1
f 576/576/1 577/577/1 574/574/1
f 578/578/1 579/579/1 580/580/1
f 581/581/1 582/582/1 583/583/1
f 583/583/1 584/584/1 581/581/1
f 585/585/1 586/586/1 587/587/1
f 587/587/1 588/588/1 585/585/1
f 589/589/1 590/590/1 591/591/1
f 589/589/1 592/592/1 590/590/1
f 593/593/1 594/594/1 595/595/1
f 596/596/1 593/593/1 595/595/1
f 597/597/1 598/598/1 599/599/1
f 600/600/1 601/601/1 602/602/1
f 603/603/1 602/602/1 601/601/1
f 604/604/1 597/597/1 599/599/1
f 605/605/1 606/606/1 607/607/1
f 608/608/1 605/605/1 607/607/1
f 609/609/1 610/610/1 611/611/1
f 612/612/1 613/613/1 614/614/1
f 615/615/1 616/616/1 612/612/1
f 617/617/1 618/618/1 614/614/1
f 619/619/1 620/620/1 621/621/1
f 622/622/1 623/623/1 619/619/1
f 624/624/1 625/625/1 619/619/1
f 626/626/1 621/621/1 627/627/1
f 628/628/1 629/629/1 627/627/1
f 630/630/1 630/630/1 631/631/1
f 632/632/1 632/632/1 630/630/1
f 633/633/1 633/633/1 630/630/1
f 631/631/1 631/631/1 630/630/1
f 634/634/1 635/635/1 636/636/1
f 637/637/1 638/638/1 639/639/1
f 640/640/1 641/641/1 642/642/1
f 640/640/1 643/643/1 641/641/1
f 644/644/1 642/642/1 645/645/1
f 636/636/1 645/645/1 638/638/1
f 646/646/1 647/647/1 648/648/1
f 649/649/1 650/650/1 651/651/1
f 652/652/1 650/650/1 649/649/1
f 653/653/1 649/649/1 654/654/1
f 654/654/1 655/655/1 653/653/1
f 656/656/1 657/657/1 658/658/1
f 659/659/1 660/660/1 661/661/1
f 662/662/1 660/660/1 659/659/1
f 663/663/1 664/664/1 665/665/1
f 662/662/1 665/665/1 664/664/1
f 659/659/1 666/666/1 662/662/1
f 667/667/1 668/668/1 669/669/1
f 670/670/1 671/671/1 672/672/1
f 673/673/1 672/672/1 671/671/1
f 674/674/1 675/675/1 673/673/1
f 671/671/1 676/676/1 673/673/1
f 677/677/1 678/678/1 670/670/1
f 679/679/1 2/2/1 680/680/1
f 679/679/1 3/3/1 2/2/1
f 6/6/1 5/5/1 681/681/1
f 682/682/1 9/9/1 8/8/1
f 11/11/1 12/12/1 11/11/1
f 16/16/1 14/14/1 12/12/1
f 20/20/1 19/19/1 20/20/1
f 24/24/1 22/22/1 20/20/1
f 683/683/1 28/28/1 27/27/1
f 29/29/1 26/26/1 31/31/1
f 36/36/1 34/34/1 32/32/1
f 40/40/1 33/33/1 26/26/1
f 684/684/1 43/43/1 42/42/1
f 42/42/1 44/44/1 46/46/1
f 54/54/1 685/685/1 50/50/1
f 686/686/1 685/685/1 53/53/1
f 62/62/1 59/59/1 51/51/1
f 62/62/1 60/60/1 59/59/1
f 65/65/1 51/51/1 50/50/1
f 71/71/1 69/69/1 68/68/1
f 73/73/1 67/67/1 72/72/1
f 687/687/1 77/77/1 78/78/1
f 688/688/1 81/81/1 80/80/1
f 92/92/1 82/82/1 83/83/1
f 689/689/1 88/88/1 87/87/1
f 92/92/1 88/88/1 689/689/1
f 690/690/1 691/691/1 692/692/1
f 98/98/1 109/109/1 95/95/1
f 99/99/1 97/97/1 95/95/1
f 94/94/1 105/105/1 104/104/1
f 109/109/1 96/96/1 95/95/1
f 112/112/1 102/102/1 101/101/1
f 118/118/1 120/120/1 115/115/1
f 124/124/1 114/114/1 127/127/1
f 122/122/1 124/124/1 126/126/1
f 116/116/1 128/128/1 114/114/1
f 131/131/1 129/129/1 130/130/1
f 693/693/1 694/694/1 134/134/1
f 137/137/1 143/143/1 140/140/1
f 142/142/1 140/140/1 144/144/1
f 148/148/1 146/146/1 136/136/1
f 150/150/1 148/148/1 151/151/1
f 156/156/1 152/152/1 162/162/1
f 154/154/1 164/164/1 152/152/1
f 164/164/1 162/162/1 152/152/1
f 695/695/1 154/154/1 695/695/1
f 167/167/1 176/176/1 168/168/1
f 171/171/1 168/168/1 174/174/1
f 696/696/1 170/170/1 169/169/1
f 179/179/1 697/697/1 180/180/1
f 176/176/1 169/169/1 168/168/1
f 186/186/1 185/185/1 166/166/1
f 191/191/1 189/189/1 188/188/1
f 698/698/1 187/187/1 699/699/1
f 699/699/1 187/187/1 194/194/1
f 700/700/1 701/701/1 702/702/1
f 703/703/1 199/199/1 198/198/1
f 201/201/1 199/199/1 204/204/1
f 209/209/1 207/207/1 198/198/1
f 209/209/1 212/212/1 211/211/1
f 214/214/1 200/200/1 216/216/1
f 704/704/1 218/218/1 705/705/1
f 220/220/1 220/220/1 221/221/1
f 225/225/1 232/232/1 226/226/1
f 231/231/1 228/228/1 232/232/1
f 234/234/1 237/237/1 235/235/1
f 239/239/1 237/237/1 706/706/1
f 706/706/1 240/240/1 239/239/1
f 244/244/1 243/243/1 247/247/1
f 249/249/1 249/249/1 251/251/1
f 257/257/1 254/254/1 259/259/1
f 707/707/1 259/259/1 254/254/1
f 264/264/1 267/267/1 708/708/1
f 708/708/1 267/267/1 266/266/1
f 271/271/1 270/270/1 275/275/1
f 274/274/1 271/271/1 275/275/1
f 281/281/1 280/280/1 709/709/1
f 709/709/1 280/280/1 284/284/1
f 710/710/1 711/711/1 712/712/1
f 290/290/1 287/287/1 293/293/1
f 294/294/1 292/292/1 287/287/1
f 713/713/1 295/295/1 296/296/1
f 300/300/1 297/297/1 302/302/1
f 303/303/1 299/299/1 298/298/1
f 305/305/1 304/304/1 714/714/1
f 714/714/1 304/304/1 309/309/1
f 313/313/1 715/715/1 319/319/1
f 312/312/1 314/314/1 316/316/1
f 715/715/1 313/313/1 312/312/1
f 716/716/1 326/326/1 323/323/1
f 717/717/1 326/326/1 716/716/1
f 329/329/1 328/328/1 332/332/1
f 327/327/1 329/329/1 335/335/1
f 337/337/1 336/336/1 340/340/1
f 342/342/1 341/341/1 339/339/1
f 344/344/1 343/343/1 347/347/1
f 343/343/1 347/347/1 343/343/1
f 718/718/1 348/348/1 349/349/1
f 350/350/1 348/348/1 352/352/1
f 719/719/1 357/357/1 356/356/1
f 364/364/1 359/359/1 720/720/1
f 363/363/1 361/361/1 360/360/1
f 721/721/1 366/366/1 365/365/1
f 370/370/1 368/368/1 371/371/1
f 722/722/1 375/375/1 723/723/1
f 379/379/1 376/376/1 384/384/1
f 383/383/1 381/381/1 724/724/1
f 724/724/1 381/381/1 384/384/1
f 725/725/1 388/388/1 387/387/1
f 387/387/1 389/389/1 391/391/1
f 392/392/1 395/395/1 394/394/1
f 406/406/1 403/403/1 402/402/1
f 407/407/1 404/404/1 402/402/1
f 411/411/1 402/402/1 401/401/1
f 409/409/1 415/415/1 413/413/1
f 417/417/1 400/400/1 420/420/1
f 422/422/1 420/420/1 419/419/1
f 428/428/1 425/425/1 424/424/1
f 425/425/1 428/428/1 433/433/1
f 726/726/1 432/432/1 431/431/1
f 437/437/1 436/436/1 454/454/1
f 436/436/1 440/440/1 439/439/1
f 727/727/1 446/446/1 445/445/1
f 449/449/1 446/446/1 435/435/1
f 451/451/1 437/437/1 452/452/1
f 439/439/1 443/443/1 436/436/1
f 458/458/1 465/465/1 464/464/1
f 465/465/1 458/458/1 460/460/1
f 467/467/1 469/469/1 728/728/1
f 475/475/1 470/470/1 492/492/1
f 478/478/1 477/477/1 484/484/1
f 476/476/1 478/478/1 480/480/1
f 484/484/1 482/482/1 478/478/1
f 487/487/1 493/493/1 488/488/1
f 493/493/1 491/491/1 488/488/1
f 499/499/1 495/495/1 502/502/1
f 502/502/1 500/500/1 499/499/1
f 504/504/1 503/503/1 507/507/1
f 509/509/1 497/497/1 496/496/1
f 516/516/1 515/515/1 522/522/1
f 729/729/1 520/520/1 519/519/1
f 528/528/1 517/517/1 516/516/1
f 524/524/1 730/730/1 525/525/1
f 513/513/1 531/531/1 514/514/1
f 534/534/1 533/533/1 513/513/1
f 539/539/1 536/536/1 540/540/1
f 535/535/1 540/540/1 536/536/1
f 546/546/1 543/543/1 544/544/1
f 549/549/1 548/548/1 553/553/1
f 556/556/1 547/547/1 554/554/1
f 557/557/1 554/554/1 547/547/1
f 553/553/1 551/551/1 731/731/1
f 732/732/1 733/733/1 561/561/1
f 570/570/1 566/566/1 575/575/1
f 569/569/1 566/566/1 570/570/1
f 571/571/1 568/568/1 573/573/1
f 576/576/1 734/734/1 579/579/1
f 735/735/1 578/578/1 580/580/1
f 583/583/1 736/736/1 586/586/1
f 587/587/1 586/586/1 736/736/1
f 582/582/1 591/591/1 583/583/1
f 594/594/1 591/591/1 595/595/1
f 601/601/1 598/598/1 603/603/1
f 597/597/1 603/603/1 598/598/1
f 737/737/1 607/607/1 606/606/1
f 615/615/1 612/612/1 618/618/1
f 738/738/1 617/617/1 614/614/1
f 622/622/1 619/619/1 625/625/1
f 621/621/1 624/624/1 619/619/1
f 739/739/1 628/628/1 627/627/1
f 632/632/1 630/630/1 633/633/1
f 631/631/1 633/633/1 630/630/1
f 639/639/1 638/638/1 642/642/1
f 639/639/1 642/642/1 641/641/1
f 645/645/1 642/642/1 638/638/1
f 658/658/1 651/651/1 650/650/1
f 654/654/1 649/649/1 651/651/1
f 740/740/1 657/657/1 741/741/1
f 661/661/1 742/742/1 667/667/1
f 660/660/1 662/662/1 664/664/1
f 742/742/1 661/661/1 660/660/1
f 671/671/1 670/670/1 743/743/1
f 674/674/1 673/673/1 676/676/1
f 744/744/1 745/745/1 677/677/1
f 746/746/1 680/680/1 2/2/1
f 682/682/1 1/1/1 3/3/1
f 681/681/1 5/5/1 747/747/1
f 12/12/1 11/11/1 748/748/1
f 19/19/1 20/20/1 19/19/1
f 749/749/1 25/25/1 19/19/1
f 750/750/1 28/28/1 683/683/1
f 36/36/1 32/32/1 33/33/1
f 48/48/1 43/43/1 684/684/1
f 685/685/1 686/686/1 751/751/1
f 59/59/1 49/49/1 51/51/1
f 53/53/1 685/685/1 54/54/1
f 76/76/1 69/69/1 71/71/1
f 81/81/1 688/688/1 691/691/1
f 689/689/1 82/82/1 92/92/1
f 101/101/1 113/113/1 112/112/1
f 94/94/1 96/96/1 105/105/1
f 752/752/1 111/111/1 753/753/1
f 121/121/1 134/134/1 694/694/1
f 126/126/1 124/124/1 127/127/1
f 120/120/1 133/133/1 115/115/1
f 143/143/1 137/137/1 146/146/1
f 136/136/1 146/146/1 137/137/1
f 695/695/1 154/154/1 153/153/1
f 157/157/1 156/156/1 162/162/1
f 697/697/1 696/696/1 180/180/1
f 173/173/1 168/168/1 170/170/1
f 169/169/1 180/180/1 696/696/1
f 754/754/1 185/185/1 186/186/1
f 189/189/1 195/195/1 196/196/1
f 196/196/1 195/195/1 701/701/1
f 202/202/1 205/205/1 199/199/1
f 703/703/1 198/198/1 207/207/1
f 705/705/1 205/205/1 202/202/1
f 232/232/1 228/228/1 226/226/1
f 755/755/1 230/230/1 232/232/1
f 706/706/1 237/237/1 243/243/1
f 247/247/1 243/243/1 248/248/1
f 707/707/1 260/260/1 259/259/1
f 267/267/1 264/264/1 270/270/1
f 262/262/1 270/270/1 264/264/1
f 756/756/1 285/285/1 280/280/1
f 289/289/1 288/288/1 295/295/1
f 757/757/1 758/758/1 296/296/1
f 297/297/1 298/298/1 297/297/1
f 308/308/1 310/310/1 309/309/1
f 320/320/1 319/319/1 715/715/1
f 759/759/1 321/321/1 320/320/1
f 760/760/1 717/717/1 716/716/1
f 761/761/1 717/717/1 762/762/1
f 331/331/1 333/333/1 328/328/1
f 333/333/1 331/331/1 337/337/1
f 347/347/1 343/343/1 763/763/1
f 348/348/1 718/718/1 355/355/1
f 764/764/1 720/720/1 765/765/1
f 765/765/1 720/720/1 359/359/1
f 366/366/1 721/721/1 766/766/1
f 366/366/1 372/372/1 368/368/1
f 375/375/1 722/722/1 767/767/1
f 381/381/1 379/379/1 384/384/1
f 768/768/1 388/388/1 725/725/1
f 396/396/1 388/388/1 768/768/1
f 409/409/1 411/411/1 401/401/1
f 406/406/1 402/402/1 404/404/1
f 415/415/1 409/409/1 401/401/1
f 433/433/1 428/428/1 432/432/1
f 427/427/1 432/432/1 428/428/1
f 455/455/1 442/442/1 457/457/1
f 435/435/1 446/446/1 727/727/1
f 437/437/1 454/454/1 452/452/1
f 468/468/1 460/460/1 462/462/1
f 487/487/1 475/475/1 493/493/1
f 485/485/1 477/477/1 487/487/1
f 475/475/1 487/487/1 477/477/1
f 472/472/1 492/492/1 470/470/1
f 503/503/1 495/495/1 506/506/1
f 506/506/1 495/495/1 497/497/1
f 730/730/1 528/528/1 525/525/1
f 515/515/1 520/520/1 729/729/1
f 525/525/1 528/528/1 527/527/1
f 769/769/1 532/532/1 534/534/1
f 770/770/1 537/537/1 536/536/1
f 771/771/1 545/545/1 772/772/1
f 563/563/1 731/731/1 551/551/1
f 549/549/1 557/557/1 547/547/1
f 565/565/1 575/575/1 566/566/1
f 734/734/1 575/575/1 565/565/1
f 773/773/1 735/735/1 774/774/1
f 736/736/1 583/583/1 590/590/1
f 590/590/1 583/583/1 591/591/1
f 737/737/1 599/599/1 598/598/1
f 610/610/1 608/608/1 607/607/1
f 612/612/1 614/614/1 618/618/1
f 775/775/1 738/738/1 776/776/1
f 620/620/1 627/627/1 621/621/1
f 777/777/1 739/739/1 778/778/1
f 779/779/1 631/631/1 630/630/1
f 638/638/1 634/634/1 636/636/1
f 647/647/1 636/636/1 635/635/1
f 656/656/1 741/741/1 657/657/1
f 651/651/1 658/658/1 657/657/1
f 668/668/1 667/667/1 742/742/1
f 780/780/1 669/669/1 668/668/1
f 743/743/1 670/670/1 678/678/1
f 680/680/1 746/746/1 781/781/1
f 747/747/1 5/5/1 9/9/1
f 782/782/1 748/748/1 11/11/1
f 783/783/1 784/784/1 785/785/1
f 786/786/1 28/28/1 750/750/1
f 26/26/1 33/33/1 31/31/1
f 787/787/1 43/43/1 48/48/1
f 788/788/1 751/751/1 686/686/1
f 685/685/1 65/65/1 50/50/1
f 69/69/1 76/76/1 75/75/1
f 692/692/1 691/691/1 688/688/1
f 113/113/1 753/753/1 111/111/1
f 102/102/1 109/109/1 98/98/1
f 789/789/1 694/694/1 693/693/1
f 133/133/1 116/116/1 115/115/1
f 136/136/1 151/151/1 148/148/1
f 790/790/1 149/149/1 791/791/1
f 154/154/1 695/695/1 792/792/1
f 166/166/1 177/177/1 167/167/1
f 177/177/1 166/166/1 185/185/1
f 702/702/1 701/701/1 195/195/1
f 205/205/1 705/705/1 218/218/1
f 704/704/1 219/219/1 218/218/1
f 793/793/1 755/755/1 232/232/1
f 234/234/1 248/248/1 243/243/1
f 250/250/1 246/246/1 251/251/1
f 258/258/1 260/260/1 794/794/1
f 262/262/1 275/275/1 270/270/1
f 276/276/1 276/276/1 277/277/1
f 286/286/1 285/285/1 756/756/1
f 288/288/1 296/296/1 295/295/1
f 795/795/1 303/303/1 298/298/1
f 309/309/1 310/310/1 796/796/1
f 797/797/1 321/321/1 759/759/1
f 798/798/1 321/321/1 797/797/1
f 760/760/1 762/762/1 717/717/1
f 340/340/1 339/339/1 341/341/1
f 799/799/1 341/341/1 342/342/1
f 800/800/1 347/347/1 763/763/1
f 801/801/1 355/355/1 718/718/1
f 802/802/1 720/720/1 764/764/1
f 803/803/1 766/766/1 721/721/1
f 722/722/1 767/767/1 722/722/1
f 723/723/1 375/375/1 374/374/1
f 397/397/1 396/396/1 804/804/1
f 403/403/1 400/400/1 417/417/1
f 399/399/1 420/420/1 400/400/1
f 805/805/1 432/432/1 726/726/1
f 806/806/1 457/457/1 456/456/1
f 454/454/1 436/436/1 443/443/1
f 460/460/1 468/468/1 807/807/1
f 808/808/1 494/494/1 809/809/1
f 809/809/1 494/494/1 471/471/1
f 511/511/1 509/509/1 496/496/1
f 522/522/1 514/514/1 531/531/1
f 531/531/1 513/513/1 533/533/1
f 544/544/1 537/537/1 770/770/1
f 562/562/1 561/561/1 733/733/1
f 731/731/1 563/563/1 562/562/1
f 575/575/1 734/734/1 576/576/1
f 582/582/1 595/595/1 591/591/1
f 810/810/1 596/596/1 811/811/1
f 599/599/1 737/737/1 606/606/1
f 812/812/1 609/609/1 813/813/1
f 614/614/1 776/776/1 738/738/1
f 626/626/1 627/627/1 629/629/1
f 631/631/1 779/779/1 814/814/1
f 635/635/1 648/648/1 647/647/1
f 815/815/1 740/740/1 741/741/1
f 816/816/1 669/669/1 780/780/1
f 817/817/1 669/669/1 816/816/1
f 678/678/1 677/677/1 745/745/1
f 3/3/1 9/9/1 682/682/1
f 818/818/1 748/748/1 782/782/1
f 784/784/1 783/783/1 819/819/1
f 820/820/1 28/28/1 786/786/1
f 28/28/1 820/820/1 783/783/1
f 43/43/1 787/787/1 821/821/1
f 822/822/1 751/751/1 788/788/1
f 79/79/1 77/77/1 76/76/1
f 690/690/1 691/691/1 690/690/1
f 823/823/1 752/752/1 753/753/1
f 694/694/1 789/789/1 824/824/1
f 151/151/1 791/791/1 149/149/1
f 825/825/1 792/792/1 695/695/1
f 826/826/1 754/754/1 186/186/1
f 701/701/1 700/700/1 827/827/1
f 704/704/1 221/221/1 219/219/1
f 828/828/1 755/755/1 793/793/1
f 248/248/1 251/251/1 246/246/1
f 794/794/1 260/260/1 829/829/1
f 275/275/1 277/277/1 273/273/1
f 711/711/1 285/285/1 712/712/1
f 713/713/1 296/296/1 758/758/1
f 830/830/1 298/298/1 297/297/1
f 831/831/1 796/796/1 310/310/1
f 832/832/1 798/798/1 797/797/1
f 833/833/1 761/761/1 834/834/1
f 835/835/1 799/799/1 342/342/1
f 836/836/1 763/763/1 343/343/1
f 356/356/1 355/355/1 801/801/1
f 720/720/1 802/802/1 837/837/1
f 766/766/1 803/803/1 838/838/1
f 839/839/1 767/767/1 722/722/1
f 397/397/1 804/804/1 840/840/1
f 840/840/1 421/421/1 419/419/1
f 432/432/1 805/805/1 841/841/1
f 457/457/1 806/806/1 842/842/1
f 807/807/1 468/468/1 467/467/1
f 494/494/1 808/808/1 843/843/1
f 510/510/1 511/511/1 844/844/1
f 845/845/1 769/769/1 534/534/1
f 772/772/1 545/545/1 544/544/1
f 733/733/1 732/732/1 774/774/1
f 734/734/1 580/580/1 579/579/1
f 595/595/1 811/811/1 596/596/1
f 607/607/1 611/611/1 610/610/1
f 846/846/1 775/775/1 847/847/1
f 778/778/1 739/739/1 627/627/1
f 848/848/1 814/814/1 679/679/1
f 849/849/1 646/646/1 648/648/1
f 740/740/1 815/815/1 850/850/1
f 781/781/1 817/817/1 816/816/1
f 745/745/1 744/744/1 746/746/1
f 9/9/1 3/3/1 851/851/1
f 748/748/1 818/818/1 3/3/1
f 25/25/1 785/785/1 784/784/1
f 819/819/1 783/783/1 820/820/1
f 785/785/1 821/821/1 787/787/1
f 751/751/1 822/822/1 852/852/1
f 853/853/1 77/77/1 687/687/1
f 691/691/1 690/690/1 823/823/1
f 752/752/1 823/823/1 854/854/1
f 855/855/1 824/824/1 789/789/1
f 790/790/1 791/791/1 856/856/1
f 857/857/1 792/792/1 825/825/1
f 754/754/1 826/826/1 858/858/1
f 859/859/1 827/827/1 700/700/1
f 221/221/1 223/223/1 220/220/1
f 860/860/1 828/828/1 861/861/1
f 252/252/1 251/251/1 862/862/1
f 863/863/1 829/829/1 260/260/1
f 278/278/1 277/277/1 712/712/1
f 286/286/1 712/712/1 285/285/1
f 864/864/1 758/758/1 757/757/1
f 865/865/1 795/795/1 298/298/1
f 866/866/1 796/796/1 831/831/1
f 798/798/1 832/832/1 867/867/1
f 762/762/1 834/834/1 761/761/1
f 799/799/1 835/835/1 868/868/1
f 869/869/1 357/357/1 719/719/1
f 357/357/1 837/837/1 802/802/1
f 766/766/1 767/767/1 870/870/1
f 870/870/1 767/767/1 839/839/1
f 804/804/1 396/396/1 871/871/1
f 421/421/1 840/840/1 804/804/1
f 872/872/1 841/841/1 805/805/1
f 873/873/1 842/842/1 806/806/1
f 874/874/1 728/728/1 469/469/1
f 875/875/1 843/843/1 808/808/1
f 728/728/1 844/844/1 876/876/1
f 769/769/1 845/845/1 877/877/1
f 878/878/1 771/771/1 879/879/1
f 880/880/1 774/774/1 732/732/1
f 774/774/1 735/735/1 580/580/1
f 810/810/1 811/811/1 611/611/1
f 611/611/1 813/813/1 609/609/1
f 777/777/1 778/778/1 881/881/1
f 779/779/1 679/679/1 814/814/1
f 849/849/1 648/648/1 815/815/1
f 882/882/1 817/817/1 781/781/1
f 851/851/1 3/3/1 883/883/1
f 884/884/1 748/748/1 3/3/1
f 749/749/1 785/785/1 25/25/1
f 885/885/1 852/852/1 822/822/1
f 886/886/1 823/823/1 690/690/1
f 854/854/1 887/887/1 888/888/1
f 824/824/1 855/855/1 791/791/1
f 856/856/1 791/791/1 855/855/1
f 889/889/1 792/792/1 858/858/1
f 889/889/1 858/858/1 826/826/1
f 223/223/1 827/827/1 890/890/1
f 890/890/1 222/222/1 223/223/1
f 857/857/1 860/860/1 861/861/1
f 891/891/1 252/252/1 862/862/1
f 892/892/1 278/278/1 712/712/1
f 893/893/1 710/710/1 894/894/1
f 830/830/1 864/864/1 298/298/1
f 866/866/1 867/867/1 832/832/1
f 833/833/1 868/868/1 835/835/1
f 357/357/1 869/869/1 837/837/1
f 767/767/1 766/766/1 838/838/1
f 895/895/1 871/871/1 396/396/1
f 896/896/1 842/842/1 873/873/1
f 843/843/1 875/875/1 897/897/1
f 874/874/1 898/898/1 728/728/1
f 879/879/1 877/877/1 845/845/1
f 774/774/1 880/880/1 773/773/1
f 899/899/1 773/773/1 880/880/1
f 813/813/1 611/611/1 811/811/1
f 846/846/1 881/881/1 778/778/1
f 900/900/1 848/848/1 679/679/1
f 648/648/1 850/850/1 815/815/1
f 882/882/1 781/781/1 746/746/1
f 883/883/1 3/3/1 901/901/1
f 901/901/1 3/3/1 818/818/1
f 902/902/1 785/785/1 749/749/1
f 903/903/1 852/852/1 885/885/1
f 823/823/1 886/886/1 854/854/1
f 888/888/1 856/856/1 855/855/1
f 858/858/1 792/792/1 861/861/1
f 859/859/1 890/890/1 827/827/1
f 891/891/1 862/862/1 863/863/1
f 892/892/1 712/712/1 286/286/1
f 757/757/1 298/298/1 864/864/1
f 831/831/1 867/867/1 866/866/1
f 868/868/1 833/833/1 834/834/1
f 837/837/1 869/869/1 763/763/1
f 904/904/1 838/838/1 803/803/1
f 905/905/1 871/871/1 895/895/1
f 842/842/1 896/896/1 906/906/1
f 876/876/1 897/897/1 875/875/1
f 772/772/1 877/877/1 879/879/1
f 847/847/1 899/899/1 880/880/1
f 907/907/1 812/812/1 813/813/1
f 908/908/1 881/881/1 679/679/1
f 680/680/1 850/850/1 648/648/1
f 882/882/1 746/746/1 744/744/1
f 884/884/1 3/3/1 909/909/1
f 785/785/1 902/902/1 821/821/1
f 687/687/1 852/852/1 903/903/1
f 887/887/1 854/854/1 886/886/1
f 910/910/1 856/856/1 888/888/1
f 857/857/1 861/861/1 792/792/1
f 890/890/1 859/859/1 911/911/1
f 860/860/1 863/863/1 862/862/1
f 894/894/1 710/710/1 712/712/1
f 912/912/1 867/867/1 763/763/1
f 912/912/1 834/834/1 762/762/1
f 913/913/1 763/763/1 869/869/1
f 914/914/1 838/838/1 904/904/1
f 915/915/1 871/871/1 905/905/1
f 841/841/1 906/906/1 896/896/1
f 897/897/1 876/876/1 511/511/1
f 772/772/1 879/879/1 771/771/1
f 813/813/1 899/899/1 847/847/1
f 916/916/1 907/907/1 847/847/1
f 679/679/1 680/680/1 648/648/1
f 909/909/1 821/821/1 902/902/1
f 917/917/1 888/888/1 887/887/1
f 910/910/1 888/888/1 918/918/1
f 861/861/1 911/911/1 859/859/1
f 829/829/1 863/863/1 918/918/1
f 893/893/1 894/894/1 757/757/1
f 831/831/1 763/763/1 867/867/1
f 919/919/1 834/834/1 912/912/1
f 800/800/1 763/763/1 913/913/1
f 871/871/1 838/838/1 872/872/1
f 838/838/1 871/871/1 915/915/1
f 872/872/1 906/906/1 841/841/1
f 511/511/1 876/876/1 844/844/1
f 906/906/1 878/878/1 874/874/1
f 813/813/1 847/847/1 907/907/1
f 679/679/1 648/648/1 920/920/1
f 3/3/1 821/821/1 909/909/1
f 917/917/1 918/918/1 888/888/1
f 911/911/1 861/861/1 793/793/1
f 921/921/1 837/837/1 763/763/1
f 914/914/1 872/872/1 838/838/1
f 844/844/1 728/728/1 898/898/1
f 776/776/1 916/916/1 847/847/1
f 679/679/1 920/920/1 922/922/1
f 821/821/1 3/3/1 903/903/1
f 853/853/1 918/918/1 917/917/1
f 793/793/1 861/861/1 828/828/1
f 921/921/1 872/872/1 914/914/1
f 898/898/1 874/874/1 879/879/1
f 776/776/1 847/847/1 775/775/1
f 679/679/1 922/922/1 900/900/1
f 903/903/1 3/3/1 687/687/1
f 687/687/1 918/918/1 853/853/1
f 860/860/1 857/857/1 918/918/1
f 879/879/1 874/874/1 878/878/1
f 846/846/1 679/679/1 881/881/1
f 908/908/1 679/679/1 779/779/1
f 3/3/1 918/918/1 687/687/1
f 860/860/1 918/918/1 863/863/1
f 878/878/1 906/906/1 872/872/1
f 847/847/1 679/679/1 846/846/1
f 763/763/1 679/679/1 878/878/1
f 298/298/1 918/918/1 3/3/1
f 894/894/1 829/829/1 298/298/1
f 878/878/1 872/872/1 763/763/1
f 847/847/1 878/878/1 679/679/1
f 918/918/1 298/298/1 829/829/1
f 921/921/1 763/763/1 872/872/1
f 894/894/1 298/298/1 757/757/1
f 919/919/1 763/763/1 836/836/1
f 865/865/1 298/298/1 923/923/1
f 763/763/1 919/919/1 912/912/1
f 923/923/1 298/298/1 924/924/1
f 925/925/1 763/763/1 831/831/1
f 924/924/1 298/298/1 925/925/1
f 763/763/1 925/925/1 298/298/1
