# Aero Sense landslide ridge: 200 x 200 m, 8 m grid.
# Generated by tools/make_terrain.py - edit the generator, not this file.
v -100.000 -100.000 0.245
v -100.000 -92.000 0.478
v -100.000 -84.000 0.944
v -100.000 -76.000 1.579
v -100.000 -68.000 2.364
v -100.000 -60.000 3.291
v -100.000 -52.000 4.352
v -100.000 -44.000 5.538
v -100.000 -36.000 6.841
v -100.000 -28.000 8.251
v -100.000 -20.000 9.763
v -100.000 -12.000 11.370
v -100.000 -4.000 13.068
v -100.000 4.000 14.853
v -100.000 12.000 16.723
v -100.000 20.000 18.674
v -100.000 28.000 20.706
v -100.000 36.000 22.815
v -100.000 44.000 25.000
v -100.000 52.000 25.000
v -100.000 60.000 25.000
v -100.000 68.000 25.000
v -100.000 76.000 25.000
v -100.000 84.000 25.000
v -100.000 92.000 25.000
v -100.000 100.000 25.000
v -92.000 -100.000 0.340
v -92.000 -92.000 1.063
v -92.000 -84.000 0.945
v -92.000 -76.000 1.137
v -92.000 -68.000 2.519
v -92.000 -60.000 3.752
v -92.000 -52.000 4.120
v -92.000 -44.000 5.046
v -92.000 -36.000 7.033
v -92.000 -28.000 8.569
v -92.000 -20.000 9.341
v -92.000 -12.000 10.888
v -92.000 -4.000 13.296
v -92.000 4.000 15.005
v -92.000 12.000 16.135
v -92.000 20.000 18.224
v -92.000 28.000 20.932
v -92.000 36.000 22.766
v -92.000 44.000 24.265
v -92.000 52.000 24.611
v -92.000 60.000 25.000
v -92.000 68.000 24.795
v -92.000 76.000 24.239
v -92.000 84.000 24.747
v -92.000 92.000 25.000
v -92.000 100.000 24.658
v -84.000 -100.000 0.457
v -84.000 -92.000 0.758
v -84.000 -84.000 1.072
v -84.000 -76.000 1.563
v -84.000 -68.000 2.387
v -84.000 -60.000 3.299
v -84.000 -52.000 4.168
v -84.000 -44.000 5.244
v -84.000 -36.000 6.610
v -84.000 -28.000 7.984
v -84.000 -20.000 9.301
v -84.000 -12.000 10.834
v -84.000 -4.000 12.595
v -84.000 4.000 14.298
v -84.000 12.000 15.962
v -84.000 20.000 17.864
v -84.000 28.000 19.941
v -84.000 36.000 21.919
v -84.000 44.000 23.898
v -84.000 52.000 23.961
v -84.000 60.000 24.072
v -84.000 68.000 23.994
v -84.000 76.000 23.893
v -84.000 84.000 23.986
v -84.000 92.000 24.074
v -84.000 100.000 23.969
v -76.000 -100.000 0.595
v -76.000 -92.000 0.298
v -76.000 -84.000 1.214
v -76.000 -76.000 2.126
v -76.000 -68.000 2.166
v -76.000 -60.000 2.627
v -76.000 -52.000 4.196
v -76.000 -44.000 5.480
v -76.000 -36.000 5.972
v -76.000 -28.000 7.114
v -76.000 -20.000 9.190
v -76.000 -12.000 10.699
v -76.000 -4.000 11.548
v -76.000 4.000 13.239
v -76.000 12.000 15.648
v -76.000 20.000 17.284
v -76.000 28.000 18.472
v -76.000 36.000 20.652
v -76.000 44.000 23.303
v -76.000 52.000 22.969
v -76.000 60.000 22.373
v -76.000 68.000 22.790
v -76.000 76.000 23.328
v -76.000 84.000 22.837
v -76.000 92.000 22.367
v -76.000 100.000 22.923
v -68.000 -100.000 0.749
v -68.000 -92.000 0.699
v -68.000 -84.000 1.202
v -68.000 -76.000 1.778
v -68.000 -68.000 2.110
v -68.000 -60.000 2.685
v -68.000 -52.000 3.758
v -68.000 -44.000 4.811
v -68.000 -36.000 5.650
v -68.000 -28.000 6.797
v -68.000 -20.000 8.349
v -68.000 -12.000 9.748
v -68.000 -4.000 10.955
v -68.000 4.000 12.522
v -68.000 12.000 14.401
v -68.000 20.000 16.041
v -68.000 28.000 17.561
v -68.000 36.000 19.492
v -68.000 44.000 21.654
v -68.000 52.000 21.530
v -68.000 60.000 21.311
v -68.000 68.000 21.465
v -68.000 76.000 21.663
v -68.000 84.000 21.482
v -68.000 92.000 21.309
v -68.000 100.000 21.514
v -60.000 -100.000 0.912
v -60.000 -92.000 1.367
v -60.000 -84.000 1.049
v -60.000 -76.000 0.981
v -60.000 -68.000 1.981
v -60.000 -60.000 2.862
v -60.000 -52.000 2.986
v -60.000 -44.000 3.639
v -60.000 -36.000 5.270
v -60.000 -28.000 6.510
v -60.000 -20.000 7.071
v -60.000 -12.000 8.336
v -60.000 -4.000 10.383
v -60.000 4.000 11.802
v -60.000 12.000 12.703
v -60.000 20.000 14.472
v -60.000 28.000 16.807
v -60.000 36.000 18.361
v -60.000 44.000 19.665
v -60.000 52.000 19.977
v -60.000 60.000 20.533
v -60.000 68.000 20.144
v -60.000 76.000 19.642
v -60.000 84.000 20.101
v -60.000 92.000 20.539
v -60.000 100.000 20.020
v -52.000 -100.000 1.075
v -52.000 -92.000 1.089
v -52.000 -84.000 0.800
v -52.000 -76.000 0.717
v -52.000 -68.000 1.314
v -52.000 -60.000 1.918
v -52.000 -52.000 2.166
v -52.000 -44.000 2.796
v -52.000 -36.000 4.062
v -52.000 -28.000 5.165
v -52.000 -20.000 5.933
v -52.000 -12.000 7.160
v -52.000 -4.000 8.887
v -52.000 4.000 10.299
v -52.000 12.000 11.458
v -52.000 20.000 13.164
v -52.000 28.000 15.245
v -52.000 36.000 16.933
v -52.000 44.000 18.614
v -52.000 52.000 18.794
v -52.000 60.000 19.114
v -52.000 68.000 18.890
v -52.000 76.000 18.601
v -52.000 84.000 18.865
v -52.000 92.000 19.118
v -52.000 100.000 18.819
v -44.000 -100.000 1.226
v -44.000 -92.000 0.137
v -44.000 -84.000 0.302
v -44.000 -76.000 0.513
v -44.000 -68.000 0.052
v -44.000 -60.000 0.015
v -44.000 -52.000 0.986
v -44.000 -44.000 1.802
v -44.000 -36.000 2.034
v -44.000 -28.000 2.878
v -44.000 -20.000 4.565
v -44.000 -12.000 5.837
v -44.000 -4.000 6.613
v -44.000 4.000 8.146
v -44.000 12.000 10.334
v -44.000 20.000 11.934
v -44.000 28.000 13.224
v -44.000 36.000 15.434
v -44.000 44.000 18.345
v -44.000 52.000 18.066
v -44.000 60.000 17.568
v -44.000 68.000 17.917
v -44.000 76.000 18.366
v -44.000 84.000 17.955
v -44.000 92.000 17.563
v -44.000 100.000 18.028
v -36.000 -100.000 1.354
v -36.000 -92.000 0.000
v -36.000 -84.000 0.000
v -36.000 -76.000 0.000
v -36.000 -68.000 0.000
v -36.000 -60.000 0.000
v -36.000 -52.000 0.000
v -36.000 -44.000 0.000
v -36.000 -36.000 0.000
v -36.000 -28.000 0.696
v -36.000 -20.000 2.276
v -36.000 -12.000 3.580
v -36.000 -4.000 4.540
v -36.000 4.000 6.190
v -36.000 12.000 8.446
v -36.000 20.000 10.282
v -36.000 28.000 11.937
v -36.000 36.000 14.448
v -36.000 44.000 17.844
v -36.000 52.000 17.614
v -36.000 60.000 17.203
v -36.000 68.000 17.491
v -36.000 76.000 17.861
v -36.000 84.000 17.523
v -36.000 92.000 17.199
v -36.000 100.000 17.582
v -28.000 -100.000 1.446
v -28.000 -92.000 0.000
v -28.000 -84.000 0.000
v -28.000 -76.000 0.000
v -28.000 -68.000 0.000
v -28.000 -60.000 0.000
v -28.000 -52.000 0.000
v -28.000 -44.000 0.000
v -28.000 -36.000 0.000
v -28.000 -28.000 0.000
v -28.000 -20.000 0.000
v -28.000 -12.000 0.998
v -28.000 -4.000 3.069
v -28.000 4.000 4.812
v -28.000 12.000 6.313
v -28.000 20.000 8.634
v -28.000 28.000 11.561
v -28.000 36.000 14.133
v -28.000 44.000 17.294
v -28.000 52.000 17.531
v -28.000 60.000 17.954
v -28.000 68.000 17.658
v -28.000 76.000 17.276
v -28.000 84.000 17.625
v -28.000 92.000 17.959
v -28.000 100.000 17.564
v -20.000 -100.000 1.494
v -20.000 -92.000 0.000
v -20.000 -84.000 0.000
v -20.000 -76.000 0.000
v -20.000 -68.000 0.000
v -20.000 -60.000 0.000
v -20.000 -52.000 0.000
v -20.000 -44.000 0.000
v -20.000 -36.000 0.000
v -20.000 -28.000 0.000
v -20.000 -20.000 0.000
v -20.000 -12.000 0.000
v -20.000 -4.000 2.087
v -20.000 4.000 3.977
v -20.000 12.000 5.589
v -20.000 20.000 8.147
v -20.000 28.000 11.407
v -20.000 36.000 14.267
v -20.000 44.000 17.843
v -20.000 52.000 18.116
v -20.000 60.000 18.603
v -20.000 68.000 18.262
v -20.000 76.000 17.823
v -20.000 84.000 18.224
v -20.000 92.000 18.609
v -20.000 100.000 18.154
v -12.000 -100.000 1.494
v -12.000 -92.000 0.000
v -12.000 -84.000 0.000
v -12.000 -76.000 0.000
v -12.000 -68.000 0.000
v -12.000 -60.000 0.000
v -12.000 -52.000 0.000
v -12.000 -44.000 0.000
v -12.000 -36.000 0.000
v -12.000 -28.000 0.000
v -12.000 -20.000 0.000
v -12.000 -12.000 0.769
v -12.000 -4.000 2.132
v -12.000 4.000 4.172
v -12.000 12.000 6.822
v -12.000 20.000 9.250
v -12.000 28.000 11.661
v -12.000 36.000 14.946
v -12.000 44.000 19.497
v -12.000 52.000 19.309
v -12.000 60.000 18.975
v -12.000 68.000 19.209
v -12.000 76.000 19.511
v -12.000 84.000 19.235
v -12.000 92.000 18.971
v -12.000 100.000 19.284
v -4.000 -100.000 1.446
v -4.000 -92.000 0.000
v -4.000 -84.000 0.000
v -4.000 -76.000 0.000
v -4.000 -68.000 0.000
v -4.000 -60.000 0.000
v -4.000 -52.000 0.000
v -4.000 -44.000 0.000
v -4.000 -36.000 0.000
v -4.000 -28.000 0.000
v -4.000 -20.000 1.320
v -4.000 -12.000 2.899
v -4.000 -4.000 4.020
v -4.000 4.000 6.064
v -4.000 12.000 8.920
v -4.000 20.000 11.221
v -4.000 28.000 13.285
v -4.000 36.000 16.505
v -4.000 44.000 20.967
v -4.000 52.000 20.660
v -4.000 60.000 20.112
v -4.000 68.000 20.495
v -4.000 76.000 20.990
v -4.000 84.000 20.538
v -4.000 92.000 20.106
v -4.000 100.000 20.618
v 4.000 -100.000 1.354
v 4.000 -92.000 0.272
v 4.000 -84.000 0.000
v 4.000 -76.000 0.000
v 4.000 -68.000 0.000
v 4.000 -60.000 0.000
v 4.000 -52.000 0.000
v 4.000 -44.000 0.160
v 4.000 -36.000 1.365
v 4.000 -28.000 2.579
v 4.000 -20.000 3.669
v 4.000 -12.000 5.213
v 4.000 -4.000 7.238
v 4.000 4.000 9.143
v 4.000 12.000 10.974
v 4.000 20.000 13.321
v 4.000 28.000 16.067
v 4.000 36.000 18.686
v 4.000 44.000 21.772
v 4.000 52.000 21.905
v 4.000 60.000 22.140
v 4.000 68.000 21.975
v 4.000 76.000 21.763
v 4.000 84.000 21.957
v 4.000 92.000 22.142
v 4.000 100.000 21.922
v 12.000 -100.000 1.226
v 12.000 -92.000 1.066
v 12.000 -84.000 0.338
v 12.000 -76.000 0.000
v 12.000 -68.000 0.770
v 12.000 -60.000 1.525
v 12.000 -52.000 1.544
v 12.000 -44.000 2.192
v 12.000 -36.000 3.944
v 12.000 -28.000 5.340
v 12.000 -20.000 6.071
v 12.000 -12.000 7.608
v 12.000 -4.000 10.031
v 12.000 4.000 11.839
v 12.000 12.000 13.151
v 12.000 20.000 15.443
v 12.000 28.000 18.397
v 12.000 36.000 20.605
v 12.000 44.000 22.807
v 12.000 52.000 23.138
v 12.000 60.000 23.729
v 12.000 68.000 23.315
v 12.000 76.000 22.782
v 12.000 84.000 23.269
v 12.000 92.000 23.735
v 12.000 100.000 23.184
v 20.000 -100.000 1.075
v 20.000 -92.000 0.781
v 20.000 -84.000 1.012
v 20.000 -76.000 1.380
v 20.000 -68.000 1.704
v 20.000 -60.000 2.276
v 20.000 -52.000 3.248
v 20.000 -44.000 4.314
v 20.000 -36.000 5.353
v 20.000 -28.000 6.660
v 20.000 -20.000 8.283
v 20.000 -12.000 9.890
v 20.000 -4.000 11.454
v 20.000 4.000 13.296
v 20.000 12.000 15.385
v 20.000 20.000 17.400
v 20.000 28.000 19.413
v 20.000 36.000 21.744
v 20.000 44.000 24.382
v 20.000 52.000 24.310
v 20.000 60.000 24.182
v 20.000 68.000 24.272
v 20.000 76.000 24.387
v 20.000 84.000 24.282
v 20.000 92.000 24.181
v 20.000 100.000 24.300
v 28.000 -100.000 0.912
v 28.000 -92.000 0.471
v 28.000 -84.000 1.322
v 28.000 -76.000 2.179
v 28.000 -68.000 2.155
v 28.000 -60.000 2.589
v 28.000 -52.000 4.194
v 28.000 -44.000 5.533
v 28.000 -36.000 6.082
v 28.000 -28.000 7.322
v 28.000 -20.000 9.545
v 28.000 -12.000 11.200
v 28.000 -4.000 12.189
v 28.000 4.000 14.060
v 28.000 12.000 16.687
v 28.000 20.000 18.531
v 28.000 28.000 19.929
v 28.000 36.000 22.370
v 28.000 44.000 25.000
v 28.000 52.000 25.000
v 28.000 60.000 24.394
v 28.000 68.000 24.824
v 28.000 76.000 25.000
v 28.000 84.000 24.872
v 28.000 92.000 24.388
v 28.000 100.000 24.961
v 36.000 -100.000 0.749
v 36.000 -92.000 0.924
v 36.000 -84.000 1.280
v 36.000 -76.000 1.789
v 36.000 -68.000 2.477
v 36.000 -60.000 3.314
v 36.000 -52.000 4.282
v 36.000 -44.000 5.411
v 36.000 -36.000 6.703
v 36.000 -28.000 8.102
v 36.000 -20.000 9.588
v 36.000 -12.000 11.194
v 36.000 -4.000 12.918
v 36.000 4.000 14.711
v 36.000 12.000 16.574
v 36.000 20.000 18.547
v 36.000 28.000 20.618
v 36.000 36.000 22.746
v 36.000 44.000 24.958
v 36.000 52.000 24.967
v 36.000 60.000 24.984
v 36.000 68.000 24.972
v 36.000 76.000 24.957
v 36.000 84.000 24.971
v 36.000 92.000 24.984
v 36.000 100.000 24.968
v 44.000 -100.000 0.595
v 44.000 -92.000 1.292
v 44.000 -84.000 1.129
v 44.000 -76.000 1.263
v 44.000 -68.000 2.587
v 44.000 -60.000 3.767
v 44.000 -52.000 4.091
v 44.000 -44.000 4.985
v 44.000 -36.000 6.949
v 44.000 -28.000 8.468
v 44.000 -20.000 9.224
v 44.000 -12.000 10.758
v 44.000 -4.000 13.155
v 44.000 4.000 14.853
v 44.000 12.000 15.970
v 44.000 20.000 18.048
v 44.000 28.000 20.748
v 44.000 36.000 22.571
v 44.000 44.000 24.063
v 44.000 52.000 24.410
v 44.000 60.000 25.000
v 44.000 68.000 24.595
v 44.000 76.000 24.038
v 44.000 84.000 24.547
v 44.000 92.000 25.000
v 44.000 100.000 24.457
v 52.000 -100.000 0.457
v 52.000 -92.000 0.741
v 52.000 -84.000 1.063
v 52.000 -76.000 1.557
v 52.000 -68.000 2.352
v 52.000 -60.000 3.243
v 52.000 -52.000 4.114
v 52.000 -44.000 5.180
v 52.000 -36.000 6.509
v 52.000 -28.000 7.860
v 52.000 -20.000 9.175
v 52.000 -12.000 10.687
v 52.000 -4.000 12.405
v 52.000 4.000 14.085
v 52.000 12.000 15.743
v 52.000 20.000 17.614
v 52.000 28.000 19.644
v 52.000 36.000 21.601
v 52.000 44.000 23.568
v 52.000 52.000 23.621
v 52.000 60.000 23.716
v 52.000 68.000 23.649
v 52.000 76.000 23.564
v 52.000 84.000 23.642
v 52.000 92.000 23.717
v 52.000 100.000 23.628
v 60.000 -100.000 0.340
v 60.000 -92.000 0.059
v 60.000 -84.000 1.012
v 60.000 -76.000 1.966
v 60.000 -68.000 2.040
v 60.000 -60.000 2.528
v 60.000 -52.000 4.116
v 60.000 -44.000 5.403
v 60.000 -36.000 5.880
v 60.000 -28.000 7.003
v 60.000 -20.000 9.060
v 60.000 -12.000 10.541
v 60.000 -4.000 11.354
v 60.000 4.000 13.011
v 60.000 12.000 15.388
v 60.000 20.000 16.984
v 60.000 28.000 18.125
v 60.000 36.000 20.264
v 60.000 44.000 22.868
v 60.000 52.000 22.532
v 60.000 60.000 21.932
v 60.000 68.000 22.352
v 60.000 76.000 22.893
v 60.000 84.000 22.399
v 60.000 92.000 21.926
v 60.000 100.000 22.486
v 68.000 -100.000 0.245
v 68.000 -92.000 0.275
v 68.000 -84.000 0.848
v 68.000 -76.000 1.513
v 68.000 -68.000 1.960
v 68.000 -60.000 2.623
v 68.000 -52.000 3.731
v 68.000 -44.000 4.804
v 68.000 -36.000 5.665
v 68.000 -28.000 6.803
v 68.000 -20.000 8.312
v 68.000 -12.000 9.676
v 68.000 -4.000 10.863
v 68.000 4.000 12.382
v 68.000 12.000 14.193
v 68.000 20.000 15.781
v 68.000 28.000 17.258
v 68.000 36.000 19.115
v 68.000 44.000 21.171
v 68.000 52.000 21.056
v 68.000 60.000 20.853
v 68.000 68.000 20.995
v 68.000 76.000 21.179
v 68.000 84.000 21.011
v 68.000 92.000 20.850
v 68.000 100.000 21.041
v 76.000 -100.000 0.171
v 76.000 -92.000 0.809
v 76.000 -84.000 0.662
v 76.000 -76.000 0.782
v 76.000 -68.000 1.973
v 76.000 -60.000 3.009
v 76.000 -52.000 3.234
v 76.000 -44.000 3.949
v 76.000 -36.000 5.616
v 76.000 -28.000 6.856
v 76.000 -20.000 7.384
v 76.000 -12.000 8.609
v 76.000 -4.000 10.609
v 76.000 4.000 11.959
v 76.000 12.000 12.771
v 76.000 20.000 14.449
v 76.000 28.000 16.685
v 76.000 36.000 18.111
v 76.000 44.000 19.222
v 76.000 52.000 19.538
v 76.000 60.000 20.101
v 76.000 68.000 19.707
v 76.000 76.000 19.199
v 76.000 84.000 19.663
v 76.000 92.000 20.107
v 76.000 100.000 19.581
v 84.000 -100.000 0.115
v 84.000 -92.000 0.538
v 84.000 -84.000 0.611
v 84.000 -76.000 0.885
v 84.000 -68.000 1.789
v 84.000 -60.000 2.651
v 84.000 -52.000 3.112
v 84.000 -44.000 3.877
v 84.000 -36.000 5.194
v 84.000 -28.000 6.311
v 84.000 -20.000 7.073
v 84.000 -12.000 8.242
v 84.000 -4.000 9.861
v 84.000 4.000 11.155
v 84.000 12.000 12.182
v 84.000 20.000 13.706
v 84.000 28.000 15.557
v 84.000 36.000 16.993
v 84.000 44.000 18.282
v 84.000 52.000 18.454
v 84.000 60.000 18.759
v 84.000 68.000 18.545
v 84.000 76.000 18.269
v 84.000 84.000 18.522
v 84.000 92.000 18.763
v 84.000 100.000 18.477
v 92.000 -100.000 0.075
v 92.000 -92.000 0.000
v 92.000 -84.000 0.646
v 92.000 -76.000 1.460
v 92.000 -68.000 1.523
v 92.000 -60.000 1.924
v 92.000 -52.000 3.241
v 92.000 -44.000 4.289
v 92.000 -36.000 4.641
v 92.000 -28.000 5.528
v 92.000 -20.000 7.198
v 92.000 -12.000 8.375
v 92.000 -4.000 8.982
v 92.000 4.000 10.298
v 92.000 12.000 12.220
v 92.000 20.000 13.477
v 92.000 28.000 14.345
v 92.000 36.000 16.053
v 92.000 44.000 18.152
v 92.000 52.000 17.867
v 92.000 60.000 17.360
v 92.000 68.000 17.715
v 92.000 76.000 18.173
v 92.000 84.000 17.755
v 92.000 92.000 17.355
v 92.000 100.000 17.828
v 100.000 -100.000 0.047
v 100.000 -92.000 0.000
v 100.000 -84.000 0.604
v 100.000 -76.000 1.341
v 100.000 -68.000 1.511
v 100.000 -60.000 1.965
v 100.000 -52.000 3.155
v 100.000 -44.000 4.150
v 100.000 -36.000 4.614
v 100.000 -28.000 5.512
v 100.000 -20.000 7.039
v 100.000 -12.000 8.192
v 100.000 -4.000 8.910
v 100.000 4.000 10.197
v 100.000 12.000 11.971
v 100.000 20.000 13.236
v 100.000 28.000 14.206
v 100.000 36.000 15.847
v 100.000 44.000 17.805
v 100.000 52.000 17.581
v 100.000 60.000 17.184
v 100.000 68.000 17.462
v 100.000 76.000 17.821
v 100.000 84.000 17.493
v 100.000 92.000 17.180
v 100.000 100.000 17.551
vt -12.5000 -12.5000
vt -12.5000 -11.5000
vt -12.5000 -10.5000
vt -12.5000 -9.5000
vt -12.5000 -8.5000
vt -12.5000 -7.5000
vt -12.5000 -6.5000
vt -12.5000 -5.5000
vt -12.5000 -4.5000
vt -12.5000 -3.5000
vt -12.5000 -2.5000
vt -12.5000 -1.5000
vt -12.5000 -0.5000
vt -12.5000 0.5000
vt -12.5000 1.5000
vt -12.5000 2.5000
vt -12.5000 3.5000
vt -12.5000 4.5000
vt -12.5000 5.5000
vt -12.5000 6.5000
vt -12.5000 7.5000
vt -12.5000 8.5000
vt -12.5000 9.5000
vt -12.5000 10.5000
vt -12.5000 11.5000
vt -12.5000 12.5000
vt -11.5000 -12.5000
vt -11.5000 -11.5000
vt -11.5000 -10.5000
vt -11.5000 -9.5000
vt -11.5000 -8.5000
vt -11.5000 -7.5000
vt -11.5000 -6.5000
vt -11.5000 -5.5000
vt -11.5000 -4.5000
vt -11.5000 -3.5000
vt -11.5000 -2.5000
vt -11.5000 -1.5000
vt -11.5000 -0.5000
vt -11.5000 0.5000
vt -11.5000 1.5000
vt -11.5000 2.5000
vt -11.5000 3.5000
vt -11.5000 4.5000
vt -11.5000 5.5000
vt -11.5000 6.5000
vt -11.5000 7.5000
vt -11.5000 8.5000
vt -11.5000 9.5000
vt -11.5000 10.5000
vt -11.5000 11.5000
vt -11.5000 12.5000
vt -10.5000 -12.5000
vt -10.5000 -11.5000
vt -10.5000 -10.5000
vt -10.5000 -9.5000
vt -10.5000 -8.5000
vt -10.5000 -7.5000
vt -10.5000 -6.5000
vt -10.5000 -5.5000
vt -10.5000 -4.5000
vt -10.5000 -3.5000
vt -10.5000 -2.5000
vt -10.5000 -1.5000
vt -10.5000 -0.5000
vt -10.5000 0.5000
vt -10.5000 1.5000
vt -10.5000 2.5000
vt -10.5000 3.5000
vt -10.5000 4.5000
vt -10.5000 5.5000
vt -10.5000 6.5000
vt -10.5000 7.5000
vt -10.5000 8.5000
vt -10.5000 9.5000
vt -10.5000 10.5000
vt -10.5000 11.5000
vt -10.5000 12.5000
vt -9.5000 -12.5000
vt -9.5000 -11.5000
vt -9.5000 -10.5000
vt -9.5000 -9.5000
vt -9.5000 -8.5000
vt -9.5000 -7.5000
vt -9.5000 -6.5000
vt -9.5000 -5.5000
vt -9.5000 -4.5000
vt -9.5000 -3.5000
vt -9.5000 -2.5000
vt -9.5000 -1.5000
vt -9.5000 -0.5000
vt -9.5000 0.5000
vt -9.5000 1.5000
vt -9.5000 2.5000
vt -9.5000 3.5000
vt -9.5000 4.5000
vt -9.5000 5.5000
vt -9.5000 6.5000
vt -9.5000 7.5000
vt -9.5000 8.5000
vt -9.5000 9.5000
vt -9.5000 10.5000
vt -9.5000 11.5000
vt -9.5000 12.5000
vt -8.5000 -12.5000
vt -8.5000 -11.5000
vt -8.5000 -10.5000
vt -8.5000 -9.5000
vt -8.5000 -8.5000
vt -8.5000 -7.5000
vt -8.5000 -6.5000
vt -8.5000 -5.5000
vt -8.5000 -4.5000
vt -8.5000 -3.5000
vt -8.5000 -2.5000
vt -8.5000 -1.5000
vt -8.5000 -0.5000
vt -8.5000 0.5000
vt -8.5000 1.5000
vt -8.5000 2.5000
vt -8.5000 3.5000
vt -8.5000 4.5000
vt -8.5000 5.5000
vt -8.5000 6.5000
vt -8.5000 7.5000
vt -8.5000 8.5000
vt -8.5000 9.5000
vt -8.5000 10.5000
vt -8.5000 11.5000
vt -8.5000 12.5000
vt -7.5000 -12.5000
vt -7.5000 -11.5000
vt -7.5000 -10.5000
vt -7.5000 -9.5000
vt -7.5000 -8.5000
vt -7.5000 -7.5000
vt -7.5000 -6.5000
vt -7.5000 -5.5000
vt -7.5000 -4.5000
vt -7.5000 -3.5000
vt -7.5000 -2.5000
vt -7.5000 -1.5000
vt -7.5000 -0.5000
vt -7.5000 0.5000
vt -7.5000 1.5000
vt -7.5000 2.5000
vt -7.5000 3.5000
vt -7.5000 4.5000
vt -7.5000 5.5000
vt -7.5000 6.5000
vt -7.5000 7.5000
vt -7.5000 8.5000
vt -7.5000 9.5000
vt -7.5000 10.5000
vt -7.5000 11.5000
vt -7.5000 12.5000
vt -6.5000 -12.5000
vt -6.5000 -11.5000
vt -6.5000 -10.5000
vt -6.5000 -9.5000
vt -6.5000 -8.5000
vt -6.5000 -7.5000
vt -6.5000 -6.5000
vt -6.5000 -5.5000
vt -6.5000 -4.5000
vt -6.5000 -3.5000
vt -6.5000 -2.5000
vt -6.5000 -1.5000
vt -6.5000 -0.5000
vt -6.5000 0.5000
vt -6.5000 1.5000
vt -6.5000 2.5000
vt -6.5000 3.5000
vt -6.5000 4.5000
vt -6.5000 5.5000
vt -6.5000 6.5000
vt -6.5000 7.5000
vt -6.5000 8.5000
vt -6.5000 9.5000
vt -6.5000 10.5000
vt -6.5000 11.5000
vt -6.5000 12.5000
vt -5.5000 -12.5000
vt -5.5000 -11.5000
vt -5.5000 -10.5000
vt -5.5000 -9.5000
vt -5.5000 -8.5000
vt -5.5000 -7.5000
vt -5.5000 -6.5000
vt -5.5000 -5.5000
vt -5.5000 -4.5000
vt -5.5000 -3.5000
vt -5.5000 -2.5000
vt -5.5000 -1.5000
vt -5.5000 -0.5000
vt -5.5000 0.5000
vt -5.5000 1.5000
vt -5.5000 2.5000
vt -5.5000 3.5000
vt -5.5000 4.5000
vt -5.5000 5.5000
vt -5.5000 6.5000
vt -5.5000 7.5000
vt -5.5000 8.5000
vt -5.5000 9.5000
vt -5.5000 10.5000
vt -5.5000 11.5000
vt -5.5000 12.5000
vt -4.5000 -12.5000
vt -4.5000 -11.5000
vt -4.5000 -10.5000
vt -4.5000 -9.5000
vt -4.5000 -8.5000
vt -4.5000 -7.5000
vt -4.5000 -6.5000
vt -4.5000 -5.5000
vt -4.5000 -4.5000
vt -4.5000 -3.5000
vt -4.5000 -2.5000
vt -4.5000 -1.5000
vt -4.5000 -0.5000
vt -4.5000 0.5000
vt -4.5000 1.5000
vt -4.5000 2.5000
vt -4.5000 3.5000
vt -4.5000 4.5000
vt -4.5000 5.5000
vt -4.5000 6.5000
vt -4.5000 7.5000
vt -4.5000 8.5000
vt -4.5000 9.5000
vt -4.5000 10.5000
vt -4.5000 11.5000
vt -4.5000 12.5000
vt -3.5000 -12.5000
vt -3.5000 -11.5000
vt -3.5000 -10.5000
vt -3.5000 -9.5000
vt -3.5000 -8.5000
vt -3.5000 -7.5000
vt -3.5000 -6.5000
vt -3.5000 -5.5000
vt -3.5000 -4.5000
vt -3.5000 -3.5000
vt -3.5000 -2.5000
vt -3.5000 -1.5000
vt -3.5000 -0.5000
vt -3.5000 0.5000
vt -3.5000 1.5000
vt -3.5000 2.5000
vt -3.5000 3.5000
vt -3.5000 4.5000
vt -3.5000 5.5000
vt -3.5000 6.5000
vt -3.5000 7.5000
vt -3.5000 8.5000
vt -3.5000 9.5000
vt -3.5000 10.5000
vt -3.5000 11.5000
vt -3.5000 12.5000
vt -2.5000 -12.5000
vt -2.5000 -11.5000
vt -2.5000 -10.5000
vt -2.5000 -9.5000
vt -2.5000 -8.5000
vt -2.5000 -7.5000
vt -2.5000 -6.5000
vt -2.5000 -5.5000
vt -2.5000 -4.5000
vt -2.5000 -3.5000
vt -2.5000 -2.5000
vt -2.5000 -1.5000
vt -2.5000 -0.5000
vt -2.5000 0.5000
vt -2.5000 1.5000
vt -2.5000 2.5000
vt -2.5000 3.5000
vt -2.5000 4.5000
vt -2.5000 5.5000
vt -2.5000 6.5000
vt -2.5000 7.5000
vt -2.5000 8.5000
vt -2.5000 9.5000
vt -2.5000 10.5000
vt -2.5000 11.5000
vt -2.5000 12.5000
vt -1.5000 -12.5000
vt -1.5000 -11.5000
vt -1.5000 -10.5000
vt -1.5000 -9.5000
vt -1.5000 -8.5000
vt -1.5000 -7.5000
vt -1.5000 -6.5000
vt -1.5000 -5.5000
vt -1.5000 -4.5000
vt -1.5000 -3.5000
vt -1.5000 -2.5000
vt -1.5000 -1.5000
vt -1.5000 -0.5000
vt -1.5000 0.5000
vt -1.5000 1.5000
vt -1.5000 2.5000
vt -1.5000 3.5000
vt -1.5000 4.5000
vt -1.5000 5.5000
vt -1.5000 6.5000
vt -1.5000 7.5000
vt -1.5000 8.5000
vt -1.5000 9.5000
vt -1.5000 10.5000
vt -1.5000 11.5000
vt -1.5000 12.5000
vt -0.5000 -12.5000
vt -0.5000 -11.5000
vt -0.5000 -10.5000
vt -0.5000 -9.5000
vt -0.5000 -8.5000
vt -0.5000 -7.5000
vt -0.5000 -6.5000
vt -0.5000 -5.5000
vt -0.5000 -4.5000
vt -0.5000 -3.5000
vt -0.5000 -2.5000
vt -0.5000 -1.5000
vt -0.5000 -0.5000
vt -0.5000 0.5000
vt -0.5000 1.5000
vt -0.5000 2.5000
vt -0.5000 3.5000
vt -0.5000 4.5000
vt -0.5000 5.5000
vt -0.5000 6.5000
vt -0.5000 7.5000
vt -0.5000 8.5000
vt -0.5000 9.5000
vt -0.5000 10.5000
vt -0.5000 11.5000
vt -0.5000 12.5000
vt 0.5000 -12.5000
vt 0.5000 -11.5000
vt 0.5000 -10.5000
vt 0.5000 -9.5000
vt 0.5000 -8.5000
vt 0.5000 -7.5000
vt 0.5000 -6.5000
vt 0.5000 -5.5000
vt 0.5000 -4.5000
vt 0.5000 -3.5000
vt 0.5000 -2.5000
vt 0.5000 -1.5000
vt 0.5000 -0.5000
vt 0.5000 0.5000
vt 0.5000 1.5000
vt 0.5000 2.5000
vt 0.5000 3.5000
vt 0.5000 4.5000
vt 0.5000 5.5000
vt 0.5000 6.5000
vt 0.5000 7.5000
vt 0.5000 8.5000
vt 0.5000 9.5000
vt 0.5000 10.5000
vt 0.5000 11.5000
vt 0.5000 12.5000
vt 1.5000 -12.5000
vt 1.5000 -11.5000
vt 1.5000 -10.5000
vt 1.5000 -9.5000
vt 1.5000 -8.5000
vt 1.5000 -7.5000
vt 1.5000 -6.5000
vt 1.5000 -5.5000
vt 1.5000 -4.5000
vt 1.5000 -3.5000
vt 1.5000 -2.5000
vt 1.5000 -1.5000
vt 1.5000 -0.5000
vt 1.5000 0.5000
vt 1.5000 1.5000
vt 1.5000 2.5000
vt 1.5000 3.5000
vt 1.5000 4.5000
vt 1.5000 5.5000
vt 1.5000 6.5000
vt 1.5000 7.5000
vt 1.5000 8.5000
vt 1.5000 9.5000
vt 1.5000 10.5000
vt 1.5000 11.5000
vt 1.5000 12.5000
vt 2.5000 -12.5000
vt 2.5000 -11.5000
vt 2.5000 -10.5000
vt 2.5000 -9.5000
vt 2.5000 -8.5000
vt 2.5000 -7.5000
vt 2.5000 -6.5000
vt 2.5000 -5.5000
vt 2.5000 -4.5000
vt 2.5000 -3.5000
vt 2.5000 -2.5000
vt 2.5000 -1.5000
vt 2.5000 -0.5000
vt 2.5000 0.5000
vt 2.5000 1.5000
vt 2.5000 2.5000
vt 2.5000 3.5000
vt 2.5000 4.5000
vt 2.5000 5.5000
vt 2.5000 6.5000
vt 2.5000 7.5000
vt 2.5000 8.5000
vt 2.5000 9.5000
vt 2.5000 10.5000
vt 2.5000 11.5000
vt 2.5000 12.5000
vt 3.5000 -12.5000
vt 3.5000 -11.5000
vt 3.5000 -10.5000
vt 3.5000 -9.5000
vt 3.5000 -8.5000
vt 3.5000 -7.5000
vt 3.5000 -6.5000
vt 3.5000 -5.5000
vt 3.5000 -4.5000
vt 3.5000 -3.5000
vt 3.5000 -2.5000
vt 3.5000 -1.5000
vt 3.5000 -0.5000
vt 3.5000 0.5000
vt 3.5000 1.5000
vt 3.5000 2.5000
vt 3.5000 3.5000
vt 3.5000 4.5000
vt 3.5000 5.5000
vt 3.5000 6.5000
vt 3.5000 7.5000
vt 3.5000 8.5000
vt 3.5000 9.5000
vt 3.5000 10.5000
vt 3.5000 11.5000
vt 3.5000 12.5000
vt 4.5000 -12.5000
vt 4.5000 -11.5000
vt 4.5000 -10.5000
vt 4.5000 -9.5000
vt 4.5000 -8.5000
vt 4.5000 -7.5000
vt 4.5000 -6.5000
vt 4.5000 -5.5000
vt 4.5000 -4.5000
vt 4.5000 -3.5000
vt 4.5000 -2.5000
vt 4.5000 -1.5000
vt 4.5000 -0.5000
vt 4.5000 0.5000
vt 4.5000 1.5000
vt 4.5000 2.5000
vt 4.5000 3.5000
vt 4.5000 4.5000
vt 4.5000 5.5000
vt 4.5000 6.5000
vt 4.5000 7.5000
vt 4.5000 8.5000
vt 4.5000 9.5000
vt 4.5000 10.5000
vt 4.5000 11.5000
vt 4.5000 12.5000
vt 5.5000 -12.5000
vt 5.5000 -11.5000
vt 5.5000 -10.5000
vt 5.5000 -9.5000
vt 5.5000 -8.5000
vt 5.5000 -7.5000
vt 5.5000 -6.5000
vt 5.5000 -5.5000
vt 5.5000 -4.5000
vt 5.5000 -3.5000
vt 5.5000 -2.5000
vt 5.5000 -1.5000
vt 5.5000 -0.5000
vt 5.5000 0.5000
vt 5.5000 1.5000
vt 5.5000 2.5000
vt 5.5000 3.5000
vt 5.5000 4.5000
vt 5.5000 5.5000
vt 5.5000 6.5000
vt 5.5000 7.5000
vt 5.5000 8.5000
vt 5.5000 9.5000
vt 5.5000 10.5000
vt 5.5000 11.5000
vt 5.5000 12.5000
vt 6.5000 -12.5000
vt 6.5000 -11.5000
vt 6.5000 -10.5000
vt 6.5000 -9.5000
vt 6.5000 -8.5000
vt 6.5000 -7.5000
vt 6.5000 -6.5000
vt 6.5000 -5.5000
vt 6.5000 -4.5000
vt 6.5000 -3.5000
vt 6.5000 -2.5000
vt 6.5000 -1.5000
vt 6.5000 -0.5000
vt 6.5000 0.5000
vt 6.5000 1.5000
vt 6.5000 2.5000
vt 6.5000 3.5000
vt 6.5000 4.5000
vt 6.5000 5.5000
vt 6.5000 6.5000
vt 6.5000 7.5000
vt 6.5000 8.5000
vt 6.5000 9.5000
vt 6.5000 10.5000
vt 6.5000 11.5000
vt 6.5000 12.5000
vt 7.5000 -12.5000
vt 7.5000 -11.5000
vt 7.5000 -10.5000
vt 7.5000 -9.5000
vt 7.5000 -8.5000
vt 7.5000 -7.5000
vt 7.5000 -6.5000
vt 7.5000 -5.5000
vt 7.5000 -4.5000
vt 7.5000 -3.5000
vt 7.5000 -2.5000
vt 7.5000 -1.5000
vt 7.5000 -0.5000
vt 7.5000 0.5000
vt 7.5000 1.5000
vt 7.5000 2.5000
vt 7.5000 3.5000
vt 7.5000 4.5000
vt 7.5000 5.5000
vt 7.5000 6.5000
vt 7.5000 7.5000
vt 7.5000 8.5000
vt 7.5000 9.5000
vt 7.5000 10.5000
vt 7.5000 11.5000
vt 7.5000 12.5000
vt 8.5000 -12.5000
vt 8.5000 -11.5000
vt 8.5000 -10.5000
vt 8.5000 -9.5000
vt 8.5000 -8.5000
vt 8.5000 -7.5000
vt 8.5000 -6.5000
vt 8.5000 -5.5000
vt 8.5000 -4.5000
vt 8.5000 -3.5000
vt 8.5000 -2.5000
vt 8.5000 -1.5000
vt 8.5000 -0.5000
vt 8.5000 0.5000
vt 8.5000 1.5000
vt 8.5000 2.5000
vt 8.5000 3.5000
vt 8.5000 4.5000
vt 8.5000 5.5000
vt 8.5000 6.5000
vt 8.5000 7.5000
vt 8.5000 8.5000
vt 8.5000 9.5000
vt 8.5000 10.5000
vt 8.5000 11.5000
vt 8.5000 12.5000
vt 9.5000 -12.5000
vt 9.5000 -11.5000
vt 9.5000 -10.5000
vt 9.5000 -9.5000
vt 9.5000 -8.5000
vt 9.5000 -7.5000
vt 9.5000 -6.5000
vt 9.5000 -5.5000
vt 9.5000 -4.5000
vt 9.5000 -3.5000
vt 9.5000 -2.5000
vt 9.5000 -1.5000
vt 9.5000 -0.5000
vt 9.5000 0.5000
vt 9.5000 1.5000
vt 9.5000 2.5000
vt 9.5000 3.5000
vt 9.5000 4.5000
vt 9.5000 5.5000
vt 9.5000 6.5000
vt 9.5000 7.5000
vt 9.5000 8.5000
vt 9.5000 9.5000
vt 9.5000 10.5000
vt 9.5000 11.5000
vt 9.5000 12.5000
vt 10.5000 -12.5000
vt 10.5000 -11.5000
vt 10.5000 -10.5000
vt 10.5000 -9.5000
vt 10.5000 -8.5000
vt 10.5000 -7.5000
vt 10.5000 -6.5000
vt 10.5000 -5.5000
vt 10.5000 -4.5000
vt 10.5000 -3.5000
vt 10.5000 -2.5000
vt 10.5000 -1.5000
vt 10.5000 -0.5000
vt 10.5000 0.5000
vt 10.5000 1.5000
vt 10.5000 2.5000
vt 10.5000 3.5000
vt 10.5000 4.5000
vt 10.5000 5.5000
vt 10.5000 6.5000
vt 10.5000 7.5000
vt 10.5000 8.5000
vt 10.5000 9.5000
vt 10.5000 10.5000
vt 10.5000 11.5000
vt 10.5000 12.5000
vt 11.5000 -12.5000
vt 11.5000 -11.5000
vt 11.5000 -10.5000
vt 11.5000 -9.5000
vt 11.5000 -8.5000
vt 11.5000 -7.5000
vt 11.5000 -6.5000
vt 11.5000 -5.5000
vt 11.5000 -4.5000
vt 11.5000 -3.5000
vt 11.5000 -2.5000
vt 11.5000 -1.5000
vt 11.5000 -0.5000
vt 11.5000 0.5000
vt 11.5000 1.5000
vt 11.5000 2.5000
vt 11.5000 3.5000
vt 11.5000 4.5000
vt 11.5000 5.5000
vt 11.5000 6.5000
vt 11.5000 7.5000
vt 11.5000 8.5000
vt 11.5000 9.5000
vt 11.5000 10.5000
vt 11.5000 11.5000
vt 11.5000 12.5000
vt 12.5000 -12.5000
vt 12.5000 -11.5000
vt 12.5000 -10.5000
vt 12.5000 -9.5000
vt 12.5000 -8.5000
vt 12.5000 -7.5000
vt 12.5000 -6.5000
vt 12.5000 -5.5000
vt 12.5000 -4.5000
vt 12.5000 -3.5000
vt 12.5000 -2.5000
vt 12.5000 -1.5000
vt 12.5000 -0.5000
vt 12.5000 0.5000
vt 12.5000 1.5000
vt 12.5000 2.5000
vt 12.5000 3.5000
vt 12.5000 4.5000
vt 12.5000 5.5000
vt 12.5000 6.5000
vt 12.5000 7.5000
vt 12.5000 8.5000
vt 12.5000 9.5000
vt 12.5000 10.5000
vt 12.5000 11.5000
vt 12.5000 12.5000
vn -0.0119 -0.0291 0.9995
vn -0.0728 -0.0435 0.9964
vn -0.0001 -0.0686 0.9976
vn 0.0549 -0.0883 0.9946
vn -0.0192 -0.1064 0.9941
vn -0.0571 -0.1231 0.9908
vn 0.0286 -0.1390 0.9899
vn 0.0606 -0.1534 0.9863
vn -0.0237 -0.1671 0.9856
vn -0.0391 -0.1795 0.9830
vn 0.0516 -0.1911 0.9802
vn 0.0588 -0.2019 0.9776
vn -0.0279 -0.2126 0.9767
vn -0.0185 -0.2227 0.9747
vn 0.0713 -0.2317 0.9702
vn 0.0546 -0.2412 0.9689
vn -0.0274 -0.2504 0.9677
vn 0.0060 -0.2592 0.9658
vn 0.0907 -0.1347 0.9867
vn 0.0486 -0.0000 0.9988
vn -0.0000 -0.0000 1.0000
vn 0.0256 -0.0000 0.9997
vn 0.0947 -0.0000 0.9955
vn 0.0316 -0.0000 0.9995
vn -0.0000 -0.0000 1.0000
vn 0.0428 -0.0000 0.9991
vn -0.0132 -0.0899 0.9959
vn -0.0175 -0.0378 0.9991
vn -0.0080 -0.0046 1.0000
vn 0.0010 -0.0979 0.9952
vn -0.0014 -0.1613 0.9869
vn -0.0005 -0.0996 0.9950
vn 0.0115 -0.0806 0.9967
vn 0.0181 -0.1791 0.9837
vn 0.0141 -0.2150 0.9765
vn 0.0165 -0.1428 0.9896
vn 0.0286 -0.1434 0.9893
vn 0.0325 -0.2398 0.9703
vn 0.0286 -0.2491 0.9681
vn 0.0341 -0.1746 0.9840
vn 0.0466 -0.1970 0.9793
vn 0.0485 -0.2869 0.9567
vn 0.0460 -0.2728 0.9610
vn 0.0547 -0.2036 0.9775
vn 0.0683 -0.1143 0.9911
vn 0.0647 -0.0458 0.9968
vn 0.0579 -0.0115 0.9983
vn 0.0627 0.0474 0.9969
vn 0.0690 0.0030 0.9976
vn 0.0632 -0.0474 0.9969
vn 0.0578 0.0056 0.9983
vn 0.0642 0.0427 0.9970
vn -0.0159 -0.0375 0.9992
vn 0.0477 -0.0383 0.9981
vn -0.0168 -0.0503 0.9986
vn -0.0615 -0.0818 0.9948
vn 0.0219 -0.1078 0.9939
vn 0.0697 -0.1104 0.9914
vn -0.0047 -0.1207 0.9927
vn -0.0268 -0.1509 0.9882
vn 0.0652 -0.1684 0.9836
vn 0.0893 -0.1652 0.9822
vn 0.0093 -0.1753 0.9845
vn 0.0116 -0.2016 0.9794
vn 0.1062 -0.2104 0.9718
vn 0.1074 -0.2047 0.9729
vn 0.0297 -0.2174 0.9756
vn 0.0569 -0.2409 0.9689
vn 0.1475 -0.2430 0.9587
vn 0.1272 -0.2382 0.9629
vn 0.0595 -0.1263 0.9902
vn 0.1021 -0.0108 0.9947
vn 0.1620 -0.0021 0.9868
vn 0.1243 0.0111 0.9922
vn 0.0569 0.0005 0.9984
vn 0.1186 -0.0112 0.9929
vn 0.1624 0.0010 0.9867
vn 0.1078 0.0130 0.9941
vn -0.0182 0.0372 0.9991
vn 0.0037 -0.0387 0.9992
vn -0.0081 -0.1135 0.9935
vn -0.0134 -0.0594 0.9981
vn 0.0173 -0.0313 0.9994
vn 0.0381 -0.1257 0.9913
vn 0.0252 -0.1754 0.9842
vn 0.0269 -0.1103 0.9935
vn 0.0596 -0.1014 0.9931
vn 0.0726 -0.1966 0.9778
vn 0.0579 -0.2183 0.9742
vn 0.0670 -0.1455 0.9871
vn 0.1007 -0.1560 0.9826
vn 0.1069 -0.2468 0.9632
vn 0.0942 -0.2440 0.9652
vn 0.1115 -0.1727 0.9786
vn 0.1440 -0.2038 0.9684
vn 0.1437 -0.2861 0.9474
vn 0.1375 -0.1419 0.9803
vn 0.1499 0.0573 0.9870
vn 0.1701 0.0110 0.9854
vn 0.1559 -0.0588 0.9860
vn 0.1381 -0.0029 0.9904
vn 0.1543 0.0592 0.9862
vn 0.1703 -0.0053 0.9854
vn 0.1513 -0.0685 0.9861
vn -0.0198 0.0062 0.9998
vn -0.0667 -0.0283 0.9974
vn 0.0103 -0.0672 0.9977
vn 0.0713 -0.0565 0.9959
vn 0.0115 -0.0566 0.9983
vn -0.0146 -0.1024 0.9946
vn 0.0747 -0.1314 0.9885
vn 0.1135 -0.1167 0.9867
vn 0.0435 -0.1230 0.9915
vn 0.0372 -0.1662 0.9854
vn 0.1292 -0.1799 0.9752
vn 0.1443 -0.1591 0.9767
vn 0.0716 -0.1704 0.9828
vn 0.0875 -0.2097 0.9738
vn 0.1770 -0.2114 0.9612
vn 0.1699 -0.1909 0.9668
vn 0.1012 -0.2098 0.9725
vn 0.1374 -0.2455 0.9596
vn 0.2200 -0.1233 0.9677
vn 0.1837 0.0211 0.9828
vn 0.1143 0.0041 0.9934
vn 0.1631 -0.0217 0.9864
vn 0.2245 -0.0010 0.9745
vn 0.1685 0.0218 0.9855
vn 0.1135 -0.0020 0.9935
vn 0.1785 -0.0252 0.9836
vn -0.0204 -0.0567 0.9982
vn -0.0244 -0.0085 0.9997
vn 0.0251 0.0241 0.9994
vn 0.0660 -0.0581 0.9961
vn 0.0493 -0.1166 0.9920
vn 0.0478 -0.0626 0.9969
vn 0.0989 -0.0483 0.9939
vn 0.1237 -0.1403 0.9824
vn 0.0972 -0.1758 0.9796
vn 0.1008 -0.1112 0.9887
vn 0.1484 -0.1121 0.9826
vn 0.1564 -0.2002 0.9672
vn 0.1253 -0.2100 0.9696
vn 0.1362 -0.1421 0.9804
vn 0.1785 -0.1620 0.9705
vn 0.1716 -0.2448 0.9543
vn 0.1393 -0.2339 0.9622
vn 0.1555 -0.1737 0.9724
vn 0.1857 -0.0987 0.9776
vn 0.1683 -0.0534 0.9843
vn 0.1360 -0.0103 0.9907
vn 0.1586 0.0549 0.9858
vn 0.1880 0.0027 0.9822
vn 0.1612 -0.0552 0.9854
vn 0.1357 0.0050 0.9907
vn 0.1658 0.0638 0.9841
vn -0.0196 -0.0017 0.9998
vn 0.0767 0.0171 0.9969
vn 0.0466 0.0233 0.9986
vn 0.0292 -0.0321 0.9991
vn 0.1194 -0.0743 0.9901
vn 0.1749 -0.0523 0.9832
vn 0.1238 -0.0544 0.9908
vn 0.1133 -0.1169 0.9867
vn 0.1962 -0.1436 0.9700
vn 0.2200 -0.1133 0.9689
vn 0.1535 -0.1223 0.9805
vn 0.1518 -0.1794 0.9720
vn 0.2253 -0.1875 0.9561
vn 0.2201 -0.1548 0.9631
vn 0.1442 -0.1745 0.9741
vn 0.1526 -0.2276 0.9617
vn 0.2130 -0.2240 0.9510
vn 0.1762 -0.2028 0.9632
vn 0.0817 -0.1151 0.9900
vn 0.1186 -0.0310 0.9925
vn 0.1822 -0.0059 0.9833
vn 0.1378 0.0318 0.9900
vn 0.0795 0.0016 0.9968
vn 0.1328 -0.0320 0.9906
vn 0.1828 0.0029 0.9831
vn 0.1235 0.0371 0.9917
vn -0.0172 0.1350 0.9907
vn 0.0678 0.0576 0.9960
vn 0.0500 -0.0235 0.9985
vn 0.0447 0.0156 0.9989
vn 0.0818 0.0310 0.9962
vn 0.1188 -0.0579 0.9912
vn 0.1333 -0.1100 0.9849
vn 0.1718 -0.0644 0.9830
vn 0.2455 -0.0650 0.9672
vn 0.2660 -0.1506 0.9521
vn 0.2193 -0.1774 0.9594
vn 0.2167 -0.1239 0.9683
vn 0.2596 -0.1379 0.9558
vn 0.2426 -0.2198 0.9449
vn 0.1802 -0.2266 0.9572
vn 0.1745 -0.1750 0.9690
vn 0.1980 -0.2094 0.9576
vn 0.1463 -0.3016 0.9421
vn 0.0474 -0.1621 0.9856
vn 0.0735 0.0484 0.9961
vn 0.1186 0.0092 0.9929
vn 0.0870 -0.0496 0.9950
vn 0.0462 -0.0024 0.9989
vn 0.0835 0.0499 0.9953
vn 0.1191 -0.0045 0.9929
vn 0.0769 -0.0578 0.9954
vn -0.0135 0.1668 0.9859
vn 0.0085 0.0843 0.9964
vn 0.0188 -0.0000 0.9998
vn 0.0320 -0.0000 0.9995
vn 0.0033 -0.0000 1.0000
vn 0.0010 -0.0000 1.0000
vn 0.0615 -0.0000 0.9981
vn 0.1119 -0.0000 0.9937
vn 0.1260 -0.0431 0.9911
vn 0.1753 -0.1386 0.9747
vn 0.2703 -0.1708 0.9475
vn 0.2869 -0.1343 0.9485
vn 0.2136 -0.1573 0.9642
vn 0.1984 -0.2324 0.9522
vn 0.2366 -0.2407 0.9413
vn 0.1976 -0.2090 0.9578
vn 0.1001 -0.2507 0.9629
vn 0.0760 -0.3454 0.9354
vn 0.0643 -0.1937 0.9790
vn 0.0334 0.0400 0.9986
vn -0.0241 0.0077 0.9997
vn 0.0162 -0.0411 0.9990
vn 0.0679 -0.0020 0.9977
vn 0.0206 0.0414 0.9989
vn -0.0247 -0.0037 0.9997
vn 0.0290 -0.0479 0.9984
vn -0.0086 0.1778 0.9840
vn -0.0000 0.0900 0.9959
vn -0.0000 -0.0000 1.0000
vn -0.0000 -0.0000 1.0000
vn -0.0000 -0.0000 1.0000
vn -0.0000 -0.0000 1.0000
vn -0.0000 -0.0000 1.0000
vn -0.0000 -0.0000 1.0000
vn -0.0000 -0.0000 1.0000
vn 0.0434 -0.0000 0.9991
vn 0.1405 -0.0616 0.9882
vn 0.2146 -0.1840 0.9592
vn 0.1475 -0.2294 0.9621
vn 0.1344 -0.1969 0.9712
vn 0.1711 -0.2289 0.9583
vn 0.1258 -0.3092 0.9426
vn 0.0313 -0.3249 0.9452
vn 0.0107 -0.3373 0.9413
vn 0.0001 -0.2077 0.9782
vn -0.0314 -0.0412 0.9987
vn -0.0872 -0.0079 0.9962
vn -0.0481 0.0423 0.9979
vn 0.0024 0.0021 1.0000
vn -0.0438 -0.0426 0.9981
vn -0.0878 0.0038 0.9961
vn -0.0356 0.0493 0.9981
vn -0.0030 0.1836 0.9830
vn -0.0000 0.0930 0.9957
vn -0.0000 -0.0000 1.0000
vn -0.0000 -0.0000 1.0000
vn -0.0000 -0.0000 1.0000
vn -0.0000 -0.0000 1.0000
vn -0.0000 -0.0000 1.0000
vn -0.0000 -0.0000 1.0000
vn -0.0000 -0.0000 1.0000
vn -0.0000 -0.0000 1.0000
vn -0.0000 -0.0000 1.0000
vn 0.0142 -0.1293 0.9915
vn 0.0567 -0.2408 0.9689
vn 0.0391 -0.2136 0.9761
vn -0.0308 -0.2521 0.9672
vn -0.0362 -0.3416 0.9392
vn -0.0059 -0.3572 0.9340
vn -0.0471 -0.3727 0.9267
vn -0.1327 -0.2319 0.9637
vn -0.1103 -0.0472 0.9928
vn -0.0637 -0.0091 0.9979
vn -0.0964 0.0485 0.9942
vn -0.1383 0.0024 0.9904
vn -0.1000 -0.0488 0.9938
vn -0.0632 0.0044 0.9980
vn -0.1067 0.0565 0.9927
vn 0.0030 0.1836 0.9830
vn -0.0000 0.0930 0.9957
vn -0.0000 -0.0000 1.0000
vn -0.0000 -0.0000 1.0000
vn -0.0000 -0.0000 1.0000
vn -0.0000 -0.0000 1.0000
vn -0.0000 -0.0000 1.0000
vn -0.0000 -0.0000 1.0000
vn -0.0000 -0.0000 1.0000
vn -0.0000 -0.0000 1.0000
vn -0.0821 -0.0478 0.9955
vn -0.1768 -0.1300 0.9756
vn -0.1174 -0.2066 0.9714
vn -0.1242 -0.2791 0.9522
vn -0.1947 -0.2967 0.9349
vn -0.1809 -0.2847 0.9414
vn -0.1099 -0.3334 0.9364
vn -0.1247 -0.4364 0.8911
vn -0.1852 -0.2585 0.9481
vn -0.1569 0.0322 0.9871
vn -0.0939 0.0062 0.9956
vn -0.1381 -0.0332 0.9899
vn -0.1942 -0.0016 0.9810
vn -0.1430 0.0334 0.9892
vn -0.0932 -0.0030 0.9956
vn -0.1521 -0.0386 0.9876
vn 0.0086 0.1778 0.9840
vn -0.0169 0.0900 0.9958
vn -0.0000 -0.0000 1.0000
vn -0.0000 -0.0000 1.0000
vn -0.0000 -0.0000 1.0000
vn -0.0000 -0.0000 1.0000
vn -0.0000 -0.0000 1.0000
vn -0.0100 -0.0000 0.9999
vn -0.0850 -0.0000 0.9964
vn -0.1586 -0.0812 0.9840
vn -0.2201 -0.1739 0.9598
vn -0.2642 -0.1605 0.9510
vn -0.2988 -0.1852 0.9362
vn -0.2848 -0.2807 0.9166
vn -0.2398 -0.2978 0.9240
vn -0.2384 -0.2556 0.9369
vn -0.2530 -0.3034 0.9187
vn -0.2062 -0.4235 0.8821
vn -0.1364 -0.2490 0.9589
vn -0.1599 0.0527 0.9857
vn -0.1940 0.0101 0.9809
vn -0.1701 -0.0540 0.9839
vn -0.1394 -0.0026 0.9902
vn -0.1674 0.0544 0.9844
vn -0.1944 -0.0049 0.9809
vn -0.1624 -0.0630 0.9847
vn 0.0136 0.1340 0.9909
vn -0.0663 0.0841 0.9943
vn -0.0211 0.0170 0.9996
vn -0.0000 -0.0000 1.0000
vn -0.0481 -0.0000 0.9988
vn -0.0949 -0.0000 0.9955
vn -0.0961 -0.0100 0.9953
vn -0.1352 -0.0842 0.9872
vn -0.2368 -0.1452 0.9606
vn -0.3136 -0.1354 0.9398
vn -0.2812 -0.1559 0.9469
vn -0.2761 -0.2092 0.9381
vn -0.3427 -0.2241 0.9123
vn -0.3316 -0.2145 0.9187
vn -0.2479 -0.2448 0.9374
vn -0.2439 -0.2942 0.9241
vn -0.2899 -0.3042 0.9074
vn -0.2346 -0.3265 0.9156
vn -0.1120 -0.1960 0.9742
vn -0.1531 -0.0227 0.9880
vn -0.2205 -0.0043 0.9754
vn -0.1735 0.0232 0.9846
vn -0.1113 0.0011 0.9938
vn -0.1682 -0.0234 0.9855
vn -0.2212 0.0021 0.9752
vn -0.1583 0.0271 0.9870
vn 0.0174 0.0200 0.9996
vn -0.0317 0.0554 0.9980
vn -0.0630 0.0664 0.9958
vn -0.0859 -0.0269 0.9959
vn -0.1054 -0.0944 0.9899
vn -0.1406 -0.0479 0.9889
vn -0.1987 -0.0408 0.9792
vn -0.2487 -0.1436 0.9579
vn -0.2376 -0.1875 0.9531
vn -0.2451 -0.1278 0.9610
vn -0.2745 -0.1350 0.9521
vn -0.2729 -0.2311 0.9339
vn -0.2469 -0.2478 0.9368
vn -0.2469 -0.1855 0.9511
vn -0.2597 -0.2122 0.9421
vn -0.2355 -0.3028 0.9235
vn -0.1952 -0.3011 0.9334
vn -0.1812 -0.2613 0.9481
vn -0.1590 -0.1544 0.9751
vn -0.1484 -0.0569 0.9873
vn -0.1266 -0.0110 0.9919
vn -0.1418 0.0585 0.9882
vn -0.1619 0.0028 0.9868
vn -0.1436 -0.0588 0.9879
vn -0.1264 0.0053 0.9920
vn -0.1467 0.0680 0.9868
vn 0.0196 0.0368 0.9991
vn 0.0372 0.0040 0.9993
vn -0.0613 -0.0374 0.9974
vn -0.1348 -0.0428 0.9899
vn -0.0861 -0.0557 0.9947
vn -0.0660 -0.0958 0.9932
vn -0.1621 -0.1247 0.9789
vn -0.2027 -0.1278 0.9709
vn -0.1311 -0.1438 0.9809
vn -0.1210 -0.1788 0.9764
vn -0.2081 -0.1935 0.9588
vn -0.2150 -0.1899 0.9580
vn -0.1308 -0.2064 0.9697
vn -0.1336 -0.2364 0.9624
vn -0.2093 -0.2430 0.9472
vn -0.1840 -0.2400 0.9532
vn -0.0920 -0.2609 0.9610
vn -0.1048 -0.2950 0.9497
vn -0.1341 -0.1569 0.9785
vn -0.1156 0.0124 0.9932
vn -0.0416 0.0024 0.9991
vn -0.0939 -0.0128 0.9955
vn -0.1373 -0.0006 0.9905
vn -0.0996 0.0129 0.9949
vn -0.0408 -0.0012 0.9992
vn -0.1104 -0.0149 0.9938
vn 0.0204 0.0551 0.9983
vn -0.0090 -0.0256 0.9996
vn -0.0166 -0.1062 0.9942
vn -0.0255 -0.0520 0.9983
vn -0.0482 -0.0256 0.9985
vn -0.0642 -0.1262 0.9899
vn -0.0634 -0.1806 0.9815
vn -0.0679 -0.1169 0.9908
vn -0.0835 -0.1107 0.9903
vn -0.0877 -0.2107 0.9736
vn -0.0790 -0.2348 0.9688
vn -0.0802 -0.1625 0.9834
vn -0.0897 -0.1753 0.9804
vn -0.0848 -0.2697 0.9592
vn -0.0714 -0.2685 0.9606
vn -0.0701 -0.1981 0.9777
vn -0.0730 -0.2327 0.9698
vn -0.0596 -0.3016 0.9516
vn -0.0355 -0.1621 0.9861
vn -0.0410 0.0378 0.9984
vn -0.0501 0.0110 0.9987
vn -0.0437 -0.0378 0.9983
vn -0.0356 -0.0030 0.9994
vn -0.0430 0.0382 0.9983
vn -0.0502 -0.0056 0.9987
vn -0.0416 -0.0714 0.9966
vn 0.0198 -0.0219 0.9996
vn -0.0513 -0.0331 0.9981
vn 0.0120 -0.0539 0.9985
vn 0.0570 -0.0745 0.9956
vn -0.0269 -0.0949 0.9951
vn -0.0730 -0.1118 0.9910
vn 0.0063 -0.1300 0.9915
vn 0.0339 -0.1495 0.9882
vn -0.0534 -0.1656 0.9847
vn -0.0703 -0.1770 0.9817
vn 0.0197 -0.1897 0.9816
vn 0.0270 -0.2037 0.9787
vn -0.0589 -0.2143 0.9750
vn -0.0482 -0.2225 0.9737
vn 0.0435 -0.2329 0.9715
vn 0.0293 -0.2449 0.9691
vn -0.0495 -0.2536 0.9661
vn -0.0121 -0.2617 0.9651
vn 0.0579 -0.1372 0.9888
vn 0.0369 -0.0016 0.9993
vn -0.0378 -0.0003 0.9993
vn 0.0143 0.0017 0.9999
vn 0.0600 0.0001 0.9982
vn 0.0203 -0.0017 0.9998
vn -0.0382 0.0002 0.9993
vn 0.0315 0.0020 0.9995
vn 0.0182 -0.0868 0.9961
vn 0.0114 -0.0333 0.9994
vn 0.0135 0.0019 0.9999
vn 0.0144 -0.0907 0.9958
vn 0.0077 -0.1547 0.9879
vn 0.0044 -0.0936 0.9956
vn 0.0104 -0.0759 0.9971
vn 0.0142 -0.1758 0.9843
vn 0.0118 -0.2127 0.9771
vn 0.0150 -0.1407 0.9899
vn 0.0255 -0.1417 0.9896
vn 0.0308 -0.2385 0.9707
vn 0.0310 -0.2478 0.9683
vn 0.0385 -0.1731 0.9841
vn 0.0509 -0.1956 0.9794
vn 0.0558 -0.2857 0.9567
vn 0.0585 -0.2715 0.9606
vn 0.0699 -0.2024 0.9768
vn 0.0860 -0.1138 0.9898
vn 0.0837 -0.0582 0.9948
vn 0.0790 -0.0115 0.9968
vn 0.0822 0.0598 0.9948
vn 0.0867 0.0030 0.9962
vn 0.0826 -0.0598 0.9948
vn 0.0789 0.0056 0.9969
vn 0.0833 0.0675 0.9942
vn 0.0159 -0.0354 0.9992
vn 0.0768 -0.0377 0.9963
vn 0.0073 -0.0509 0.9987
vn -0.0438 -0.0802 0.9958
vn 0.0339 -0.1047 0.9939
vn 0.0768 -0.1091 0.9911
vn -0.0015 -0.1202 0.9927
vn -0.0258 -0.1480 0.9886
vn 0.0658 -0.1648 0.9841
vn 0.0899 -0.1637 0.9824
vn 0.0101 -0.1740 0.9847
vn 0.0133 -0.1979 0.9801
vn 0.1095 -0.2065 0.9723
vn 0.1120 -0.2029 0.9728
vn 0.0355 -0.2152 0.9759
vn 0.0645 -0.2364 0.9695
vn 0.1571 -0.2388 0.9583
vn 0.1387 -0.2358 0.9618
vn 0.0739 -0.1249 0.9894
vn 0.1166 -0.0092 0.9931
vn 0.1883 -0.0017 0.9821
vn 0.1388 0.0094 0.9903
vn 0.0713 0.0005 0.9975
vn 0.1330 -0.0095 0.9911
vn 0.1887 0.0008 0.9820
vn 0.1223 0.0110 0.9924
vn 0.0133 0.0351 0.9993
vn 0.0291 -0.0419 0.9987
vn 0.0133 -0.1183 0.9929
vn 0.0027 -0.0642 0.9979
vn 0.0245 -0.0350 0.9991
vn 0.0384 -0.1285 0.9910
vn 0.0236 -0.1768 0.9840
vn 0.0233 -0.1096 0.9937
vn 0.0524 -0.0994 0.9937
vn 0.0647 -0.1945 0.9788
vn 0.0526 -0.2156 0.9751
vn 0.0624 -0.1416 0.9879
vn 0.0949 -0.1518 0.9838
vn 0.1027 -0.2432 0.9645
vn 0.0936 -0.2400 0.9663
vn 0.1122 -0.1676 0.9795
vn 0.1446 -0.1987 0.9693
vn 0.1474 -0.2811 0.9483
vn 0.1467 -0.1388 0.9794
vn 0.1580 0.0577 0.9858
vn 0.1761 0.0111 0.9843
vn 0.1634 -0.0592 0.9848
vn 0.1474 -0.0029 0.9891
vn 0.1620 0.0596 0.9850
vn 0.1763 -0.0054 0.9843
vn 0.1593 -0.0689 0.9848
vn 0.0106 -0.0037 0.9999
vn -0.0468 -0.0377 0.9982
vn 0.0218 -0.0772 0.9968
vn 0.0737 -0.0691 0.9949
vn 0.0042 -0.0692 0.9976
vn -0.0299 -0.1100 0.9935
vn 0.0545 -0.1349 0.9894
vn 0.0898 -0.1195 0.9888
vn 0.0164 -0.1239 0.9922
vn 0.0090 -0.1632 0.9866
vn 0.1025 -0.1759 0.9791
vn 0.1184 -0.1563 0.9806
vn 0.0459 -0.1666 0.9850
vn 0.0642 -0.2033 0.9770
vn 0.1580 -0.2052 0.9659
vn 0.1537 -0.1859 0.9705
vn 0.0878 -0.2032 0.9752
vn 0.1296 -0.2356 0.9632
vn 0.2207 -0.1175 0.9682
vn 0.1839 0.0195 0.9828
vn 0.1137 0.0038 0.9935
vn 0.1631 -0.0201 0.9864
vn 0.2250 -0.0010 0.9744
vn 0.1685 0.0203 0.9855
vn 0.1130 -0.0018 0.9936
vn 0.1786 -0.0234 0.9836
vn 0.0081 -0.0796 0.9968
vn -0.0164 -0.0307 0.9994
vn 0.0149 0.0017 0.9999
vn 0.0391 -0.0816 0.9959
vn 0.0106 -0.1379 0.9904
vn -0.0018 -0.0786 0.9969
vn 0.0386 -0.0586 0.9975
vn 0.0572 -0.1470 0.9875
vn 0.0290 -0.1787 0.9835
vn 0.0305 -0.1098 0.9935
vn 0.0768 -0.1086 0.9911
vn 0.0876 -0.1968 0.9765
vn 0.0611 -0.2046 0.9769
vn 0.0758 -0.1335 0.9881
vn 0.1232 -0.1526 0.9806
vn 0.1250 -0.2357 0.9637
vn 0.1030 -0.2219 0.9696
vn 0.1298 -0.1553 0.9793
vn 0.1770 -0.0875 0.9803
vn 0.1603 -0.0541 0.9856
vn 0.1297 -0.0104 0.9915
vn 0.1511 0.0556 0.9869
vn 0.1789 0.0027 0.9839
vn 0.1535 -0.0560 0.9866
vn 0.1294 0.0051 0.9916
vn 0.1579 0.0647 0.9853
vn 0.0060 -0.0528 0.9986
vn 0.0505 -0.0309 0.9982
vn 0.0010 -0.0217 0.9998
vn -0.0422 -0.0734 0.9964
vn 0.0280 -0.1097 0.9936
vn 0.0675 -0.0823 0.9943
vn -0.0004 -0.0764 0.9971
vn -0.0211 -0.1290 0.9914
vn 0.0602 -0.1501 0.9868
vn 0.0822 -0.1162 0.9898
vn 0.0116 -0.1198 0.9927
vn 0.0144 -0.1717 0.9850
vn 0.0995 -0.1782 0.9789
vn 0.1022 -0.1428 0.9845
vn 0.0340 -0.1574 0.9870
vn 0.0593 -0.2061 0.9767
vn 0.1418 -0.1992 0.9696
vn 0.1258 -0.1665 0.9780
vn 0.0664 -0.0907 0.9937
vn 0.1038 -0.0297 0.9942
vn 0.1688 -0.0056 0.9856
vn 0.1235 0.0304 0.9919
vn 0.0640 0.0015 0.9980
vn 0.1184 -0.0306 0.9925
vn 0.1695 0.0027 0.9855
vn 0.1088 0.0355 0.9934
vn 0.0042 0.0094 0.9999
vn 0.0336 -0.0357 0.9988
vn 0.0005 -0.0909 0.9959
vn -0.0284 -0.0547 0.9981
vn 0.0174 -0.0290 0.9994
vn 0.0426 -0.1067 0.9934
vn -0.0027 -0.1463 0.9892
vn -0.0170 -0.0871 0.9961
vn 0.0361 -0.0771 0.9964
vn 0.0492 -0.1576 0.9863
vn 0.0021 -0.1752 0.9845
vn 0.0031 -0.1108 0.9938
vn 0.0589 -0.1191 0.9911
vn 0.0586 -0.1980 0.9784
vn 0.0129 -0.1949 0.9807
vn 0.0291 -0.1316 0.9909
vn 0.0831 -0.1584 0.9839
vn 0.0695 -0.2309 0.9705
vn 0.0296 -0.1126 0.9932
vn 0.0544 0.0494 0.9973
vn 0.0980 0.0095 0.9951
vn 0.0675 -0.0506 0.9964
vn 0.0280 -0.0025 0.9996
vn 0.0641 0.0510 0.9966
vn 0.0985 -0.0046 0.9951
vn 0.0577 -0.0590 0.9966
vn 0.0035 0.0059 1.0000
vn -0.0000 -0.0347 0.9994
vn 0.0053 -0.0835 0.9965
vn 0.0149 -0.0566 0.9983
vn 0.0015 -0.0390 0.9992
vn -0.0051 -0.1022 0.9947
vn 0.0106 -0.1353 0.9907
vn 0.0173 -0.0908 0.9957
vn 0.0033 -0.0848 0.9964
vn 0.0019 -0.1498 0.9887
vn 0.0197 -0.1651 0.9861
vn 0.0228 -0.1161 0.9930
vn 0.0090 -0.1244 0.9922
vn 0.0124 -0.1879 0.9821
vn 0.0306 -0.1865 0.9820
vn 0.0299 -0.1383 0.9899
vn 0.0171 -0.1611 0.9868
vn 0.0252 -0.2194 0.9753
vn 0.0431 -0.1077 0.9933
vn 0.0357 0.0388 0.9986
vn 0.0220 0.0074 0.9997
vn 0.0316 -0.0398 0.9987
vn 0.0439 -0.0019 0.9990
vn 0.0326 0.0401 0.9987
vn 0.0219 -0.0036 0.9998
vn 0.0346 -0.0464 0.9983
f 1/1/1 27/27/27 28/28/28
f 1/1/1 28/28/28 2/2/2
f 2/2/2 28/28/28 29/29/29
f 2/2/2 29/29/29 3/3/3
f 3/3/3 29/29/29 30/30/30
f 3/3/3 30/30/30 4/4/4
f 4/4/4 30/30/30 31/31/31
f 4/4/4 31/31/31 5/5/5
f 5/5/5 31/31/31 32/32/32
f 5/5/5 32/32/32 6/6/6
f 6/6/6 32/32/32 33/33/33
f 6/6/6 33/33/33 7/7/7
f 7/7/7 33/33/33 34/34/34
f 7/7/7 34/34/34 8/8/8
f 8/8/8 34/34/34 35/35/35
f 8/8/8 35/35/35 9/9/9
f 9/9/9 35/35/35 36/36/36
f 9/9/9 36/36/36 10/10/10
f 10/10/10 36/36/36 37/37/37
f 10/10/10 37/37/37 11/11/11
f 11/11/11 37/37/37 38/38/38
f 11/11/11 38/38/38 12/12/12
f 12/12/12 38/38/38 39/39/39
f 12/12/12 39/39/39 13/13/13
f 13/13/13 39/39/39 40/40/40
f 13/13/13 40/40/40 14/14/14
f 14/14/14 40/40/40 41/41/41
f 14/14/14 41/41/41 15/15/15
f 15/15/15 41/41/41 42/42/42
f 15/15/15 42/42/42 16/16/16
f 16/16/16 42/42/42 43/43/43
f 16/16/16 43/43/43 17/17/17
f 17/17/17 43/43/43 44/44/44
f 17/17/17 44/44/44 18/18/18
f 18/18/18 44/44/44 45/45/45
f 18/18/18 45/45/45 19/19/19
f 19/19/19 45/45/45 46/46/46
f 19/19/19 46/46/46 20/20/20
f 20/20/20 46/46/46 47/47/47
f 20/20/20 47/47/47 21/21/21
f 21/21/21 47/47/47 48/48/48
f 21/21/21 48/48/48 22/22/22
f 22/22/22 48/48/48 49/49/49
f 22/22/22 49/49/49 23/23/23
f 23/23/23 49/49/49 50/50/50
f 23/23/23 50/50/50 24/24/24
f 24/24/24 50/50/50 51/51/51
f 24/24/24 51/51/51 25/25/25
f 25/25/25 51/51/51 52/52/52
f 25/25/25 52/52/52 26/26/26
f 27/27/27 53/53/53 54/54/54
f 27/27/27 54/54/54 28/28/28
f 28/28/28 54/54/54 55/55/55
f 28/28/28 55/55/55 29/29/29
f 29/29/29 55/55/55 56/56/56
f 29/29/29 56/56/56 30/30/30
f 30/30/30 56/56/56 57/57/57
f 30/30/30 57/57/57 31/31/31
f 31/31/31 57/57/57 58/58/58
f 31/31/31 58/58/58 32/32/32
f 32/32/32 58/58/58 59/59/59
f 32/32/32 59/59/59 33/33/33
f 33/33/33 59/59/59 60/60/60
f 33/33/33 60/60/60 34/34/34
f 34/34/34 60/60/60 61/61/61
f 34/34/34 61/61/61 35/35/35
f 35/35/35 61/61/61 62/62/62
f 35/35/35 62/62/62 36/36/36
f 36/36/36 62/62/62 63/63/63
f 36/36/36 63/63/63 37/37/37
f 37/37/37 63/63/63 64/64/64
f 37/37/37 64/64/64 38/38/38
f 38/38/38 64/64/64 65/65/65
f 38/38/38 65/65/65 39/39/39
f 39/39/39 65/65/65 66/66/66
f 39/39/39 66/66/66 40/40/40
f 40/40/40 66/66/66 67/67/67
f 40/40/40 67/67/67 41/41/41
f 41/41/41 67/67/67 68/68/68
f 41/41/41 68/68/68 42/42/42
f 42/42/42 68/68/68 69/69/69
f 42/42/42 69/69/69 43/43/43
f 43/43/43 69/69/69 70/70/70
f 43/43/43 70/70/70 44/44/44
f 44/44/44 70/70/70 71/71/71
f 44/44/44 71/71/71 45/45/45
f 45/45/45 71/71/71 72/72/72
f 45/45/45 72/72/72 46/46/46
f 46/46/46 72/72/72 73/73/73
f 46/46/46 73/73/73 47/47/47
f 47/47/47 73/73/73 74/74/74
f 47/47/47 74/74/74 48/48/48
f 48/48/48 74/74/74 75/75/75
f 48/48/48 75/75/75 49/49/49
f 49/49/49 75/75/75 76/76/76
f 49/49/49 76/76/76 50/50/50
f 50/50/50 76/76/76 77/77/77
f 50/50/50 77/77/77 51/51/51
f 51/51/51 77/77/77 78/78/78
f 51/51/51 78/78/78 52/52/52
f 53/53/53 79/79/79 80/80/80
f 53/53/53 80/80/80 54/54/54
f 54/54/54 80/80/80 81/81/81
f 54/54/54 81/81/81 55/55/55
f 55/55/55 81/81/81 82/82/82
f 55/55/55 82/82/82 56/56/56
f 56/56/56 82/82/82 83/83/83
f 56/56/56 83/83/83 57/57/57
f 57/57/57 83/83/83 84/84/84
f 57/57/57 84/84/84 58/58/58
f 58/58/58 84/84/84 85/85/85
f 58/58/58 85/85/85 59/59/59
f 59/59/59 85/85/85 86/86/86
f 59/59/59 86/86/86 60/60/60
f 60/60/60 86/86/86 87/87/87
f 60/60/60 87/87/87 61/61/61
f 61/61/61 87/87/87 88/88/88
f 61/61/61 88/88/88 62/62/62
f 62/62/62 88/88/88 89/89/89
f 62/62/62 89/89/89 63/63/63
f 63/63/63 89/89/89 90/90/90
f 63/63/63 90/90/90 64/64/64
f 64/64/64 90/90/90 91/91/91
f 64/64/64 91/91/91 65/65/65
f 65/65/65 91/91/91 92/92/92
f 65/65/65 92/92/92 66/66/66
f 66/66/66 92/92/92 93/93/93
f 66/66/66 93/93/93 67/67/67
f 67/67/67 93/93/93 94/94/94
f 67/67/67 94/94/94 68/68/68
f 68/68/68 94/94/94 95/95/95
f 68/68/68 95/95/95 69/69/69
f 69/69/69 95/95/95 96/96/96
f 69/69/69 96/96/96 70/70/70
f 70/70/70 96/96/96 97/97/97
f 70/70/70 97/97/97 71/71/71
f 71/71/71 97/97/97 98/98/98
f 71/71/71 98/98/98 72/72/72
f 72/72/72 98/98/98 99/99/99
f 72/72/72 99/99/99 73/73/73
f 73/73/73 99/99/99 100/100/100
f 73/73/73 100/100/100 74/74/74
f 74/74/74 100/100/100 101/101/101
f 74/74/74 101/101/101 75/75/75
f 75/75/75 101/101/101 102/102/102
f 75/75/75 102/102/102 76/76/76
f 76/76/76 102/102/102 103/103/103
f 76/76/76 103/103/103 77/77/77
f 77/77/77 103/103/103 104/104/104
f 77/77/77 104/104/104 78/78/78
f 79/79/79 105/105/105 106/106/106
f 79/79/79 106/106/106 80/80/80
f 80/80/80 106/106/106 107/107/107
f 80/80/80 107/107/107 81/81/81
f 81/81/81 107/107/107 108/108/108
f 81/81/81 108/108/108 82/82/82
f 82/82/82 108/108/108 109/109/109
f 82/82/82 109/109/109 83/83/83
f 83/83/83 109/109/109 110/110/110
f 83/83/83 110/110/110 84/84/84
f 84/84/84 110/110/110 111/111/111
f 84/84/84 111/111/111 85/85/85
f 85/85/85 111/111/111 112/112/112
f 85/85/85 112/112/112 86/86/86
f 86/86/86 112/112/112 113/113/113
f 86/86/86 113/113/113 87/87/87
f 87/87/87 113/113/113 114/114/114
f 87/87/87 114/114/114 88/88/88
f 88/88/88 114/114/114 115/115/115
f 88/88/88 115/115/115 89/89/89
f 89/89/89 115/115/115 116/116/116
f 89/89/89 116/116/116 90/90/90
f 90/90/90 116/116/116 117/117/117
f 90/90/90 117/117/117 91/91/91
f 91/91/91 117/117/117 118/118/118
f 91/91/91 118/118/118 92/92/92
f 92/92/92 118/118/118 119/119/119
f 92/92/92 119/119/119 93/93/93
f 93/93/93 119/119/119 120/120/120
f 93/93/93 120/120/120 94/94/94
f 94/94/94 120/120/120 121/121/121
f 94/94/94 121/121/121 95/95/95
f 95/95/95 121/121/121 122/122/122
f 95/95/95 122/122/122 96/96/96
f 96/96/96 122/122/122 123/123/123
f 96/96/96 123/123/123 97/97/97
f 97/97/97 123/123/123 124/124/124
f 97/97/97 124/124/124 98/98/98
f 98/98/98 124/124/124 125/125/125
f 98/98/98 125/125/125 99/99/99
f 99/99/99 125/125/125 126/126/126
f 99/99/99 126/126/126 100/100/100
f 100/100/100 126/126/126 127/127/127
f 100/100/100 127/127/127 101/101/101
f 101/101/101 127/127/127 128/128/128
f 101/101/101 128/128/128 102/102/102
f 102/102/102 128/128/128 129/129/129
f 102/102/102 129/129/129 103/103/103
f 103/103/103 129/129/129 130/130/130
f 103/103/103 130/130/130 104/104/104
f 105/105/105 131/131/131 132/132/132
f 105/105/105 132/132/132 106/106/106
f 106/106/106 132/132/132 133/133/133
f 106/106/106 133/133/133 107/107/107
f 107/107/107 133/133/133 134/134/134
f 107/107/107 134/134/134 108/108/108
f 108/108/108 134/134/134 135/135/135
f 108/108/108 135/135/135 109/109/109
f 109/109/109 135/135/135 136/136/136
f 109/109/109 136/136/136 110/110/110
f 110/110/110 136/136/136 137/137/137
f 110/110/110 137/137/137 111/111/111
f 111/111/111 137/137/137 138/138/138
f 111/111/111 138/138/138 112/112/112
f 112/112/112 138/138/138 139/139/139
f 112/112/112 139/139/139 113/113/113
f 113/113/113 139/139/139 140/140/140
f 113/113/113 140/140/140 114/114/114
f 114/114/114 140/140/140 141/141/141
f 114/114/114 141/141/141 115/115/115
f 115/115/115 141/141/141 142/142/142
f 115/115/115 142/142/142 116/116/116
f 116/116/116 142/142/142 143/143/143
f 116/116/116 143/143/143 117/117/117
f 117/117/117 143/143/143 144/144/144
f 117/117/117 144/144/144 118/118/118
f 118/118/118 144/144/144 145/145/145
f 118/118/118 145/145/145 119/119/119
f 119/119/119 145/145/145 146/146/146
f 119/119/119 146/146/146 120/120/120
f 120/120/120 146/146/146 147/147/147
f 120/120/120 147/147/147 121/121/121
f 121/121/121 147/147/147 148/148/148
f 121/121/121 148/148/148 122/122/122
f 122/122/122 148/148/148 149/149/149
f 122/122/122 149/149/149 123/123/123
f 123/123/123 149/149/149 150/150/150
f 123/123/123 150/150/150 124/124/124
f 124/124/124 150/150/150 151/151/151
f 124/124/124 151/151/151 125/125/125
f 125/125/125 151/151/151 152/152/152
f 125/125/125 152/152/152 126/126/126
f 126/126/126 152/152/152 153/153/153
f 126/126/126 153/153/153 127/127/127
f 127/127/127 153/153/153 154/154/154
f 127/127/127 154/154/154 128/128/128
f 128/128/128 154/154/154 155/155/155
f 128/128/128 155/155/155 129/129/129
f 129/129/129 155/155/155 156/156/156
f 129/129/129 156/156/156 130/130/130
f 131/131/131 157/157/157 158/158/158
f 131/131/131 158/158/158 132/132/132
f 132/132/132 158/158/158 159/159/159
f 132/132/132 159/159/159 133/133/133
f 133/133/133 159/159/159 160/160/160
f 133/133/133 160/160/160 134/134/134
f 134/134/134 160/160/160 161/161/161
f 134/134/134 161/161/161 135/135/135
f 135/135/135 161/161/161 162/162/162
f 135/135/135 162/162/162 136/136/136
f 136/136/136 162/162/162 163/163/163
f 136/136/136 163/163/163 137/137/137
f 137/137/137 163/163/163 164/164/164
f 137/137/137 164/164/164 138/138/138
f 138/138/138 164/164/164 165/165/165
f 138/138/138 165/165/165 139/139/139
f 139/139/139 165/165/165 166/166/166
f 139/139/139 166/166/166 140/140/140
f 140/140/140 166/166/166 167/167/167
f 140/140/140 167/167/167 141/141/141
f 141/141/141 167/167/167 168/168/168
f 141/141/141 168/168/168 142/142/142
f 142/142/142 168/168/168 169/169/169
f 142/142/142 169/169/169 143/143/143
f 143/143/143 169/169/169 170/170/170
f 143/143/143 170/170/170 144/144/144
f 144/144/144 170/170/170 171/171/171
f 144/144/144 171/171/171 145/145/145
f 145/145/145 171/171/171 172/172/172
f 145/145/145 172/172/172 146/146/146
f 146/146/146 172/172/172 173/173/173
f 146/146/146 173/173/173 147/147/147
f 147/147/147 173/173/173 174/174/174
f 147/147/147 174/174/174 148/148/148
f 148/148/148 174/174/174 175/175/175
f 148/148/148 175/175/175 149/149/149
f 149/149/149 175/175/175 176/176/176
f 149/149/149 176/176/176 150/150/150
f 150/150/150 176/176/176 177/177/177
f 150/150/150 177/177/177 151/151/151
f 151/151/151 177/177/177 178/178/178
f 151/151/151 178/178/178 152/152/152
f 152/152/152 178/178/178 179/179/179
f 152/152/152 179/179/179 153/153/153
f 153/153/153 179/179/179 180/180/180
f 153/153/153 180/180/180 154/154/154
f 154/154/154 180/180/180 181/181/181
f 154/154/154 181/181/181 155/155/155
f 155/155/155 181/181/181 182/182/182
f 155/155/155 182/182/182 156/156/156
f 157/157/157 183/183/183 184/184/184
f 157/157/157 184/184/184 158/158/158
f 158/158/158 184/184/184 185/185/185
f 158/158/158 185/185/185 159/159/159
f 159/159/159 185/185/185 186/186/186
f 159/159/159 186/186/186 160/160/160
f 160/160/160 186/186/186 187/187/187
f 160/160/160 187/187/187 161/161/161
f 161/161/161 187/187/187 188/188/188
f 161/161/161 188/188/188 162/162/162
f 162/162/162 188/188/188 189/189/189
f 162/162/162 189/189/189 163/163/163
f 163/163/163 189/189/189 190/190/190
f 163/163/163 190/190/190 164/164/164
f 164/164/164 190/190/190 191/191/191
f 164/164/164 191/191/191 165/165/165
f 165/165/165 191/191/191 192/192/192
f 165/165/165 192/192/192 166/166/166
f 166/166/166 192/192/192 193/193/193
f 166/166/166 193/193/193 167/167/167
f 167/167/167 193/193/193 194/194/194
f 167/167/167 194/194/194 168/168/168
f 168/168/168 194/194/194 195/195/195
f 168/168/168 195/195/195 169/169/169
f 169/169/169 195/195/195 196/196/196
f 169/169/169 196/196/196 170/170/170
f 170/170/170 196/196/196 197/197/197
f 170/170/170 197/197/197 171/171/171
f 171/171/171 197/197/197 198/198/198
f 171/171/171 198/198/198 172/172/172
f 172/172/172 198/198/198 199/199/199
f 172/172/172 199/199/199 173/173/173
f 173/173/173 199/199/199 200/200/200
f 173/173/173 200/200/200 174/174/174
f 174/174/174 200/200/200 201/201/201
f 174/174/174 201/201/201 175/175/175
f 175/175/175 201/201/201 202/202/202
f 175/175/175 202/202/202 176/176/176
f 176/176/176 202/202/202 203/203/203
f 176/176/176 203/203/203 177/177/177
f 177/177/177 203/203/203 204/204/204
f 177/177/177 204/204/204 178/178/178
f 178/178/178 204/204/204 205/205/205
f 178/178/178 205/205/205 179/179/179
f 179/179/179 205/205/205 206/206/206
f 179/179/179 206/206/206 180/180/180
f 180/180/180 206/206/206 207/207/207
f 180/180/180 207/207/207 181/181/181
f 181/181/181 207/207/207 208/208/208
f 181/181/181 208/208/208 182/182/182
f 183/183/183 209/209/209 210/210/210
f 183/183/183 210/210/210 184/184/184
f 184/184/184 210/210/210 211/211/211
f 184/184/184 211/211/211 185/185/185
f 185/185/185 211/211/211 212/212/212
f 185/185/185 212/212/212 186/186/186
f 186/186/186 212/212/212 213/213/213
f 186/186/186 213/213/213 187/187/187
f 187/187/187 213/213/213 214/214/214
f 187/187/187 214/214/214 188/188/188
f 188/188/188 214/214/214 215/215/215
f 188/188/188 215/215/215 189/189/189
f 189/189/189 215/215/215 216/216/216
f 189/189/189 216/216/216 190/190/190
f 190/190/190 216/216/216 217/217/217
f 190/190/190 217/217/217 191/191/191
f 191/191/191 217/217/217 218/218/218
f 191/191/191 218/218/218 192/192/192
f 192/192/192 218/218/218 219/219/219
f 192/192/192 219/219/219 193/193/193
f 193/193/193 219/219/219 220/220/220
f 193/193/193 220/220/220 194/194/194
f 194/194/194 220/220/220 221/221/221
f 194/194/194 221/221/221 195/195/195
f 195/195/195 221/221/221 222/222/222
f 195/195/195 222/222/222 196/196/196
f 196/196/196 222/222/222 223/223/223
f 196/196/196 223/223/223 197/197/197
f 197/197/197 223/223/223 224/224/224
f 197/197/197 224/224/224 198/198/198
f 198/198/198 224/224/224 225/225/225
f 198/198/198 225/225/225 199/199/199
f 199/199/199 225/225/225 226/226/226
f 199/199/199 226/226/226 200/200/200
f 200/200/200 226/226/226 227/227/227
f 200/200/200 227/227/227 201/201/201
f 201/201/201 227/227/227 228/228/228
f 201/201/201 228/228/228 202/202/202
f 202/202/202 228/228/228 229/229/229
f 202/202/202 229/229/229 203/203/203
f 203/203/203 229/229/229 230/230/230
f 203/203/203 230/230/230 204/204/204
f 204/204/204 230/230/230 231/231/231
f 204/204/204 231/231/231 205/205/205
f 205/205/205 231/231/231 232/232/232
f 205/205/205 232/232/232 206/206/206
f 206/206/206 232/232/232 233/233/233
f 206/206/206 233/233/233 207/207/207
f 207/207/207 233/233/233 234/234/234
f 207/207/207 234/234/234 208/208/208
f 209/209/209 235/235/235 236/236/236
f 209/209/209 236/236/236 210/210/210
f 210/210/210 236/236/236 237/237/237
f 210/210/210 237/237/237 211/211/211
f 211/211/211 237/237/237 238/238/238
f 211/211/211 238/238/238 212/212/212
f 212/212/212 238/238/238 239/239/239
f 212/212/212 239/239/239 213/213/213
f 213/213/213 239/239/239 240/240/240
f 213/213/213 240/240/240 214/214/214
f 214/214/214 240/240/240 241/241/241
f 214/214/214 241/241/241 215/215/215
f 215/215/215 241/241/241 242/242/242
f 215/215/215 242/242/242 216/216/216
f 216/216/216 242/242/242 243/243/243
f 216/216/216 243/243/243 217/217/217
f 217/217/217 243/243/243 244/244/244
f 217/217/217 244/244/244 218/218/218
f 218/218/218 244/244/244 245/245/245
f 218/218/218 245/245/245 219/219/219
f 219/219/219 245/245/245 246/246/246
f 219/219/219 246/246/246 220/220/220
f 220/220/220 246/246/246 247/247/247
f 220/220/220 247/247/247 221/221/221
f 221/221/221 247/247/247 248/248/248
f 221/221/221 248/248/248 222/222/222
f 222/222/222 248/248/248 249/249/249
f 222/222/222 249/249/249 223/223/223
f 223/223/223 249/249/249 250/250/250
f 223/223/223 250/250/250 224/224/224
f 224/224/224 250/250/250 251/251/251
f 224/224/224 251/251/251 225/225/225
f 225/225/225 251/251/251 252/252/252
f 225/225/225 252/252/252 226/226/226
f 226/226/226 252/252/252 253/253/253
f 226/226/226 253/253/253 227/227/227
f 227/227/227 253/253/253 254/254/254
f 227/227/227 254/254/254 228/228/228
f 228/228/228 254/254/254 255/255/255
f 228/228/228 255/255/255 229/229/229
f 229/229/229 255/255/255 256/256/256
f 229/229/229 256/256/256 230/230/230
f 230/230/230 256/256/256 257/257/257
f 230/230/230 257/257/257 231/231/231
f 231/231/231 257/257/257 258/258/258
f 231/231/231 258/258/258 232/232/232
f 232/232/232 258/258/258 259/259/259
f 232/232/232 259/259/259 233/233/233
f 233/233/233 259/259/259 260/260/260
f 233/233/233 260/260/260 234/234/234
f 235/235/235 261/261/261 262/262/262
f 235/235/235 262/262/262 236/236/236
f 236/236/236 262/262/262 263/263/263
f 236/236/236 263/263/263 237/237/237
f 237/237/237 263/263/263 264/264/264
f 237/237/237 264/264/264 238/238/238
f 238/238/238 264/264/264 265/265/265
f 238/238/238 265/265/265 239/239/239
f 239/239/239 265/265/265 266/266/266
f 239/239/239 266/266/266 240/240/240
f 240/240/240 266/266/266 267/267/267
f 240/240/240 267/267/267 241/241/241
f 241/241/241 267/267/267 268/268/268
f 241/241/241 268/268/268 242/242/242
f 242/242/242 268/268/268 269/269/269
f 242/242/242 269/269/269 243/243/243
f 243/243/243 269/269/269 270/270/270
f 243/243/243 270/270/270 244/244/244
f 244/244/244 270/270/270 271/271/271
f 244/244/244 271/271/271 245/245/245
f 245/245/245 271/271/271 272/272/272
f 245/245/245 272/272/272 246/246/246
f 246/246/246 272/272/272 273/273/273
f 246/246/246 273/273/273 247/247/247
f 247/247/247 273/273/273 274/274/274
f 247/247/247 274/274/274 248/248/248
f 248/248/248 274/274/274 275/275/275
f 248/248/248 275/275/275 249/249/249
f 249/249/249 275/275/275 276/276/276
f 249/249/249 276/276/276 250/250/250
f 250/250/250 276/276/276 277/277/277
f 250/250/250 277/277/277 251/251/251
f 251/251/251 277/277/277 278/278/278
f 251/251/251 278/278/278 252/252/252
f 252/252/252 278/278/278 279/279/279
f 252/252/252 279/279/279 253/253/253
f 253/253/253 279/279/279 280/280/280
f 253/253/253 280/280/280 254/254/254
f 254/254/254 280/280/280 281/281/281
f 254/254/254 281/281/281 255/255/255
f 255/255/255 281/281/281 282/282/282
f 255/255/255 282/282/282 256/256/256
f 256/256/256 282/282/282 283/283/283
f 256/256/256 283/283/283 257/257/257
f 257/257/257 283/283/283 284/284/284
f 257/257/257 284/284/284 258/258/258
f 258/258/258 284/284/284 285/285/285
f 258/258/258 285/285/285 259/259/259
f 259/259/259 285/285/285 286/286/286
f 259/259/259 286/286/286 260/260/260
f 261/261/261 287/287/287 288/288/288
f 261/261/261 288/288/288 262/262/262
f 262/262/262 288/288/288 289/289/289
f 262/262/262 289/289/289 263/263/263
f 263/263/263 289/289/289 290/290/290
f 263/263/263 290/290/290 264/264/264
f 264/264/264 290/290/290 291/291/291
f 264/264/264 291/291/291 265/265/265
f 265/265/265 291/291/291 292/292/292
f 265/265/265 292/292/292 266/266/266
f 266/266/266 292/292/292 293/293/293
f 266/266/266 293/293/293 267/267/267
f 267/267/267 293/293/293 294/294/294
f 267/267/267 294/294/294 268/268/268
f 268/268/268 294/294/294 295/295/295
f 268/268/268 295/295/295 269/269/269
f 269/269/269 295/295/295 296/296/296
f 269/269/269 296/296/296 270/270/270
f 270/270/270 296/296/296 297/297/297
f 270/270/270 297/297/297 271/271/271
f 271/271/271 297/297/297 298/298/298
f 271/271/271 298/298/298 272/272/272
f 272/272/272 298/298/298 299/299/299
f 272/272/272 299/299/299 273/273/273
f 273/273/273 299/299/299 300/300/300
f 273/273/273 300/300/300 274/274/274
f 274/274/274 300/300/300 301/301/301
f 274/274/274 301/301/301 275/275/275
f 275/275/275 301/301/301 302/302/302
f 275/275/275 302/302/302 276/276/276
f 276/276/276 302/302/302 303/303/303
f 276/276/276 303/303/303 277/277/277
f 277/277/277 303/303/303 304/304/304
f 277/277/277 304/304/304 278/278/278
f 278/278/278 304/304/304 305/305/305
f 278/278/278 305/305/305 279/279/279
f 279/279/279 305/305/305 306/306/306
f 279/279/279 306/306/306 280/280/280
f 280/280/280 306/306/306 307/307/307
f 280/280/280 307/307/307 281/281/281
f 281/281/281 307/307/307 308/308/308
f 281/281/281 308/308/308 282/282/282
f 282/282/282 308/308/308 309/309/309
f 282/282/282 309/309/309 283/283/283
f 283/283/283 309/309/309 310/310/310
f 283/283/283 310/310/310 284/284/284
f 284/284/284 310/310/310 311/311/311
f 284/284/284 311/311/311 285/285/285
f 285/285/285 311/311/311 312/312/312
f 285/285/285 312/312/312 286/286/286
f 287/287/287 313/313/313 314/314/314
f 287/287/287 314/314/314 288/288/288
f 288/288/288 314/314/314 315/315/315
f 288/288/288 315/315/315 289/289/289
f 289/289/289 315/315/315 316/316/316
f 289/289/289 316/316/316 290/290/290
f 290/290/290 316/316/316 317/317/317
f 290/290/290 317/317/317 291/291/291
f 291/291/291 317/317/317 318/318/318
f 291/291/291 318/318/318 292/292/292
f 292/292/292 318/318/318 319/319/319
f 292/292/292 319/319/319 293/293/293
f 293/293/293 319/319/319 320/320/320
f 293/293/293 320/320/320 294/294/294
f 294/294/294 320/320/320 321/321/321
f 294/294/294 321/321/321 295/295/295
f 295/295/295 321/321/321 322/322/322
f 295/295/295 322/322/322 296/296/296
f 296/296/296 322/322/322 323/323/323
f 296/296/296 323/323/323 297/297/297
f 297/297/297 323/323/323 324/324/324
f 297/297/297 324/324/324 298/298/298
f 298/298/298 324/324/324 325/325/325
f 298/298/298 325/325/325 299/299/299
f 299/299/299 325/325/325 326/326/326
f 299/299/299 326/326/326 300/300/300
f 300/300/300 326/326/326 327/327/327
f 300/300/300 327/327/327 301/301/301
f 301/301/301 327/327/327 328/328/328
f 301/301/301 328/328/328 302/302/302
f 302/302/302 328/328/328 329/329/329
f 302/302/302 329/329/329 303/303/303
f 303/303/303 329/329/329 330/330/330
f 303/303/303 330/330/330 304/304/304
f 304/304/304 330/330/330 331/331/331
f 304/304/304 331/331/331 305/305/305
f 305/305/305 331/331/331 332/332/332
f 305/305/305 332/332/332 306/306/306
f 306/306/306 332/332/332 333/333/333
f 306/306/306 333/333/333 307/307/307
f 307/307/307 333/333/333 334/334/334
f 307/307/307 334/334/334 308/308/308
f 308/308/308 334/334/334 335/335/335
f 308/308/308 335/335/335 309/309/309
f 309/309/309 335/335/335 336/336/336
f 309/309/309 336/336/336 310/310/310
f 310/310/310 336/336/336 337/337/337
f 310/310/310 337/337/337 311/311/311
f 311/311/311 337/337/337 338/338/338
f 311/311/311 338/338/338 312/312/312
f 313/313/313 339/339/339 340/340/340
f 313/313/313 340/340/340 314/314/314
f 314/314/314 340/340/340 341/341/341
f 314/314/314 341/341/341 315/315/315
f 315/315/315 341/341/341 342/342/342
f 315/315/315 342/342/342 316/316/316
f 316/316/316 342/342/342 343/343/343
f 316/316/316 343/343/343 317/317/317
f 317/317/317 343/343/343 344/344/344
f 317/317/317 344/344/344 318/318/318
f 318/318/318 344/344/344 345/345/345
f 318/318/318 345/345/345 319/319/319
f 319/319/319 345/345/345 346/346/346
f 319/319/319 346/346/346 320/320/320
f 320/320/320 346/346/346 347/347/347
f 320/320/320 347/347/347 321/321/321
f 321/321/321 347/347/347 348/348/348
f 321/321/321 348/348/348 322/322/322
f 322/322/322 348/348/348 349/349/349
f 322/322/322 349/349/349 323/323/323
f 323/323/323 349/349/349 350/350/350
f 323/323/323 350/350/350 324/324/324
f 324/324/324 350/350/350 351/351/351
f 324/324/324 351/351/351 325/325/325
f 325/325/325 351/351/351 352/352/352
f 325/325/325 352/352/352 326/326/326
f 326/326/326 352/352/352 353/353/353
f 326/326/326 353/353/353 327/327/327
f 327/327/327 353/353/353 354/354/354
f 327/327/327 354/354/354 328/328/328
f 328/328/328 354/354/354 355/355/355
f 328/328/328 355/355/355 329/329/329
f 329/329/329 355/355/355 356/356/356
f 329/329/329 356/356/356 330/330/330
f 330/330/330 356/356/356 357/357/357
f 330/330/330 357/357/357 331/331/331
f 331/331/331 357/357/357 358/358/358
f 331/331/331 358/358/358 332/332/332
f 332/332/332 358/358/358 359/359/359
f 332/332/332 359/359/359 333/333/333
f 333/333/333 359/359/359 360/360/360
f 333/333/333 360/360/360 334/334/334
f 334/334/334 360/360/360 361/361/361
f 334/334/334 361/361/361 335/335/335
f 335/335/335 361/361/361 362/362/362
f 335/335/335 362/362/362 336/336/336
f 336/336/336 362/362/362 363/363/363
f 336/336/336 363/363/363 337/337/337
f 337/337/337 363/363/363 364/364/364
f 337/337/337 364/364/364 338/338/338
f 339/339/339 365/365/365 366/366/366
f 339/339/339 366/366/366 340/340/340
f 340/340/340 366/366/366 367/367/367
f 340/340/340 367/367/367 341/341/341
f 341/341/341 367/367/367 368/368/368
f 341/341/341 368/368/368 342/342/342
f 342/342/342 368/368/368 369/369/369
f 342/342/342 369/369/369 343/343/343
f 343/343/343 369/369/369 370/370/370
f 343/343/343 370/370/370 344/344/344
f 344/344/344 370/370/370 371/371/371
f 344/344/344 371/371/371 345/345/345
f 345/345/345 371/371/371 372/372/372
f 345/345/345 372/372/372 346/346/346
f 346/346/346 372/372/372 373/373/373
f 346/346/346 373/373/373 347/347/347
f 347/347/347 373/373/373 374/374/374
f 347/347/347 374/374/374 348/348/348
f 348/348/348 374/374/374 375/375/375
f 348/348/348 375/375/375 349/349/349
f 349/349/349 375/375/375 376/376/376
f 349/349/349 376/376/376 350/350/350
f 350/350/350 376/376/376 377/377/377
f 350/350/350 377/377/377 351/351/351
f 351/351/351 377/377/377 378/378/378
f 351/351/351 378/378/378 352/352/352
f 352/352/352 378/378/378 379/379/379
f 352/352/352 379/379/379 353/353/353
f 353/353/353 379/379/379 380/380/380
f 353/353/353 380/380/380 354/354/354
f 354/354/354 380/380/380 381/381/381
f 354/354/354 381/381/381 355/355/355
f 355/355/355 381/381/381 382/382/382
f 355/355/355 382/382/382 356/356/356
f 356/356/356 382/382/382 383/383/383
f 356/356/356 383/383/383 357/357/357
f 357/357/357 383/383/383 384/384/384
f 357/357/357 384/384/384 358/358/358
f 358/358/358 384/384/384 385/385/385
f 358/358/358 385/385/385 359/359/359
f 359/359/359 385/385/385 386/386/386
f 359/359/359 386/386/386 360/360/360
f 360/360/360 386/386/386 387/387/387
f 360/360/360 387/387/387 361/361/361
f 361/361/361 387/387/387 388/388/388
f 361/361/361 388/388/388 362/362/362
f 362/362/362 388/388/388 389/389/389
f 362/362/362 389/389/389 363/363/363
f 363/363/363 389/389/389 390/390/390
f 363/363/363 390/390/390 364/364/364
f 365/365/365 391/391/391 392/392/392
f 365/365/365 392/392/392 366/366/366
f 366/366/366 392/392/392 393/393/393
f 366/366/366 393/393/393 367/367/367
f 367/367/367 393/393/393 394/394/394
f 367/367/367 394/394/394 368/368/368
f 368/368/368 394/394/394 395/395/395
f 368/368/368 395/395/395 369/369/369
f 369/369/369 395/395/395 396/396/396
f 369/369/369 396/396/396 370/370/370
f 370/370/370 396/396/396 397/397/397
f 370/370/370 397/397/397 371/371/371
f 371/371/371 397/397/397 398/398/398
f 371/371/371 398/398/398 372/372/372
f 372/372/372 398/398/398 399/399/399
f 372/372/372 399/399/399 373/373/373
f 373/373/373 399/399/399 400/400/400
f 373/373/373 400/400/400 374/374/374
f 374/374/374 400/400/400 401/401/401
f 374/374/374 401/401/401 375/375/375
f 375/375/375 401/401/401 402/402/402
f 375/375/375 402/402/402 376/376/376
f 376/376/376 402/402/402 403/403/403
f 376/376/376 403/403/403 377/377/377
f 377/377/377 403/403/403 404/404/404
f 377/377/377 404/404/404 378/378/378
f 378/378/378 404/404/404 405/405/405
f 378/378/378 405/405/405 379/379/379
f 379/379/379 405/405/405 406/406/406
f 379/379/379 406/406/406 380/380/380
f 380/380/380 406/406/406 407/407/407
f 380/380/380 407/407/407 381/381/381
f 381/381/381 407/407/407 408/408/408
f 381/381/381 408/408/408 382/382/382
f 382/382/382 408/408/408 409/409/409
f 382/382/382 409/409/409 383/383/383
f 383/383/383 409/409/409 410/410/410
f 383/383/383 410/410/410 384/384/384
f 384/384/384 410/410/410 411/411/411
f 384/384/384 411/411/411 385/385/385
f 385/385/385 411/411/411 412/412/412
f 385/385/385 412/412/412 386/386/386
f 386/386/386 412/412/412 413/413/413
f 386/386/386 413/413/413 387/387/387
f 387/387/387 413/413/413 414/414/414
f 387/387/387 414/414/414 388/388/388
f 388/388/388 414/414/414 415/415/415
f 388/388/388 415/415/415 389/389/389
f 389/389/389 415/415/415 416/416/416
f 389/389/389 416/416/416 390/390/390
f 391/391/391 417/417/417 418/418/418
f 391/391/391 418/418/418 392/392/392
f 392/392/392 418/418/418 419/419/419
f 392/392/392 419/419/419 393/393/393
f 393/393/393 419/419/419 420/420/420
f 393/393/393 420/420/420 394/394/394
f 394/394/394 420/420/420 421/421/421
f 394/394/394 421/421/421 395/395/395
f 395/395/395 421/421/421 422/422/422
f 395/395/395 422/422/422 396/396/396
f 396/396/396 422/422/422 423/423/423
f 396/396/396 423/423/423 397/397/397
f 397/397/397 423/423/423 424/424/424
f 397/397/397 424/424/424 398/398/398
f 398/398/398 424/424/424 425/425/425
f 398/398/398 425/425/425 399/399/399
f 399/399/399 425/425/425 426/426/426
f 399/399/399 426/426/426 400/400/400
f 400/400/400 426/426/426 427/427/427
f 400/400/400 427/427/427 401/401/401
f 401/401/401 427/427/427 428/428/428
f 401/401/401 428/428/428 402/402/402
f 402/402/402 428/428/428 429/429/429
f 402/402/402 429/429/429 403/403/403
f 403/403/403 429/429/429 430/430/430
f 403/403/403 430/430/430 404/404/404
f 404/404/404 430/430/430 431/431/431
f 404/404/404 431/431/431 405/405/405
f 405/405/405 431/431/431 432/432/432
f 405/405/405 432/432/432 406/406/406
f 406/406/406 432/432/432 433/433/433
f 406/406/406 433/433/433 407/407/407
f 407/407/407 433/433/433 434/434/434
f 407/407/407 434/434/434 408/408/408
f 408/408/408 434/434/434 435/435/435
f 408/408/408 435/435/435 409/409/409
f 409/409/409 435/435/435 436/436/436
f 409/409/409 436/436/436 410/410/410
f 410/410/410 436/436/436 437/437/437
f 410/410/410 437/437/437 411/411/411
f 411/411/411 437/437/437 438/438/438
f 411/411/411 438/438/438 412/412/412
f 412/412/412 438/438/438 439/439/439
f 412/412/412 439/439/439 413/413/413
f 413/413/413 439/439/439 440/440/440
f 413/413/413 440/440/440 414/414/414
f 414/414/414 440/440/440 441/441/441
f 414/414/414 441/441/441 415/415/415
f 415/415/415 441/441/441 442/442/442
f 415/415/415 442/442/442 416/416/416
f 417/417/417 443/443/443 444/444/444
f 417/417/417 444/444/444 418/418/418
f 418/418/418 444/444/444 445/445/445
f 418/418/418 445/445/445 419/419/419
f 419/419/419 445/445/445 446/446/446
f 419/419/419 446/446/446 420/420/420
f 420/420/420 446/446/446 447/447/447
f 420/420/420 447/447/447 421/421/421
f 421/421/421 447/447/447 448/448/448
f 421/421/421 448/448/448 422/422/422
f 422/422/422 448/448/448 449/449/449
f 422/422/422 449/449/449 423/423/423
f 423/423/423 449/449/449 450/450/450
f 423/423/423 450/450/450 424/424/424
f 424/424/424 450/450/450 451/451/451
f 424/424/424 451/451/451 425/425/425
f 425/425/425 451/451/451 452/452/452
f 425/425/425 452/452/452 426/426/426
f 426/426/426 452/452/452 453/453/453
f 426/426/426 453/453/453 427/427/427
f 427/427/427 453/453/453 454/454/454
f 427/427/427 454/454/454 428/428/428
f 428/428/428 454/454/454 455/455/455
f 428/428/428 455/455/455 429/429/429
f 429/429/429 455/455/455 456/456/456
f 429/429/429 456/456/456 430/430/430
f 430/430/430 456/456/456 457/457/457
f 430/430/430 457/457/457 431/431/431
f 431/431/431 457/457/457 458/458/458
f 431/431/431 458/458/458 432/432/432
f 432/432/432 458/458/458 459/459/459
f 432/432/432 459/459/459 433/433/433
f 433/433/433 459/459/459 460/460/460
f 433/433/433 460/460/460 434/434/434
f 434/434/434 460/460/460 461/461/461
f 434/434/434 461/461/461 435/435/435
f 435/435/435 461/461/461 462/462/462
f 435/435/435 462/462/462 436/436/436
f 436/436/436 462/462/462 463/463/463
f 436/436/436 463/463/463 437/437/437
f 437/437/437 463/463/463 464/464/464
f 437/437/437 464/464/464 438/438/438
f 438/438/438 464/464/464 465/465/465
f 438/438/438 465/465/465 439/439/439
f 439/439/439 465/465/465 466/466/466
f 439/439/439 466/466/466 440/440/440
f 440/440/440 466/466/466 467/467/467
f 440/440/440 467/467/467 441/441/441
f 441/441/441 467/467/467 468/468/468
f 441/441/441 468/468/468 442/442/442
f 443/443/443 469/469/469 470/470/470
f 443/443/443 470/470/470 444/444/444
f 444/444/444 470/470/470 471/471/471
f 444/444/444 471/471/471 445/445/445
f 445/445/445 471/471/471 472/472/472
f 445/445/445 472/472/472 446/446/446
f 446/446/446 472/472/472 473/473/473
f 446/446/446 473/473/473 447/447/447
f 447/447/447 473/473/473 474/474/474
f 447/447/447 474/474/474 448/448/448
f 448/448/448 474/474/474 475/475/475
f 448/448/448 475/475/475 449/449/449
f 449/449/449 475/475/475 476/476/476
f 449/449/449 476/476/476 450/450/450
f 450/450/450 476/476/476 477/477/477
f 450/450/450 477/477/477 451/451/451
f 451/451/451 477/477/477 478/478/478
f 451/451/451 478/478/478 452/452/452
f 452/452/452 478/478/478 479/479/479
f 452/452/452 479/479/479 453/453/453
f 453/453/453 479/479/479 480/480/480
f 453/453/453 480/480/480 454/454/454
f 454/454/454 480/480/480 481/481/481
f 454/454/454 481/481/481 455/455/455
f 455/455/455 481/481/481 482/482/482
f 455/455/455 482/482/482 456/456/456
f 456/456/456 482/482/482 483/483/483
f 456/456/456 483/483/483 457/457/457
f 457/457/457 483/483/483 484/484/484
f 457/457/457 484/484/484 458/458/458
f 458/458/458 484/484/484 485/485/485
f 458/458/458 485/485/485 459/459/459
f 459/459/459 485/485/485 486/486/486
f 459/459/459 486/486/486 460/460/460
f 460/460/460 486/486/486 487/487/487
f 460/460/460 487/487/487 461/461/461
f 461/461/461 487/487/487 488/488/488
f 461/461/461 488/488/488 462/462/462
f 462/462/462 488/488/488 489/489/489
f 462/462/462 489/489/489 463/463/463
f 463/463/463 489/489/489 490/490/490
f 463/463/463 490/490/490 464/464/464
f 464/464/464 490/490/490 491/491/491
f 464/464/464 491/491/491 465/465/465
f 465/465/465 491/491/491 492/492/492
f 465/465/465 492/492/492 466/466/466
f 466/466/466 492/492/492 493/493/493
f 466/466/466 493/493/493 467/467/467
f 467/467/467 493/493/493 494/494/494
f 467/467/467 494/494/494 468/468/468
f 469/469/469 495/495/495 496/496/496
f 469/469/469 496/496/496 470/470/470
f 470/470/470 496/496/496 497/497/497
f 470/470/470 497/497/497 471/471/471
f 471/471/471 497/497/497 498/498/498
f 471/471/471 498/498/498 472/472/472
f 472/472/472 498/498/498 499/499/499
f 472/472/472 499/499/499 473/473/473
f 473/473/473 499/499/499 500/500/500
f 473/473/473 500/500/500 474/474/474
f 474/474/474 500/500/500 501/501/501
f 474/474/474 501/501/501 475/475/475
f 475/475/475 501/501/501 502/502/502
f 475/475/475 502/502/502 476/476/476
f 476/476/476 502/502/502 503/503/503
f 476/476/476 503/503/503 477/477/477
f 477/477/477 503/503/503 504/504/504
f 477/477/477 504/504/504 478/478/478
f 478/478/478 504/504/504 505/505/505
f 478/478/478 505/505/505 479/479/479
f 479/479/479 505/505/505 506/506/506
f 479/479/479 506/506/506 480/480/480
f 480/480/480 506/506/506 507/507/507
f 480/480/480 507/507/507 481/481/481
f 481/481/481 507/507/507 508/508/508
f 481/481/481 508/508/508 482/482/482
f 482/482/482 508/508/508 509/509/509
f 482/482/482 509/509/509 483/483/483
f 483/483/483 509/509/509 510/510/510
f 483/483/483 510/510/510 484/484/484
f 484/484/484 510/510/510 511/511/511
f 484/484/484 511/511/511 485/485/485
f 485/485/485 511/511/511 512/512/512
f 485/485/485 512/512/512 486/486/486
f 486/486/486 512/512/512 513/513/513
f 486/486/486 513/513/513 487/487/487
f 487/487/487 513/513/513 514/514/514
f 487/487/487 514/514/514 488/488/488
f 488/488/488 514/514/514 515/515/515
f 488/488/488 515/515/515 489/489/489
f 489/489/489 515/515/515 516/516/516
f 489/489/489 516/516/516 490/490/490
f 490/490/490 516/516/516 517/517/517
f 490/490/490 517/517/517 491/491/491
f 491/491/491 517/517/517 518/518/518
f 491/491/491 518/518/518 492/492/492
f 492/492/492 518/518/518 519/519/519
f 492/492/492 519/519/519 493/493/493
f 493/493/493 519/519/519 520/520/520
f 493/493/493 520/520/520 494/494/494
f 495/495/495 521/521/521 522/522/522
f 495/495/495 522/522/522 496/496/496
f 496/496/496 522/522/522 523/523/523
f 496/496/496 523/523/523 497/497/497
f 497/497/497 523/523/523 524/524/524
f 497/497/497 524/524/524 498/498/498
f 498/498/498 524/524/524 525/525/525
f 498/498/498 525/525/525 499/499/499
f 499/499/499 525/525/525 526/526/526
f 499/499/499 526/526/526 500/500/500
f 500/500/500 526/526/526 527/527/527
f 500/500/500 527/527/527 501/501/501
f 501/501/501 527/527/527 528/528/528
f 501/501/501 528/528/528 502/502/502
f 502/502/502 528/528/528 529/529/529
f 502/502/502 529/529/529 503/503/503
f 503/503/503 529/529/529 530/530/530
f 503/503/503 530/530/530 504/504/504
f 504/504/504 530/530/530 531/531/531
f 504/504/504 531/531/531 505/505/505
f 505/505/505 531/531/531 532/532/532
f 505/505/505 532/532/532 506/506/506
f 506/506/506 532/532/532 533/533/533
f 506/506/506 533/533/533 507/507/507
f 507/507/507 533/533/533 534/534/534
f 507/507/507 534/534/534 508/508/508
f 508/508/508 534/534/534 535/535/535
f 508/508/508 535/535/535 509/509/509
f 509/509/509 535/535/535 536/536/536
f 509/509/509 536/536/536 510/510/510
f 510/510/510 536/536/536 537/537/537
f 510/510/510 537/537/537 511/511/511
f 511/511/511 537/537/537 538/538/538
f 511/511/511 538/538/538 512/512/512
f 512/512/512 538/538/538 539/539/539
f 512/512/512 539/539/539 513/513/513
f 513/513/513 539/539/539 540/540/540
f 513/513/513 540/540/540 514/514/514
f 514/514/514 540/540/540 541/541/541
f 514/514/514 541/541/541 515/515/515
f 515/515/515 541/541/541 542/542/542
f 515/515/515 542/542/542 516/516/516
f 516/516/516 542/542/542 543/543/543
f 516/516/516 543/543/543 517/517/517
f 517/517/517 543/543/543 544/544/544
f 517/517/517 544/544/544 518/518/518
f 518/518/518 544/544/544 545/545/545
f 518/518/518 545/545/545 519/519/519
f 519/519/519 545/545/545 546/546/546
f 519/519/519 546/546/546 520/520/520
f 521/521/521 547/547/547 548/548/548
f 521/521/521 548/548/548 522/522/522
f 522/522/522 548/548/548 549/549/549
f 522/522/522 549/549/549 523/523/523
f 523/523/523 549/549/549 550/550/550
f 523/523/523 550/550/550 524/524/524
f 524/524/524 550/550/550 551/551/551
f 524/524/524 551/551/551 525/525/525
f 525/525/525 551/551/551 552/552/552
f 525/525/525 552/552/552 526/526/526
f 526/526/526 552/552/552 553/553/553
f 526/526/526 553/553/553 527/527/527
f 527/527/527 553/553/553 554/554/554
f 527/527/527 554/554/554 528/528/528
f 528/528/528 554/554/554 555/555/555
f 528/528/528 555/555/555 529/529/529
f 529/529/529 555/555/555 556/556/556
f 529/529/529 556/556/556 530/530/530
f 530/530/530 556/556/556 557/557/557
f 530/530/530 557/557/557 531/531/531
f 531/531/531 557/557/557 558/558/558
f 531/531/531 558/558/558 532/532/532
f 532/532/532 558/558/558 559/559/559
f 532/532/532 559/559/559 533/533/533
f 533/533/533 559/559/559 560/560/560
f 533/533/533 560/560/560 534/534/534
f 534/534/534 560/560/560 561/561/561
f 534/534/534 561/561/561 535/535/535
f 535/535/535 561/561/561 562/562/562
f 535/535/535 562/562/562 536/536/536
f 536/536/536 562/562/562 563/563/563
f 536/536/536 563/563/563 537/537/537
f 537/537/537 563/563/563 564/564/564
f 537/537/537 564/564/564 538/538/538
f 538/538/538 564/564/564 565/565/565
f 538/538/538 565/565/565 539/539/539
f 539/539/539 565/565/565 566/566/566
f 539/539/539 566/566/566 540/540/540
f 540/540/540 566/566/566 567/567/567
f 540/540/540 567/567/567 541/541/541
f 541/541/541 567/567/567 568/568/568
f 541/541/541 568/568/568 542/542/542
f 542/542/542 568/568/568 569/569/569
f 542/542/542 569/569/569 543/543/543
f 543/543/543 569/569/569 570/570/570
f 543/543/543 570/570/570 544/544/544
f 544/544/544 570/570/570 571/571/571
f 544/544/544 571/571/571 545/545/545
f 545/545/545 571/571/571 572/572/572
f 545/545/545 572/572/572 546/546/546
f 547/547/547 573/573/573 574/574/574
f 547/547/547 574/574/574 548/548/548
f 548/548/548 574/574/574 575/575/575
f 548/548/548 575/575/575 549/549/549
f 549/549/549 575/575/575 576/576/576
f 549/549/549 576/576/576 550/550/550
f 550/550/550 576/576/576 577/577/577
f 550/550/550 577/577/577 551/551/551
f 551/551/551 577/577/577 578/578/578
f 551/551/551 578/578/578 552/552/552
f 552/552/552 578/578/578 579/579/579
f 552/552/552 579/579/579 553/553/553
f 553/553/553 579/579/579 580/580/580
f 553/553/553 580/580/580 554/554/554
f 554/554/554 580/580/580 581/581/581
f 554/554/554 581/581/581 555/555/555
f 555/555/555 581/581/581 582/582/582
f 555/555/555 582/582/582 556/556/556
f 556/556/556 582/582/582 583/583/583
f 556/556/556 583/583/583 557/557/557
f 557/557/557 583/583/583 584/584/584
f 557/557/557 584/584/584 558/558/558
f 558/558/558 584/584/584 585/585/585
f 558/558/558 585/585/585 559/559/559
f 559/559/559 585/585/585 586/586/586
f 559/559/559 586/586/586 560/560/560
f 560/560/560 586/586/586 587/587/587
f 560/560/560 587/587/587 561/561/561
f 561/561/561 587/587/587 588/588/588
f 561/561/561 588/588/588 562/562/562
f 562/562/562 588/588/588 589/589/589
f 562/562/562 589/589/589 563/563/563
f 563/563/563 589/589/589 590/590/590
f 563/563/563 590/590/590 564/564/564
f 564/564/564 590/590/590 591/591/591
f 564/564/564 591/591/591 565/565/565
f 565/565/565 591/591/591 592/592/592
f 565/565/565 592/592/592 566/566/566
f 566/566/566 592/592/592 593/593/593
f 566/566/566 593/593/593 567/567/567
f 567/567/567 593/593/593 594/594/594
f 567/567/567 594/594/594 568/568/568
f 568/568/568 594/594/594 595/595/595
f 568/568/568 595/595/595 569/569/569
f 569/569/569 595/595/595 596/596/596
f 569/569/569 596/596/596 570/570/570
f 570/570/570 596/596/596 597/597/597
f 570/570/570 597/597/597 571/571/571
f 571/571/571 597/597/597 598/598/598
f 571/571/571 598/598/598 572/572/572
f 573/573/573 599/599/599 600/600/600
f 573/573/573 600/600/600 574/574/574
f 574/574/574 600/600/600 601/601/601
f 574/574/574 601/601/601 575/575/575
f 575/575/575 601/601/601 602/602/602
f 575/575/575 602/602/602 576/576/576
f 576/576/576 602/602/602 603/603/603
f 576/576/576 603/603/603 577/577/577
f 577/577/577 603/603/603 604/604/604
f 577/577/577 604/604/604 578/578/578
f 578/578/578 604/604/604 605/605/605
f 578/578/578 605/605/605 579/579/579
f 579/579/579 605/605/605 606/606/606
f 579/579/579 606/606/606 580/580/580
f 580/580/580 606/606/606 607/607/607
f 580/580/580 607/607/607 581/581/581
f 581/581/581 607/607/607 608/608/608
f 581/581/581 608/608/608 582/582/582
f 582/582/582 608/608/608 609/609/609
f 582/582/582 609/609/609 583/583/583
f 583/583/583 609/609/609 610/610/610
f 583/583/583 610/610/610 584/584/584
f 584/584/584 610/610/610 611/611/611
f 584/584/584 611/611/611 585/585/585
f 585/585/585 611/611/611 612/612/612
f 585/585/585 612/612/612 586/586/586
f 586/586/586 612/612/612 613/613/613
f 586/586/586 613/613/613 587/587/587
f 587/587/587 613/613/613 614/614/614
f 587/587/587 614/614/614 588/588/588
f 588/588/588 614/614/614 615/615/615
f 588/588/588 615/615/615 589/589/589
f 589/589/589 615/615/615 616/616/616
f 589/589/589 616/616/616 590/590/590
f 590/590/590 616/616/616 617/617/617
f 590/590/590 617/617/617 591/591/591
f 591/591/591 617/617/617 618/618/618
f 591/591/591 618/618/618 592/592/592
f 592/592/592 618/618/618 619/619/619
f 592/592/592 619/619/619 593/593/593
f 593/593/593 619/619/619 620/620/620
f 593/593/593 620/620/620 594/594/594
f 594/594/594 620/620/620 621/621/621
f 594/594/594 621/621/621 595/595/595
f 595/595/595 621/621/621 622/622/622
f 595/595/595 622/622/622 596/596/596
f 596/596/596 622/622/622 623/623/623
f 596/596/596 623/623/623 597/597/597
f 597/597/597 623/623/623 624/624/624
f 597/597/597 624/624/624 598/598/598
f 599/599/599 625/625/625 626/626/626
f 599/599/599 626/626/626 600/600/600
f 600/600/600 626/626/626 627/627/627
f 600/600/600 627/627/627 601/601/601
f 601/601/601 627/627/627 628/628/628
f 601/601/601 628/628/628 602/602/602
f 602/602/602 628/628/628 629/629/629
f 602/602/602 629/629/629 603/603/603
f 603/603/603 629/629/629 630/630/630
f 603/603/603 630/630/630 604/604/604
f 604/604/604 630/630/630 631/631/631
f 604/604/604 631/631/631 605/605/605
f 605/605/605 631/631/631 632/632/632
f 605/605/605 632/632/632 606/606/606
f 606/606/606 632/632/632 633/633/633
f 606/606/606 633/633/633 607/607/607
f 607/607/607 633/633/633 634/634/634
f 607/607/607 634/634/634 608/608/608
f 608/608/608 634/634/634 635/635/635
f 608/608/608 635/635/635 609/609/609
f 609/609/609 635/635/635 636/636/636
f 609/609/609 636/636/636 610/610/610
f 610/610/610 636/636/636 637/637/637
f 610/610/610 637/637/637 611/611/611
f 611/611/611 637/637/637 638/638/638
f 611/611/611 638/638/638 612/612/612
f 612/612/612 638/638/638 639/639/639
f 612/612/612 639/639/639 613/613/613
f 613/613/613 639/639/639 640/640/640
f 613/613/613 640/640/640 614/614/614
f 614/614/614 640/640/640 641/641/641
f 614/614/614 641/641/641 615/615/615
f 615/615/615 641/641/641 642/642/642
f 615/615/615 642/642/642 616/616/616
f 616/616/616 642/642/642 643/643/643
f 616/616/616 643/643/643 617/617/617
f 617/617/617 643/643/643 644/644/644
f 617/617/617 644/644/644 618/618/618
f 618/618/618 644/644/644 645/645/645
f 618/618/618 645/645/645 619/619/619
f 619/619/619 645/645/645 646/646/646
f 619/619/619 646/646/646 620/620/620
f 620/620/620 646/646/646 647/647/647
f 620/620/620 647/647/647 621/621/621
f 621/621/621 647/647/647 648/648/648
f 621/621/621 648/648/648 622/622/622
f 622/622/622 648/648/648 649/649/649
f 622/622/622 649/649/649 623/623/623
f 623/623/623 649/649/649 650/650/650
f 623/623/623 650/650/650 624/624/624
f 625/625/625 651/651/651 652/652/652
f 625/625/625 652/652/652 626/626/626
f 626/626/626 652/652/652 653/653/653
f 626/626/626 653/653/653 627/627/627
f 627/627/627 653/653/653 654/654/654
f 627/627/627 654/654/654 628/628/628
f 628/628/628 654/654/654 655/655/655
f 628/628/628 655/655/655 629/629/629
f 629/629/629 655/655/655 656/656/656
f 629/629/629 656/656/656 630/630/630
f 630/630/630 656/656/656 657/657/657
f 630/630/630 657/657/657 631/631/631
f 631/631/631 657/657/657 658/658/658
f 631/631/631 658/658/658 632/632/632
f 632/632/632 658/658/658 659/659/659
f 632/632/632 659/659/659 633/633/633
f 633/633/633 659/659/659 660/660/660
f 633/633/633 660/660/660 634/634/634
f 634/634/634 660/660/660 661/661/661
f 634/634/634 661/661/661 635/635/635
f 635/635/635 661/661/661 662/662/662
f 635/635/635 662/662/662 636/636/636
f 636/636/636 662/662/662 663/663/663
f 636/636/636 663/663/663 637/637/637
f 637/637/637 663/663/663 664/664/664
f 637/637/637 664/664/664 638/638/638
f 638/638/638 664/664/664 665/665/665
f 638/638/638 665/665/665 639/639/639
f 639/639/639 665/665/665 666/666/666
f 639/639/639 666/666/666 640/640/640
f 640/640/640 666/666/666 667/667/667
f 640/640/640 667/667/667 641/641/641
f 641/641/641 667/667/667 668/668/668
f 641/641/641 668/668/668 642/642/642
f 642/642/642 668/668/668 669/669/669
f 642/642/642 669/669/669 643/643/643
f 643/643/643 669/669/669 670/670/670
f 643/643/643 670/670/670 644/644/644
f 644/644/644 670/670/670 671/671/671
f 644/644/644 671/671/671 645/645/645
f 645/645/645 671/671/671 672/672/672
f 645/645/645 672/672/672 646/646/646
f 646/646/646 672/672/672 673/673/673
f 646/646/646 673/673/673 647/647/647
f 647/647/647 673/673/673 674/674/674
f 647/647/647 674/674/674 648/648/648
f 648/648/648 674/674/674 675/675/675
f 648/648/648 675/675/675 649/649/649
f 649/649/649 675/675/675 676/676/676
f 649/649/649 676/676/676 650/650/650
